<svg width="336" height="336" viewBox="0 0 336 336" fill="none" xmlns="http://www.w3.org/2000/svg">
<g clip-path="url(#clip0_884_3234)">
<rect width="336" height="336" rx="40" fill="white"/>
<path fill-rule="evenodd" clip-rule="evenodd" d="M75.6859 217.001V167.539H78.4749L114.27 217.001H114.274L114.751 217.685L119.229 223.87C125.446 231.954 130.089 236.559 136.885 241.412C150.787 251.339 167.591 256.369 184.662 255.715L185.95 255.667C197.237 255.233 208.309 252.442 218.454 247.472L220.598 246.421C237.012 238.379 250.664 225.638 259.821 209.817L260.179 209.198C262.6 205.014 264.697 200.651 266.451 196.147L273.963 176.857L278.92 159.78L287.106 174.548C288.936 177.849 293.142 179.015 296.442 177.186C299.743 175.356 300.983 171.171 299.153 167.871L279.762 132.888L279.744 132.898L279.742 132.894L244.76 152.285C241.458 154.114 240.293 158.32 242.122 161.621C243.952 164.922 248.136 166.161 251.437 164.331L266.238 156.127L257.734 172.586L249.631 187.345C247.065 192.019 244.14 196.487 240.88 200.707L237.357 205.27C233.1 210.782 228.003 215.591 222.252 219.519C211.213 227.061 198.156 231.095 184.787 231.095H179.631C174.016 231.095 168.42 230.088 163.153 228.139C160.804 227.27 159.369 226.841 156.851 225.582L154.753 224.407C151.816 222.393 148.878 220.379 145.842 216.942H145.839L107.443 166.675C111.527 165.948 115.276 164.763 118.689 163.12C124.808 160.174 129.568 156.094 132.967 150.882C136.367 145.556 138.066 139.38 138.066 132.355C138.066 125.442 136.367 119.323 132.967 113.997C129.568 108.672 124.865 104.535 118.859 101.589C112.854 98.5298 105.885 97 97.9525 97H75.6859H69.3969H49V217.001H75.6859ZM94.723 147.822H75.6859V117.737H94.893C100.219 117.737 104.298 119.153 107.131 121.986C109.964 124.819 111.38 128.388 111.38 132.694C111.38 137.34 109.907 141.023 106.961 143.743C104.128 146.462 100.049 147.822 94.723 147.822Z" fill="black"/>
</g>
<defs>
<clipPath id="clip0_884_3234">
<rect width="336" height="336" rx="168" fill="white"/>
</clipPath>
</defs>
</svg>
