<svg width="748" height="182" viewBox="0 0 748 182" fill="none" xmlns="http://www.w3.org/2000/svg">
<mask id="path-1-outside-1_630_3047" maskUnits="userSpaceOnUse" x="15" y="31" width="722" height="121" fill="black">
<rect fill="white" x="15" y="31" width="722" height="121"/>
<path d="M19.6876 146V36.9091H42.7522V85.0092H44.1904L83.4482 36.9091H111.094L70.6109 85.755L111.573 146H83.9809L54.0981 101.149L42.7522 114.999V146H19.6876ZM217.202 91.4545C217.202 103.351 214.947 113.472 210.437 121.817C205.962 130.162 199.854 136.536 192.113 140.94C184.407 145.308 175.742 147.491 166.119 147.491C156.424 147.491 147.724 145.29 140.018 140.886C132.312 136.483 126.222 130.109 121.747 121.763C117.273 113.418 115.036 103.315 115.036 91.4545C115.036 79.5582 117.273 69.4375 121.747 61.0923C126.222 52.7472 132.312 46.3906 140.018 42.0227C147.724 37.6193 156.424 35.4176 166.119 35.4176C175.742 35.4176 184.407 37.6193 192.113 42.0227C199.854 46.3906 205.962 52.7472 210.437 61.0923C214.947 69.4375 217.202 79.5582 217.202 91.4545ZM193.818 91.4545C193.818 83.7486 192.663 77.25 190.355 71.9588C188.082 66.6676 184.869 62.6548 180.714 59.9205C176.559 57.1861 171.694 55.8189 166.119 55.8189C160.543 55.8189 155.678 57.1861 151.524 59.9205C147.369 62.6548 144.137 66.6676 141.829 71.9588C139.556 77.25 138.42 83.7486 138.42 91.4545C138.42 99.1605 139.556 105.659 141.829 110.95C144.137 116.241 147.369 120.254 151.524 122.989C155.678 125.723 160.543 127.09 166.119 127.09C171.694 127.09 176.559 125.723 180.714 122.989C184.869 120.254 188.082 116.241 190.355 110.95C192.663 105.659 193.818 99.1605 193.818 91.4545ZM325.534 36.9091V146H305.612L258.151 77.3388H257.352V146H234.287V36.9091H254.529L301.617 105.517H302.576V36.9091H325.534ZM340.435 55.9254V36.9091H430.03V55.9254H396.632V146H373.834V55.9254H340.435ZM450.258 146H425.543L463.202 36.9091H492.925L530.532 146H505.816L478.49 61.8381H477.638L450.258 146ZM448.714 103.12H507.094V121.124H448.714V103.12ZM543.662 146V36.9091H566.727V85.0092H568.165L607.423 36.9091H635.068L594.585 85.755L635.548 146H607.956L578.073 101.149L566.727 114.999V146H543.662ZM642.925 55.9254V36.9091H732.521V55.9254H699.122V146H676.324V55.9254H642.925Z"/>
</mask>
<path d="M19.6876 146H15.6876V150H19.6876V146ZM19.6876 36.9091V32.9091H15.6876V36.9091H19.6876ZM42.7522 36.9091H46.7522V32.9091H42.7522V36.9091ZM42.7522 85.0092H38.7522V89.0092H42.7522V85.0092ZM44.1904 85.0092V89.0092H46.0889L47.2893 87.5384L44.1904 85.0092ZM83.4482 36.9091V32.9091H81.5498L80.3494 34.3799L83.4482 36.9091ZM111.094 36.9091L114.174 39.4616L119.604 32.9091H111.094V36.9091ZM70.6109 85.755L67.5311 83.2025L65.6124 85.5176L67.3031 88.0041L70.6109 85.755ZM111.573 146V150H119.13L114.881 143.751L111.573 146ZM83.9809 146L80.6521 148.218L81.8395 150H83.9809V146ZM54.0981 101.149L57.4269 98.9313L54.4296 94.4326L51.0039 98.6143L54.0981 101.149ZM42.7522 114.999L39.658 112.464L38.7522 113.569V114.999H42.7522ZM42.7522 146V150H46.7522V146H42.7522ZM23.6876 146V36.9091H15.6876V146H23.6876ZM19.6876 40.9091H42.7522V32.9091H19.6876V40.9091ZM38.7522 36.9091V85.0092H46.7522V36.9091H38.7522ZM42.7522 89.0092H44.1904V81.0092H42.7522V89.0092ZM47.2893 87.5384L86.5471 39.4383L80.3494 34.3799L41.0915 82.48L47.2893 87.5384ZM83.4482 40.9091H111.094V32.9091H83.4482V40.9091ZM108.014 34.3566L67.5311 83.2025L73.6906 88.3074L114.174 39.4616L108.014 34.3566ZM67.3031 88.0041L108.265 148.249L114.881 143.751L73.9187 83.5059L67.3031 88.0041ZM111.573 142H83.9809V150H111.573V142ZM87.3097 143.782L57.4269 98.9313L50.7693 103.367L80.6521 148.218L87.3097 143.782ZM51.0039 98.6143L39.658 112.464L45.8465 117.533L57.1923 103.684L51.0039 98.6143ZM38.7522 114.999V146H46.7522V114.999H38.7522ZM42.7522 142H19.6876V150H42.7522V142ZM210.437 121.817L206.918 119.915L206.912 119.927L210.437 121.817ZM192.113 140.94L194.085 144.419L194.091 144.417L192.113 140.94ZM140.018 140.886L142.002 137.413L140.018 140.886ZM121.747 121.763L118.222 123.654L121.747 121.763ZM121.747 61.0923L125.272 62.9825V62.9825L121.747 61.0923ZM140.018 42.0227L141.99 45.5026L142.002 45.4957L140.018 42.0227ZM192.113 42.0227L190.128 45.4957L190.138 45.5011L190.147 45.5065L192.113 42.0227ZM210.437 61.0923L206.912 62.9825L206.918 62.9941L210.437 61.0923ZM190.355 71.9588L186.68 73.5375L186.684 73.5478L186.689 73.5582L190.355 71.9588ZM180.714 59.9205L178.515 63.2618L180.714 59.9205ZM151.524 59.9205L153.723 63.2618L151.524 59.9205ZM141.829 71.9588L138.163 70.3594L138.158 70.3698L138.154 70.3801L141.829 71.9588ZM141.829 110.95L138.154 112.529L138.158 112.539L138.163 112.55L141.829 110.95ZM151.524 122.989L153.723 119.647L151.524 122.989ZM180.714 122.989L178.515 119.647L180.714 122.989ZM190.355 110.95L186.689 109.351L186.684 109.361L186.68 109.372L190.355 110.95ZM213.202 91.4545C213.202 102.852 211.042 112.284 206.918 119.915L213.956 123.719C218.852 114.659 221.202 103.849 221.202 91.4545H213.202ZM206.912 119.927C202.77 127.652 197.18 133.456 190.135 137.463L194.091 144.417C202.529 139.617 209.155 132.672 213.962 123.707L206.912 119.927ZM190.141 137.46C183.087 141.458 175.112 143.491 166.119 143.491V151.491C176.372 151.491 185.727 149.157 194.085 144.419L190.141 137.46ZM166.119 143.491C157.054 143.491 149.049 141.44 142.002 137.413L138.033 144.359C146.399 149.139 155.794 151.491 166.119 151.491V143.491ZM142.002 137.413C134.992 133.408 129.417 127.603 125.272 119.873L118.222 123.654C123.026 132.614 129.631 139.558 138.033 144.359L142.002 137.413ZM125.272 119.873C121.179 112.238 119.036 102.819 119.036 91.4545H111.036C111.036 103.811 113.367 114.598 118.222 123.654L125.272 119.873ZM119.036 91.4545C119.036 80.052 121.18 70.616 125.272 62.9825L118.222 59.2022C113.366 68.259 111.036 79.0644 111.036 91.4545H119.036ZM125.272 62.9825C129.416 55.2553 134.987 49.4719 141.99 45.5026L138.045 38.5429C129.636 43.3093 123.028 50.2391 118.222 59.2022L125.272 62.9825ZM142.002 45.4957C149.049 41.469 157.054 39.4176 166.119 39.4176V31.4176C155.794 31.4176 146.399 33.7696 138.033 38.5498L142.002 45.4957ZM166.119 39.4176C175.107 39.4176 183.077 41.4665 190.128 45.4957L194.098 38.5498C185.737 33.7722 176.378 31.4176 166.119 31.4176V39.4176ZM190.147 45.5065C197.185 49.4771 202.771 55.26 206.912 62.9825L213.962 59.2022C209.154 50.2343 202.524 43.3041 194.079 38.539L190.147 45.5065ZM206.918 62.9941C211.042 70.6249 213.202 80.0566 213.202 91.4545H221.202C221.202 79.0599 218.852 68.2501 213.956 59.1906L206.918 62.9941ZM197.818 91.4545C197.818 83.3728 196.61 76.2937 194.022 70.3594L186.689 73.5582C188.717 78.2063 189.818 84.1244 189.818 91.4545H197.818ZM194.031 70.3801C191.499 64.4859 187.82 59.8086 182.913 56.5791L178.515 63.2618C181.917 65.501 184.666 68.8493 186.68 73.5375L194.031 70.3801ZM182.913 56.5791C178.028 53.3643 172.378 51.8189 166.119 51.8189V59.8189C171.01 59.8189 175.09 61.0079 178.515 63.2618L182.913 56.5791ZM166.119 51.8189C159.86 51.8189 154.209 53.3643 149.325 56.5791L153.723 63.2618C157.147 61.0079 161.227 59.8189 166.119 59.8189V51.8189ZM149.325 56.5791C144.423 59.8047 140.73 64.4744 138.163 70.3594L145.495 73.5582C147.544 68.8608 150.314 65.505 153.723 63.2618L149.325 56.5791ZM138.154 70.3801C135.607 76.3081 134.42 83.3794 134.42 91.4545H142.42C142.42 84.1178 143.505 78.1919 145.504 73.5375L138.154 70.3801ZM134.42 91.4545C134.42 99.5297 135.607 106.601 138.154 112.529L145.504 109.372C143.505 104.717 142.42 98.7913 142.42 91.4545H134.42ZM138.163 112.55C140.73 118.435 144.423 123.104 149.325 126.33L153.723 119.647C150.314 117.404 147.544 114.048 145.495 109.351L138.163 112.55ZM149.325 126.33C154.209 129.545 159.86 131.09 166.119 131.09V123.09C161.227 123.09 157.147 121.901 153.723 119.647L149.325 126.33ZM166.119 131.09C172.378 131.09 178.028 129.545 182.913 126.33L178.515 119.647C175.09 121.901 171.01 123.09 166.119 123.09V131.09ZM182.913 126.33C187.82 123.1 191.499 118.423 194.031 112.529L186.68 109.372C184.666 114.06 181.917 117.408 178.515 119.647L182.913 126.33ZM194.022 112.55C196.61 106.615 197.818 99.5363 197.818 91.4545H189.818C189.818 98.7847 188.717 104.703 186.689 109.351L194.022 112.55ZM325.534 36.9091H329.534V32.9091H325.534V36.9091ZM325.534 146V150H329.534V146H325.534ZM305.612 146L302.321 148.274L303.514 150H305.612V146ZM258.151 77.3388L261.441 75.0643L260.249 73.3388H258.151V77.3388ZM257.352 77.3388V73.3388H253.352V77.3388H257.352ZM257.352 146V150H261.352V146H257.352ZM234.287 146H230.287V150H234.287V146ZM234.287 36.9091V32.9091H230.287V36.9091H234.287ZM254.529 36.9091L257.827 34.6456L256.635 32.9091H254.529V36.9091ZM301.617 105.517L298.319 107.781L299.511 109.517H301.617V105.517ZM302.576 105.517V109.517H306.576V105.517H302.576ZM302.576 36.9091V32.9091H298.576V36.9091H302.576ZM321.534 36.9091V146H329.534V36.9091H321.534ZM325.534 142H305.612V150H325.534V142ZM308.902 143.726L261.441 75.0643L254.86 79.6132L302.321 148.274L308.902 143.726ZM258.151 73.3388H257.352V81.3388H258.151V73.3388ZM253.352 77.3388V146H261.352V77.3388H253.352ZM257.352 142H234.287V150H257.352V142ZM238.287 146V36.9091H230.287V146H238.287ZM234.287 40.9091H254.529V32.9091H234.287V40.9091ZM251.231 39.1726L298.319 107.781L304.915 103.254L257.827 34.6456L251.231 39.1726ZM301.617 109.517H302.576V101.517H301.617V109.517ZM306.576 105.517V36.9091H298.576V105.517H306.576ZM302.576 40.9091H325.534V32.9091H302.576V40.9091ZM340.435 55.9254H336.435V59.9254H340.435V55.9254ZM340.435 36.9091V32.9091H336.435V36.9091H340.435ZM430.03 36.9091H434.03V32.9091H430.03V36.9091ZM430.03 55.9254V59.9254H434.03V55.9254H430.03ZM396.632 55.9254V51.9254H392.632V55.9254H396.632ZM396.632 146V150H400.632V146H396.632ZM373.834 146H369.834V150H373.834V146ZM373.834 55.9254H377.834V51.9254H373.834V55.9254ZM344.435 55.9254V36.9091H336.435V55.9254H344.435ZM340.435 40.9091H430.03V32.9091H340.435V40.9091ZM426.03 36.9091V55.9254H434.03V36.9091H426.03ZM430.03 51.9254H396.632V59.9254H430.03V51.9254ZM392.632 55.9254V146H400.632V55.9254H392.632ZM396.632 142H373.834V150H396.632V142ZM377.834 146V55.9254H369.834V146H377.834ZM373.834 51.9254H340.435V59.9254H373.834V51.9254ZM450.258 146V150H453.164L454.062 147.237L450.258 146ZM425.543 146L421.761 144.695L419.93 150H425.543V146ZM463.202 36.9091V32.9091H460.352L459.421 35.6038L463.202 36.9091ZM492.925 36.9091L496.707 35.6055L495.777 32.9091H492.925V36.9091ZM530.532 146V150H536.142L534.313 144.696L530.532 146ZM505.816 146L502.011 147.235L502.909 150H505.816V146ZM478.49 61.8381L482.294 60.6028L481.397 57.8381H478.49V61.8381ZM477.638 61.8381V57.8381H474.733L473.834 60.6006L477.638 61.8381ZM448.714 103.12V99.12H444.714V103.12H448.714ZM507.094 103.12H511.094V99.12H507.094V103.12ZM507.094 121.124V125.124H511.094V121.124H507.094ZM448.714 121.124H444.714V125.124H448.714V121.124ZM450.258 142H425.543V150H450.258V142ZM429.324 147.305L466.983 38.2144L459.421 35.6038L421.761 144.695L429.324 147.305ZM463.202 40.9091H492.925V32.9091H463.202V40.9091ZM489.144 38.2127L526.75 147.304L534.313 144.696L496.707 35.6055L489.144 38.2127ZM530.532 142H505.816V150H530.532V142ZM509.62 144.765L482.294 60.6028L474.685 63.0733L502.011 147.235L509.62 144.765ZM478.49 57.8381H477.638V65.8381H478.49V57.8381ZM473.834 60.6006L446.455 144.763L454.062 147.237L481.441 63.0755L473.834 60.6006ZM448.714 107.12H507.094V99.12H448.714V107.12ZM503.094 103.12V121.124H511.094V103.12H503.094ZM507.094 117.124H448.714V125.124H507.094V117.124ZM452.714 121.124V103.12H444.714V121.124H452.714ZM543.662 146H539.662V150H543.662V146ZM543.662 36.9091V32.9091H539.662V36.9091H543.662ZM566.727 36.9091H570.727V32.9091H566.727V36.9091ZM566.727 85.0092H562.727V89.0092H566.727V85.0092ZM568.165 85.0092V89.0092H570.064L571.264 87.5384L568.165 85.0092ZM607.423 36.9091V32.9091H605.524L604.324 34.3799L607.423 36.9091ZM635.068 36.9091L638.148 39.4616L643.579 32.9091H635.068V36.9091ZM594.586 85.755L591.506 83.2025L589.587 85.5176L591.278 88.0041L594.586 85.755ZM635.548 146V150H643.105L638.856 143.751L635.548 146ZM607.956 146L604.627 148.218L605.814 150H607.956V146ZM578.073 101.149L581.402 98.9313L578.404 94.4326L574.978 98.6143L578.073 101.149ZM566.727 114.999L563.633 112.464L562.727 113.569V114.999H566.727ZM566.727 146V150H570.727V146H566.727ZM547.662 146V36.9091H539.662V146H547.662ZM543.662 40.9091H566.727V32.9091H543.662V40.9091ZM562.727 36.9091V85.0092H570.727V36.9091H562.727ZM566.727 89.0092H568.165V81.0092H566.727V89.0092ZM571.264 87.5384L610.522 39.4383L604.324 34.3799L565.066 82.48L571.264 87.5384ZM607.423 40.9091H635.068V32.9091H607.423V40.9091ZM631.989 34.3566L591.506 83.2025L597.665 88.3074L638.148 39.4616L631.989 34.3566ZM591.278 88.0041L632.24 148.249L638.856 143.751L597.893 83.5059L591.278 88.0041ZM635.548 142H607.956V150H635.548V142ZM611.284 143.782L581.402 98.9313L574.744 103.367L604.627 148.218L611.284 143.782ZM574.978 98.6143L563.633 112.464L569.821 117.533L581.167 103.684L574.978 98.6143ZM562.727 114.999V146H570.727V114.999H562.727ZM566.727 142H543.662V150H566.727V142ZM642.925 55.9254H638.925V59.9254H642.925V55.9254ZM642.925 36.9091V32.9091H638.925V36.9091H642.925ZM732.521 36.9091H736.521V32.9091H732.521V36.9091ZM732.521 55.9254V59.9254H736.521V55.9254H732.521ZM699.122 55.9254V51.9254H695.122V55.9254H699.122ZM699.122 146V150H703.122V146H699.122ZM676.324 146H672.324V150H676.324V146ZM676.324 55.9254H680.324V51.9254H676.324V55.9254ZM646.925 55.9254V36.9091H638.925V55.9254H646.925ZM642.925 40.9091H732.521V32.9091H642.925V40.9091ZM728.521 36.9091V55.9254H736.521V36.9091H728.521ZM732.521 51.9254H699.122V59.9254H732.521V51.9254ZM695.122 55.9254V146H703.122V55.9254H695.122ZM699.122 142H676.324V150H699.122V142ZM680.324 146V55.9254H672.324V146H680.324ZM676.324 51.9254H642.925V59.9254H676.324V51.9254Z" fill="#DCDCDC" fill-opacity="0.5" mask="url(#path-1-outside-1_630_3047)"/>
<path d="M23.5629 131V94.6364H38.1225C40.7977 94.6364 43.029 95.0329 44.8164 95.826C46.6038 96.6191 47.9473 97.7199 48.8469 99.1286C49.7466 100.525 50.1964 102.135 50.1964 103.958C50.1964 105.379 49.9123 106.627 49.3441 107.705C48.7759 108.77 47.9947 109.646 47.0004 110.332C46.0179 111.007 44.8933 111.487 43.6268 111.771V112.126C45.0117 112.185 46.3079 112.576 47.5153 113.298C48.7345 114.02 49.7229 115.032 50.4805 116.334C51.238 117.624 51.6168 119.163 51.6168 120.95C51.6168 122.88 51.1374 124.602 50.1786 126.117C49.2317 127.621 47.829 128.81 45.9705 129.686C44.1121 130.562 41.8216 131 39.0991 131H23.5629ZM31.2511 124.714H37.5188C39.6613 124.714 41.2238 124.306 42.2063 123.489C43.1888 122.661 43.68 121.56 43.68 120.187C43.68 119.181 43.4374 118.293 42.9521 117.523C42.4667 116.754 41.7743 116.15 40.8746 115.712C39.9869 115.274 38.9274 115.055 37.6964 115.055H31.2511V124.714ZM31.2511 109.853H36.9506C38.0041 109.853 38.9393 109.67 39.756 109.303C40.5846 108.924 41.2357 108.391 41.7092 107.705C42.1945 107.018 42.4371 106.195 42.4371 105.237C42.4371 103.923 41.9696 102.863 41.0344 102.058C40.1112 101.253 38.7972 100.851 37.0927 100.851H31.2511V109.853ZM64.2544 131.515C62.5144 131.515 60.9637 131.213 59.6025 130.609C58.2412 129.994 57.164 129.088 56.3709 127.893C55.5897 126.685 55.199 125.182 55.199 123.383C55.199 121.868 55.4772 120.595 56.0336 119.565C56.5899 118.536 57.3475 117.707 58.3063 117.08C59.2651 116.452 60.3541 115.979 61.5733 115.659C62.8044 115.339 64.0946 115.115 65.4441 114.984C67.0302 114.819 68.3087 114.665 69.2793 114.523C70.2499 114.369 70.9543 114.144 71.3922 113.848C71.8302 113.552 72.0492 113.114 72.0492 112.534V112.428C72.0492 111.303 71.6941 110.433 70.9838 109.817C70.2855 109.202 69.2911 108.894 68.0009 108.894C66.6396 108.894 65.5565 109.196 64.7516 109.8C63.9467 110.392 63.414 111.137 63.1536 112.037L56.1578 111.469C56.513 109.812 57.2114 108.379 58.253 107.172C59.2947 105.953 60.6382 105.018 62.2836 104.366C63.9408 103.704 65.8584 103.372 68.0364 103.372C69.5516 103.372 71.0016 103.55 72.3865 103.905C73.7833 104.26 75.0203 104.81 76.0975 105.556C77.1865 106.302 78.0447 107.261 78.6721 108.433C79.2994 109.593 79.6131 110.983 79.6131 112.605V131H72.4398V127.218H72.2267C71.7888 128.07 71.2028 128.822 70.4689 129.473C69.735 130.112 68.8532 130.615 67.8233 130.982C66.7935 131.337 65.6039 131.515 64.2544 131.515ZM66.4206 126.295C67.5333 126.295 68.5158 126.076 69.3681 125.638C70.2203 125.188 70.8891 124.584 71.3745 123.827C71.8598 123.069 72.1025 122.211 72.1025 121.252V118.358C71.8657 118.512 71.5402 118.654 71.1259 118.784C70.7234 118.902 70.2677 119.015 69.7587 119.121C69.2497 119.216 68.7407 119.305 68.2317 119.388C67.7227 119.459 67.2611 119.524 66.8468 119.583C65.959 119.713 65.1837 119.92 64.5208 120.205C63.8579 120.489 63.343 120.873 62.976 121.359C62.6091 121.832 62.4256 122.424 62.4256 123.134C62.4256 124.164 62.7985 124.951 63.5442 125.496C64.3018 126.028 65.2606 126.295 66.4206 126.295ZM102.971 119.388V103.727H110.535V131H103.273V126.046H102.988C102.373 127.644 101.349 128.929 99.9167 129.899C98.4963 130.87 96.7621 131.355 94.7143 131.355C92.8914 131.355 91.2875 130.941 89.9025 130.112C88.5176 129.284 87.4345 128.106 86.6532 126.579C85.8838 125.052 85.4932 123.223 85.4814 121.092V103.727H93.0453V119.743C93.0571 121.353 93.4892 122.625 94.3414 123.56C95.1937 124.496 96.336 124.963 97.7683 124.963C98.6797 124.963 99.532 124.756 100.325 124.342C101.118 123.915 101.757 123.288 102.243 122.46C102.74 121.631 102.983 120.607 102.971 119.388ZM129.014 131.533C126.208 131.533 123.794 130.964 121.77 129.828C119.757 128.68 118.207 127.058 117.118 124.963C116.029 122.856 115.484 120.364 115.484 117.488C115.484 114.683 116.029 112.22 117.118 110.102C118.207 107.983 119.739 106.331 121.716 105.148C123.705 103.964 126.037 103.372 128.712 103.372C130.511 103.372 132.186 103.662 133.737 104.242C135.299 104.81 136.661 105.669 137.821 106.817C138.993 107.965 139.904 109.409 140.555 111.149C141.206 112.877 141.532 114.902 141.532 117.222V119.299H118.502V114.612H134.412C134.412 113.522 134.175 112.558 133.701 111.717C133.228 110.877 132.571 110.22 131.73 109.746C130.902 109.261 129.937 109.018 128.836 109.018C127.688 109.018 126.67 109.285 125.782 109.817C124.906 110.338 124.22 111.043 123.723 111.93C123.225 112.806 122.971 113.783 122.959 114.86V119.317C122.959 120.666 123.208 121.832 123.705 122.815C124.214 123.797 124.93 124.555 125.853 125.087C126.777 125.62 127.872 125.886 129.138 125.886C129.979 125.886 130.748 125.768 131.446 125.531C132.145 125.295 132.743 124.939 133.24 124.466C133.737 123.992 134.116 123.412 134.376 122.726L141.372 123.188C141.017 124.868 140.289 126.336 139.188 127.591C138.099 128.834 136.69 129.804 134.962 130.503C133.246 131.189 131.263 131.533 129.014 131.533ZM158.182 131V94.6364H165.87V110.67H166.35L179.436 94.6364H188.651L175.156 110.918L188.811 131H179.613L169.652 116.05L165.87 120.666V131H158.182ZM202.833 131.533C200.075 131.533 197.69 130.947 195.678 129.775C193.677 128.591 192.132 126.946 191.043 124.839C189.954 122.72 189.41 120.264 189.41 117.47C189.41 114.653 189.954 112.191 191.043 110.084C192.132 107.965 193.677 106.32 195.678 105.148C197.69 103.964 200.075 103.372 202.833 103.372C205.591 103.372 207.97 103.964 209.971 105.148C211.983 106.32 213.534 107.965 214.623 110.084C215.712 112.191 216.256 114.653 216.256 117.47C216.256 120.264 215.712 122.72 214.623 124.839C213.534 126.946 211.983 128.591 209.971 129.775C207.97 130.947 205.591 131.533 202.833 131.533ZM202.869 125.673C204.123 125.673 205.171 125.318 206.011 124.608C206.852 123.886 207.485 122.903 207.911 121.661C208.349 120.418 208.568 119.003 208.568 117.417C208.568 115.831 208.349 114.416 207.911 113.173C207.485 111.93 206.852 110.948 206.011 110.226C205.171 109.504 204.123 109.143 202.869 109.143C201.602 109.143 200.537 109.504 199.673 110.226C198.82 110.948 198.175 111.93 197.737 113.173C197.311 114.416 197.098 115.831 197.098 117.417C197.098 119.003 197.311 120.418 197.737 121.661C198.175 122.903 198.82 123.886 199.673 124.608C200.537 125.318 201.602 125.673 202.869 125.673ZM228.739 115.233V131H221.175V103.727H228.384V108.539H228.703C229.307 106.953 230.319 105.698 231.739 104.775C233.16 103.84 234.882 103.372 236.906 103.372C238.8 103.372 240.451 103.786 241.86 104.615C243.269 105.444 244.364 106.627 245.145 108.166C245.926 109.693 246.317 111.516 246.317 113.635V131H238.753V114.984C238.765 113.315 238.339 112.013 237.474 111.078C236.61 110.131 235.421 109.658 233.906 109.658C232.888 109.658 231.988 109.877 231.207 110.315C230.437 110.753 229.834 111.392 229.396 112.232C228.969 113.061 228.75 114.061 228.739 115.233ZM266.785 103.727V109.409H250.361V103.727H266.785ZM254.089 97.1932H261.653V122.619C261.653 123.318 261.76 123.862 261.973 124.253C262.186 124.632 262.482 124.898 262.861 125.052C263.251 125.206 263.701 125.283 264.21 125.283C264.565 125.283 264.92 125.253 265.275 125.194C265.631 125.123 265.903 125.07 266.092 125.034L267.282 130.663C266.903 130.781 266.37 130.917 265.684 131.071C264.997 131.237 264.163 131.337 263.18 131.373C261.357 131.444 259.759 131.201 258.386 130.645C257.025 130.089 255.965 129.224 255.208 128.053C254.45 126.881 254.077 125.401 254.089 123.614V97.1932ZM279.489 131.515C277.749 131.515 276.198 131.213 274.837 130.609C273.476 129.994 272.398 129.088 271.605 127.893C270.824 126.685 270.433 125.182 270.433 123.383C270.433 121.868 270.712 120.595 271.268 119.565C271.824 118.536 272.582 117.707 273.541 117.08C274.499 116.452 275.588 115.979 276.808 115.659C278.039 115.339 279.329 115.115 280.678 114.984C282.265 114.819 283.543 114.665 284.514 114.523C285.484 114.369 286.189 114.144 286.627 113.848C287.065 113.552 287.284 113.114 287.284 112.534V112.428C287.284 111.303 286.928 110.433 286.218 109.817C285.52 109.202 284.526 108.894 283.235 108.894C281.874 108.894 280.791 109.196 279.986 109.8C279.181 110.392 278.648 111.137 278.388 112.037L271.392 111.469C271.747 109.812 272.446 108.379 273.487 107.172C274.529 105.953 275.873 105.018 277.518 104.366C279.175 103.704 281.093 103.372 283.271 103.372C284.786 103.372 286.236 103.55 287.621 103.905C289.018 104.26 290.255 104.81 291.332 105.556C292.421 106.302 293.279 107.261 293.906 108.433C294.534 109.593 294.847 110.983 294.847 112.605V131H287.674V127.218H287.461C287.023 128.07 286.437 128.822 285.703 129.473C284.969 130.112 284.088 130.615 283.058 130.982C282.028 131.337 280.838 131.515 279.489 131.515ZM281.655 126.295C282.768 126.295 283.75 126.076 284.602 125.638C285.455 125.188 286.124 124.584 286.609 123.827C287.094 123.069 287.337 122.211 287.337 121.252V118.358C287.1 118.512 286.775 118.654 286.36 118.784C285.958 118.902 285.502 119.015 284.993 119.121C284.484 119.216 283.975 119.305 283.466 119.388C282.957 119.459 282.495 119.524 282.081 119.583C281.193 119.713 280.418 119.92 279.755 120.205C279.092 120.489 278.577 120.873 278.21 121.359C277.843 121.832 277.66 122.424 277.66 123.134C277.66 124.164 278.033 124.951 278.779 125.496C279.536 126.028 280.495 126.295 281.655 126.295ZM307.569 123.152L307.587 114.079H308.688L317.424 103.727H326.106L314.37 117.435H312.577L307.569 123.152ZM300.716 131V94.6364H308.28V131H300.716ZM317.761 131L309.736 119.121L314.778 113.777L326.621 131H317.761ZM344.324 103.727V109.409H327.9V103.727H344.324ZM331.628 97.1932H339.192V122.619C339.192 123.318 339.299 123.862 339.512 124.253C339.725 124.632 340.021 124.898 340.4 125.052C340.79 125.206 341.24 125.283 341.749 125.283C342.104 125.283 342.459 125.253 342.814 125.194C343.17 125.123 343.442 125.07 343.631 125.034L344.821 130.663C344.442 130.781 343.909 130.917 343.223 131.071C342.536 131.237 341.702 131.337 340.719 131.373C338.896 131.444 337.298 131.201 335.925 130.645C334.564 130.089 333.505 129.224 332.747 128.053C331.989 126.881 331.617 125.401 331.628 123.614V97.1932ZM367.233 131H358.994L371.548 94.6364H381.455L393.991 131H385.752L376.643 102.946H376.359L367.233 131ZM366.718 116.707H386.178V122.708H366.718V116.707ZM415.715 119.388V103.727H423.279V131H416.017V126.046H415.733C415.117 127.644 414.093 128.929 412.661 129.899C411.24 130.87 409.506 131.355 407.458 131.355C405.636 131.355 404.032 130.941 402.647 130.112C401.262 129.284 400.179 128.106 399.397 126.579C398.628 125.052 398.237 123.223 398.225 121.092V103.727H405.789V119.743C405.801 121.353 406.233 122.625 407.086 123.56C407.938 124.496 409.08 124.963 410.512 124.963C411.424 124.963 412.276 124.756 413.069 124.342C413.862 123.915 414.502 123.288 414.987 122.46C415.484 121.631 415.727 120.607 415.715 119.388ZM443.995 103.727V109.409H427.163V103.727H443.995ZM431.016 131V101.756C431.016 99.7796 431.401 98.1401 432.17 96.8381C432.951 95.536 434.017 94.5594 435.366 93.9084C436.715 93.2573 438.248 92.9318 439.965 92.9318C441.125 92.9318 442.184 93.0206 443.143 93.1982C444.114 93.3757 444.836 93.5355 445.309 93.6776L443.96 99.3594C443.664 99.2647 443.297 99.1759 442.859 99.093C442.433 99.0102 441.995 98.9688 441.545 98.9688C440.432 98.9688 439.657 99.2292 439.219 99.75C438.781 100.259 438.562 100.975 438.562 101.898V131H431.016Z" fill="black"/>
</svg>
