<svg width="763" height="202" viewBox="0 0 763 202" fill="none" xmlns="http://www.w3.org/2000/svg">
<mask id="path-1-outside-1_533_5903" maskUnits="userSpaceOnUse" x="11" y="41" width="740" height="121" fill="black">
<rect fill="white" x="11" y="41" width="740" height="121"/>
<path d="M78.7501 78.2834C78.324 73.9865 76.4951 70.6484 73.2636 68.2692C70.032 65.8899 65.6464 64.7003 60.1066 64.7003C56.3424 64.7003 53.1642 65.233 50.5718 66.2983C47.9795 67.3281 45.9909 68.7663 44.6059 70.6129C43.2565 72.4595 42.5818 74.5547 42.5818 76.8984C42.5107 78.8516 42.9191 80.5561 43.8069 82.0121C44.7302 83.468 45.9909 84.7287 47.5889 85.794C49.1869 86.8239 51.0335 87.7294 53.1286 88.5107C55.2238 89.2564 57.461 89.8956 59.8403 90.4283L69.6414 92.772C74.3999 93.8374 78.7678 95.2578 82.7451 97.0334C86.7224 98.8089 90.167 100.993 93.0789 103.585C95.9909 106.178 98.2458 109.232 99.8438 112.747C101.477 116.263 102.312 120.293 102.347 124.839C102.312 131.515 100.607 137.303 97.2338 142.204C93.8957 147.069 89.0661 150.851 82.7451 153.55C76.4596 156.213 68.8779 157.545 60.0001 157.545C51.1933 157.545 43.5228 156.195 36.9887 153.496C30.4901 150.798 25.412 146.803 21.7544 141.511C18.1322 136.185 16.2323 129.597 16.0548 121.749H38.3737C38.6222 125.407 39.6698 128.461 41.5164 130.911C43.3985 133.326 45.9021 135.155 49.0271 136.398C52.1876 137.605 55.7565 138.209 59.7338 138.209C63.64 138.209 67.0313 137.641 69.9078 136.504C72.8197 135.368 75.0747 133.788 76.6727 131.763C78.2707 129.739 79.0697 127.413 79.0697 124.786C79.0697 122.335 78.3417 120.276 76.8857 118.607C75.4653 116.937 73.3701 115.517 70.6002 114.345C67.8659 113.173 64.51 112.108 60.5328 111.149L48.6542 108.166C39.4568 105.929 32.1947 102.431 26.868 97.6726C21.5413 92.9141 18.8957 86.5043 18.9312 78.4432C18.8957 71.8381 20.6535 66.0675 24.2046 61.1314C27.7913 56.1953 32.7096 52.3423 38.9596 49.5724C45.2096 46.8026 52.3119 45.4176 60.2664 45.4176C68.363 45.4176 75.4298 46.8026 81.4667 49.5724C87.5392 52.3423 92.2622 56.1953 95.6357 61.1314C99.0093 66.0675 100.749 71.7848 100.856 78.2834H78.7501ZM117.861 156V46.9091H191.37V65.9254H140.926V91.9197H187.588V110.936H140.926V136.984H191.583V156H117.861ZM209.707 156V46.9091H252.747C260.986 46.9091 268.017 48.3828 273.841 51.3303C279.7 54.2422 284.157 58.3793 287.211 63.7415C290.3 69.0682 291.845 75.3359 291.845 82.5447C291.845 89.7891 290.282 96.0213 287.157 101.241C284.032 106.426 279.505 110.403 273.574 113.173C267.679 115.943 260.542 117.328 252.161 117.328H223.343V98.7912H248.432C252.836 98.7912 256.493 98.1875 259.405 96.9801C262.317 95.7727 264.483 93.9616 265.904 91.5469C267.36 89.1321 268.088 86.1314 268.088 82.5447C268.088 78.9226 267.36 75.8686 265.904 73.3828C264.483 70.897 262.299 69.0149 259.352 67.7365C256.44 66.4226 252.765 65.7656 248.326 65.7656H232.772V156H209.707ZM268.62 106.355L295.733 156H270.272L243.745 106.355H268.62ZM324.924 46.9091L351.291 129.793H352.303L378.723 46.9091H404.292L366.685 156H336.962L299.302 46.9091H324.924ZM440.487 46.9091V156H417.422V46.9091H440.487ZM555.717 85.1016H532.386C531.959 82.0831 531.089 79.402 529.775 77.0582C528.462 74.679 526.775 72.6548 524.715 70.9858C522.655 69.3168 520.276 68.0383 517.577 67.1506C514.914 66.2628 512.02 65.8189 508.895 65.8189C503.248 65.8189 498.33 67.2216 494.14 70.027C489.949 72.7969 486.7 76.8452 484.392 82.1719C482.084 87.4631 480.93 93.8906 480.93 101.455C480.93 109.232 482.084 115.766 484.392 121.057C486.736 126.348 490.003 130.343 494.193 133.042C498.383 135.741 503.231 137.09 508.735 137.09C511.824 137.09 514.683 136.682 517.311 135.865C519.974 135.048 522.336 133.859 524.396 132.296C526.455 130.698 528.16 128.763 529.509 126.49C530.894 124.217 531.853 121.625 532.386 118.713L555.717 118.82C555.113 123.827 553.604 128.656 551.189 133.308C548.81 137.925 545.596 142.062 541.548 145.719C537.535 149.342 532.741 152.218 527.165 154.349C521.626 156.444 515.358 157.491 508.362 157.491C498.632 157.491 489.932 155.29 482.261 150.886C474.626 146.483 468.589 140.109 464.15 131.763C459.747 123.418 457.545 113.315 457.545 101.455C457.545 89.5582 459.783 79.4375 464.257 71.0923C468.731 62.7472 474.804 56.3906 482.474 52.0227C490.145 47.6193 498.774 45.4176 508.362 45.4176C514.683 45.4176 520.543 46.3054 525.94 48.081C531.373 49.8565 536.185 52.4489 540.376 55.8579C544.566 59.2315 547.975 63.3686 550.603 68.2692C553.266 73.1697 554.971 78.7805 555.717 85.1016ZM572.256 156V46.9091H645.764V65.9254H595.321V91.9197H641.983V110.936H595.321V136.984H645.978V156H572.256ZM723.281 78.2834C722.855 73.9865 721.026 70.6484 717.795 68.2692C714.563 65.8899 710.178 64.7003 704.638 64.7003C700.874 64.7003 697.695 65.233 695.103 66.2983C692.511 67.3281 690.522 68.7663 689.137 70.6129C687.788 72.4595 687.113 74.5547 687.113 76.8984C687.042 78.8516 687.45 80.5561 688.338 82.0121C689.261 83.468 690.522 84.7287 692.12 85.794C693.718 86.8239 695.565 87.7294 697.66 88.5107C699.755 89.2564 701.992 89.8956 704.372 90.4283L714.173 92.772C718.931 93.8374 723.299 95.2578 727.276 97.0334C731.254 98.8089 734.698 100.993 737.61 103.585C740.522 106.178 742.777 109.232 744.375 112.747C746.009 116.263 746.843 120.293 746.879 124.839C746.843 131.515 745.139 137.303 741.765 142.204C738.427 147.069 733.597 150.851 727.276 153.55C720.991 156.213 713.409 157.545 704.531 157.545C695.725 157.545 688.054 156.195 681.52 153.496C675.021 150.798 669.943 146.803 666.286 141.511C662.663 136.185 660.764 129.597 660.586 121.749H682.905C683.153 125.407 684.201 128.461 686.048 130.911C687.93 133.326 690.433 135.155 693.558 136.398C696.719 137.605 700.288 138.209 704.265 138.209C708.171 138.209 711.563 137.641 714.439 136.504C717.351 135.368 719.606 133.788 721.204 131.763C722.802 129.739 723.601 127.413 723.601 124.786C723.601 122.335 722.873 120.276 721.417 118.607C719.997 116.937 717.901 115.517 715.131 114.345C712.397 113.173 709.041 112.108 705.064 111.149L693.185 108.166C683.988 105.929 676.726 102.431 671.399 97.6726C666.073 92.9141 663.427 86.5043 663.462 78.4432C663.427 71.8381 665.185 66.0675 668.736 61.1314C672.323 56.1953 677.241 52.3423 683.491 49.5724C689.741 46.8026 696.843 45.4176 704.798 45.4176C712.894 45.4176 719.961 46.8026 725.998 49.5724C732.07 52.3423 736.793 56.1953 740.167 61.1314C743.541 66.0675 745.281 71.7848 745.387 78.2834H723.281Z"/>
</mask>
<path d="M78.7501 78.2834L74.7696 78.6781L75.1272 82.2834H78.7501V78.2834ZM50.5718 66.2983L52.0486 70.0157L52.0705 70.007L52.0923 69.9981L50.5718 66.2983ZM44.6059 70.6129L41.4059 68.2129L41.391 68.2328L41.3763 68.2529L44.6059 70.6129ZM42.5818 76.8984L46.5791 77.0438L46.5818 76.9711V76.8984H42.5818ZM43.8069 82.0121L40.3917 84.0945L40.41 84.1245L40.4289 84.1542L43.8069 82.0121ZM47.5889 85.794L45.3701 89.1222L45.3959 89.1395L45.4221 89.1563L47.5889 85.794ZM53.1286 88.5107L51.7311 92.2586L51.7591 92.269L51.7873 92.2791L53.1286 88.5107ZM59.8403 90.4283L60.7706 86.5379L60.7424 86.5312L60.7142 86.5249L59.8403 90.4283ZM69.6414 92.772L68.7111 96.6623L68.7393 96.6691L68.7675 96.6754L69.6414 92.772ZM82.7451 97.0334L81.1145 100.686H81.1145L82.7451 97.0334ZM93.0789 103.585L95.7386 100.598H95.7386L93.0789 103.585ZM99.8438 112.747L96.2024 114.402L96.2093 114.418L96.2163 114.433L99.8438 112.747ZM102.347 124.839L106.347 124.86L106.347 124.834L106.347 124.808L102.347 124.839ZM97.2338 142.204L93.939 139.936L93.9355 139.941L97.2338 142.204ZM82.7451 153.55L84.3057 157.233L84.3158 157.228L82.7451 153.55ZM36.9887 153.496L35.4546 157.191L35.4617 157.193L36.9887 153.496ZM21.7544 141.511L18.4466 143.761L18.4553 143.773L18.464 143.786L21.7544 141.511ZM16.0548 121.749V117.749H11.9633L12.0558 121.84L16.0548 121.749ZM38.3737 121.749L42.3645 121.478L42.111 117.749H38.3737V121.749ZM41.5164 130.911L38.322 133.319L38.3415 133.345L38.3615 133.37L41.5164 130.911ZM49.0271 136.398L47.5488 140.115L47.5741 140.125L47.5996 140.134L49.0271 136.398ZM69.9078 136.504L68.4536 132.778L68.4458 132.781L68.438 132.784L69.9078 136.504ZM76.6727 131.763L79.8122 134.242H79.8122L76.6727 131.763ZM76.8857 118.607L73.8396 121.199L73.8554 121.218L73.8715 121.236L76.8857 118.607ZM70.6002 114.345L69.0246 118.022L69.0331 118.025L69.0417 118.029L70.6002 114.345ZM60.5328 111.149L59.5585 115.029L59.5769 115.033L59.5953 115.038L60.5328 111.149ZM48.6542 108.166L49.6284 104.287L49.614 104.283L49.5996 104.28L48.6542 108.166ZM26.868 97.6726L24.2031 100.656H24.2031L26.868 97.6726ZM18.9312 78.4432L22.9312 78.4608L22.9312 78.4412L22.9311 78.4217L18.9312 78.4432ZM24.2046 61.1314L20.9687 58.7801L20.9631 58.7877L20.9576 58.7954L24.2046 61.1314ZM81.4667 49.5724L79.7986 53.208L79.8067 53.2117L81.4667 49.5724ZM95.6357 61.1314L92.3333 63.3884L92.3334 63.3884L95.6357 61.1314ZM100.856 78.2834V82.2834H104.922L104.855 78.2178L100.856 78.2834ZM82.7306 77.8886C82.2022 72.5606 79.8542 68.1544 75.6352 65.0481L70.892 71.4903C73.136 73.1425 74.4457 75.4124 74.7696 78.6781L82.7306 77.8886ZM75.6352 65.0481C71.4984 62.0023 66.182 60.7003 60.1066 60.7003V68.7003C65.1108 68.7003 68.5657 69.7775 70.892 71.4903L75.6352 65.0481ZM60.1066 60.7003C55.9895 60.7003 52.2608 61.2796 49.0514 62.5985L52.0923 69.9981C54.0675 69.1863 56.6954 68.7003 60.1066 68.7003V60.7003ZM49.095 62.5809C45.9613 63.8258 43.3172 65.6646 41.4059 68.2129L47.8059 73.0129C48.6646 71.8681 49.9977 70.8304 52.0486 70.0157L49.095 62.5809ZM41.3763 68.2529C39.5132 70.8025 38.5818 73.7287 38.5818 76.8984H46.5818C46.5818 75.3806 46.9998 74.1165 47.8355 72.973L41.3763 68.2529ZM38.5844 76.7531C38.4892 79.3721 39.0384 81.8751 40.3917 84.0945L47.2221 79.9296C46.7998 79.2371 46.5323 78.331 46.5791 77.0438L38.5844 76.7531ZM40.4289 84.1542C41.6839 86.1334 43.3603 87.7824 45.3701 89.1222L49.8077 82.4658C48.6215 81.675 47.7765 80.8027 47.1849 79.8699L40.4289 84.1542ZM45.4221 89.1563C47.2998 90.3664 49.4122 91.3939 51.7311 92.2586L54.5262 84.7627C52.6547 84.0649 51.074 83.2813 49.7557 82.4317L45.4221 89.1563ZM51.7873 92.2791C54.0492 93.0841 56.4437 93.7668 58.9664 94.3316L60.7142 86.5249C58.4784 86.0243 56.3984 85.4286 54.4699 84.7422L51.7873 92.2791ZM58.91 94.3186L68.7111 96.6623L70.5717 88.8817L60.7706 86.5379L58.91 94.3186ZM68.7675 96.6754C73.2965 97.6893 77.4074 99.031 81.1145 100.686L84.3757 93.3808C80.1283 91.4847 75.5034 89.9854 70.5153 88.8686L68.7675 96.6754ZM81.1145 100.686C84.7601 102.313 87.8478 104.284 90.4192 106.573L95.7386 100.598C92.4862 97.7022 88.6847 95.3045 84.3757 93.3808L81.1145 100.686ZM90.4192 106.573C92.9187 108.798 94.8374 111.399 96.2024 114.402L103.485 111.092C101.654 107.064 99.063 103.557 95.7386 100.598L90.4192 106.573ZM96.2163 114.433C97.5709 117.348 98.3157 120.799 98.3475 124.87L106.347 124.808C106.308 119.788 105.384 115.178 103.471 111.062L96.2163 114.433ZM98.3474 124.818C98.3157 130.793 96.8029 135.775 93.939 139.936L100.529 144.472C104.412 138.831 106.308 132.237 106.347 124.86L98.3474 124.818ZM93.9355 139.941C91.0941 144.082 86.9143 147.42 81.1744 149.871L84.3158 157.228C91.218 154.281 96.6973 150.056 100.532 144.467L93.9355 139.941ZM81.1845 149.867C75.5169 152.268 68.4955 153.545 60.0001 153.545V161.545C69.2603 161.545 77.4023 160.158 84.3057 157.233L81.1845 149.867ZM60.0001 153.545C51.5927 153.545 44.4625 152.256 38.5158 149.799L35.4617 157.193C42.5831 160.135 50.7938 161.545 60.0001 161.545V153.545ZM38.5229 149.802C32.6646 147.369 28.2247 143.837 25.0447 139.237L18.464 143.786C22.5994 149.768 28.3157 154.226 35.4546 157.191L38.5229 149.802ZM25.0621 139.262C21.9602 134.701 20.2177 128.905 20.0538 121.659L12.0558 121.84C12.247 130.289 14.3042 137.669 18.4466 143.761L25.0621 139.262ZM16.0548 125.749H38.3737V117.749H16.0548V125.749ZM34.3829 122.021C34.6737 126.299 35.9239 130.137 38.322 133.319L44.7109 128.504C43.4158 126.785 42.5708 124.514 42.3645 121.478L34.3829 122.021ZM38.3615 133.37C40.723 136.4 43.83 138.635 47.5488 140.115L50.5054 132.681C47.9742 131.674 46.074 130.252 44.6713 128.452L38.3615 133.37ZM47.5996 140.134C51.2883 141.544 55.3526 142.209 59.7338 142.209V134.209C56.1604 134.209 53.0869 133.667 50.4545 132.661L47.5996 140.134ZM59.7338 142.209C64.0161 142.209 67.9279 141.587 71.3775 140.224L68.438 132.784C66.1348 133.694 63.2639 134.209 59.7338 134.209V142.209ZM71.3619 140.231C74.7962 138.89 77.6885 136.932 79.8122 134.242L73.5331 129.285C72.4608 130.643 70.8432 131.845 68.4536 132.778L71.3619 140.231ZM79.8122 134.242C81.9789 131.498 83.0697 128.294 83.0697 124.786H75.0697C75.0697 126.532 74.5625 127.981 73.5331 129.285L79.8122 134.242ZM83.0697 124.786C83.0697 121.479 82.0606 118.454 79.9 115.977L73.8715 121.236C74.6228 122.097 75.0697 123.192 75.0697 124.786H83.0697ZM79.9319 116.014C77.9857 113.727 75.3005 111.99 72.1588 110.661L69.0417 118.029C71.4398 119.044 72.9449 120.148 73.8396 121.199L79.9319 116.014ZM72.1759 110.669C69.1747 109.382 65.591 108.254 61.4702 107.261L59.5953 115.038C63.4291 115.962 66.557 116.964 69.0246 118.022L72.1759 110.669ZM61.507 107.27L49.6284 104.287L47.68 112.046L59.5585 115.029L61.507 107.27ZM49.5996 104.28C40.8409 102.149 34.2359 98.891 29.5328 94.6895L24.2031 100.656C30.1535 105.971 38.0726 109.709 47.7088 112.053L49.5996 104.28ZM29.5328 94.6895C25.1752 90.7967 22.9 85.5405 22.9312 78.4608L14.9312 78.4256C14.8914 87.468 17.9073 95.0314 24.2031 100.656L29.5328 94.6895ZM22.9311 78.4217C22.8998 72.5852 24.4375 67.657 27.4517 63.4674L20.9576 58.7954C16.8695 64.4779 14.8916 71.0909 14.9313 78.4647L22.9311 78.4217ZM27.4406 63.4827C30.565 59.1827 34.895 55.749 40.5803 53.2294L37.3389 45.9155C30.5242 48.9356 25.0175 53.2079 20.9687 58.7801L27.4406 63.4827ZM40.5803 53.2294C46.2432 50.7197 52.7796 49.4176 60.2664 49.4176V41.4176C51.8442 41.4176 44.176 42.8854 37.3389 45.9155L40.5803 53.2294ZM60.2664 49.4176C67.9107 49.4176 74.3867 50.7249 79.7986 53.208L83.1348 45.9369C76.4729 42.8802 68.8153 41.4176 60.2664 41.4176V49.4176ZM79.8067 53.2117C85.2952 55.7152 89.4176 59.1222 92.3333 63.3884L98.9381 58.8744C95.1068 53.2684 89.7831 48.9694 83.1267 45.9332L79.8067 53.2117ZM92.3334 63.3884C95.2265 67.6216 96.7616 72.5622 96.8564 78.3489L104.855 78.2178C104.737 71.0074 102.792 64.5133 98.9381 58.8744L92.3334 63.3884ZM100.856 74.2834H78.7501V82.2834H100.856V74.2834ZM117.861 156H113.861V160H117.861V156ZM117.861 46.9091V42.9091H113.861V46.9091H117.861ZM191.37 46.9091H195.37V42.9091H191.37V46.9091ZM191.37 65.9254V69.9254H195.37V65.9254H191.37ZM140.926 65.9254V61.9254H136.926V65.9254H140.926ZM140.926 91.9197H136.926V95.9197H140.926V91.9197ZM187.588 91.9197H191.588V87.9197H187.588V91.9197ZM187.588 110.936V114.936H191.588V110.936H187.588ZM140.926 110.936V106.936H136.926V110.936H140.926ZM140.926 136.984H136.926V140.984H140.926V136.984ZM191.583 136.984H195.583V132.984H191.583V136.984ZM191.583 156V160H195.583V156H191.583ZM121.861 156V46.9091H113.861V156H121.861ZM117.861 50.9091H191.37V42.9091H117.861V50.9091ZM187.37 46.9091V65.9254H195.37V46.9091H187.37ZM191.37 61.9254H140.926V69.9254H191.37V61.9254ZM136.926 65.9254V91.9197H144.926V65.9254H136.926ZM140.926 95.9197H187.588V87.9197H140.926V95.9197ZM183.588 91.9197V110.936H191.588V91.9197H183.588ZM187.588 106.936H140.926V114.936H187.588V106.936ZM136.926 110.936V136.984H144.926V110.936H136.926ZM140.926 140.984H191.583V132.984H140.926V140.984ZM187.583 136.984V156H195.583V136.984H187.583ZM191.583 152H117.861V160H191.583V152ZM209.707 156H205.707V160H209.707V156ZM209.707 46.9091V42.9091H205.707V46.9091H209.707ZM273.841 51.3303L272.034 54.8992L272.047 54.9058L272.06 54.9123L273.841 51.3303ZM287.211 63.7415L283.735 65.7211L283.743 65.7347L283.751 65.7484L287.211 63.7415ZM287.157 101.241L290.583 103.306L290.589 103.296L287.157 101.241ZM273.574 113.173L271.882 109.549L271.873 109.553L273.574 113.173ZM223.343 117.328H219.343V121.328H223.343V117.328ZM223.343 98.7912V94.7912H219.343V98.7912H223.343ZM259.405 96.9801L260.937 100.675V100.675L259.405 96.9801ZM265.904 91.5469L262.478 89.4815L262.467 89.5001L262.456 89.5188L265.904 91.5469ZM265.904 73.3828L262.431 75.3674L262.441 75.386L262.452 75.4044L265.904 73.3828ZM259.352 67.7365L257.707 71.3825L257.734 71.3946L257.76 71.4062L259.352 67.7365ZM232.772 65.7656V61.7656H228.772V65.7656H232.772ZM232.772 156V160H236.772V156H232.772ZM268.62 106.355L272.131 104.438L270.994 102.355H268.62V106.355ZM295.733 156V160H302.476L299.244 154.083L295.733 156ZM270.272 156L266.744 157.885L267.874 160H270.272V156ZM243.745 106.355V102.355H237.072L240.217 108.24L243.745 106.355ZM213.707 156V46.9091H205.707V156H213.707ZM209.707 50.9091H252.747V42.9091H209.707V50.9091ZM252.747 50.9091C260.518 50.9091 266.898 52.2996 272.034 54.8992L275.647 47.7613C269.136 44.466 261.453 42.9091 252.747 42.9091V50.9091ZM272.06 54.9123C277.253 57.4929 281.099 61.0922 283.735 65.7211L290.686 61.7619C287.215 55.6663 282.147 50.9915 275.621 47.7482L272.06 54.9123ZM283.751 65.7484C286.43 70.3683 287.845 75.9194 287.845 82.5447H295.845C295.845 74.7525 294.17 67.7681 290.671 61.7346L283.751 65.7484ZM287.845 82.5447C287.845 89.2044 286.413 94.6969 283.725 99.1869L290.589 103.296C294.152 97.3457 295.845 90.3738 295.845 82.5447H287.845ZM283.732 99.1766C281.05 103.625 277.154 107.087 271.882 109.549L275.267 116.797C281.856 113.72 287.015 109.227 290.583 103.306L283.732 99.1766ZM271.873 109.553C266.64 112.012 260.116 113.328 252.161 113.328V121.328C260.967 121.328 268.719 119.874 275.275 116.794L271.873 109.553ZM252.161 113.328H223.343V121.328H252.161V113.328ZM227.343 117.328V98.7912H219.343V117.328H227.343ZM223.343 102.791H248.432V94.7912H223.343V102.791ZM248.432 102.791C253.167 102.791 257.388 102.147 260.937 100.675L257.873 93.2851C255.599 94.2282 252.504 94.7912 248.432 94.7912V102.791ZM260.937 100.675C264.546 99.1786 267.436 96.8314 269.352 93.575L262.456 89.5188C261.531 91.0919 260.088 92.3668 257.873 93.2851L260.937 100.675ZM269.329 93.6123C271.251 90.4258 272.088 86.6641 272.088 82.5447H264.088C264.088 85.5987 263.469 87.8384 262.478 89.4815L269.329 93.6123ZM272.088 82.5447C272.088 78.3925 271.252 74.5992 269.355 71.3612L262.452 75.4044C263.468 77.138 264.088 79.4526 264.088 82.5447H272.088ZM269.377 71.3983C267.476 68.0716 264.582 65.645 260.944 64.0668L257.76 71.4062C260.017 72.3849 261.491 73.7225 262.431 75.3674L269.377 71.3983ZM260.997 64.0905C257.408 62.471 253.125 61.7656 248.326 61.7656V69.7656C252.404 69.7656 255.472 70.3742 257.707 71.3825L260.997 64.0905ZM248.326 61.7656H232.772V69.7656H248.326V61.7656ZM228.772 65.7656V156H236.772V65.7656H228.772ZM232.772 152H209.707V160H232.772V152ZM265.11 108.272L292.223 157.917L299.244 154.083L272.131 104.438L265.11 108.272ZM295.733 152H270.272V160H295.733V152ZM273.8 154.115L247.273 104.47L240.217 108.24L266.744 157.885L273.8 154.115ZM243.745 110.355H268.62V102.355H243.745V110.355ZM324.924 46.9091L328.736 45.6965L327.849 42.9091H324.924V46.9091ZM351.291 129.793L347.479 131.005L348.366 133.793H351.291V129.793ZM352.303 129.793V133.793H355.226L356.114 131.007L352.303 129.793ZM378.723 46.9091V42.9091H375.8L374.912 45.6943L378.723 46.9091ZM404.292 46.9091L408.073 48.2127L409.902 42.9091H404.292V46.9091ZM366.685 156V160H369.537L370.467 157.304L366.685 156ZM336.962 156L333.181 157.305L334.111 160H336.962V156ZM299.302 46.9091V42.9091H293.69L295.521 48.2144L299.302 46.9091ZM321.112 48.1217L347.479 131.005L355.103 128.58L328.736 45.6965L321.112 48.1217ZM351.291 133.793H352.303V125.793H351.291V133.793ZM356.114 131.007L382.535 48.1239L374.912 45.6943L348.492 128.578L356.114 131.007ZM378.723 50.9091H404.292V42.9091H378.723V50.9091ZM400.51 45.6055L362.904 154.696L370.467 157.304L408.073 48.2127L400.51 45.6055ZM366.685 152H336.962V160H366.685V152ZM340.743 154.695L303.083 45.6038L295.521 48.2144L333.181 157.305L340.743 154.695ZM299.302 50.9091H324.924V42.9091H299.302V50.9091ZM440.487 46.9091H444.487V42.9091H440.487V46.9091ZM440.487 156V160H444.487V156H440.487ZM417.422 156H413.422V160H417.422V156ZM417.422 46.9091V42.9091H413.422V46.9091H417.422ZM436.487 46.9091V156H444.487V46.9091H436.487ZM440.487 152H417.422V160H440.487V152ZM421.422 156V46.9091H413.422V156H421.422ZM417.422 50.9091H440.487V42.9091H417.422V50.9091ZM555.717 85.1016V89.1016H560.216L559.689 84.6329L555.717 85.1016ZM532.386 85.1016L528.425 85.6607L528.911 89.1016H532.386V85.1016ZM529.776 77.0582L526.274 78.9919L526.28 79.0031L526.286 79.0143L529.776 77.0582ZM524.715 70.9858L522.197 74.0935V74.0935L524.715 70.9858ZM517.577 67.1506L516.312 70.9453L516.32 70.9478L516.327 70.9503L517.577 67.1506ZM494.14 70.027L496.346 73.3639L496.355 73.3574L496.365 73.3508L494.14 70.027ZM484.392 82.1719L488.058 83.7713L488.062 83.7623L484.392 82.1719ZM484.392 121.057L480.726 122.656L480.73 122.667L480.735 122.677L484.392 121.057ZM494.193 133.042L492.027 136.405L494.193 133.042ZM517.311 135.865L516.138 132.041L516.131 132.043L516.124 132.045L517.311 135.865ZM524.396 132.296L526.813 135.483L526.83 135.47L526.847 135.457L524.396 132.296ZM529.509 126.49L526.093 124.409L526.081 124.428L526.07 124.448L529.509 126.49ZM532.386 118.713L532.404 114.713L529.054 114.698L528.451 117.993L532.386 118.713ZM555.717 118.82L559.688 119.298L560.225 114.84L555.735 114.82L555.717 118.82ZM551.189 133.308L547.639 131.465L547.633 131.476L551.189 133.308ZM541.547 145.719L544.228 148.689L544.229 148.687L541.547 145.719ZM527.165 154.349L528.58 158.09L528.593 158.085L527.165 154.349ZM482.261 150.886L480.263 154.351L480.27 154.355L482.261 150.886ZM464.15 131.763L460.613 133.63L460.619 133.642L464.15 131.763ZM464.257 71.0923L467.782 72.9825V72.9825L464.257 71.0923ZM482.474 52.0227L484.454 55.4987L484.466 55.4917L482.474 52.0227ZM525.94 48.081L524.69 51.8807L524.698 51.8831L525.94 48.081ZM540.376 55.8579L537.851 58.9608L537.859 58.9673L537.867 58.9737L540.376 55.8579ZM550.603 68.2692L547.078 70.1595L547.083 70.1694L547.088 70.1792L550.603 68.2692ZM555.717 81.1016H532.386V89.1016H555.717V81.1016ZM536.346 84.5424C535.86 81.0986 534.851 77.9325 533.265 75.1022L526.286 79.0143C527.328 80.8715 528.059 83.0676 528.425 85.6607L536.346 84.5424ZM533.277 75.1245C531.72 72.3059 529.704 69.8797 527.233 67.8781L522.197 74.0935C523.846 75.4299 525.203 77.052 526.274 78.9919L533.277 75.1245ZM527.233 67.8781C524.77 65.882 521.954 64.3794 518.827 63.3509L516.327 70.9503C518.598 71.6973 520.541 72.7516 522.197 74.0935L527.233 67.8781ZM518.842 63.3558C515.728 62.3176 512.402 61.8189 508.895 61.8189V69.8189C511.638 69.8189 514.1 70.2079 516.312 70.9453L518.842 63.3558ZM508.895 61.8189C502.554 61.8189 496.841 63.4052 491.915 66.7031L496.365 73.3508C499.82 71.038 503.943 69.8189 508.895 69.8189V61.8189ZM491.934 66.6901C487.001 69.9513 483.289 74.6564 480.722 80.5814L488.062 83.7623C490.111 79.0339 492.898 75.6425 496.346 73.3639L491.934 66.6901ZM480.726 80.5725C478.14 86.4986 476.93 93.5031 476.93 101.455H484.93C484.93 94.2782 486.027 88.4275 488.058 83.7713L480.726 80.5725ZM476.93 101.455C476.93 109.601 478.135 116.718 480.726 122.656L488.058 119.457C486.032 114.813 484.93 108.862 484.93 101.455H476.93ZM480.735 122.677C483.343 128.564 487.08 133.218 492.027 136.405L496.359 129.679C492.926 127.468 490.129 124.132 488.049 119.437L480.735 122.677ZM492.027 136.405C496.93 139.562 502.546 141.09 508.735 141.09V133.09C503.916 133.09 499.837 131.919 496.359 129.679L492.027 136.405ZM508.735 141.09C512.178 141.09 515.442 140.635 518.498 139.685L516.124 132.045C513.924 132.729 511.471 133.09 508.735 133.09V141.09ZM518.484 139.689C521.561 138.745 524.351 137.351 526.813 135.483L521.978 129.109C520.321 130.367 518.387 131.351 516.138 132.041L518.484 139.689ZM526.847 135.457C529.309 133.547 531.347 131.23 532.949 128.532L526.07 124.448C524.973 126.295 523.601 127.85 521.944 129.136L526.847 135.457ZM532.925 128.572C534.592 125.836 535.709 122.773 536.32 119.433L528.451 117.993C527.996 120.477 527.196 122.599 526.093 124.409L532.925 128.572ZM532.367 122.713L555.698 122.82L555.735 114.82L532.404 114.713L532.367 122.713ZM551.745 118.341C551.201 122.853 549.841 127.222 547.639 131.465L554.739 135.151C557.366 130.09 559.024 124.8 559.688 119.298L551.745 118.341ZM547.633 131.476C545.486 135.643 542.575 139.4 538.866 142.751L544.229 148.687C548.616 144.723 552.134 140.207 554.744 135.141L547.633 131.476ZM538.867 142.75C535.257 146.009 530.9 148.64 525.737 150.612L528.593 158.085C534.582 155.797 539.812 152.674 544.228 148.689L538.867 142.75ZM525.75 150.607C520.737 152.504 514.96 153.491 508.362 153.491V161.491C515.756 161.491 522.515 160.384 528.58 158.09L525.75 150.607ZM508.362 153.491C499.259 153.491 491.258 151.439 484.253 147.417L480.27 154.355C488.606 159.141 498.005 161.491 508.362 161.491V153.491ZM484.26 147.421C477.322 143.42 471.795 137.618 467.682 129.885L460.619 133.642C465.384 142.599 471.931 149.546 480.263 154.351L484.26 147.421ZM467.688 129.897C463.657 122.256 461.545 112.828 461.545 101.455H453.545C453.545 113.802 455.838 124.58 460.613 133.63L467.688 129.897ZM461.545 101.455C461.545 90.052 463.689 80.616 467.782 72.9825L460.732 69.2022C455.876 78.259 453.545 89.0644 453.545 101.455H461.545ZM467.782 72.9825C471.928 65.2505 477.485 59.4667 484.454 55.4987L480.495 48.5468C472.122 53.3145 465.535 60.2438 460.732 69.2022L467.782 72.9825ZM484.466 55.4917C491.48 51.4652 499.412 49.4176 508.362 49.4176V41.4176C498.136 41.4176 488.81 43.7734 480.483 48.5537L484.466 55.4917ZM508.362 49.4176C514.306 49.4176 519.739 50.2518 524.69 51.8807L527.19 44.2813C521.346 42.359 515.06 41.4176 508.362 41.4176V49.4176ZM524.698 51.8831C529.692 53.5151 534.063 55.8792 537.851 58.9608L542.9 52.7551C538.307 49.0186 533.055 46.1979 527.183 44.2788L524.698 51.8831ZM537.867 58.9737C541.626 61.9997 544.695 65.7151 547.078 70.1595L554.128 66.3789C551.256 61.0221 547.506 56.4634 542.884 52.7422L537.867 58.9737ZM547.088 70.1792C549.477 74.5743 551.05 79.6837 551.744 85.5702L559.689 84.6329C558.892 77.8774 557.055 71.7652 554.117 66.3591L547.088 70.1792ZM572.256 156H568.256V160H572.256V156ZM572.256 46.9091V42.9091H568.256V46.9091H572.256ZM645.764 46.9091H649.764V42.9091H645.764V46.9091ZM645.764 65.9254V69.9254H649.764V65.9254H645.764ZM595.321 65.9254V61.9254H591.321V65.9254H595.321ZM595.321 91.9197H591.321V95.9197H595.321V91.9197ZM641.983 91.9197H645.983V87.9197H641.983V91.9197ZM641.983 110.936V114.936H645.983V110.936H641.983ZM595.321 110.936V106.936H591.321V110.936H595.321ZM595.321 136.984H591.321V140.984H595.321V136.984ZM645.978 136.984H649.978V132.984H645.978V136.984ZM645.978 156V160H649.978V156H645.978ZM576.256 156V46.9091H568.256V156H576.256ZM572.256 50.9091H645.764V42.9091H572.256V50.9091ZM641.764 46.9091V65.9254H649.764V46.9091H641.764ZM645.764 61.9254H595.321V69.9254H645.764V61.9254ZM591.321 65.9254V91.9197H599.321V65.9254H591.321ZM595.321 95.9197H641.983V87.9197H595.321V95.9197ZM637.983 91.9197V110.936H645.983V91.9197H637.983ZM641.983 106.936H595.321V114.936H641.983V106.936ZM591.321 110.936V136.984H599.321V110.936H591.321ZM595.321 140.984H645.978V132.984H595.321V140.984ZM641.978 136.984V156H649.978V136.984H641.978ZM645.978 152H572.256V160H645.978V152ZM723.281 78.2834L719.301 78.6781L719.658 82.2834H723.281V78.2834ZM695.103 66.2983L696.58 70.0157L696.602 70.007L696.624 69.9981L695.103 66.2983ZM689.137 70.6129L685.937 68.2129L685.922 68.2328L685.908 68.2529L689.137 70.6129ZM687.113 76.8984L691.11 77.0438L691.113 76.9711V76.8984H687.113ZM688.338 82.0121L684.923 84.0945L684.941 84.1245L684.96 84.1542L688.338 82.0121ZM692.12 85.794L689.901 89.1222L689.927 89.1395L689.953 89.1563L692.12 85.794ZM697.66 88.5107L696.262 92.2586L696.29 92.269L696.319 92.2791L697.66 88.5107ZM704.372 90.4283L705.302 86.5379L705.274 86.5312L705.245 86.5249L704.372 90.4283ZM714.173 92.772L713.242 96.6623L713.271 96.6691L713.299 96.6754L714.173 92.772ZM727.276 97.0334L725.646 100.686L727.276 97.0334ZM737.61 103.585L740.27 100.598L737.61 103.585ZM744.375 112.747L740.734 114.402L740.741 114.418L740.748 114.433L744.375 112.747ZM746.879 124.839L750.879 124.86L750.879 124.834L750.879 124.808L746.879 124.839ZM741.765 142.204L738.47 139.936L738.467 139.941L741.765 142.204ZM727.276 153.55L728.837 157.233L728.847 157.228L727.276 153.55ZM681.52 153.496L679.986 157.191L679.993 157.193L681.52 153.496ZM666.286 141.511L662.978 143.761L662.987 143.773L662.995 143.786L666.286 141.511ZM660.586 121.749V117.749H656.495L656.587 121.84L660.586 121.749ZM682.905 121.749L686.896 121.478L686.642 117.749H682.905V121.749ZM686.048 130.911L682.853 133.319L682.873 133.345L682.893 133.37L686.048 130.911ZM693.558 136.398L692.08 140.115L692.105 140.125L692.131 140.134L693.558 136.398ZM714.439 136.504L712.985 132.778L712.977 132.781L712.969 132.784L714.439 136.504ZM721.204 131.763L724.343 134.242L721.204 131.763ZM721.417 118.607L718.371 121.199L718.387 121.218L718.403 121.236L721.417 118.607ZM715.131 114.345L713.556 118.022L713.564 118.025L713.573 118.029L715.131 114.345ZM705.064 111.149L704.09 115.029L704.108 115.033L704.127 115.038L705.064 111.149ZM693.185 108.166L694.16 104.287L694.145 104.283L694.131 104.28L693.185 108.166ZM671.399 97.6726L668.734 100.656L671.399 97.6726ZM663.462 78.4432L667.462 78.4608L667.463 78.4412L667.462 78.4217L663.462 78.4432ZM668.736 61.1314L665.5 58.7801L665.494 58.7877L665.489 58.7954L668.736 61.1314ZM725.998 49.5724L724.33 53.208L724.338 53.2117L725.998 49.5724ZM740.167 61.1314L736.865 63.3884V63.3884L740.167 61.1314ZM745.387 78.2834V82.2834H749.453L749.387 78.2178L745.387 78.2834ZM727.262 77.8886C726.733 72.5606 724.385 68.1544 720.166 65.0481L715.423 71.4903C717.667 73.1425 718.977 75.4124 719.301 78.6781L727.262 77.8886ZM720.166 65.0481C716.03 62.0023 710.713 60.7003 704.638 60.7003V68.7003C709.642 68.7003 713.097 69.7775 715.423 71.4903L720.166 65.0481ZM704.638 60.7003C700.521 60.7003 696.792 61.2796 693.583 62.5985L696.624 69.9981C698.599 69.1863 701.227 68.7003 704.638 68.7003V60.7003ZM693.626 62.5809C690.492 63.8258 687.848 65.6646 685.937 68.2129L692.337 73.0129C693.196 71.8681 694.529 70.8304 696.58 70.0157L693.626 62.5809ZM685.908 68.2529C684.044 70.8025 683.113 73.7287 683.113 76.8984H691.113C691.113 75.3806 691.531 74.1165 692.367 72.973L685.908 68.2529ZM683.116 76.7531C683.02 79.3721 683.57 81.8751 684.923 84.0945L691.753 79.9296C691.331 79.2371 691.064 78.331 691.11 77.0438L683.116 76.7531ZM684.96 84.1542C686.215 86.1334 687.891 87.7824 689.901 89.1222L694.339 82.4658C693.153 81.675 692.308 80.8027 691.716 79.8699L684.96 84.1542ZM689.953 89.1563C691.831 90.3664 693.943 91.3939 696.262 92.2586L699.057 84.7627C697.186 84.0649 695.605 83.2813 694.287 82.4317L689.953 89.1563ZM696.319 92.2791C698.58 93.0841 700.975 93.7668 703.498 94.3316L705.245 86.5249C703.01 86.0243 700.93 85.4286 699.001 84.7422L696.319 92.2791ZM703.441 94.3186L713.242 96.6623L715.103 88.8817L705.302 86.5379L703.441 94.3186ZM713.299 96.6754C717.828 97.6893 721.939 99.031 725.646 100.686L728.907 93.3808C724.66 91.4847 720.035 89.9854 715.047 88.8686L713.299 96.6754ZM725.646 100.686C729.291 102.313 732.379 104.284 734.95 106.573L740.27 100.598C737.017 97.7022 733.216 95.3045 728.907 93.3808L725.646 100.686ZM734.95 106.573C737.45 108.798 739.369 111.399 740.734 114.402L748.017 111.092C746.185 107.064 743.594 103.557 740.27 100.598L734.95 106.573ZM740.748 114.433C742.102 117.348 742.847 120.799 742.879 124.87L750.879 124.808C750.839 119.788 749.915 115.178 748.003 111.062L740.748 114.433ZM742.879 124.818C742.847 130.793 741.334 135.775 738.47 139.936L745.06 144.472C748.943 138.831 750.839 132.237 750.879 124.86L742.879 124.818ZM738.467 139.941C735.625 144.082 731.445 147.42 725.706 149.871L728.847 157.228C735.749 154.281 741.229 150.056 745.063 144.467L738.467 139.941ZM725.716 149.867C720.048 152.268 713.027 153.545 704.531 153.545V161.545C713.792 161.545 721.934 160.158 728.837 157.233L725.716 149.867ZM704.531 153.545C696.124 153.545 688.994 152.256 683.047 149.799L679.993 157.193C687.114 160.135 695.325 161.545 704.531 161.545V153.545ZM683.054 149.802C677.196 147.369 672.756 143.837 669.576 139.237L662.995 143.786C667.131 149.768 672.847 154.226 679.986 157.191L683.054 149.802ZM669.593 139.262C666.491 134.701 664.749 128.905 664.585 121.659L656.587 121.84C656.778 130.289 658.835 137.669 662.978 143.761L669.593 139.262ZM660.586 125.749H682.905V117.749H660.586V125.749ZM678.914 122.021C679.205 126.299 680.455 130.137 682.853 133.319L689.242 128.504C687.947 126.785 687.102 124.514 686.896 121.478L678.914 122.021ZM682.893 133.37C685.254 136.4 688.361 138.635 692.08 140.115L695.037 132.681C692.505 131.674 690.605 130.252 689.203 128.452L682.893 133.37ZM692.131 140.134C695.82 141.544 699.884 142.209 704.265 142.209V134.209C700.692 134.209 697.618 133.667 694.986 132.661L692.131 140.134ZM704.265 142.209C708.547 142.209 712.459 141.587 715.909 140.224L712.969 132.784C710.666 133.694 707.795 134.209 704.265 134.209V142.209ZM715.893 140.231C719.327 138.89 722.22 136.932 724.343 134.242L718.064 129.285C716.992 130.643 715.374 131.845 712.985 132.778L715.893 140.231ZM724.343 134.242C726.51 131.498 727.601 128.294 727.601 124.786H719.601C719.601 126.532 719.094 127.981 718.064 129.285L724.343 134.242ZM727.601 124.786C727.601 121.479 726.592 118.454 724.431 115.977L718.403 121.236C719.154 122.097 719.601 123.192 719.601 124.786H727.601ZM724.463 116.014C722.517 113.727 719.832 111.99 716.69 110.661L713.573 118.029C715.971 119.044 717.476 120.148 718.371 121.199L724.463 116.014ZM716.707 110.669C713.706 109.382 710.122 108.254 706.001 107.261L704.127 115.038C707.96 115.962 711.088 116.964 713.556 118.022L716.707 110.669ZM706.038 107.27L694.16 104.287L692.211 112.046L704.09 115.029L706.038 107.27ZM694.131 104.28C685.372 102.149 678.767 98.891 674.064 94.6895L668.734 100.656C674.685 105.971 682.604 109.709 692.24 112.053L694.131 104.28ZM674.064 94.6895C669.706 90.7967 667.431 85.5405 667.462 78.4608L659.462 78.4256C659.423 87.468 662.439 95.0314 668.734 100.656L674.064 94.6895ZM667.462 78.4217C667.431 72.5852 668.969 67.657 671.983 63.4674L665.489 58.7954C661.401 64.4779 659.423 71.0909 659.463 78.4647L667.462 78.4217ZM671.972 63.4827C675.096 59.1827 679.426 55.749 685.112 53.2294L681.87 45.9155C675.055 48.9356 669.549 53.2079 665.5 58.7801L671.972 63.4827ZM685.112 53.2294C690.774 50.7197 697.311 49.4176 704.798 49.4176V41.4176C696.375 41.4176 688.707 42.8854 681.87 45.9155L685.112 53.2294ZM704.798 49.4176C712.442 49.4176 718.918 50.7249 724.33 53.208L727.666 45.9369C721.004 42.8802 713.347 41.4176 704.798 41.4176V49.4176ZM724.338 53.2117C729.826 55.7152 733.949 59.1222 736.865 63.3884L743.469 58.8744C739.638 53.2684 734.314 48.9694 727.658 45.9332L724.338 53.2117ZM736.865 63.3884C739.758 67.6216 741.293 72.5622 741.388 78.3489L749.387 78.2178C749.268 71.0074 747.323 64.5133 743.469 58.8744L736.865 63.3884ZM745.387 74.2834H723.281V82.2834H745.387V74.2834Z" fill="#292929" mask="url(#path-1-outside-1_533_5903)"/>
<path d="M31.4357 141L21.0309 104.636H29.4293L35.4485 129.903H35.7504L42.391 104.636H49.582L56.2049 129.956H56.5245L62.5437 104.636H70.9421L60.5373 141H53.0444L46.1197 117.225H45.8356L38.9286 141H31.4357ZM79.7623 141.515C78.0222 141.515 76.4715 141.213 75.1103 140.609C73.749 139.994 72.6718 139.088 71.8787 137.893C71.0975 136.685 70.7069 135.182 70.7069 133.383C70.7069 131.868 70.985 130.595 71.5414 129.565C72.0977 128.536 72.8553 127.707 73.8141 127.08C74.7729 126.452 75.8619 125.979 77.0811 125.659C78.3122 125.339 79.6025 125.115 80.9519 124.984C82.5381 124.819 83.8165 124.665 84.7871 124.523C85.7578 124.369 86.4621 124.144 86.9 123.848C87.338 123.552 87.557 123.114 87.557 122.534V122.428C87.557 121.303 87.2019 120.433 86.4917 119.817C85.7933 119.202 84.7989 118.894 83.5087 118.894C82.1474 118.894 81.0643 119.196 80.2594 119.8C79.4545 120.392 78.9218 121.137 78.6614 122.037L71.6657 121.469C72.0208 119.812 72.7192 118.379 73.7608 117.172C74.8025 115.953 76.146 115.018 77.7914 114.366C79.4486 113.704 81.3662 113.372 83.5442 113.372C85.0594 113.372 86.5094 113.55 87.8944 113.905C89.2911 114.26 90.5281 114.81 91.6053 115.556C92.6943 116.302 93.5525 117.261 94.1799 118.433C94.8072 119.593 95.1209 120.983 95.1209 122.605V141H87.9476V137.218H87.7346C87.2966 138.07 86.7106 138.822 85.9767 139.473C85.2428 140.112 84.361 140.615 83.3311 140.982C82.3013 141.337 81.1117 141.515 79.7623 141.515ZM81.9284 136.295C83.0411 136.295 84.0236 136.076 84.8759 135.638C85.7282 135.188 86.397 134.584 86.8823 133.827C87.3676 133.069 87.6103 132.211 87.6103 131.252V128.358C87.3735 128.512 87.048 128.654 86.6337 128.784C86.2312 128.902 85.7755 129.015 85.2665 129.121C84.7575 129.216 84.2485 129.305 83.7395 129.388C83.2305 129.459 82.7689 129.524 82.3546 129.583C81.4668 129.713 80.6915 129.92 80.0286 130.205C79.3657 130.489 78.8508 130.873 78.4838 131.359C78.1169 131.832 77.9334 132.424 77.9334 133.134C77.9334 134.164 78.3063 134.951 79.052 135.496C79.8096 136.028 80.7684 136.295 81.9284 136.295ZM123.681 121.504L116.756 121.93C116.638 121.339 116.383 120.806 115.993 120.332C115.602 119.847 115.087 119.462 114.448 119.178C113.821 118.882 113.069 118.734 112.193 118.734C111.021 118.734 110.033 118.983 109.228 119.48C108.423 119.965 108.02 120.616 108.02 121.433C108.02 122.084 108.281 122.635 108.802 123.085C109.323 123.534 110.216 123.895 111.483 124.168L116.419 125.162C119.07 125.706 121.047 126.582 122.349 127.79C123.651 128.997 124.302 130.583 124.302 132.548C124.302 134.336 123.776 135.904 122.722 137.254C121.68 138.603 120.248 139.656 118.425 140.414C116.614 141.16 114.525 141.533 112.157 141.533C108.547 141.533 105.671 140.781 103.528 139.278C101.398 137.763 100.149 135.703 99.7818 133.099L107.221 132.708C107.446 133.809 107.991 134.649 108.855 135.229C109.719 135.798 110.826 136.082 112.175 136.082C113.501 136.082 114.566 135.827 115.371 135.318C116.188 134.797 116.602 134.129 116.614 133.312C116.602 132.625 116.312 132.063 115.744 131.625C115.176 131.175 114.3 130.832 113.116 130.595L108.393 129.654C105.73 129.121 103.747 128.198 102.445 126.884C101.155 125.57 100.51 123.895 100.51 121.859C100.51 120.107 100.983 118.598 101.93 117.332C102.889 116.065 104.233 115.089 105.961 114.402C107.701 113.715 109.737 113.372 112.069 113.372C115.513 113.372 118.224 114.1 120.201 115.556C122.189 117.012 123.349 118.995 123.681 121.504ZM148.965 141L138.56 104.636H146.959L152.978 129.903H153.28L159.92 104.636H167.111L173.734 129.956H174.054L180.073 104.636H188.471L178.067 141H170.574L163.649 117.225H163.365L156.458 141H148.965ZM192.444 141V113.727H200.008V141H192.444ZM196.244 110.212C195.119 110.212 194.155 109.839 193.35 109.093C192.557 108.335 192.16 107.43 192.16 106.376C192.16 105.335 192.557 104.441 193.35 103.695C194.155 102.938 195.119 102.559 196.244 102.559C197.368 102.559 198.327 102.938 199.12 103.695C199.925 104.441 200.328 105.335 200.328 106.376C200.328 107.43 199.925 108.335 199.12 109.093C198.327 109.839 197.368 110.212 196.244 110.212ZM206.067 141V113.727H213.4V118.486H213.684C214.182 116.793 215.016 115.515 216.188 114.651C217.36 113.775 218.709 113.337 220.236 113.337C220.615 113.337 221.023 113.36 221.461 113.408C221.899 113.455 222.284 113.52 222.616 113.603V120.315C222.26 120.208 221.769 120.113 221.142 120.031C220.515 119.948 219.94 119.906 219.42 119.906C218.307 119.906 217.313 120.149 216.437 120.634C215.573 121.108 214.886 121.771 214.377 122.623C213.88 123.475 213.631 124.458 213.631 125.57V141H206.067ZM252.765 113.727V119.409H235.932V113.727H252.765ZM239.785 141V111.756C239.785 109.78 240.17 108.14 240.939 106.838C241.721 105.536 242.786 104.559 244.135 103.908C245.485 103.257 247.018 102.932 248.734 102.932C249.894 102.932 250.954 103.021 251.912 103.198C252.883 103.376 253.605 103.536 254.079 103.678L252.729 109.359C252.433 109.265 252.066 109.176 251.628 109.093C251.202 109.01 250.764 108.969 250.314 108.969C249.202 108.969 248.426 109.229 247.988 109.75C247.55 110.259 247.331 110.975 247.331 111.898V141H239.785ZM274.875 129.388V113.727H282.439V141H275.177V136.046H274.893C274.277 137.644 273.253 138.929 271.821 139.899C270.401 140.87 268.666 141.355 266.619 141.355C264.796 141.355 263.192 140.941 261.807 140.112C260.422 139.284 259.339 138.106 258.558 136.579C257.788 135.052 257.397 133.223 257.386 131.092V113.727H264.95V129.743C264.961 131.353 265.393 132.625 266.246 133.56C267.098 134.496 268.24 134.963 269.673 134.963C270.584 134.963 271.436 134.756 272.229 134.342C273.022 133.915 273.662 133.288 274.147 132.46C274.644 131.631 274.887 130.607 274.875 129.388ZM264.541 109.999C263.523 109.999 262.647 109.643 261.913 108.933C261.179 108.211 260.812 107.359 260.812 106.376C260.812 105.37 261.179 104.518 261.913 103.82C262.647 103.121 263.523 102.772 264.541 102.772C265.571 102.772 266.441 103.121 267.151 103.82C267.873 104.518 268.234 105.37 268.234 106.376C268.234 107.359 267.873 108.211 267.151 108.933C266.441 109.643 265.571 109.999 264.541 109.999ZM275.408 109.999C274.39 109.999 273.514 109.643 272.78 108.933C272.046 108.211 271.679 107.359 271.679 106.376C271.679 105.37 272.046 104.518 272.78 103.82C273.514 103.121 274.39 102.772 275.408 102.772C276.438 102.772 277.308 103.121 278.018 103.82C278.74 104.518 279.101 105.37 279.101 106.376C279.101 107.359 278.74 108.211 278.018 108.933C277.308 109.643 276.438 109.999 275.408 109.999ZM288.489 141V113.727H295.822V118.486H296.106C296.604 116.793 297.438 115.515 298.61 114.651C299.782 113.775 301.131 113.337 302.658 113.337C303.037 113.337 303.445 113.36 303.883 113.408C304.321 113.455 304.706 113.52 305.037 113.603V120.315C304.682 120.208 304.191 120.113 303.564 120.031C302.936 119.948 302.362 119.906 301.841 119.906C300.729 119.906 299.734 120.149 298.858 120.634C297.994 121.108 297.308 121.771 296.799 122.623C296.302 123.475 296.053 124.458 296.053 125.57V141H288.489ZM333.553 141H320.662V104.636H333.66C337.317 104.636 340.466 105.364 343.106 106.82C345.745 108.264 347.775 110.342 349.196 113.053C350.628 115.763 351.344 119.007 351.344 122.783C351.344 126.571 350.628 129.826 349.196 132.548C347.775 135.271 345.733 137.36 343.07 138.816C340.419 140.272 337.246 141 333.553 141ZM328.351 134.413H333.233C335.506 134.413 337.418 134.01 338.969 133.205C340.531 132.388 341.703 131.128 342.484 129.423C343.277 127.707 343.674 125.493 343.674 122.783C343.674 120.096 343.277 117.9 342.484 116.195C341.703 114.491 340.537 113.236 338.986 112.431C337.436 111.626 335.524 111.224 333.251 111.224H328.351V134.413ZM356.897 141V113.727H364.461V141H356.897ZM360.697 110.212C359.573 110.212 358.608 109.839 357.803 109.093C357.01 108.335 356.613 107.43 356.613 106.376C356.613 105.335 357.01 104.441 357.803 103.695C358.608 102.938 359.573 102.559 360.697 102.559C361.822 102.559 362.78 102.938 363.574 103.695C364.378 104.441 364.781 105.335 364.781 106.376C364.781 107.43 364.378 108.335 363.574 109.093C362.78 109.839 361.822 110.212 360.697 110.212ZM382.843 141.533C380.049 141.533 377.646 140.941 375.634 139.757C373.634 138.562 372.095 136.904 371.018 134.786C369.952 132.667 369.42 130.228 369.42 127.47C369.42 124.677 369.958 122.226 371.035 120.119C372.124 118 373.669 116.349 375.67 115.165C377.67 113.97 380.049 113.372 382.807 113.372C385.187 113.372 387.27 113.804 389.057 114.668C390.845 115.532 392.259 116.746 393.301 118.308C394.343 119.871 394.917 121.705 395.023 123.812H387.885C387.684 122.451 387.152 121.356 386.287 120.528C385.435 119.687 384.317 119.267 382.932 119.267C381.76 119.267 380.736 119.587 379.86 120.226C378.996 120.853 378.321 121.771 377.836 122.978C377.35 124.185 377.108 125.647 377.108 127.364C377.108 129.104 377.345 130.583 377.818 131.803C378.303 133.022 378.984 133.951 379.86 134.59C380.736 135.229 381.76 135.549 382.932 135.549C383.796 135.549 384.571 135.371 385.258 135.016C385.956 134.661 386.53 134.146 386.98 133.472C387.442 132.785 387.743 131.962 387.885 131.004H395.023C394.905 133.087 394.337 134.922 393.319 136.508C392.313 138.082 390.922 139.313 389.146 140.201C387.371 141.089 385.269 141.533 382.843 141.533ZM407.43 125.233V141H399.866V104.636H407.217V118.539H407.537C408.152 116.929 409.146 115.669 410.52 114.757C411.893 113.834 413.615 113.372 415.686 113.372C417.58 113.372 419.232 113.786 420.64 114.615C422.061 115.432 423.162 116.61 423.943 118.148C424.736 119.675 425.127 121.504 425.115 123.635V141H417.551V124.984C417.563 123.304 417.136 121.996 416.272 121.06C415.42 120.125 414.225 119.658 412.686 119.658C411.656 119.658 410.744 119.877 409.951 120.315C409.17 120.753 408.555 121.392 408.105 122.232C407.667 123.061 407.442 124.061 407.43 125.233ZM442.782 104.636H452.263L462.277 129.068H462.703L472.718 104.636H482.199V141H474.742V117.332H474.44L465.029 140.822H459.951L450.541 117.243H450.239V141H442.782V104.636ZM496.169 141.515C494.428 141.515 492.878 141.213 491.517 140.609C490.155 139.994 489.078 139.088 488.285 137.893C487.504 136.685 487.113 135.182 487.113 133.383C487.113 131.868 487.391 130.595 487.948 129.565C488.504 128.536 489.262 127.707 490.22 127.08C491.179 126.452 492.268 125.979 493.487 125.659C494.718 125.339 496.009 125.115 497.358 124.984C498.944 124.819 500.223 124.665 501.193 124.523C502.164 124.369 502.868 124.144 503.306 123.848C503.744 123.552 503.963 123.114 503.963 122.534V122.428C503.963 121.303 503.608 120.433 502.898 119.817C502.2 119.202 501.205 118.894 499.915 118.894C498.554 118.894 497.471 119.196 496.666 119.8C495.861 120.392 495.328 121.137 495.068 122.037L488.072 121.469C488.427 119.812 489.125 118.379 490.167 117.172C491.209 115.953 492.552 115.018 494.198 114.366C495.855 113.704 497.772 113.372 499.95 113.372C501.466 113.372 502.916 113.55 504.301 113.905C505.697 114.26 506.934 114.81 508.012 115.556C509.101 116.302 509.959 117.261 510.586 118.433C511.213 119.593 511.527 120.983 511.527 122.605V141H504.354V137.218H504.141C503.703 138.07 503.117 138.822 502.383 139.473C501.649 140.112 500.767 140.615 499.737 140.982C498.708 141.337 497.518 141.515 496.169 141.515ZM498.335 136.295C499.447 136.295 500.43 136.076 501.282 135.638C502.134 135.188 502.803 134.584 503.289 133.827C503.774 133.069 504.017 132.211 504.017 131.252V128.358C503.78 128.512 503.454 128.654 503.04 128.784C502.637 128.902 502.182 129.015 501.673 129.121C501.164 129.216 500.655 129.305 500.146 129.388C499.637 129.459 499.175 129.524 498.761 129.583C497.873 129.713 497.098 129.92 496.435 130.205C495.772 130.489 495.257 130.873 494.89 131.359C494.523 131.832 494.34 132.424 494.34 133.134C494.34 134.164 494.713 134.951 495.458 135.496C496.216 136.028 497.175 136.295 498.335 136.295ZM529.718 141.533C526.924 141.533 524.521 140.941 522.509 139.757C520.509 138.562 518.97 136.904 517.893 134.786C516.827 132.667 516.295 130.228 516.295 127.47C516.295 124.677 516.833 122.226 517.91 120.119C518.999 118 520.544 116.349 522.545 115.165C524.545 113.97 526.924 113.372 529.682 113.372C532.062 113.372 534.145 113.804 535.932 114.668C537.72 115.532 539.134 116.746 540.176 118.308C541.218 119.871 541.792 121.705 541.898 123.812H534.76C534.559 122.451 534.027 121.356 533.162 120.528C532.31 119.687 531.192 119.267 529.807 119.267C528.635 119.267 527.611 119.587 526.735 120.226C525.871 120.853 525.196 121.771 524.711 122.978C524.225 124.185 523.983 125.647 523.983 127.364C523.983 129.104 524.22 130.583 524.693 131.803C525.178 133.022 525.859 133.951 526.735 134.59C527.611 135.229 528.635 135.549 529.807 135.549C530.671 135.549 531.446 135.371 532.133 135.016C532.831 134.661 533.405 134.146 533.855 133.472C534.317 132.785 534.618 131.962 534.76 131.004H541.898C541.78 133.087 541.212 134.922 540.194 136.508C539.188 138.082 537.797 139.313 536.021 140.201C534.246 141.089 532.144 141.533 529.718 141.533ZM554.305 125.233V141H546.741V104.636H554.092V118.539H554.412C555.027 116.929 556.021 115.669 557.395 114.757C558.768 113.834 560.49 113.372 562.561 113.372C564.455 113.372 566.107 113.786 567.515 114.615C568.936 115.432 570.037 116.61 570.818 118.148C571.611 119.675 572.002 121.504 571.99 123.635V141H564.426V124.984C564.438 123.304 564.011 121.996 563.147 121.06C562.295 120.125 561.1 119.658 559.561 119.658C558.531 119.658 557.619 119.877 556.826 120.315C556.045 120.753 555.43 121.392 554.98 122.232C554.542 123.061 554.317 124.061 554.305 125.233ZM590.371 141.533C587.566 141.533 585.151 140.964 583.127 139.828C581.115 138.68 579.564 137.058 578.475 134.963C577.386 132.856 576.841 130.364 576.841 127.488C576.841 124.683 577.386 122.22 578.475 120.102C579.564 117.983 581.097 116.331 583.074 115.148C585.062 113.964 587.394 113.372 590.069 113.372C591.869 113.372 593.544 113.662 595.094 114.242C596.657 114.81 598.018 115.669 599.178 116.817C600.35 117.965 601.261 119.409 601.912 121.149C602.564 122.877 602.889 124.902 602.889 127.222V129.299H579.86V124.612H595.769C595.769 123.522 595.532 122.558 595.059 121.717C594.585 120.877 593.928 120.22 593.088 119.746C592.259 119.261 591.295 119.018 590.194 119.018C589.046 119.018 588.028 119.285 587.14 119.817C586.264 120.338 585.577 121.043 585.08 121.93C584.583 122.806 584.328 123.783 584.317 124.86V129.317C584.317 130.666 584.565 131.832 585.062 132.815C585.571 133.797 586.287 134.555 587.211 135.087C588.134 135.62 589.229 135.886 590.496 135.886C591.336 135.886 592.105 135.768 592.804 135.531C593.502 135.295 594.1 134.939 594.597 134.466C595.094 133.992 595.473 133.412 595.733 132.726L602.729 133.188C602.374 134.868 601.646 136.336 600.545 137.591C599.456 138.834 598.048 139.804 596.319 140.503C594.603 141.189 592.62 141.533 590.371 141.533ZM615.389 125.233V141H607.825V113.727H615.034V118.539H615.354C615.957 116.953 616.969 115.698 618.39 114.775C619.81 113.84 621.532 113.372 623.557 113.372C625.451 113.372 627.102 113.786 628.51 114.615C629.919 115.444 631.014 116.627 631.795 118.166C632.577 119.693 632.967 121.516 632.967 123.635V141H625.403V124.984C625.415 123.315 624.989 122.013 624.125 121.078C623.261 120.131 622.071 119.658 620.556 119.658C619.538 119.658 618.638 119.877 617.857 120.315C617.088 120.753 616.484 121.392 616.046 122.232C615.62 123.061 615.401 124.061 615.389 125.233Z" fill="white"/>
</svg>
