<svg width="670" height="182" viewBox="0 0 670 182" fill="none" xmlns="http://www.w3.org/2000/svg">
<mask id="path-1-outside-1_676_4119" maskUnits="userSpaceOnUse" x="15" y="32" width="625" height="120" fill="black">
<rect fill="white" x="15" y="32" width="625" height="120"/>
<path d="M19.7696 146V36.9091H42.8343V85.0092H44.2725L83.5303 36.9091H111.176L70.6929 85.755L111.655 146H84.0629L54.1801 101.149L42.8343 114.999V146H19.7696ZM190.57 36.9091H213.635V107.754C213.635 115.709 211.735 122.669 207.935 128.635C204.171 134.601 198.898 139.253 192.115 142.591C185.332 145.893 177.431 147.545 168.411 147.545C159.356 147.545 151.437 145.893 144.654 142.591C137.872 139.253 132.598 134.601 128.834 128.635C125.07 122.669 123.188 115.709 123.188 107.754V36.9091H146.252V105.783C146.252 109.938 147.158 113.631 148.969 116.863C150.815 120.094 153.408 122.634 156.746 124.48C160.084 126.327 163.972 127.25 168.411 127.25C172.886 127.25 176.774 126.327 180.077 124.48C183.415 122.634 185.989 120.094 187.801 116.863C189.647 113.631 190.57 109.938 190.57 105.783V36.9091ZM323.858 36.9091V146H303.936L256.475 77.3388H255.676V146H232.611V36.9091H252.853L299.941 105.517H300.9V36.9091H323.858ZM381.586 146H342.914V36.9091H381.906C392.879 36.9091 402.325 39.093 410.244 43.4609C418.163 47.7933 424.253 54.0256 428.514 62.1577C432.811 70.2898 434.96 80.0199 434.96 91.348C434.96 102.712 432.811 112.477 428.514 120.645C424.253 128.812 418.127 135.08 410.137 139.448C402.183 143.816 392.666 146 381.586 146ZM365.979 126.238H380.627C387.445 126.238 393.18 125.031 397.832 122.616C402.52 120.165 406.036 116.384 408.379 111.27C410.759 106.121 411.948 99.4801 411.948 91.348C411.948 83.2869 410.759 76.6996 408.379 71.5859C406.036 66.4723 402.538 62.7081 397.886 60.2933C393.234 57.8786 387.499 56.6712 380.68 56.6712H365.979V126.238ZM452.045 146V36.9091H525.554V55.9254H475.11V81.9197H521.772V100.936H475.11V126.984H525.767V146H452.045ZM635.137 36.9091V146H615.215L567.754 77.3388H566.955V146H543.891V36.9091H564.132L611.22 105.517H612.179V36.9091H635.137Z"/>
</mask>
<path d="M19.7696 146H15.7696V150H19.7696V146ZM19.7696 36.9091V32.9091H15.7696V36.9091H19.7696ZM42.8343 36.9091H46.8343V32.9091H42.8343V36.9091ZM42.8343 85.0092H38.8343V89.0092H42.8343V85.0092ZM44.2725 85.0092V89.0092H46.1709L47.3713 87.5384L44.2725 85.0092ZM83.5303 36.9091V32.9091H81.6318L80.4314 34.3799L83.5303 36.9091ZM111.176 36.9091L114.256 39.4616L119.686 32.9091H111.176V36.9091ZM70.6929 85.755L67.6132 83.2025L65.6945 85.5176L67.3851 88.0041L70.6929 85.755ZM111.655 146V150H119.212L114.963 143.751L111.655 146ZM84.063 146L80.7341 148.218L81.9215 150H84.063V146ZM54.1801 101.149L57.5089 98.9313L54.5116 94.4326L51.0859 98.6143L54.1801 101.149ZM42.8343 114.999L39.74 112.464L38.8343 113.569V114.999H42.8343ZM42.8343 146V150H46.8343V146H42.8343ZM23.7696 146V36.9091H15.7696V146H23.7696ZM19.7696 40.9091H42.8343V32.9091H19.7696V40.9091ZM38.8343 36.9091V85.0092H46.8343V36.9091H38.8343ZM42.8343 89.0092H44.2725V81.0092H42.8343V89.0092ZM47.3713 87.5384L86.6292 39.4383L80.4314 34.3799L41.1736 82.48L47.3713 87.5384ZM83.5303 40.9091H111.176V32.9091H83.5303V40.9091ZM108.096 34.3566L67.6132 83.2025L73.7727 88.3074L114.256 39.4616L108.096 34.3566ZM67.3851 88.0041L108.347 148.249L114.963 143.751L74.0007 83.5059L67.3851 88.0041ZM111.655 142H84.063V150H111.655V142ZM87.3918 143.782L57.5089 98.9313L50.8513 103.367L80.7341 148.218L87.3918 143.782ZM51.0859 98.6143L39.74 112.464L45.9285 117.533L57.2744 103.684L51.0859 98.6143ZM38.8343 114.999V146H46.8343V114.999H38.8343ZM42.8343 142H19.7696V150H42.8343V142ZM190.57 36.9091V32.9091H186.57V36.9091H190.57ZM213.635 36.9091H217.635V32.9091H213.635V36.9091ZM207.935 128.635L204.562 126.486L204.557 126.493L204.553 126.5L207.935 128.635ZM192.115 142.591L193.866 146.187L193.874 146.184L193.881 146.18L192.115 142.591ZM144.654 142.591L142.888 146.18L142.896 146.184L142.903 146.187L144.654 142.591ZM128.834 128.635L125.451 130.769L128.834 128.635ZM123.188 36.9091V32.9091H119.188V36.9091H123.188ZM146.252 36.9091H150.252V32.9091H146.252V36.9091ZM148.969 116.863L145.479 118.819L145.488 118.833L145.496 118.847L148.969 116.863ZM156.746 124.48L154.81 127.98L156.746 124.48ZM180.077 124.48L178.141 120.98L178.133 120.984L178.125 120.989L180.077 124.48ZM187.801 116.863L184.328 114.878L184.319 114.893L184.311 114.907L187.801 116.863ZM190.57 40.9091H213.635V32.9091H190.57V40.9091ZM209.635 36.9091V107.754H217.635V36.9091H209.635ZM209.635 107.754C209.635 115.045 207.903 121.24 204.562 126.486L211.309 130.784C215.567 124.098 217.635 116.372 217.635 107.754H209.635ZM204.553 126.5C201.211 131.797 196.518 135.966 190.349 139.002L193.881 146.18C201.278 142.54 207.132 137.405 211.318 130.769L204.553 126.5ZM190.364 138.995C184.223 141.984 176.942 143.545 168.411 143.545V151.545C177.921 151.545 186.441 149.802 193.866 146.187L190.364 138.995ZM168.411 143.545C159.843 143.545 152.544 141.984 146.405 138.995L142.903 146.187C150.33 149.803 158.869 151.545 168.411 151.545V143.545ZM146.42 139.002C140.251 135.966 135.558 131.797 132.217 126.5L125.451 130.769C129.638 137.405 135.492 142.54 142.888 146.18L146.42 139.002ZM132.217 126.5C128.906 121.252 127.188 115.052 127.188 107.754H119.188C119.188 116.365 121.234 124.086 125.451 130.769L132.217 126.5ZM127.188 107.754V36.9091H119.188V107.754H127.188ZM123.188 40.9091H146.252V32.9091H123.188V40.9091ZM142.252 36.9091V105.783H150.252V36.9091H142.252ZM142.252 105.783C142.252 110.538 143.294 114.92 145.479 118.819L152.458 114.907C151.021 112.343 150.252 109.338 150.252 105.783H142.252ZM145.496 118.847C147.716 122.732 150.847 125.788 154.81 127.98L158.682 120.98C155.969 119.479 153.915 117.457 152.442 114.878L145.496 118.847ZM154.81 127.98C158.831 130.205 163.407 131.25 168.411 131.25V123.25C164.538 123.25 161.337 122.449 158.682 120.98L154.81 127.98ZM168.411 131.25C173.444 131.25 178.029 130.208 182.029 127.971L178.125 120.989C175.519 122.446 172.327 123.25 168.411 123.25V131.25ZM182.013 127.98C185.982 125.785 189.104 122.719 191.29 118.819L184.311 114.907C182.875 117.469 180.848 119.482 178.141 120.98L182.013 127.98ZM191.273 118.847C193.504 114.944 194.57 110.552 194.57 105.783H186.57C186.57 109.325 185.79 112.319 184.328 114.878L191.273 118.847ZM194.57 105.783V36.9091H186.57V105.783H194.57ZM323.858 36.9091H327.858V32.9091H323.858V36.9091ZM323.858 146V150H327.858V146H323.858ZM303.936 146L300.646 148.274L301.838 150H303.936V146ZM256.475 77.3388L259.765 75.0643L258.573 73.3388H256.475V77.3388ZM255.676 77.3388V73.3388H251.676V77.3388H255.676ZM255.676 146V150H259.676V146H255.676ZM232.611 146H228.611V150H232.611V146ZM232.611 36.9091V32.9091H228.611V36.9091H232.611ZM252.853 36.9091L256.151 34.6456L254.959 32.9091H252.853V36.9091ZM299.941 105.517L296.643 107.781L297.835 109.517H299.941V105.517ZM300.9 105.517V109.517H304.9V105.517H300.9ZM300.9 36.9091V32.9091H296.9V36.9091H300.9ZM319.858 36.9091V146H327.858V36.9091H319.858ZM323.858 142H303.936V150H323.858V142ZM307.226 143.726L259.765 75.0643L253.185 79.6132L300.646 148.274L307.226 143.726ZM256.475 73.3388H255.676V81.3388H256.475V73.3388ZM251.676 77.3388V146H259.676V77.3388H251.676ZM255.676 142H232.611V150H255.676V142ZM236.611 146V36.9091H228.611V146H236.611ZM232.611 40.9091H252.853V32.9091H232.611V40.9091ZM249.555 39.1726L296.643 107.781L303.239 103.254L256.151 34.6456L249.555 39.1726ZM299.941 109.517H300.9V101.517H299.941V109.517ZM304.9 105.517V36.9091H296.9V105.517H304.9ZM300.9 40.9091H323.858V32.9091H300.9V40.9091ZM342.914 146H338.914V150H342.914V146ZM342.914 36.9091V32.9091H338.914V36.9091H342.914ZM410.244 43.4609L408.312 46.9635L408.324 46.9701L410.244 43.4609ZM428.514 62.1577L424.971 64.0143L424.978 64.0264L428.514 62.1577ZM428.514 120.645L424.974 118.783L424.968 118.795L428.514 120.645ZM410.137 139.448L408.218 135.938L408.212 135.942L410.137 139.448ZM365.979 126.238H361.979V130.238H365.979V126.238ZM397.832 122.616L399.675 126.166L399.685 126.161L397.832 122.616ZM408.379 111.27L404.748 109.592L404.743 109.603L408.379 111.27ZM408.379 71.5859L404.743 73.2526L404.748 73.263L404.753 73.2733L408.379 71.5859ZM397.886 60.2933L399.729 56.7431H399.729L397.886 60.2933ZM365.979 56.6712V52.6712H361.979V56.6712H365.979ZM381.586 142H342.914V150H381.586V142ZM346.914 146V36.9091H338.914V146H346.914ZM342.914 40.9091H381.906V32.9091H342.914V40.9091ZM381.906 40.9091C392.346 40.9091 401.098 42.9847 408.312 46.9635L412.176 39.9584C403.551 35.2014 393.411 32.9091 381.906 32.9091V40.9091ZM408.324 46.9701C415.538 50.917 421.069 56.5684 424.971 64.0143L432.057 60.3011C427.436 51.4828 420.787 44.6697 412.164 39.9518L408.324 46.9701ZM424.978 64.0264C428.908 71.4641 430.96 80.5225 430.96 91.348H438.96C438.96 79.5173 436.715 69.1155 432.051 60.289L424.978 64.0264ZM430.96 91.348C430.96 102.211 428.907 111.307 424.974 118.783L432.054 122.507C436.715 113.647 438.96 103.213 438.96 91.348H430.96ZM424.968 118.795C421.068 126.269 415.505 131.955 408.218 135.938L412.056 142.958C420.749 138.205 427.438 131.356 432.061 122.495L424.968 118.795ZM408.212 135.942C400.964 139.922 392.14 142 381.586 142V150C393.191 150 403.401 147.71 412.062 142.954L408.212 135.942ZM365.979 130.238H380.627V122.238H365.979V130.238ZM380.627 130.238C387.9 130.238 394.309 128.952 399.675 126.166L395.99 119.066C392.052 121.109 386.991 122.238 380.627 122.238V130.238ZM399.685 126.161C405.211 123.272 409.327 118.802 412.016 112.937L404.743 109.603C402.744 113.965 399.829 117.059 395.979 119.071L399.685 126.161ZM412.01 112.948C414.714 107.096 415.948 99.8267 415.948 91.348H407.948C407.948 99.1335 406.803 105.146 404.748 109.592L412.01 112.948ZM415.948 91.348C415.948 82.9362 414.713 75.7171 412.006 69.8985L404.753 73.2733C406.804 77.682 407.948 83.6376 407.948 91.348H415.948ZM412.016 69.9193C409.33 64.0589 405.231 59.5994 399.729 56.7431L396.043 63.8435C399.844 65.8167 402.742 68.8857 404.743 73.2526L412.016 69.9193ZM399.729 56.7431C394.362 53.9574 387.954 52.6712 380.68 52.6712V60.6712C387.044 60.6712 392.105 61.7997 396.043 63.8435L399.729 56.7431ZM380.68 52.6712H365.979V60.6712H380.68V52.6712ZM361.979 56.6712V126.238H369.979V56.6712H361.979ZM452.045 146H448.045V150H452.045V146ZM452.045 36.9091V32.9091H448.045V36.9091H452.045ZM525.554 36.9091H529.554V32.9091H525.554V36.9091ZM525.554 55.9254V59.9254H529.554V55.9254H525.554ZM475.11 55.9254V51.9254H471.11V55.9254H475.11ZM475.11 81.9197H471.11V85.9197H475.11V81.9197ZM521.772 81.9197H525.772V77.9197H521.772V81.9197ZM521.772 100.936V104.936H525.772V100.936H521.772ZM475.11 100.936V96.9361H471.11V100.936H475.11ZM475.11 126.984H471.11V130.984H475.11V126.984ZM525.767 126.984H529.767V122.984H525.767V126.984ZM525.767 146V150H529.767V146H525.767ZM456.045 146V36.9091H448.045V146H456.045ZM452.045 40.9091H525.554V32.9091H452.045V40.9091ZM521.554 36.9091V55.9254H529.554V36.9091H521.554ZM525.554 51.9254H475.11V59.9254H525.554V51.9254ZM471.11 55.9254V81.9197H479.11V55.9254H471.11ZM475.11 85.9197H521.772V77.9197H475.11V85.9197ZM517.772 81.9197V100.936H525.772V81.9197H517.772ZM521.772 96.9361H475.11V104.936H521.772V96.9361ZM471.11 100.936V126.984H479.11V100.936H471.11ZM475.11 130.984H525.767V122.984H475.11V130.984ZM521.767 126.984V146H529.767V126.984H521.767ZM525.767 142H452.045V150H525.767V142ZM635.137 36.9091H639.137V32.9091H635.137V36.9091ZM635.137 146V150H639.137V146H635.137ZM615.215 146L611.925 148.274L613.118 150H615.215V146ZM567.754 77.3388L571.045 75.0643L569.852 73.3388H567.754V77.3388ZM566.955 77.3388V73.3388H562.955V77.3388H566.955ZM566.955 146V150H570.955V146H566.955ZM543.891 146H539.891V150H543.891V146ZM543.891 36.9091V32.9091H539.891V36.9091H543.891ZM564.132 36.9091L567.43 34.6456L566.238 32.9091H564.132V36.9091ZM611.22 105.517L607.922 107.781L609.114 109.517H611.22V105.517ZM612.179 105.517V109.517H616.179V105.517H612.179ZM612.179 36.9091V32.9091H608.179V36.9091H612.179ZM631.137 36.9091V146H639.137V36.9091H631.137ZM635.137 142H615.215V150H635.137V142ZM618.506 143.726L571.045 75.0643L564.464 79.6132L611.925 148.274L618.506 143.726ZM567.754 73.3388H566.955V81.3388H567.754V73.3388ZM562.955 77.3388V146H570.955V77.3388H562.955ZM566.955 142H543.891V150H566.955V142ZM547.891 146V36.9091H539.891V146H547.891ZM543.891 40.9091H564.132V32.9091H543.891V40.9091ZM560.834 39.1726L607.922 107.781L614.518 103.254L567.43 34.6456L560.834 39.1726ZM611.22 109.517H612.179V101.517H611.22V109.517ZM616.179 105.517V36.9091H608.179V105.517H616.179ZM612.179 40.9091H635.137V32.9091H612.179V40.9091Z" fill="#292929" mask="url(#path-1-outside-1_676_4119)"/>
<path d="M39.5117 128H24.0088V92.0137H39.5117C41.7415 92.0462 43.597 92.3066 45.0781 92.7949C47.6009 93.625 49.6436 95.1468 51.2061 97.3604C52.4593 99.1507 53.3138 101.088 53.7695 103.171C54.2253 105.254 54.4531 107.24 54.4531 109.128C54.4531 113.913 53.4928 117.966 51.5723 121.286C48.9681 125.762 44.9479 128 39.5117 128ZM45.1025 101.193C43.9469 99.2402 41.6602 98.2637 38.2422 98.2637H31.3086V121.75H38.2422C41.7904 121.75 44.2643 120 45.6641 116.501C46.429 114.58 46.8115 112.294 46.8115 109.641C46.8115 105.979 46.2419 103.163 45.1025 101.193ZM60.5811 104.27C62.4202 101.926 65.5778 100.754 70.0537 100.754C72.9671 100.754 75.555 101.332 77.8174 102.487C80.0798 103.643 81.2109 105.824 81.2109 109.03V121.237C81.2109 122.084 81.2272 123.109 81.2598 124.313C81.3086 125.225 81.4469 125.843 81.6748 126.169C81.9027 126.494 82.2445 126.763 82.7002 126.975V128H75.1318C74.9202 127.463 74.7738 126.958 74.6924 126.486C74.611 126.014 74.5459 125.477 74.4971 124.875C73.5368 125.917 72.43 126.804 71.1768 127.536C69.6794 128.399 67.9867 128.83 66.0986 128.83C63.6898 128.83 61.696 128.146 60.1172 126.779C58.5547 125.396 57.7734 123.443 57.7734 120.92C57.7734 117.648 59.0348 115.28 61.5576 113.815C62.9411 113.018 64.9756 112.448 67.6611 112.106L70.0293 111.813C71.3151 111.651 72.2347 111.447 72.7881 111.203C73.7809 110.78 74.2773 110.121 74.2773 109.226C74.2773 108.135 73.8949 107.386 73.1299 106.979C72.3812 106.556 71.2744 106.345 69.8096 106.345C68.1657 106.345 67.002 106.752 66.3184 107.565C65.8301 108.168 65.5046 108.981 65.3418 110.007H58.6279C58.7744 107.679 59.4255 105.767 60.5811 104.27ZM65.7568 122.971C66.4079 123.508 67.2054 123.776 68.1494 123.776C69.6468 123.776 71.0221 123.337 72.2754 122.458C73.5449 121.579 74.2041 119.976 74.2529 117.648V115.061C73.8135 115.337 73.3659 115.565 72.9102 115.744C72.4707 115.907 71.8604 116.062 71.0791 116.208L69.5166 116.501C68.0518 116.761 67.002 117.079 66.3672 117.453C65.293 118.088 64.7559 119.073 64.7559 120.407C64.7559 121.595 65.0895 122.45 65.7568 122.971ZM105.747 102.609C107.83 103.944 109.027 106.239 109.336 109.494H102.378C102.28 108.599 102.028 107.891 101.621 107.37C100.856 106.426 99.554 105.954 97.7148 105.954C96.2012 105.954 95.1188 106.19 94.4678 106.662C93.833 107.134 93.5156 107.688 93.5156 108.322C93.5156 109.12 93.8574 109.698 94.541 110.056C95.2246 110.43 97.6416 111.073 101.792 111.984C104.559 112.635 106.634 113.62 108.018 114.938C109.385 116.273 110.068 117.941 110.068 119.943C110.068 122.58 109.084 124.737 107.114 126.413C105.161 128.073 102.134 128.903 98.0322 128.903C93.8493 128.903 90.7568 128.024 88.7549 126.267C86.7692 124.493 85.7764 122.238 85.7764 119.504H92.832C92.9785 120.741 93.2959 121.62 93.7842 122.141C94.6468 123.068 96.2419 123.532 98.5693 123.532C99.9365 123.532 101.019 123.329 101.816 122.922C102.63 122.515 103.037 121.905 103.037 121.091C103.037 120.31 102.712 119.715 102.061 119.309C101.41 118.902 98.9925 118.202 94.8096 117.209C91.7985 116.46 89.6745 115.524 88.4375 114.401C87.2005 113.295 86.582 111.7 86.582 109.616C86.582 107.159 87.5423 105.051 89.4629 103.293C91.3997 101.519 94.1178 100.632 97.6172 100.632C100.938 100.632 103.647 101.291 105.747 102.609ZM142.783 122.8C144.557 122.8 145.998 122.604 147.104 122.214C149.204 121.465 150.254 120.074 150.254 118.039C150.254 116.851 149.733 115.931 148.691 115.28C147.65 114.646 146.014 114.084 143.784 113.596L139.976 112.741C136.232 111.895 133.644 110.975 132.212 109.982C129.787 108.322 128.574 105.726 128.574 102.194C128.574 98.9717 129.746 96.2943 132.09 94.1621C134.434 92.0299 137.876 90.9639 142.417 90.9639C146.209 90.9639 149.44 91.973 152.109 93.9912C154.795 95.9932 156.203 98.9066 156.333 102.731H149.106C148.976 100.567 148.032 99.0286 146.274 98.1172C145.103 97.515 143.646 97.2139 141.904 97.2139C139.967 97.2139 138.421 97.6045 137.266 98.3857C136.11 99.167 135.532 100.257 135.532 101.657C135.532 102.943 136.102 103.903 137.241 104.538C137.974 104.961 139.536 105.458 141.929 106.027L148.13 107.517C150.848 108.168 152.899 109.038 154.282 110.129C156.431 111.822 157.505 114.271 157.505 117.478C157.505 120.765 156.243 123.5 153.721 125.681C151.214 127.845 147.666 128.928 143.076 128.928C138.389 128.928 134.702 127.862 132.017 125.729C129.331 123.581 127.988 120.635 127.988 116.892H135.166C135.394 118.535 135.841 119.764 136.509 120.578C137.729 122.059 139.821 122.8 142.783 122.8ZM163.511 104.27C165.35 101.926 168.507 100.754 172.983 100.754C175.897 100.754 178.485 101.332 180.747 102.487C183.009 103.643 184.141 105.824 184.141 109.03V121.237C184.141 122.084 184.157 123.109 184.189 124.313C184.238 125.225 184.377 125.843 184.604 126.169C184.832 126.494 185.174 126.763 185.63 126.975V128H178.062C177.85 127.463 177.703 126.958 177.622 126.486C177.541 126.014 177.476 125.477 177.427 124.875C176.466 125.917 175.36 126.804 174.106 127.536C172.609 128.399 170.916 128.83 169.028 128.83C166.619 128.83 164.626 128.146 163.047 126.779C161.484 125.396 160.703 123.443 160.703 120.92C160.703 117.648 161.965 115.28 164.487 113.815C165.871 113.018 167.905 112.448 170.591 112.106L172.959 111.813C174.245 111.651 175.164 111.447 175.718 111.203C176.711 110.78 177.207 110.121 177.207 109.226C177.207 108.135 176.825 107.386 176.06 106.979C175.311 106.556 174.204 106.345 172.739 106.345C171.095 106.345 169.932 106.752 169.248 107.565C168.76 108.168 168.434 108.981 168.271 110.007H161.558C161.704 107.679 162.355 105.767 163.511 104.27ZM168.687 122.971C169.338 123.508 170.135 123.776 171.079 123.776C172.576 123.776 173.952 123.337 175.205 122.458C176.475 121.579 177.134 119.976 177.183 117.648V115.061C176.743 115.337 176.296 115.565 175.84 115.744C175.4 115.907 174.79 116.062 174.009 116.208L172.446 116.501C170.981 116.761 169.932 117.079 169.297 117.453C168.223 118.088 167.686 119.073 167.686 120.407C167.686 121.595 168.019 122.45 168.687 122.971ZM197.861 132.663C198.61 133.298 199.871 133.615 201.646 133.615C204.152 133.615 205.828 132.777 206.675 131.101C207.228 130.026 207.505 128.22 207.505 125.681V123.972C206.838 125.111 206.121 125.965 205.356 126.535C203.973 127.593 202.174 128.122 199.961 128.122C196.543 128.122 193.809 126.926 191.758 124.533C189.723 122.124 188.706 118.869 188.706 114.768C188.706 110.812 189.691 107.492 191.66 104.807C193.63 102.105 196.421 100.754 200.034 100.754C201.369 100.754 202.533 100.957 203.525 101.364C205.218 102.064 206.585 103.35 207.627 105.222V101.389H214.39V126.633C214.39 130.067 213.812 132.655 212.656 134.396C210.671 137.391 206.862 138.889 201.23 138.889C197.829 138.889 195.054 138.221 192.905 136.887C190.757 135.552 189.569 133.558 189.341 130.905H196.909C197.104 131.719 197.422 132.305 197.861 132.663ZM196.689 118.918C197.633 121.164 199.326 122.287 201.768 122.287C203.395 122.287 204.771 121.677 205.894 120.456C207.017 119.219 207.578 117.258 207.578 114.572C207.578 112.049 207.041 110.129 205.967 108.811C204.909 107.492 203.485 106.833 201.694 106.833C199.253 106.833 197.568 107.98 196.641 110.275C196.152 111.496 195.908 113.002 195.908 114.792C195.908 116.338 196.169 117.714 196.689 118.918ZM243.687 120.188C243.507 121.766 242.686 123.369 241.221 124.997C238.942 127.585 235.752 128.879 231.65 128.879C228.265 128.879 225.278 127.788 222.69 125.607C220.103 123.426 218.809 119.878 218.809 114.963C218.809 110.357 219.972 106.825 222.3 104.367C224.644 101.91 227.679 100.681 231.406 100.681C233.62 100.681 235.614 101.096 237.388 101.926C239.162 102.756 240.627 104.066 241.782 105.856C242.824 107.435 243.499 109.266 243.809 111.35C243.988 112.57 244.061 114.328 244.028 116.623H225.815C225.913 119.292 226.751 121.164 228.33 122.238C229.29 122.906 230.446 123.239 231.797 123.239C233.229 123.239 234.393 122.832 235.288 122.019C235.776 121.579 236.208 120.969 236.582 120.188H243.687ZM236.802 112.033C236.688 110.194 236.126 108.802 235.117 107.858C234.124 106.898 232.887 106.418 231.406 106.418C229.795 106.418 228.542 106.923 227.646 107.932C226.768 108.941 226.214 110.308 225.986 112.033H236.802ZM261.265 106.54C258.905 106.54 257.285 107.541 256.406 109.543C255.951 110.601 255.723 111.952 255.723 113.596V128H248.789V101.438H255.503V105.319C256.398 103.952 257.244 102.967 258.042 102.365C259.474 101.291 261.289 100.754 263.486 100.754C266.237 100.754 268.483 101.478 270.225 102.927C271.982 104.359 272.861 106.743 272.861 110.08V128H265.732V111.813C265.732 110.414 265.545 109.34 265.171 108.591C264.487 107.224 263.185 106.54 261.265 106.54ZM315.073 114.133V92.0137H322.715V114.133C322.715 117.958 322.121 120.936 320.933 123.068C318.719 126.975 314.495 128.928 308.262 128.928C302.028 128.928 297.796 126.975 295.566 123.068C294.378 120.936 293.784 117.958 293.784 114.133V92.0137H301.426V114.133C301.426 116.607 301.719 118.413 302.305 119.553C303.216 121.571 305.202 122.58 308.262 122.58C311.305 122.58 313.283 121.571 314.194 119.553C314.78 118.413 315.073 116.607 315.073 114.133ZM341.88 106.54C339.52 106.54 337.9 107.541 337.021 109.543C336.566 110.601 336.338 111.952 336.338 113.596V128H329.404V101.438H336.118V105.319C337.013 103.952 337.86 102.967 338.657 102.365C340.09 101.291 341.904 100.754 344.102 100.754C346.852 100.754 349.098 101.478 350.84 102.927C352.598 104.359 353.477 106.743 353.477 110.08V128H346.348V111.813C346.348 110.414 346.16 109.34 345.786 108.591C345.103 107.224 343.8 106.54 341.88 106.54ZM378.257 102.609C380.34 103.944 381.536 106.239 381.846 109.494H374.888C374.79 108.599 374.538 107.891 374.131 107.37C373.366 106.426 372.064 105.954 370.225 105.954C368.711 105.954 367.629 106.19 366.978 106.662C366.343 107.134 366.025 107.688 366.025 108.322C366.025 109.12 366.367 109.698 367.051 110.056C367.734 110.43 370.151 111.073 374.302 111.984C377.069 112.635 379.144 113.62 380.527 114.938C381.895 116.273 382.578 117.941 382.578 119.943C382.578 122.58 381.593 124.737 379.624 126.413C377.671 128.073 374.644 128.903 370.542 128.903C366.359 128.903 363.267 128.024 361.265 126.267C359.279 124.493 358.286 122.238 358.286 119.504H365.342C365.488 120.741 365.806 121.62 366.294 122.141C367.157 123.068 368.752 123.532 371.079 123.532C372.446 123.532 373.529 123.329 374.326 122.922C375.14 122.515 375.547 121.905 375.547 121.091C375.547 120.31 375.221 119.715 374.57 119.309C373.919 118.902 371.502 118.202 367.319 117.209C364.308 116.46 362.184 115.524 360.947 114.401C359.71 113.295 359.092 111.7 359.092 109.616C359.092 107.159 360.052 105.051 361.973 103.293C363.91 101.519 366.628 100.632 370.127 100.632C373.447 100.632 376.157 101.291 378.257 102.609ZM410.532 120.188C410.353 121.766 409.531 123.369 408.066 124.997C405.788 127.585 402.598 128.879 398.496 128.879C395.111 128.879 392.124 127.788 389.536 125.607C386.948 123.426 385.654 119.878 385.654 114.963C385.654 110.357 386.818 106.825 389.146 104.367C391.489 101.91 394.525 100.681 398.252 100.681C400.465 100.681 402.459 101.096 404.233 101.926C406.007 102.756 407.472 104.066 408.628 105.856C409.67 107.435 410.345 109.266 410.654 111.35C410.833 112.57 410.907 114.328 410.874 116.623H392.661C392.759 119.292 393.597 121.164 395.176 122.238C396.136 122.906 397.292 123.239 398.643 123.239C400.075 123.239 401.239 122.832 402.134 122.019C402.622 121.579 403.053 120.969 403.428 120.188H410.532ZM403.647 112.033C403.534 110.194 402.972 108.802 401.963 107.858C400.97 106.898 399.733 106.418 398.252 106.418C396.641 106.418 395.387 106.923 394.492 107.932C393.613 108.941 393.06 110.308 392.832 112.033H403.647ZM428.965 107.81C426.165 107.81 424.285 108.721 423.325 110.544C422.788 111.569 422.52 113.148 422.52 115.28V128H415.513V101.389H422.153V106.027C423.228 104.253 424.163 103.041 424.961 102.39C426.263 101.299 427.956 100.754 430.039 100.754C430.169 100.754 430.275 100.762 430.356 100.778C430.454 100.778 430.658 100.786 430.967 100.803V107.932C430.527 107.883 430.137 107.85 429.795 107.834C429.453 107.818 429.176 107.81 428.965 107.81ZM457.847 120.188C457.668 121.766 456.846 123.369 455.381 124.997C453.102 127.585 449.912 128.879 445.811 128.879C442.425 128.879 439.438 127.788 436.851 125.607C434.263 123.426 432.969 119.878 432.969 114.963C432.969 110.357 434.132 106.825 436.46 104.367C438.804 101.91 441.839 100.681 445.566 100.681C447.78 100.681 449.774 101.096 451.548 101.926C453.322 102.756 454.787 104.066 455.942 105.856C456.984 107.435 457.66 109.266 457.969 111.35C458.148 112.57 458.221 114.328 458.188 116.623H439.976C440.073 119.292 440.911 121.164 442.49 122.238C443.451 122.906 444.606 123.239 445.957 123.239C447.389 123.239 448.553 122.832 449.448 122.019C449.937 121.579 450.368 120.969 450.742 120.188H457.847ZM450.962 112.033C450.848 110.194 450.286 108.802 449.277 107.858C448.285 106.898 447.048 106.418 445.566 106.418C443.955 106.418 442.702 106.923 441.807 107.932C440.928 108.941 440.374 110.308 440.146 112.033H450.962ZM509.263 128H499.595L488.486 112.277L484.897 115.964V128H477.5V92.0137H484.897V106.833L498.789 92.0137H508.506L493.76 106.833L509.263 128ZM530.015 124.24C529.95 124.322 529.787 124.566 529.526 124.973C529.266 125.38 528.957 125.738 528.599 126.047C527.508 127.023 526.45 127.691 525.425 128.049C524.416 128.407 523.228 128.586 521.86 128.586C517.922 128.586 515.269 127.17 513.901 124.338C513.136 122.775 512.754 120.472 512.754 117.429V101.389H519.883V117.429C519.883 118.942 520.062 120.082 520.42 120.847C521.055 122.198 522.3 122.873 524.155 122.873C526.532 122.873 528.159 121.913 529.038 119.992C529.494 118.951 529.722 117.575 529.722 115.866V101.389H536.777V128H530.015V124.24ZM556.04 106.54C553.68 106.54 552.061 107.541 551.182 109.543C550.726 110.601 550.498 111.952 550.498 113.596V128H543.564V101.438H550.278V105.319C551.174 103.952 552.02 102.967 552.817 102.365C554.25 101.291 556.064 100.754 558.262 100.754C561.012 100.754 563.258 101.478 565 102.927C566.758 104.359 567.637 106.743 567.637 110.08V128H560.508V111.813C560.508 110.414 560.321 109.34 559.946 108.591C559.263 107.224 557.961 106.54 556.04 106.54ZM598.301 92.0625V128H591.538V124.313C590.545 125.892 589.414 127.04 588.145 127.756C586.875 128.472 585.296 128.83 583.408 128.83C580.299 128.83 577.679 127.577 575.547 125.07C573.431 122.548 572.373 119.317 572.373 115.378C572.373 110.837 573.415 107.264 575.498 104.66C577.598 102.056 580.397 100.754 583.896 100.754C585.508 100.754 586.94 101.112 588.193 101.828C589.447 102.528 590.464 103.505 591.245 104.758V92.0625H598.301ZM579.551 114.865C579.551 117.323 580.039 119.284 581.016 120.749C581.976 122.23 583.441 122.971 585.41 122.971C587.38 122.971 588.877 122.238 589.902 120.773C590.928 119.309 591.44 117.412 591.44 115.085C591.44 111.83 590.618 109.502 588.975 108.103C587.965 107.256 586.794 106.833 585.459 106.833C583.424 106.833 581.927 107.606 580.967 109.152C580.023 110.682 579.551 112.587 579.551 114.865ZM627.427 120.188C627.248 121.766 626.426 123.369 624.961 124.997C622.682 127.585 619.492 128.879 615.391 128.879C612.005 128.879 609.019 127.788 606.431 125.607C603.843 123.426 602.549 119.878 602.549 114.963C602.549 110.357 603.713 106.825 606.04 104.367C608.384 101.91 611.419 100.681 615.146 100.681C617.36 100.681 619.354 101.096 621.128 101.926C622.902 102.756 624.367 104.066 625.522 105.856C626.564 107.435 627.24 109.266 627.549 111.35C627.728 112.57 627.801 114.328 627.769 116.623H609.556C609.653 119.292 610.492 121.164 612.07 122.238C613.031 122.906 614.186 123.239 615.537 123.239C616.969 123.239 618.133 122.832 619.028 122.019C619.517 121.579 619.948 120.969 620.322 120.188H627.427ZM620.542 112.033C620.428 110.194 619.867 108.802 618.857 107.858C617.865 106.898 616.628 106.418 615.146 106.418C613.535 106.418 612.282 106.923 611.387 107.932C610.508 108.941 609.954 110.308 609.727 112.033H620.542ZM645.005 106.54C642.645 106.54 641.025 107.541 640.146 109.543C639.691 110.601 639.463 111.952 639.463 113.596V128H632.529V101.438H639.243V105.319C640.138 103.952 640.985 102.967 641.782 102.365C643.215 101.291 645.029 100.754 647.227 100.754C649.977 100.754 652.223 101.478 653.965 102.927C655.723 104.359 656.602 106.743 656.602 110.08V128H649.473V111.813C649.473 110.414 649.285 109.34 648.911 108.591C648.228 107.224 646.925 106.54 645.005 106.54Z" fill="white"/>
</svg>
