<svg width="763" height="182" viewBox="0 0 763 182" fill="none" xmlns="http://www.w3.org/2000/svg">
<mask id="path-1-outside-1_533_6943" maskUnits="userSpaceOnUse" x="11" y="31" width="740" height="121" fill="black">
<rect fill="white" x="11" y="31" width="740" height="121"/>
<path d="M78.7501 68.2834C78.324 63.9865 76.4951 60.6484 73.2636 58.2692C70.032 55.8899 65.6464 54.7003 60.1066 54.7003C56.3424 54.7003 53.1642 55.233 50.5718 56.2983C47.9795 57.3281 45.9909 58.7663 44.6059 60.6129C43.2565 62.4595 42.5818 64.5547 42.5818 66.8984C42.5107 68.8516 42.9191 70.5561 43.8069 72.0121C44.7302 73.468 45.9909 74.7287 47.5889 75.794C49.1869 76.8239 51.0335 77.7294 53.1286 78.5107C55.2238 79.2564 57.461 79.8956 59.8403 80.4283L69.6414 82.772C74.3999 83.8374 78.7678 85.2578 82.7451 87.0334C86.7224 88.8089 90.167 90.9929 93.0789 93.5852C95.9909 96.1776 98.2458 99.2315 99.8438 102.747C101.477 106.263 102.312 110.293 102.347 114.839C102.312 121.515 100.607 127.303 97.2338 132.204C93.8957 137.069 89.0661 140.851 82.7451 143.55C76.4596 146.213 68.8779 147.545 60.0001 147.545C51.1933 147.545 43.5228 146.195 36.9887 143.496C30.4901 140.798 25.412 136.803 21.7544 131.511C18.1322 126.185 16.2323 119.597 16.0548 111.749H38.3737C38.6222 115.407 39.6698 118.461 41.5164 120.911C43.3985 123.326 45.9021 125.155 49.0271 126.398C52.1876 127.605 55.7565 128.209 59.7338 128.209C63.64 128.209 67.0313 127.641 69.9078 126.504C72.8197 125.368 75.0747 123.788 76.6727 121.763C78.2707 119.739 79.0697 117.413 79.0697 114.786C79.0697 112.335 78.3417 110.276 76.8857 108.607C75.4653 106.937 73.3701 105.517 70.6002 104.345C67.8659 103.173 64.51 102.108 60.5328 101.149L48.6542 98.1662C39.4568 95.929 32.1947 92.4311 26.868 87.6726C21.5413 82.9141 18.8957 76.5043 18.9312 68.4432C18.8957 61.8381 20.6535 56.0675 24.2046 51.1314C27.7913 46.1953 32.7096 42.3423 38.9596 39.5724C45.2096 36.8026 52.3119 35.4176 60.2664 35.4176C68.363 35.4176 75.4298 36.8026 81.4667 39.5724C87.5392 42.3423 92.2622 46.1953 95.6357 51.1314C99.0093 56.0675 100.749 61.7848 100.856 68.2834H78.7501ZM117.861 146V36.9091H191.37V55.9254H140.926V81.9197H187.588V100.936H140.926V126.984H191.583V146H117.861ZM209.707 146V36.9091H252.747C260.986 36.9091 268.017 38.3828 273.841 41.3303C279.7 44.2422 284.157 48.3793 287.211 53.7415C290.3 59.0682 291.845 65.3359 291.845 72.5447C291.845 79.7891 290.282 86.0213 287.157 91.2415C284.032 96.4261 279.505 100.403 273.574 103.173C267.679 105.943 260.542 107.328 252.161 107.328H223.343V88.7912H248.432C252.836 88.7912 256.493 88.1875 259.405 86.9801C262.317 85.7727 264.483 83.9616 265.904 81.5469C267.36 79.1321 268.088 76.1314 268.088 72.5447C268.088 68.9226 267.36 65.8686 265.904 63.3828C264.483 60.897 262.299 59.0149 259.352 57.7365C256.44 56.4226 252.765 55.7656 248.326 55.7656H232.772V146H209.707ZM268.62 96.3551L295.733 146H270.272L243.745 96.3551H268.62ZM324.924 36.9091L351.291 119.793H352.303L378.723 36.9091H404.292L366.685 146H336.962L299.302 36.9091H324.924ZM440.487 36.9091V146H417.422V36.9091H440.487ZM555.717 75.1016H532.386C531.959 72.0831 531.089 69.402 529.775 67.0582C528.462 64.679 526.775 62.6548 524.715 60.9858C522.655 59.3168 520.276 58.0383 517.577 57.1506C514.914 56.2628 512.02 55.8189 508.895 55.8189C503.248 55.8189 498.33 57.2216 494.14 60.027C489.949 62.7969 486.7 66.8452 484.392 72.1719C482.084 77.4631 480.93 83.8906 480.93 91.4545C480.93 99.2315 482.084 105.766 484.392 111.057C486.736 116.348 490.003 120.343 494.193 123.042C498.383 125.741 503.231 127.09 508.735 127.09C511.824 127.09 514.683 126.682 517.311 125.865C519.974 125.048 522.336 123.859 524.396 122.296C526.455 120.698 528.16 118.763 529.509 116.49C530.894 114.217 531.853 111.625 532.386 108.713L555.717 108.82C555.113 113.827 553.604 118.656 551.189 123.308C548.81 127.925 545.596 132.062 541.548 135.719C537.535 139.342 532.741 142.218 527.165 144.349C521.626 146.444 515.358 147.491 508.362 147.491C498.632 147.491 489.932 145.29 482.261 140.886C474.626 136.483 468.589 130.109 464.15 121.763C459.747 113.418 457.545 103.315 457.545 91.4545C457.545 79.5582 459.783 69.4375 464.257 61.0923C468.731 52.7472 474.804 46.3906 482.474 42.0227C490.145 37.6193 498.774 35.4176 508.362 35.4176C514.683 35.4176 520.543 36.3054 525.94 38.081C531.373 39.8565 536.185 42.4489 540.376 45.8579C544.566 49.2315 547.975 53.3686 550.603 58.2692C553.266 63.1697 554.971 68.7805 555.717 75.1016ZM572.256 146V36.9091H645.764V55.9254H595.321V81.9197H641.983V100.936H595.321V126.984H645.978V146H572.256ZM723.281 68.2834C722.855 63.9865 721.026 60.6484 717.795 58.2692C714.563 55.8899 710.178 54.7003 704.638 54.7003C700.874 54.7003 697.695 55.233 695.103 56.2983C692.511 57.3281 690.522 58.7663 689.137 60.6129C687.788 62.4595 687.113 64.5547 687.113 66.8984C687.042 68.8516 687.45 70.5561 688.338 72.0121C689.261 73.468 690.522 74.7287 692.12 75.794C693.718 76.8239 695.565 77.7294 697.66 78.5107C699.755 79.2564 701.992 79.8956 704.372 80.4283L714.173 82.772C718.931 83.8374 723.299 85.2578 727.276 87.0334C731.254 88.8089 734.698 90.9929 737.61 93.5852C740.522 96.1776 742.777 99.2315 744.375 102.747C746.009 106.263 746.843 110.293 746.879 114.839C746.843 121.515 745.139 127.303 741.765 132.204C738.427 137.069 733.597 140.851 727.276 143.55C720.991 146.213 713.409 147.545 704.531 147.545C695.725 147.545 688.054 146.195 681.52 143.496C675.021 140.798 669.943 136.803 666.286 131.511C662.663 126.185 660.764 119.597 660.586 111.749H682.905C683.153 115.407 684.201 118.461 686.048 120.911C687.93 123.326 690.433 125.155 693.558 126.398C696.719 127.605 700.288 128.209 704.265 128.209C708.171 128.209 711.563 127.641 714.439 126.504C717.351 125.368 719.606 123.788 721.204 121.763C722.802 119.739 723.601 117.413 723.601 114.786C723.601 112.335 722.873 110.276 721.417 108.607C719.997 106.937 717.901 105.517 715.131 104.345C712.397 103.173 709.041 102.108 705.064 101.149L693.185 98.1662C683.988 95.929 676.726 92.4311 671.399 87.6726C666.073 82.9141 663.427 76.5043 663.462 68.4432C663.427 61.8381 665.185 56.0675 668.736 51.1314C672.323 46.1953 677.241 42.3423 683.491 39.5724C689.741 36.8026 696.843 35.4176 704.798 35.4176C712.894 35.4176 719.961 36.8026 725.998 39.5724C732.07 42.3423 736.793 46.1953 740.167 51.1314C743.541 56.0675 745.281 61.7848 745.387 68.2834H723.281Z"/>
</mask>
<path d="M78.7501 68.2834L74.7696 68.6781L75.1272 72.2834H78.7501V68.2834ZM50.5718 56.2983L52.0486 60.0157L52.0705 60.007L52.0923 59.9981L50.5718 56.2983ZM44.6059 60.6129L41.4059 58.2129L41.391 58.2328L41.3763 58.2529L44.6059 60.6129ZM42.5818 66.8984L46.5791 67.0438L46.5818 66.9711V66.8984H42.5818ZM43.8069 72.0121L40.3917 74.0945L40.41 74.1245L40.4289 74.1542L43.8069 72.0121ZM47.5889 75.794L45.3701 79.1222L45.3959 79.1395L45.4221 79.1563L47.5889 75.794ZM53.1286 78.5107L51.7311 82.2586L51.7591 82.269L51.7873 82.2791L53.1286 78.5107ZM59.8403 80.4283L60.7706 76.5379L60.7424 76.5312L60.7142 76.5249L59.8403 80.4283ZM69.6414 82.772L68.7111 86.6623L68.7393 86.6691L68.7675 86.6754L69.6414 82.772ZM82.7451 87.0334L81.1145 90.6859H81.1145L82.7451 87.0334ZM93.0789 93.5852L95.7386 90.5976H95.7386L93.0789 93.5852ZM99.8438 102.747L96.2024 104.402L96.2093 104.418L96.2163 104.433L99.8438 102.747ZM102.347 114.839L106.347 114.86L106.347 114.834L106.347 114.808L102.347 114.839ZM97.2338 132.204L93.939 129.936L93.9355 129.941L97.2338 132.204ZM82.7451 143.55L84.3057 147.233L84.3158 147.228L82.7451 143.55ZM36.9887 143.496L35.4546 147.191L35.4617 147.193L36.9887 143.496ZM21.7544 131.511L18.4466 133.761L18.4553 133.773L18.464 133.786L21.7544 131.511ZM16.0548 111.749V107.749H11.9633L12.0558 111.84L16.0548 111.749ZM38.3737 111.749L42.3645 111.478L42.111 107.749H38.3737V111.749ZM41.5164 120.911L38.322 123.319L38.3415 123.345L38.3615 123.37L41.5164 120.911ZM49.0271 126.398L47.5488 130.115L47.5741 130.125L47.5996 130.134L49.0271 126.398ZM69.9078 126.504L68.4536 122.778L68.4458 122.781L68.438 122.784L69.9078 126.504ZM76.6727 121.763L79.8122 124.242H79.8122L76.6727 121.763ZM76.8857 108.607L73.8396 111.199L73.8554 111.218L73.8715 111.236L76.8857 108.607ZM70.6002 104.345L69.0246 108.022L69.0331 108.025L69.0417 108.029L70.6002 104.345ZM60.5328 101.149L59.5585 105.029L59.5769 105.033L59.5953 105.038L60.5328 101.149ZM48.6542 98.1662L49.6284 94.2866L49.614 94.283L49.5996 94.2795L48.6542 98.1662ZM26.868 87.6726L24.2031 90.6556H24.2031L26.868 87.6726ZM18.9312 68.4432L22.9312 68.4608L22.9312 68.4412L22.9311 68.4217L18.9312 68.4432ZM24.2046 51.1314L20.9687 48.7801L20.9631 48.7877L20.9576 48.7954L24.2046 51.1314ZM81.4667 39.5724L79.7986 43.208L79.8067 43.2117L81.4667 39.5724ZM95.6357 51.1314L92.3333 53.3884L92.3334 53.3884L95.6357 51.1314ZM100.856 68.2834V72.2834H104.922L104.855 68.2178L100.856 68.2834ZM82.7306 67.8886C82.2022 62.5606 79.8542 58.1544 75.6352 55.0481L70.892 61.4903C73.136 63.1425 74.4457 65.4124 74.7696 68.6781L82.7306 67.8886ZM75.6352 55.0481C71.4984 52.0023 66.182 50.7003 60.1066 50.7003V58.7003C65.1108 58.7003 68.5657 59.7775 70.892 61.4903L75.6352 55.0481ZM60.1066 50.7003C55.9895 50.7003 52.2608 51.2796 49.0514 52.5985L52.0923 59.9981C54.0675 59.1863 56.6954 58.7003 60.1066 58.7003V50.7003ZM49.095 52.5809C45.9613 53.8258 43.3172 55.6646 41.4059 58.2129L47.8059 63.0129C48.6646 61.8681 49.9977 60.8304 52.0486 60.0157L49.095 52.5809ZM41.3763 58.2529C39.5132 60.8025 38.5818 63.7287 38.5818 66.8984H46.5818C46.5818 65.3806 46.9998 64.1165 47.8355 62.973L41.3763 58.2529ZM38.5844 66.7531C38.4892 69.3721 39.0384 71.8751 40.3917 74.0945L47.2221 69.9296C46.7998 69.2371 46.5323 68.331 46.5791 67.0438L38.5844 66.7531ZM40.4289 74.1542C41.6839 76.1334 43.3603 77.7824 45.3701 79.1222L49.8077 72.4658C48.6215 71.675 47.7765 70.8027 47.1849 69.8699L40.4289 74.1542ZM45.4221 79.1563C47.2998 80.3664 49.4122 81.3939 51.7311 82.2586L54.5262 74.7627C52.6547 74.0649 51.074 73.2813 49.7557 72.4317L45.4221 79.1563ZM51.7873 82.2791C54.0492 83.0841 56.4437 83.7668 58.9664 84.3316L60.7142 76.5249C58.4784 76.0243 56.3984 75.4286 54.4699 74.7422L51.7873 82.2791ZM58.91 84.3186L68.7111 86.6623L70.5717 78.8817L60.7706 76.5379L58.91 84.3186ZM68.7675 86.6754C73.2965 87.6893 77.4074 89.031 81.1145 90.6859L84.3757 83.3808C80.1283 81.4847 75.5034 79.9854 70.5153 78.8686L68.7675 86.6754ZM81.1145 90.6859C84.7601 92.3134 87.8478 94.2836 90.4192 96.5729L95.7386 90.5976C92.4862 87.7022 88.6847 85.3045 84.3757 83.3808L81.1145 90.6859ZM90.4192 96.5728C92.9187 98.798 94.8374 101.399 96.2024 104.402L103.485 101.092C101.654 97.0636 99.063 93.5571 95.7386 90.5976L90.4192 96.5728ZM96.2163 104.433C97.5709 107.348 98.3157 110.799 98.3475 114.87L106.347 114.808C106.308 109.788 105.384 105.178 103.471 101.062L96.2163 104.433ZM98.3474 114.818C98.3157 120.793 96.8029 125.775 93.939 129.936L100.529 134.472C104.412 128.831 106.308 122.237 106.347 114.86L98.3474 114.818ZM93.9355 129.941C91.0941 134.082 86.9143 137.42 81.1744 139.871L84.3158 147.228C91.218 144.281 96.6973 140.056 100.532 134.467L93.9355 129.941ZM81.1845 139.867C75.5169 142.268 68.4955 143.545 60.0001 143.545V151.545C69.2603 151.545 77.4023 150.158 84.3057 147.233L81.1845 139.867ZM60.0001 143.545C51.5927 143.545 44.4625 142.256 38.5158 139.799L35.4617 147.193C42.5831 150.135 50.7938 151.545 60.0001 151.545V143.545ZM38.5229 139.802C32.6646 137.369 28.2247 133.837 25.0447 129.237L18.464 133.786C22.5994 139.768 28.3157 144.226 35.4546 147.191L38.5229 139.802ZM25.0621 129.262C21.9602 124.701 20.2177 118.905 20.0538 111.659L12.0558 111.84C12.247 120.289 14.3042 127.669 18.4466 133.761L25.0621 129.262ZM16.0548 115.749H38.3737V107.749H16.0548V115.749ZM34.3829 112.021C34.6737 116.299 35.9239 120.137 38.322 123.319L44.7109 118.504C43.4158 116.785 42.5708 114.514 42.3645 111.478L34.3829 112.021ZM38.3615 123.37C40.723 126.4 43.83 128.635 47.5488 130.115L50.5054 122.681C47.9742 121.674 46.074 120.252 44.6713 118.452L38.3615 123.37ZM47.5996 130.134C51.2883 131.544 55.3526 132.209 59.7338 132.209V124.209C56.1604 124.209 53.0869 123.667 50.4545 122.661L47.5996 130.134ZM59.7338 132.209C64.0161 132.209 67.9279 131.587 71.3775 130.224L68.438 122.784C66.1348 123.694 63.2639 124.209 59.7338 124.209V132.209ZM71.3619 130.231C74.7962 128.89 77.6885 126.932 79.8122 124.242L73.5331 119.285C72.4608 120.643 70.8432 121.845 68.4536 122.778L71.3619 130.231ZM79.8122 124.242C81.9789 121.498 83.0697 118.294 83.0697 114.786H75.0697C75.0697 116.532 74.5625 117.981 73.5331 119.285L79.8122 124.242ZM83.0697 114.786C83.0697 111.479 82.0606 108.454 79.9 105.977L73.8715 111.236C74.6228 112.097 75.0697 113.192 75.0697 114.786H83.0697ZM79.9319 106.014C77.9857 103.727 75.3005 101.99 72.1588 100.661L69.0417 108.029C71.4398 109.044 72.9449 110.148 73.8396 111.199L79.9319 106.014ZM72.1759 100.669C69.1747 99.3824 65.591 98.2539 61.4702 97.2605L59.5953 105.038C63.4291 105.962 66.557 106.964 69.0246 108.022L72.1759 100.669ZM61.507 97.2696L49.6284 94.2866L47.68 102.046L59.5585 105.029L61.507 97.2696ZM49.5996 94.2795C40.8409 92.149 34.2359 88.891 29.5328 84.6895L24.2031 90.6556C30.1535 95.9713 38.0726 99.7089 47.7088 102.053L49.5996 94.2795ZM29.5328 84.6895C25.1752 80.7967 22.9 75.5405 22.9312 68.4608L14.9312 68.4256C14.8914 77.468 17.9073 85.0314 24.2031 90.6556L29.5328 84.6895ZM22.9311 68.4217C22.8998 62.5852 24.4375 57.657 27.4517 53.4674L20.9576 48.7954C16.8695 54.4779 14.8916 61.0909 14.9313 68.4647L22.9311 68.4217ZM27.4406 53.4827C30.565 49.1827 34.895 45.749 40.5803 43.2294L37.3389 35.9155C30.5242 38.9356 25.0175 43.2079 20.9687 48.7801L27.4406 53.4827ZM40.5803 43.2294C46.2432 40.7197 52.7796 39.4176 60.2664 39.4176V31.4176C51.8442 31.4176 44.176 32.8854 37.3389 35.9155L40.5803 43.2294ZM60.2664 39.4176C67.9107 39.4176 74.3867 40.7249 79.7986 43.208L83.1348 35.9369C76.4729 32.8802 68.8153 31.4176 60.2664 31.4176V39.4176ZM79.8067 43.2117C85.2952 45.7152 89.4176 49.1222 92.3333 53.3884L98.9381 48.8744C95.1068 43.2684 89.7831 38.9694 83.1267 35.9332L79.8067 43.2117ZM92.3334 53.3884C95.2265 57.6216 96.7616 62.5622 96.8564 68.3489L104.855 68.2178C104.737 61.0074 102.792 54.5133 98.9381 48.8744L92.3334 53.3884ZM100.856 64.2834H78.7501V72.2834H100.856V64.2834ZM117.861 146H113.861V150H117.861V146ZM117.861 36.9091V32.9091H113.861V36.9091H117.861ZM191.37 36.9091H195.37V32.9091H191.37V36.9091ZM191.37 55.9254V59.9254H195.37V55.9254H191.37ZM140.926 55.9254V51.9254H136.926V55.9254H140.926ZM140.926 81.9197H136.926V85.9197H140.926V81.9197ZM187.588 81.9197H191.588V77.9197H187.588V81.9197ZM187.588 100.936V104.936H191.588V100.936H187.588ZM140.926 100.936V96.9361H136.926V100.936H140.926ZM140.926 126.984H136.926V130.984H140.926V126.984ZM191.583 126.984H195.583V122.984H191.583V126.984ZM191.583 146V150H195.583V146H191.583ZM121.861 146V36.9091H113.861V146H121.861ZM117.861 40.9091H191.37V32.9091H117.861V40.9091ZM187.37 36.9091V55.9254H195.37V36.9091H187.37ZM191.37 51.9254H140.926V59.9254H191.37V51.9254ZM136.926 55.9254V81.9197H144.926V55.9254H136.926ZM140.926 85.9197H187.588V77.9197H140.926V85.9197ZM183.588 81.9197V100.936H191.588V81.9197H183.588ZM187.588 96.9361H140.926V104.936H187.588V96.9361ZM136.926 100.936V126.984H144.926V100.936H136.926ZM140.926 130.984H191.583V122.984H140.926V130.984ZM187.583 126.984V146H195.583V126.984H187.583ZM191.583 142H117.861V150H191.583V142ZM209.707 146H205.707V150H209.707V146ZM209.707 36.9091V32.9091H205.707V36.9091H209.707ZM273.841 41.3303L272.034 44.8992L272.047 44.9058L272.06 44.9123L273.841 41.3303ZM287.211 53.7415L283.735 55.7211L283.743 55.7347L283.751 55.7484L287.211 53.7415ZM287.157 91.2415L290.583 93.3064L290.589 93.296L287.157 91.2415ZM273.574 103.173L271.882 99.5491L271.873 99.553L273.574 103.173ZM223.343 107.328H219.343V111.328H223.343V107.328ZM223.343 88.7912V84.7912H219.343V88.7912H223.343ZM259.405 86.9801L260.937 90.6751V90.6751L259.405 86.9801ZM265.904 81.5469L262.478 79.4815L262.467 79.5001L262.456 79.5188L265.904 81.5469ZM265.904 63.3828L262.431 65.3674L262.441 65.386L262.452 65.4044L265.904 63.3828ZM259.352 57.7365L257.707 61.3825L257.734 61.3946L257.76 61.4062L259.352 57.7365ZM232.772 55.7656V51.7656H228.772V55.7656H232.772ZM232.772 146V150H236.772V146H232.772ZM268.62 96.3551L272.131 94.4379L270.994 92.3551H268.62V96.3551ZM295.733 146V150H302.476L299.244 144.083L295.733 146ZM270.272 146L266.744 147.885L267.874 150H270.272V146ZM243.745 96.3551V92.3551H237.072L240.217 98.2402L243.745 96.3551ZM213.707 146V36.9091H205.707V146H213.707ZM209.707 40.9091H252.747V32.9091H209.707V40.9091ZM252.747 40.9091C260.518 40.9091 266.898 42.2996 272.034 44.8992L275.647 37.7613C269.136 34.466 261.453 32.9091 252.747 32.9091V40.9091ZM272.06 44.9123C277.253 47.4929 281.099 51.0922 283.735 55.7211L290.686 51.7619C287.215 45.6663 282.147 40.9915 275.621 37.7482L272.06 44.9123ZM283.751 55.7484C286.43 60.3683 287.845 65.9194 287.845 72.5447H295.845C295.845 64.7525 294.17 57.7681 290.671 51.7346L283.751 55.7484ZM287.845 72.5447C287.845 79.2044 286.413 84.6969 283.725 89.1869L290.589 93.296C294.152 87.3457 295.845 80.3738 295.845 72.5447H287.845ZM283.732 89.1766C281.05 93.6253 277.154 97.0868 271.882 99.5491L275.267 106.797C281.856 103.72 287.015 99.227 290.583 93.3064L283.732 89.1766ZM271.873 99.553C266.64 102.012 260.116 103.328 252.161 103.328V111.328C260.967 111.328 268.719 109.874 275.275 106.794L271.873 99.553ZM252.161 103.328H223.343V111.328H252.161V103.328ZM227.343 107.328V88.7912H219.343V107.328H227.343ZM223.343 92.7912H248.432V84.7912H223.343V92.7912ZM248.432 92.7912C253.167 92.7912 257.388 92.1468 260.937 90.6751L257.873 83.2851C255.599 84.2282 252.504 84.7912 248.432 84.7912V92.7912ZM260.937 90.6751C264.546 89.1786 267.436 86.8314 269.352 83.575L262.456 79.5188C261.531 81.0919 260.088 82.3668 257.873 83.2851L260.937 90.6751ZM269.329 83.6123C271.251 80.4258 272.088 76.6641 272.088 72.5447H264.088C264.088 75.5987 263.469 77.8384 262.478 79.4815L269.329 83.6123ZM272.088 72.5447C272.088 68.3925 271.252 64.5992 269.355 61.3612L262.452 65.4044C263.468 67.138 264.088 69.4526 264.088 72.5447H272.088ZM269.377 61.3983C267.476 58.0716 264.582 55.645 260.944 54.0668L257.76 61.4062C260.017 62.3849 261.491 63.7225 262.431 65.3674L269.377 61.3983ZM260.997 54.0905C257.408 52.471 253.125 51.7656 248.326 51.7656V59.7656C252.404 59.7656 255.472 60.3742 257.707 61.3825L260.997 54.0905ZM248.326 51.7656H232.772V59.7656H248.326V51.7656ZM228.772 55.7656V146H236.772V55.7656H228.772ZM232.772 142H209.707V150H232.772V142ZM265.11 98.2724L292.223 147.917L299.244 144.083L272.131 94.4379L265.11 98.2724ZM295.733 142H270.272V150H295.733V142ZM273.8 144.115L247.273 94.47L240.217 98.2402L266.744 147.885L273.8 144.115ZM243.745 100.355H268.62V92.3551H243.745V100.355ZM324.924 36.9091L328.736 35.6965L327.849 32.9091H324.924V36.9091ZM351.291 119.793L347.479 121.005L348.366 123.793H351.291V119.793ZM352.303 119.793V123.793H355.226L356.114 121.007L352.303 119.793ZM378.723 36.9091V32.9091H375.8L374.912 35.6943L378.723 36.9091ZM404.292 36.9091L408.073 38.2127L409.902 32.9091H404.292V36.9091ZM366.685 146V150H369.537L370.467 147.304L366.685 146ZM336.962 146L333.181 147.305L334.111 150H336.962V146ZM299.302 36.9091V32.9091H293.69L295.521 38.2144L299.302 36.9091ZM321.112 38.1217L347.479 121.005L355.103 118.58L328.736 35.6965L321.112 38.1217ZM351.291 123.793H352.303V115.793H351.291V123.793ZM356.114 121.007L382.535 38.1239L374.912 35.6943L348.492 118.578L356.114 121.007ZM378.723 40.9091H404.292V32.9091H378.723V40.9091ZM400.51 35.6055L362.904 144.696L370.467 147.304L408.073 38.2127L400.51 35.6055ZM366.685 142H336.962V150H366.685V142ZM340.743 144.695L303.083 35.6038L295.521 38.2144L333.181 147.305L340.743 144.695ZM299.302 40.9091H324.924V32.9091H299.302V40.9091ZM440.487 36.9091H444.487V32.9091H440.487V36.9091ZM440.487 146V150H444.487V146H440.487ZM417.422 146H413.422V150H417.422V146ZM417.422 36.9091V32.9091H413.422V36.9091H417.422ZM436.487 36.9091V146H444.487V36.9091H436.487ZM440.487 142H417.422V150H440.487V142ZM421.422 146V36.9091H413.422V146H421.422ZM417.422 40.9091H440.487V32.9091H417.422V40.9091ZM555.717 75.1016V79.1016H560.216L559.689 74.6329L555.717 75.1016ZM532.386 75.1016L528.425 75.6607L528.911 79.1016H532.386V75.1016ZM529.776 67.0582L526.274 68.9919L526.28 69.0031L526.286 69.0143L529.776 67.0582ZM524.715 60.9858L522.197 64.0935V64.0935L524.715 60.9858ZM517.577 57.1506L516.312 60.9453L516.32 60.9478L516.327 60.9503L517.577 57.1506ZM494.14 60.027L496.346 63.3639L496.355 63.3574L496.365 63.3508L494.14 60.027ZM484.392 72.1719L488.058 73.7713L488.062 73.7623L484.392 72.1719ZM484.392 111.057L480.726 112.656L480.73 112.667L480.735 112.677L484.392 111.057ZM494.193 123.042L492.027 126.405L494.193 123.042ZM517.311 125.865L516.138 122.041L516.131 122.043L516.124 122.045L517.311 125.865ZM524.396 122.296L526.813 125.483L526.83 125.47L526.847 125.457L524.396 122.296ZM529.509 116.49L526.093 114.409L526.081 114.428L526.07 114.448L529.509 116.49ZM532.386 108.713L532.404 104.713L529.054 104.698L528.451 107.993L532.386 108.713ZM555.717 108.82L559.688 109.298L560.225 104.84L555.735 104.82L555.717 108.82ZM551.189 123.308L547.639 121.465L547.633 121.476L551.189 123.308ZM541.547 135.719L544.228 138.689L544.229 138.687L541.547 135.719ZM527.165 144.349L528.58 148.09L528.593 148.085L527.165 144.349ZM482.261 140.886L480.263 144.351L480.27 144.355L482.261 140.886ZM464.15 121.763L460.613 123.63L460.619 123.642L464.15 121.763ZM464.257 61.0923L467.782 62.9825V62.9825L464.257 61.0923ZM482.474 42.0227L484.454 45.4987L484.466 45.4917L482.474 42.0227ZM525.94 38.081L524.69 41.8807L524.698 41.8831L525.94 38.081ZM540.376 45.8579L537.851 48.9608L537.859 48.9673L537.867 48.9737L540.376 45.8579ZM550.603 58.2692L547.078 60.1595L547.083 60.1694L547.088 60.1792L550.603 58.2692ZM555.717 71.1016H532.386V79.1016H555.717V71.1016ZM536.346 74.5424C535.86 71.0986 534.851 67.9325 533.265 65.1022L526.286 69.0143C527.328 70.8715 528.059 73.0676 528.425 75.6607L536.346 74.5424ZM533.277 65.1245C531.72 62.3059 529.704 59.8797 527.233 57.8781L522.197 64.0935C523.846 65.4299 525.203 67.052 526.274 68.9919L533.277 65.1245ZM527.233 57.8781C524.77 55.882 521.954 54.3794 518.827 53.3509L516.327 60.9503C518.598 61.6973 520.541 62.7516 522.197 64.0935L527.233 57.8781ZM518.842 53.3558C515.728 52.3176 512.402 51.8189 508.895 51.8189V59.8189C511.638 59.8189 514.1 60.2079 516.312 60.9453L518.842 53.3558ZM508.895 51.8189C502.554 51.8189 496.841 53.4052 491.915 56.7031L496.365 63.3508C499.82 61.038 503.943 59.8189 508.895 59.8189V51.8189ZM491.934 56.6901C487.001 59.9513 483.289 64.6564 480.722 70.5814L488.062 73.7623C490.111 69.0339 492.898 65.6425 496.346 63.3639L491.934 56.6901ZM480.726 70.5725C478.14 76.4986 476.93 83.5031 476.93 91.4545H484.93C484.93 84.2782 486.027 78.4275 488.058 73.7713L480.726 70.5725ZM476.93 91.4545C476.93 99.6015 478.135 106.718 480.726 112.656L488.058 109.457C486.032 104.813 484.93 98.8616 484.93 91.4545H476.93ZM480.735 112.677C483.343 118.564 487.08 123.218 492.027 126.405L496.359 119.679C492.926 117.468 490.129 114.132 488.049 109.437L480.735 112.677ZM492.027 126.405C496.93 129.562 502.546 131.09 508.735 131.09V123.09C503.916 123.09 499.837 121.919 496.359 119.679L492.027 126.405ZM508.735 131.09C512.178 131.09 515.442 130.635 518.498 129.685L516.124 122.045C513.924 122.729 511.471 123.09 508.735 123.09V131.09ZM518.484 129.689C521.561 128.745 524.351 127.351 526.813 125.483L521.978 119.109C520.321 120.367 518.387 121.351 516.138 122.041L518.484 129.689ZM526.847 125.457C529.309 123.547 531.347 121.23 532.949 118.532L526.07 114.448C524.973 116.295 523.601 117.85 521.944 119.136L526.847 125.457ZM532.925 118.572C534.592 115.836 535.709 112.773 536.32 109.433L528.451 107.993C527.996 110.477 527.196 112.599 526.093 114.409L532.925 118.572ZM532.367 112.713L555.698 112.82L555.735 104.82L532.404 104.713L532.367 112.713ZM551.745 108.341C551.201 112.853 549.841 117.222 547.639 121.465L554.739 125.151C557.366 120.09 559.024 114.8 559.688 109.298L551.745 108.341ZM547.633 121.476C545.486 125.643 542.575 129.4 538.866 132.751L544.229 138.687C548.616 134.723 552.134 130.207 554.744 125.141L547.633 121.476ZM538.867 132.75C535.257 136.009 530.9 138.64 525.737 140.612L528.593 148.085C534.582 145.797 539.812 142.674 544.228 138.689L538.867 132.75ZM525.75 140.607C520.737 142.504 514.96 143.491 508.362 143.491V151.491C515.756 151.491 522.515 150.384 528.58 148.09L525.75 140.607ZM508.362 143.491C499.259 143.491 491.258 141.439 484.253 137.417L480.27 144.355C488.606 149.141 498.005 151.491 508.362 151.491V143.491ZM484.26 137.421C477.322 133.42 471.795 127.618 467.682 119.885L460.619 123.642C465.384 132.599 471.931 139.546 480.263 144.351L484.26 137.421ZM467.688 119.897C463.657 112.256 461.545 102.828 461.545 91.4545H453.545C453.545 103.802 455.838 114.58 460.613 123.63L467.688 119.897ZM461.545 91.4545C461.545 80.052 463.689 70.616 467.782 62.9825L460.732 59.2022C455.876 68.259 453.545 79.0644 453.545 91.4545H461.545ZM467.782 62.9825C471.928 55.2505 477.485 49.4667 484.454 45.4987L480.495 38.5468C472.122 43.3145 465.535 50.2438 460.732 59.2022L467.782 62.9825ZM484.466 45.4917C491.48 41.4652 499.412 39.4176 508.362 39.4176V31.4176C498.136 31.4176 488.81 33.7734 480.483 38.5537L484.466 45.4917ZM508.362 39.4176C514.306 39.4176 519.739 40.2518 524.69 41.8807L527.19 34.2813C521.346 32.359 515.06 31.4176 508.362 31.4176V39.4176ZM524.698 41.8831C529.692 43.5151 534.063 45.8792 537.851 48.9608L542.9 42.7551C538.307 39.0186 533.055 36.1979 527.183 34.2788L524.698 41.8831ZM537.867 48.9737C541.626 51.9997 544.695 55.7151 547.078 60.1595L554.128 56.3789C551.256 51.0221 547.506 46.4634 542.884 42.7422L537.867 48.9737ZM547.088 60.1792C549.477 64.5743 551.05 69.6837 551.744 75.5702L559.689 74.6329C558.892 67.8774 557.055 61.7652 554.117 56.3591L547.088 60.1792ZM572.256 146H568.256V150H572.256V146ZM572.256 36.9091V32.9091H568.256V36.9091H572.256ZM645.764 36.9091H649.764V32.9091H645.764V36.9091ZM645.764 55.9254V59.9254H649.764V55.9254H645.764ZM595.321 55.9254V51.9254H591.321V55.9254H595.321ZM595.321 81.9197H591.321V85.9197H595.321V81.9197ZM641.983 81.9197H645.983V77.9197H641.983V81.9197ZM641.983 100.936V104.936H645.983V100.936H641.983ZM595.321 100.936V96.9361H591.321V100.936H595.321ZM595.321 126.984H591.321V130.984H595.321V126.984ZM645.978 126.984H649.978V122.984H645.978V126.984ZM645.978 146V150H649.978V146H645.978ZM576.256 146V36.9091H568.256V146H576.256ZM572.256 40.9091H645.764V32.9091H572.256V40.9091ZM641.764 36.9091V55.9254H649.764V36.9091H641.764ZM645.764 51.9254H595.321V59.9254H645.764V51.9254ZM591.321 55.9254V81.9197H599.321V55.9254H591.321ZM595.321 85.9197H641.983V77.9197H595.321V85.9197ZM637.983 81.9197V100.936H645.983V81.9197H637.983ZM641.983 96.9361H595.321V104.936H641.983V96.9361ZM591.321 100.936V126.984H599.321V100.936H591.321ZM595.321 130.984H645.978V122.984H595.321V130.984ZM641.978 126.984V146H649.978V126.984H641.978ZM645.978 142H572.256V150H645.978V142ZM723.281 68.2834L719.301 68.6781L719.658 72.2834H723.281V68.2834ZM695.103 56.2983L696.58 60.0157L696.602 60.007L696.624 59.9981L695.103 56.2983ZM689.137 60.6129L685.937 58.2129L685.922 58.2328L685.908 58.2529L689.137 60.6129ZM687.113 66.8984L691.11 67.0438L691.113 66.9711V66.8984H687.113ZM688.338 72.0121L684.923 74.0945L684.941 74.1245L684.96 74.1542L688.338 72.0121ZM692.12 75.794L689.901 79.1222L689.927 79.1395L689.953 79.1563L692.12 75.794ZM697.66 78.5107L696.262 82.2586L696.29 82.269L696.319 82.2791L697.66 78.5107ZM704.372 80.4283L705.302 76.5379L705.274 76.5312L705.245 76.5249L704.372 80.4283ZM714.173 82.772L713.242 86.6623L713.271 86.6691L713.299 86.6754L714.173 82.772ZM727.276 87.0334L725.646 90.6859L727.276 87.0334ZM737.61 93.5852L740.27 90.5976L737.61 93.5852ZM744.375 102.747L740.734 104.402L740.741 104.418L740.748 104.433L744.375 102.747ZM746.879 114.839L750.879 114.86L750.879 114.834L750.879 114.808L746.879 114.839ZM741.765 132.204L738.47 129.936L738.467 129.941L741.765 132.204ZM727.276 143.55L728.837 147.233L728.847 147.228L727.276 143.55ZM681.52 143.496L679.986 147.191L679.993 147.193L681.52 143.496ZM666.286 131.511L662.978 133.761L662.987 133.773L662.995 133.786L666.286 131.511ZM660.586 111.749V107.749H656.495L656.587 111.84L660.586 111.749ZM682.905 111.749L686.896 111.478L686.642 107.749H682.905V111.749ZM686.048 120.911L682.853 123.319L682.873 123.345L682.893 123.37L686.048 120.911ZM693.558 126.398L692.08 130.115L692.105 130.125L692.131 130.134L693.558 126.398ZM714.439 126.504L712.985 122.778L712.977 122.781L712.969 122.784L714.439 126.504ZM721.204 121.763L724.343 124.242L721.204 121.763ZM721.417 108.607L718.371 111.199L718.387 111.218L718.403 111.236L721.417 108.607ZM715.131 104.345L713.556 108.022L713.564 108.025L713.573 108.029L715.131 104.345ZM705.064 101.149L704.09 105.029L704.108 105.033L704.127 105.038L705.064 101.149ZM693.185 98.1662L694.16 94.2866L694.145 94.283L694.131 94.2795L693.185 98.1662ZM671.399 87.6726L668.734 90.6556L671.399 87.6726ZM663.462 68.4432L667.462 68.4608L667.463 68.4412L667.462 68.4217L663.462 68.4432ZM668.736 51.1314L665.5 48.7801L665.494 48.7877L665.489 48.7954L668.736 51.1314ZM725.998 39.5724L724.33 43.208L724.338 43.2117L725.998 39.5724ZM740.167 51.1314L736.865 53.3884V53.3884L740.167 51.1314ZM745.387 68.2834V72.2834H749.453L749.387 68.2178L745.387 68.2834ZM727.262 67.8886C726.733 62.5606 724.385 58.1544 720.166 55.0481L715.423 61.4903C717.667 63.1425 718.977 65.4124 719.301 68.6781L727.262 67.8886ZM720.166 55.0481C716.03 52.0023 710.713 50.7003 704.638 50.7003V58.7003C709.642 58.7003 713.097 59.7775 715.423 61.4903L720.166 55.0481ZM704.638 50.7003C700.521 50.7003 696.792 51.2796 693.583 52.5985L696.624 59.9981C698.599 59.1863 701.227 58.7003 704.638 58.7003V50.7003ZM693.626 52.5809C690.492 53.8258 687.848 55.6646 685.937 58.2129L692.337 63.0129C693.196 61.8681 694.529 60.8304 696.58 60.0157L693.626 52.5809ZM685.908 58.2529C684.044 60.8025 683.113 63.7287 683.113 66.8984H691.113C691.113 65.3806 691.531 64.1165 692.367 62.973L685.908 58.2529ZM683.116 66.7531C683.02 69.3721 683.57 71.8751 684.923 74.0945L691.753 69.9296C691.331 69.2371 691.064 68.331 691.11 67.0438L683.116 66.7531ZM684.96 74.1542C686.215 76.1334 687.891 77.7824 689.901 79.1222L694.339 72.4658C693.153 71.675 692.308 70.8027 691.716 69.8699L684.96 74.1542ZM689.953 79.1563C691.831 80.3664 693.943 81.3939 696.262 82.2586L699.057 74.7627C697.186 74.0649 695.605 73.2813 694.287 72.4317L689.953 79.1563ZM696.319 82.2791C698.58 83.0841 700.975 83.7668 703.498 84.3316L705.245 76.5249C703.01 76.0243 700.93 75.4286 699.001 74.7422L696.319 82.2791ZM703.441 84.3186L713.242 86.6623L715.103 78.8817L705.302 76.5379L703.441 84.3186ZM713.299 86.6754C717.828 87.6893 721.939 89.031 725.646 90.6859L728.907 83.3808C724.66 81.4847 720.035 79.9854 715.047 78.8686L713.299 86.6754ZM725.646 90.6859C729.291 92.3134 732.379 94.2836 734.95 96.5729L740.27 90.5976C737.017 87.7022 733.216 85.3045 728.907 83.3808L725.646 90.6859ZM734.95 96.5728C737.45 98.798 739.369 101.399 740.734 104.402L748.017 101.092C746.185 97.0636 743.594 93.5571 740.27 90.5976L734.95 96.5728ZM740.748 104.433C742.102 107.348 742.847 110.799 742.879 114.87L750.879 114.808C750.839 109.788 749.915 105.178 748.003 101.062L740.748 104.433ZM742.879 114.818C742.847 120.793 741.334 125.775 738.47 129.936L745.06 134.472C748.943 128.831 750.839 122.237 750.879 114.86L742.879 114.818ZM738.467 129.941C735.625 134.082 731.445 137.42 725.706 139.871L728.847 147.228C735.749 144.281 741.229 140.056 745.063 134.467L738.467 129.941ZM725.716 139.867C720.048 142.268 713.027 143.545 704.531 143.545V151.545C713.792 151.545 721.934 150.158 728.837 147.233L725.716 139.867ZM704.531 143.545C696.124 143.545 688.994 142.256 683.047 139.799L679.993 147.193C687.114 150.135 695.325 151.545 704.531 151.545V143.545ZM683.054 139.802C677.196 137.369 672.756 133.837 669.576 129.237L662.995 133.786C667.131 139.768 672.847 144.226 679.986 147.191L683.054 139.802ZM669.593 129.262C666.491 124.701 664.749 118.905 664.585 111.659L656.587 111.84C656.778 120.289 658.835 127.669 662.978 133.761L669.593 129.262ZM660.586 115.749H682.905V107.749H660.586V115.749ZM678.914 112.021C679.205 116.299 680.455 120.137 682.853 123.319L689.242 118.504C687.947 116.785 687.102 114.514 686.896 111.478L678.914 112.021ZM682.893 123.37C685.254 126.4 688.361 128.635 692.08 130.115L695.037 122.681C692.505 121.674 690.605 120.252 689.203 118.452L682.893 123.37ZM692.131 130.134C695.82 131.544 699.884 132.209 704.265 132.209V124.209C700.692 124.209 697.618 123.667 694.986 122.661L692.131 130.134ZM704.265 132.209C708.547 132.209 712.459 131.587 715.909 130.224L712.969 122.784C710.666 123.694 707.795 124.209 704.265 124.209V132.209ZM715.893 130.231C719.327 128.89 722.22 126.932 724.343 124.242L718.064 119.285C716.992 120.643 715.374 121.845 712.985 122.778L715.893 130.231ZM724.343 124.242C726.51 121.498 727.601 118.294 727.601 114.786H719.601C719.601 116.532 719.094 117.981 718.064 119.285L724.343 124.242ZM727.601 114.786C727.601 111.479 726.592 108.454 724.431 105.977L718.403 111.236C719.154 112.097 719.601 113.192 719.601 114.786H727.601ZM724.463 106.014C722.517 103.727 719.832 101.99 716.69 100.661L713.573 108.029C715.971 109.044 717.476 110.148 718.371 111.199L724.463 106.014ZM716.707 100.669C713.706 99.3824 710.122 98.2539 706.001 97.2605L704.127 105.038C707.96 105.962 711.088 106.964 713.556 108.022L716.707 100.669ZM706.038 97.2696L694.16 94.2866L692.211 102.046L704.09 105.029L706.038 97.2696ZM694.131 94.2795C685.372 92.149 678.767 88.891 674.064 84.6895L668.734 90.6556C674.685 95.9713 682.604 99.7089 692.24 102.053L694.131 94.2795ZM674.064 84.6895C669.706 80.7967 667.431 75.5405 667.462 68.4608L659.462 68.4256C659.423 77.468 662.439 85.0314 668.734 90.6556L674.064 84.6895ZM667.462 68.4217C667.431 62.5852 668.969 57.657 671.983 53.4674L665.489 48.7954C661.401 54.4779 659.423 61.0909 659.463 68.4647L667.462 68.4217ZM671.972 53.4827C675.096 49.1827 679.426 45.749 685.112 43.2294L681.87 35.9155C675.055 38.9356 669.549 43.2079 665.5 48.7801L671.972 53.4827ZM685.112 43.2294C690.774 40.7197 697.311 39.4176 704.798 39.4176V31.4176C696.375 31.4176 688.707 32.8854 681.87 35.9155L685.112 43.2294ZM704.798 39.4176C712.442 39.4176 718.918 40.7249 724.33 43.208L727.666 35.9369C721.004 32.8802 713.347 31.4176 704.798 31.4176V39.4176ZM724.338 43.2117C729.826 45.7152 733.949 49.1222 736.865 53.3884L743.469 48.8744C739.638 43.2684 734.314 38.9694 727.658 35.9332L724.338 43.2117ZM736.865 53.3884C739.758 57.6216 741.293 62.5622 741.388 68.3489L749.387 68.2178C749.268 61.0074 747.323 54.5133 743.469 48.8744L736.865 53.3884ZM745.387 64.2834H723.281V72.2834H745.387V64.2834Z" fill="#DCDCDC" fill-opacity="0.5" mask="url(#path-1-outside-1_533_6943)"/>
<path d="M31.8097 131L21.4049 94.6364H29.8034L35.8225 119.903H36.1244L42.765 94.6364H49.9561L56.5789 119.956H56.8985L62.9177 94.6364H71.3161L60.9113 131H53.4184L46.4937 107.225H46.2096L39.3026 131H31.8097ZM80.1363 131.515C78.3962 131.515 76.8456 131.213 75.4843 130.609C74.123 129.994 73.0458 129.088 72.2528 127.893C71.4715 126.685 71.0809 125.182 71.0809 123.383C71.0809 121.868 71.359 120.595 71.9154 119.565C72.4717 118.536 73.2293 117.707 74.1881 117.08C75.1469 116.452 76.2359 115.979 77.4552 115.659C78.6862 115.339 79.9765 115.115 81.3259 114.984C82.9121 114.819 84.1905 114.665 85.1611 114.523C86.1318 114.369 86.8361 114.144 87.2741 113.848C87.712 113.552 87.931 113.114 87.931 112.534V112.428C87.931 111.303 87.5759 110.433 86.8657 109.817C86.1673 109.202 85.173 108.894 83.8827 108.894C82.5215 108.894 81.4384 109.196 80.6334 109.8C79.8285 110.392 79.2958 111.137 79.0354 112.037L72.0397 111.469C72.3948 109.812 73.0932 108.379 74.1349 107.172C75.1765 105.953 76.52 105.018 78.1654 104.366C79.8226 103.704 81.7402 103.372 83.9182 103.372C85.4334 103.372 86.8834 103.55 88.2684 103.905C89.6652 104.26 90.9021 104.81 91.9793 105.556C93.0683 106.302 93.9265 107.261 94.5539 108.433C95.1813 109.593 95.4949 110.983 95.4949 112.605V131H88.3216V127.218H88.1086C87.6706 128.07 87.0847 128.822 86.3508 129.473C85.6169 130.112 84.735 130.615 83.7052 130.982C82.6753 131.337 81.4857 131.515 80.1363 131.515ZM82.3025 126.295C83.4152 126.295 84.3976 126.076 85.2499 125.638C86.1022 125.188 86.771 124.584 87.2563 123.827C87.7416 123.069 87.9843 122.211 87.9843 121.252V118.358C87.7475 118.512 87.422 118.654 87.0077 118.784C86.6053 118.902 86.1495 119.015 85.6405 119.121C85.1315 119.216 84.6225 119.305 84.1135 119.388C83.6046 119.459 83.1429 119.524 82.7286 119.583C81.8408 119.713 81.0655 119.92 80.4026 120.205C79.7397 120.489 79.2248 120.873 78.8579 121.359C78.4909 121.832 78.3074 122.424 78.3074 123.134C78.3074 124.164 78.6803 124.951 79.426 125.496C80.1836 126.028 81.1424 126.295 82.3025 126.295ZM124.055 111.504L117.13 111.93C117.012 111.339 116.757 110.806 116.367 110.332C115.976 109.847 115.461 109.462 114.822 109.178C114.195 108.882 113.443 108.734 112.567 108.734C111.395 108.734 110.407 108.983 109.602 109.48C108.797 109.965 108.394 110.616 108.394 111.433C108.394 112.084 108.655 112.635 109.176 113.085C109.697 113.534 110.59 113.895 111.857 114.168L116.793 115.162C119.444 115.706 121.421 116.582 122.723 117.79C124.025 118.997 124.676 120.583 124.676 122.548C124.676 124.336 124.15 125.904 123.096 127.254C122.054 128.603 120.622 129.656 118.799 130.414C116.988 131.16 114.899 131.533 112.532 131.533C108.921 131.533 106.045 130.781 103.902 129.278C101.772 127.763 100.523 125.703 100.156 123.099L107.595 122.708C107.82 123.809 108.365 124.649 109.229 125.229C110.093 125.798 111.2 126.082 112.549 126.082C113.875 126.082 114.94 125.827 115.745 125.318C116.562 124.797 116.976 124.129 116.988 123.312C116.976 122.625 116.686 122.063 116.118 121.625C115.55 121.175 114.674 120.832 113.49 120.595L108.767 119.654C106.104 119.121 104.121 118.198 102.819 116.884C101.529 115.57 100.884 113.895 100.884 111.859C100.884 110.107 101.357 108.598 102.304 107.332C103.263 106.065 104.607 105.089 106.335 104.402C108.075 103.715 110.111 103.372 112.443 103.372C115.887 103.372 118.598 104.1 120.575 105.556C122.563 107.012 123.724 108.995 124.055 111.504ZM149.339 131L138.934 94.6364H147.333L153.352 119.903H153.654L160.294 94.6364H167.485L174.108 119.956H174.428L180.447 94.6364H188.845L178.441 131H170.948L164.023 107.225H163.739L156.832 131H149.339ZM192.818 131V103.727H200.382V131H192.818ZM196.618 100.212C195.493 100.212 194.529 99.8388 193.724 99.093C192.931 98.3355 192.534 97.4299 192.534 96.3764C192.534 95.3348 192.931 94.4411 193.724 93.6953C194.529 92.9377 195.493 92.5589 196.618 92.5589C197.743 92.5589 198.701 92.9377 199.494 93.6953C200.299 94.4411 200.702 95.3348 200.702 96.3764C200.702 97.4299 200.299 98.3355 199.494 99.093C198.701 99.8388 197.743 100.212 196.618 100.212ZM206.441 131V103.727H213.774V108.486H214.059C214.556 106.793 215.39 105.515 216.562 104.651C217.734 103.775 219.083 103.337 220.61 103.337C220.989 103.337 221.398 103.36 221.835 103.408C222.273 103.455 222.658 103.52 222.99 103.603V110.315C222.635 110.208 222.143 110.113 221.516 110.031C220.889 109.948 220.314 109.906 219.794 109.906C218.681 109.906 217.687 110.149 216.811 110.634C215.947 111.108 215.26 111.771 214.751 112.623C214.254 113.475 214.005 114.458 214.005 115.57V131H206.441ZM238.615 131V94.6364H262.691V100.975H246.303V109.64H261.093V115.979H246.303V131H238.615ZM283.501 119.388V103.727H291.065V131H283.803V126.046H283.519C282.903 127.644 281.879 128.929 280.447 129.899C279.027 130.87 277.292 131.355 275.245 131.355C273.422 131.355 271.818 130.941 270.433 130.112C269.048 129.284 267.965 128.106 267.184 126.579C266.414 125.052 266.023 123.223 266.012 121.092V103.727H273.576V119.743C273.587 121.353 274.019 122.625 274.872 123.56C275.724 124.496 276.866 124.963 278.299 124.963C279.21 124.963 280.062 124.756 280.855 124.342C281.648 123.915 282.288 123.288 282.773 122.46C283.27 121.631 283.513 120.607 283.501 119.388ZM273.167 99.9986C272.149 99.9986 271.273 99.6435 270.539 98.9332C269.805 98.2112 269.438 97.3589 269.438 96.3764C269.438 95.3703 269.805 94.518 270.539 93.8196C271.273 93.1212 272.149 92.772 273.167 92.772C274.197 92.772 275.067 93.1212 275.777 93.8196C276.499 94.518 276.86 95.3703 276.86 96.3764C276.86 97.3589 276.499 98.2112 275.777 98.9332C275.067 99.6435 274.197 99.9986 273.167 99.9986ZM284.034 99.9986C283.016 99.9986 282.14 99.6435 281.406 98.9332C280.672 98.2112 280.305 97.3589 280.305 96.3764C280.305 95.3703 280.672 94.518 281.406 93.8196C282.14 93.1212 283.016 92.772 284.034 92.772C285.063 92.772 285.934 93.1212 286.644 93.8196C287.366 94.518 287.727 95.3703 287.727 96.3764C287.727 97.3589 287.366 98.2112 286.644 98.9332C285.934 99.6435 285.063 99.9986 284.034 99.9986ZM297.115 131V103.727H304.448V108.486H304.732C305.229 106.793 306.064 105.515 307.236 104.651C308.408 103.775 309.757 103.337 311.284 103.337C311.663 103.337 312.071 103.36 312.509 103.408C312.947 103.455 313.332 103.52 313.663 103.603V110.315C313.308 110.208 312.817 110.113 312.19 110.031C311.562 109.948 310.988 109.906 310.467 109.906C309.355 109.906 308.36 110.149 307.484 110.634C306.62 111.108 305.934 111.771 305.425 112.623C304.928 113.475 304.679 114.458 304.679 115.57V131H297.115ZM342.179 131H329.288V94.6364H342.286C345.943 94.6364 349.092 95.3643 351.732 96.8203C354.371 98.2644 356.401 100.342 357.822 103.053C359.254 105.763 359.97 109.007 359.97 112.783C359.97 116.571 359.254 119.826 357.822 122.548C356.401 125.271 354.359 127.36 351.696 128.816C349.045 130.272 345.872 131 342.179 131ZM336.977 124.413H341.859C344.132 124.413 346.044 124.01 347.595 123.205C349.157 122.388 350.329 121.128 351.11 119.423C351.903 117.707 352.3 115.493 352.3 112.783C352.3 110.096 351.903 107.9 351.11 106.195C350.329 104.491 349.163 103.236 347.612 102.431C346.062 101.626 344.15 101.224 341.877 101.224H336.977V124.413ZM365.523 131V103.727H373.087V131H365.523ZM369.323 100.212C368.199 100.212 367.234 99.8388 366.429 99.093C365.636 98.3355 365.239 97.4299 365.239 96.3764C365.239 95.3348 365.636 94.4411 366.429 93.6953C367.234 92.9377 368.199 92.5589 369.323 92.5589C370.448 92.5589 371.406 92.9377 372.199 93.6953C373.004 94.4411 373.407 95.3348 373.407 96.3764C373.407 97.4299 373.004 98.3355 372.199 99.093C371.406 99.8388 370.448 100.212 369.323 100.212ZM391.469 131.533C388.675 131.533 386.272 130.941 384.26 129.757C382.26 128.562 380.721 126.904 379.644 124.786C378.578 122.667 378.046 120.228 378.046 117.47C378.046 114.677 378.584 112.226 379.661 110.119C380.75 108 382.295 106.349 384.296 105.165C386.296 103.97 388.675 103.372 391.433 103.372C393.813 103.372 395.896 103.804 397.683 104.668C399.471 105.532 400.885 106.746 401.927 108.308C402.969 109.871 403.543 111.705 403.649 113.812H396.511C396.31 112.451 395.778 111.356 394.913 110.528C394.061 109.687 392.943 109.267 391.558 109.267C390.386 109.267 389.362 109.587 388.486 110.226C387.622 110.853 386.947 111.771 386.462 112.978C385.976 114.185 385.734 115.647 385.734 117.364C385.734 119.104 385.97 120.583 386.444 121.803C386.929 123.022 387.61 123.951 388.486 124.59C389.362 125.229 390.386 125.549 391.558 125.549C392.422 125.549 393.197 125.371 393.884 125.016C394.582 124.661 395.156 124.146 395.606 123.472C396.068 122.785 396.369 121.962 396.511 121.004H403.649C403.531 123.087 402.963 124.922 401.945 126.508C400.939 128.082 399.548 129.313 397.772 130.201C395.997 131.089 393.895 131.533 391.469 131.533ZM416.056 115.233V131H408.492V94.6364H415.843V108.539H416.163C416.778 106.929 417.772 105.669 419.146 104.757C420.519 103.834 422.241 103.372 424.312 103.372C426.206 103.372 427.858 103.786 429.266 104.615C430.687 105.432 431.788 106.61 432.569 108.148C433.362 109.675 433.753 111.504 433.741 113.635V131H426.177V114.984C426.189 113.304 425.762 111.996 424.898 111.06C424.046 110.125 422.851 109.658 421.312 109.658C420.282 109.658 419.37 109.877 418.577 110.315C417.796 110.753 417.181 111.392 416.731 112.232C416.293 113.061 416.068 114.061 416.056 115.233ZM451.408 94.6364H460.889L470.903 119.068H471.329L481.344 94.6364H490.825V131H483.368V107.332H483.066L473.655 130.822H468.577L459.167 107.243H458.865V131H451.408V94.6364ZM504.794 131.515C503.054 131.515 501.504 131.213 500.142 130.609C498.781 129.994 497.704 129.088 496.911 127.893C496.13 126.685 495.739 125.182 495.739 123.383C495.739 121.868 496.017 120.595 496.574 119.565C497.13 118.536 497.888 117.707 498.846 117.08C499.805 116.452 500.894 115.979 502.113 115.659C503.344 115.339 504.635 115.115 505.984 114.984C507.57 114.819 508.849 114.665 509.819 114.523C510.79 114.369 511.494 114.144 511.932 113.848C512.37 113.552 512.589 113.114 512.589 112.534V112.428C512.589 111.303 512.234 110.433 511.524 109.817C510.825 109.202 509.831 108.894 508.541 108.894C507.18 108.894 506.097 109.196 505.292 109.8C504.487 110.392 503.954 111.137 503.694 112.037L496.698 111.469C497.053 109.812 497.751 108.379 498.793 107.172C499.835 105.953 501.178 105.018 502.824 104.366C504.481 103.704 506.398 103.372 508.576 103.372C510.092 103.372 511.542 103.55 512.927 103.905C514.323 104.26 515.56 104.81 516.638 105.556C517.727 106.302 518.585 107.261 519.212 108.433C519.839 109.593 520.153 110.983 520.153 112.605V131H512.98V127.218H512.767C512.329 128.07 511.743 128.822 511.009 129.473C510.275 130.112 509.393 130.615 508.363 130.982C507.334 131.337 506.144 131.515 504.794 131.515ZM506.961 126.295C508.073 126.295 509.056 126.076 509.908 125.638C510.76 125.188 511.429 124.584 511.915 123.827C512.4 123.069 512.642 122.211 512.642 121.252V118.358C512.406 118.512 512.08 118.654 511.666 118.784C511.263 118.902 510.808 119.015 510.299 119.121C509.79 119.216 509.281 119.305 508.772 119.388C508.263 119.459 507.801 119.524 507.387 119.583C506.499 119.713 505.724 119.92 505.061 120.205C504.398 120.489 503.883 120.873 503.516 121.359C503.149 121.832 502.966 122.424 502.966 123.134C502.966 124.164 503.339 124.951 504.084 125.496C504.842 126.028 505.801 126.295 506.961 126.295ZM538.344 131.533C535.55 131.533 533.147 130.941 531.135 129.757C529.135 128.562 527.596 126.904 526.519 124.786C525.453 122.667 524.921 120.228 524.921 117.47C524.921 114.677 525.459 112.226 526.536 110.119C527.625 108 529.17 106.349 531.171 105.165C533.171 103.97 535.55 103.372 538.308 103.372C540.688 103.372 542.771 103.804 544.558 104.668C546.346 105.532 547.76 106.746 548.802 108.308C549.844 109.871 550.418 111.705 550.524 113.812H543.386C543.185 112.451 542.653 111.356 541.788 110.528C540.936 109.687 539.818 109.267 538.433 109.267C537.261 109.267 536.237 109.587 535.361 110.226C534.497 110.853 533.822 111.771 533.337 112.978C532.851 114.185 532.609 115.647 532.609 117.364C532.609 119.104 532.845 120.583 533.319 121.803C533.804 123.022 534.485 123.951 535.361 124.59C536.237 125.229 537.261 125.549 538.433 125.549C539.297 125.549 540.072 125.371 540.759 125.016C541.457 124.661 542.031 124.146 542.481 123.472C542.943 122.785 543.244 121.962 543.386 121.004H550.524C550.406 123.087 549.838 124.922 548.82 126.508C547.814 128.082 546.423 129.313 544.647 130.201C542.872 131.089 540.77 131.533 538.344 131.533ZM562.931 115.233V131H555.367V94.6364H562.718V108.539H563.038C563.653 106.929 564.647 105.669 566.021 104.757C567.394 103.834 569.116 103.372 571.187 103.372C573.081 103.372 574.733 103.786 576.141 104.615C577.562 105.432 578.663 106.61 579.444 108.148C580.237 109.675 580.628 111.504 580.616 113.635V131H573.052V114.984C573.064 113.304 572.637 111.996 571.773 111.06C570.921 110.125 569.726 109.658 568.187 109.658C567.157 109.658 566.245 109.877 565.452 110.315C564.671 110.753 564.056 111.392 563.606 112.232C563.168 113.061 562.943 114.061 562.931 115.233ZM598.997 131.533C596.192 131.533 593.777 130.964 591.753 129.828C589.741 128.68 588.19 127.058 587.101 124.963C586.012 122.856 585.467 120.364 585.467 117.488C585.467 114.683 586.012 112.22 587.101 110.102C588.19 107.983 589.723 106.331 591.7 105.148C593.688 103.964 596.02 103.372 598.695 103.372C600.495 103.372 602.17 103.662 603.72 104.242C605.283 104.81 606.644 105.669 607.804 106.817C608.976 107.965 609.887 109.409 610.538 111.149C611.189 112.877 611.515 114.902 611.515 117.222V119.299H588.486V114.612H604.395C604.395 113.522 604.158 112.558 603.685 111.717C603.211 110.877 602.554 110.22 601.714 109.746C600.885 109.261 599.921 109.018 598.82 109.018C597.671 109.018 596.653 109.285 595.766 109.817C594.89 110.338 594.203 111.043 593.706 111.93C593.209 112.806 592.954 113.783 592.943 114.86V119.317C592.943 120.666 593.191 121.832 593.688 122.815C594.197 123.797 594.913 124.555 595.837 125.087C596.76 125.62 597.855 125.886 599.122 125.886C599.962 125.886 600.731 125.768 601.43 125.531C602.128 125.295 602.726 124.939 603.223 124.466C603.72 123.992 604.099 123.412 604.359 122.726L611.355 123.188C611 124.868 610.272 126.336 609.171 127.591C608.082 128.834 606.674 129.804 604.945 130.503C603.229 131.189 601.246 131.533 598.997 131.533ZM624.015 115.233V131H616.451V103.727H623.66V108.539H623.979C624.583 106.953 625.595 105.698 627.016 104.775C628.436 103.84 630.158 103.372 632.183 103.372C634.077 103.372 635.728 103.786 637.136 104.615C638.545 105.444 639.64 106.627 640.421 108.166C641.203 109.693 641.593 111.516 641.593 113.635V131H634.029V114.984C634.041 113.315 633.615 112.013 632.751 111.078C631.887 110.131 630.697 109.658 629.182 109.658C628.164 109.658 627.264 109.877 626.483 110.315C625.714 110.753 625.11 111.392 624.672 112.232C624.246 113.061 624.027 114.061 624.015 115.233Z" fill="black"/>
</svg>
