<svg width="100" height="100" viewBox="0 0 100 100" fill="none" xmlns="http://www.w3.org/2000/svg">
<path fill-rule="evenodd" clip-rule="evenodd" d="M50 0C22.3858 0 0 22.3858 0 50C0 77.6142 22.3858 100 50 100C77.6142 100 100 77.6142 100 50C100 22.3858 77.6142 0 50 0ZM42.3345 23.1383C42.5553 23.0491 42.7966 23 43.0493 23H57.2314C57.4338 23 57.6288 23.0315 57.8118 23.0898C57.9203 23.1022 58.0289 23.1238 58.1368 23.1553L71.6699 27.1045C71.9957 27.1995 72.2748 27.3728 72.4931 27.5976L83.8241 36.6727C84.6635 37.345 84.7683 38.5446 84.0583 39.3523C84.0185 39.3975 83.9771 39.4405 83.934 39.4814C83.9078 39.5163 83.8803 39.5502 83.8517 39.5832L51.8833 83.1607C51.2396 84.0382 49.9843 84.2593 49.0794 83.6546C48.8191 83.4806 48.6162 83.2573 48.4745 83.0064L16.5156 39.4419C16.475 39.3865 16.4377 39.3298 16.4038 39.272C15.7685 38.4669 15.8931 37.3231 16.705 36.6729L28.0683 27.572C28.0992 27.5472 28.1308 27.5234 28.1629 27.5007C28.3754 27.2938 28.6415 27.1342 28.9493 27.0443L42.3345 23.1383ZM65.2442 44.0607L77.697 41.3166L56.2056 70.6124L65.2442 44.0607ZM50.2156 75.8536L60.9132 44.4283H39.518L50.2156 75.8536ZM22.7166 41.2384L35.1596 43.9803L44.1911 70.5112L22.7166 41.2384ZM78.3323 37.2582L64.2019 40.372L61.8453 33.015L70.62 31.0814L78.3323 37.2582ZM42.6122 33.4993H57.8177L60.0955 40.6104H40.3345L42.6122 33.4993ZM36.2504 40.3023L22.2486 37.2169L29.9441 31.0535L38.6018 32.9613L36.2504 40.3023ZM43.4064 26.8179H57.0068L63.5377 28.7237L59.1919 29.6814H41.499L36.995 28.6889L43.4064 26.8179Z" fill="#FDA7FF"/>
</svg>
