<svg width="100" height="100" viewBox="0 0 100 100" fill="none" xmlns="http://www.w3.org/2000/svg">
<path fill-rule="evenodd" clip-rule="evenodd" d="M50 0C22.3858 0 0 22.3858 0 50C0 77.6142 22.3858 100 50 100C77.6142 100 100 77.6142 100 50C100 22.3858 77.6142 0 50 0ZM50.0027 70.0212L31.2407 51.2593L31.2421 51.2579C30.213 50.2288 29.4536 48.9617 29.0311 47.569C28.6086 46.1763 28.5361 44.7009 28.8201 43.2735C29.104 41.846 29.7356 40.5107 30.6589 39.3856C31.5821 38.2606 32.7686 37.3806 34.1133 36.8237C35.4579 36.2667 36.9191 36.05 38.3674 36.1926C39.8158 36.3353 41.2067 36.8329 42.4168 37.6415C43.6269 38.4501 44.6189 39.5446 45.305 40.8281C45.8607 41.8678 46.3002 43.0055 46.4472 44.1738C46.5134 44.7001 46.7107 45.2107 47.0858 45.5858L47.4499 45.9499C47.4832 45.9832 47.5197 46.0132 47.5589 46.0393L48.3228 46.5485C48.6709 46.7806 49.067 46.9273 49.4791 46.9791L49.5 47H49.8139H50.5589C50.851 47 51.1413 46.9529 51.4185 46.8605C52.1194 46.6269 52.7276 46.1586 53.1375 45.5438C53.372 45.1921 53.4908 44.7734 53.5327 44.3528C53.6552 43.1218 54.1109 41.9209 54.695 40.8281C55.3811 39.5446 56.3731 38.4501 57.5832 37.6415C58.7933 36.8329 60.1842 36.3353 61.6325 36.1926C63.0809 36.05 64.5421 36.2667 65.8867 36.8237C67.2314 37.3806 68.4178 38.2606 69.3411 39.3856C70.2644 40.5107 70.896 41.846 71.1799 43.2735C71.4639 44.7009 71.3914 46.1763 70.9689 47.569C70.5464 48.9617 69.787 50.2288 68.7579 51.2579L68.762 51.262L50.0027 70.0212ZM54.1664 32.528C52.5106 33.6344 51.0956 35.0567 50 36.7084C48.9044 35.0567 47.4894 33.6344 45.8335 32.528C43.7825 31.1575 41.4251 30.314 38.9702 30.0722C36.5154 29.8304 34.0387 30.1978 31.7597 31.1418C29.4807 32.0858 27.4697 33.5773 25.9048 35.4841C24.3399 37.3909 23.2695 39.6543 22.7882 42.0737C22.307 44.493 22.4298 46.9937 23.1459 49.3543C23.8504 51.6767 25.1077 53.7929 26.8093 55.5218L26.8089 55.5222L45.4959 74.2092C45.5493 74.2626 45.6034 74.3148 45.6582 74.3657L45.6562 74.3677L47.8823 76.5937C49.0539 77.7653 50.9534 77.7653 52.125 76.5937L73.1965 55.5222L73.1934 55.5191C74.8936 53.7907 76.15 51.6755 76.8541 49.3543C77.5702 46.9937 77.693 44.493 77.2118 42.0736C76.7305 39.6543 75.6601 37.3909 74.0952 35.4841C72.5302 33.5773 70.5193 32.0858 68.2403 31.1418C65.9613 30.1978 63.4846 29.8304 61.0298 30.0722C58.5749 30.314 56.2175 31.1575 54.1664 32.528Z" fill="#FF9292"/>
</svg>
