<svg width="748" height="182" viewBox="0 0 748 182" fill="none" xmlns="http://www.w3.org/2000/svg">
<mask id="path-1-outside-1_630_3048" maskUnits="userSpaceOnUse" x="15" y="31" width="722" height="121" fill="black">
<rect fill="white" x="15" y="31" width="722" height="121"/>
<path d="M19.6876 146V36.9091H42.7522V85.0092H44.1904L83.4482 36.9091H111.094L70.6109 85.755L111.573 146H83.9809L54.0981 101.149L42.7522 114.999V146H19.6876ZM217.202 91.4545C217.202 103.351 214.947 113.472 210.437 121.817C205.962 130.162 199.854 136.536 192.113 140.94C184.407 145.308 175.742 147.491 166.119 147.491C156.424 147.491 147.724 145.29 140.018 140.886C132.312 136.483 126.222 130.109 121.747 121.763C117.273 113.418 115.036 103.315 115.036 91.4545C115.036 79.5582 117.273 69.4375 121.747 61.0923C126.222 52.7472 132.312 46.3906 140.018 42.0227C147.724 37.6193 156.424 35.4176 166.119 35.4176C175.742 35.4176 184.407 37.6193 192.113 42.0227C199.854 46.3906 205.962 52.7472 210.437 61.0923C214.947 69.4375 217.202 79.5582 217.202 91.4545ZM193.818 91.4545C193.818 83.7486 192.663 77.25 190.355 71.9588C188.082 66.6676 184.869 62.6548 180.714 59.9205C176.559 57.1861 171.694 55.8189 166.119 55.8189C160.543 55.8189 155.678 57.1861 151.524 59.9205C147.369 62.6548 144.137 66.6676 141.829 71.9588C139.556 77.25 138.42 83.7486 138.42 91.4545C138.42 99.1605 139.556 105.659 141.829 110.95C144.137 116.241 147.369 120.254 151.524 122.989C155.678 125.723 160.543 127.09 166.119 127.09C171.694 127.09 176.559 125.723 180.714 122.989C184.869 120.254 188.082 116.241 190.355 110.95C192.663 105.659 193.818 99.1605 193.818 91.4545ZM325.534 36.9091V146H305.612L258.151 77.3388H257.352V146H234.287V36.9091H254.529L301.617 105.517H302.576V36.9091H325.534ZM340.435 55.9254V36.9091H430.03V55.9254H396.632V146H373.834V55.9254H340.435ZM450.258 146H425.543L463.202 36.9091H492.925L530.532 146H505.816L478.49 61.8381H477.638L450.258 146ZM448.714 103.12H507.094V121.124H448.714V103.12ZM543.662 146V36.9091H566.727V85.0092H568.165L607.423 36.9091H635.068L594.585 85.755L635.548 146H607.956L578.073 101.149L566.727 114.999V146H543.662ZM642.925 55.9254V36.9091H732.521V55.9254H699.122V146H676.324V55.9254H642.925Z"/>
</mask>
<path d="M19.6876 146H15.6876V150H19.6876V146ZM19.6876 36.9091V32.9091H15.6876V36.9091H19.6876ZM42.7522 36.9091H46.7522V32.9091H42.7522V36.9091ZM42.7522 85.0092H38.7522V89.0092H42.7522V85.0092ZM44.1904 85.0092V89.0092H46.0889L47.2893 87.5384L44.1904 85.0092ZM83.4482 36.9091V32.9091H81.5498L80.3494 34.3799L83.4482 36.9091ZM111.094 36.9091L114.174 39.4616L119.604 32.9091H111.094V36.9091ZM70.6109 85.755L67.5311 83.2025L65.6124 85.5176L67.3031 88.0041L70.6109 85.755ZM111.573 146V150H119.13L114.881 143.751L111.573 146ZM83.9809 146L80.6521 148.218L81.8395 150H83.9809V146ZM54.0981 101.149L57.4269 98.9313L54.4296 94.4326L51.0039 98.6143L54.0981 101.149ZM42.7522 114.999L39.658 112.464L38.7522 113.569V114.999H42.7522ZM42.7522 146V150H46.7522V146H42.7522ZM23.6876 146V36.9091H15.6876V146H23.6876ZM19.6876 40.9091H42.7522V32.9091H19.6876V40.9091ZM38.7522 36.9091V85.0092H46.7522V36.9091H38.7522ZM42.7522 89.0092H44.1904V81.0092H42.7522V89.0092ZM47.2893 87.5384L86.5471 39.4383L80.3494 34.3799L41.0915 82.48L47.2893 87.5384ZM83.4482 40.9091H111.094V32.9091H83.4482V40.9091ZM108.014 34.3566L67.5311 83.2025L73.6906 88.3074L114.174 39.4616L108.014 34.3566ZM67.3031 88.0041L108.265 148.249L114.881 143.751L73.9187 83.5059L67.3031 88.0041ZM111.573 142H83.9809V150H111.573V142ZM87.3097 143.782L57.4269 98.9313L50.7693 103.367L80.6521 148.218L87.3097 143.782ZM51.0039 98.6143L39.658 112.464L45.8465 117.533L57.1923 103.684L51.0039 98.6143ZM38.7522 114.999V146H46.7522V114.999H38.7522ZM42.7522 142H19.6876V150H42.7522V142ZM210.437 121.817L206.918 119.915L206.912 119.927L210.437 121.817ZM192.113 140.94L194.085 144.419L194.091 144.417L192.113 140.94ZM140.018 140.886L142.002 137.413L140.018 140.886ZM121.747 121.763L118.222 123.654L121.747 121.763ZM121.747 61.0923L125.272 62.9825V62.9825L121.747 61.0923ZM140.018 42.0227L141.99 45.5026L142.002 45.4957L140.018 42.0227ZM192.113 42.0227L190.128 45.4957L190.138 45.5011L190.147 45.5065L192.113 42.0227ZM210.437 61.0923L206.912 62.9825L206.918 62.9941L210.437 61.0923ZM190.355 71.9588L186.68 73.5375L186.684 73.5478L186.689 73.5582L190.355 71.9588ZM180.714 59.9205L178.515 63.2618L180.714 59.9205ZM151.524 59.9205L153.723 63.2618L151.524 59.9205ZM141.829 71.9588L138.163 70.3594L138.158 70.3698L138.154 70.3801L141.829 71.9588ZM141.829 110.95L138.154 112.529L138.158 112.539L138.163 112.55L141.829 110.95ZM151.524 122.989L153.723 119.647L151.524 122.989ZM180.714 122.989L178.515 119.647L180.714 122.989ZM190.355 110.95L186.689 109.351L186.684 109.361L186.68 109.372L190.355 110.95ZM213.202 91.4545C213.202 102.852 211.042 112.284 206.918 119.915L213.956 123.719C218.852 114.659 221.202 103.849 221.202 91.4545H213.202ZM206.912 119.927C202.77 127.652 197.18 133.456 190.135 137.463L194.091 144.417C202.529 139.617 209.155 132.672 213.962 123.707L206.912 119.927ZM190.141 137.46C183.087 141.458 175.112 143.491 166.119 143.491V151.491C176.372 151.491 185.727 149.157 194.085 144.419L190.141 137.46ZM166.119 143.491C157.054 143.491 149.049 141.44 142.002 137.413L138.033 144.359C146.399 149.139 155.794 151.491 166.119 151.491V143.491ZM142.002 137.413C134.992 133.408 129.417 127.603 125.272 119.873L118.222 123.654C123.026 132.614 129.631 139.558 138.033 144.359L142.002 137.413ZM125.272 119.873C121.179 112.238 119.036 102.819 119.036 91.4545H111.036C111.036 103.811 113.367 114.598 118.222 123.654L125.272 119.873ZM119.036 91.4545C119.036 80.052 121.18 70.616 125.272 62.9825L118.222 59.2022C113.366 68.259 111.036 79.0644 111.036 91.4545H119.036ZM125.272 62.9825C129.416 55.2553 134.987 49.4719 141.99 45.5026L138.045 38.5429C129.636 43.3093 123.028 50.2391 118.222 59.2022L125.272 62.9825ZM142.002 45.4957C149.049 41.469 157.054 39.4176 166.119 39.4176V31.4176C155.794 31.4176 146.399 33.7696 138.033 38.5498L142.002 45.4957ZM166.119 39.4176C175.107 39.4176 183.077 41.4665 190.128 45.4957L194.098 38.5498C185.737 33.7722 176.378 31.4176 166.119 31.4176V39.4176ZM190.147 45.5065C197.185 49.4771 202.771 55.26 206.912 62.9825L213.962 59.2022C209.154 50.2343 202.524 43.3041 194.079 38.539L190.147 45.5065ZM206.918 62.9941C211.042 70.6249 213.202 80.0566 213.202 91.4545H221.202C221.202 79.0599 218.852 68.2501 213.956 59.1906L206.918 62.9941ZM197.818 91.4545C197.818 83.3728 196.61 76.2937 194.022 70.3594L186.689 73.5582C188.717 78.2063 189.818 84.1244 189.818 91.4545H197.818ZM194.031 70.3801C191.499 64.4859 187.82 59.8086 182.913 56.5791L178.515 63.2618C181.917 65.501 184.666 68.8493 186.68 73.5375L194.031 70.3801ZM182.913 56.5791C178.028 53.3643 172.378 51.8189 166.119 51.8189V59.8189C171.01 59.8189 175.09 61.0079 178.515 63.2618L182.913 56.5791ZM166.119 51.8189C159.86 51.8189 154.209 53.3643 149.325 56.5791L153.723 63.2618C157.147 61.0079 161.227 59.8189 166.119 59.8189V51.8189ZM149.325 56.5791C144.423 59.8047 140.73 64.4744 138.163 70.3594L145.495 73.5582C147.544 68.8608 150.314 65.505 153.723 63.2618L149.325 56.5791ZM138.154 70.3801C135.607 76.3081 134.42 83.3794 134.42 91.4545H142.42C142.42 84.1178 143.505 78.1919 145.504 73.5375L138.154 70.3801ZM134.42 91.4545C134.42 99.5297 135.607 106.601 138.154 112.529L145.504 109.372C143.505 104.717 142.42 98.7913 142.42 91.4545H134.42ZM138.163 112.55C140.73 118.435 144.423 123.104 149.325 126.33L153.723 119.647C150.314 117.404 147.544 114.048 145.495 109.351L138.163 112.55ZM149.325 126.33C154.209 129.545 159.86 131.09 166.119 131.09V123.09C161.227 123.09 157.147 121.901 153.723 119.647L149.325 126.33ZM166.119 131.09C172.378 131.09 178.028 129.545 182.913 126.33L178.515 119.647C175.09 121.901 171.01 123.09 166.119 123.09V131.09ZM182.913 126.33C187.82 123.1 191.499 118.423 194.031 112.529L186.68 109.372C184.666 114.06 181.917 117.408 178.515 119.647L182.913 126.33ZM194.022 112.55C196.61 106.615 197.818 99.5363 197.818 91.4545H189.818C189.818 98.7847 188.717 104.703 186.689 109.351L194.022 112.55ZM325.534 36.9091H329.534V32.9091H325.534V36.9091ZM325.534 146V150H329.534V146H325.534ZM305.612 146L302.321 148.274L303.514 150H305.612V146ZM258.151 77.3388L261.441 75.0643L260.249 73.3388H258.151V77.3388ZM257.352 77.3388V73.3388H253.352V77.3388H257.352ZM257.352 146V150H261.352V146H257.352ZM234.287 146H230.287V150H234.287V146ZM234.287 36.9091V32.9091H230.287V36.9091H234.287ZM254.529 36.9091L257.827 34.6456L256.635 32.9091H254.529V36.9091ZM301.617 105.517L298.319 107.781L299.511 109.517H301.617V105.517ZM302.576 105.517V109.517H306.576V105.517H302.576ZM302.576 36.9091V32.9091H298.576V36.9091H302.576ZM321.534 36.9091V146H329.534V36.9091H321.534ZM325.534 142H305.612V150H325.534V142ZM308.902 143.726L261.441 75.0643L254.86 79.6132L302.321 148.274L308.902 143.726ZM258.151 73.3388H257.352V81.3388H258.151V73.3388ZM253.352 77.3388V146H261.352V77.3388H253.352ZM257.352 142H234.287V150H257.352V142ZM238.287 146V36.9091H230.287V146H238.287ZM234.287 40.9091H254.529V32.9091H234.287V40.9091ZM251.231 39.1726L298.319 107.781L304.915 103.254L257.827 34.6456L251.231 39.1726ZM301.617 109.517H302.576V101.517H301.617V109.517ZM306.576 105.517V36.9091H298.576V105.517H306.576ZM302.576 40.9091H325.534V32.9091H302.576V40.9091ZM340.435 55.9254H336.435V59.9254H340.435V55.9254ZM340.435 36.9091V32.9091H336.435V36.9091H340.435ZM430.03 36.9091H434.03V32.9091H430.03V36.9091ZM430.03 55.9254V59.9254H434.03V55.9254H430.03ZM396.632 55.9254V51.9254H392.632V55.9254H396.632ZM396.632 146V150H400.632V146H396.632ZM373.834 146H369.834V150H373.834V146ZM373.834 55.9254H377.834V51.9254H373.834V55.9254ZM344.435 55.9254V36.9091H336.435V55.9254H344.435ZM340.435 40.9091H430.03V32.9091H340.435V40.9091ZM426.03 36.9091V55.9254H434.03V36.9091H426.03ZM430.03 51.9254H396.632V59.9254H430.03V51.9254ZM392.632 55.9254V146H400.632V55.9254H392.632ZM396.632 142H373.834V150H396.632V142ZM377.834 146V55.9254H369.834V146H377.834ZM373.834 51.9254H340.435V59.9254H373.834V51.9254ZM450.258 146V150H453.164L454.062 147.237L450.258 146ZM425.543 146L421.761 144.695L419.93 150H425.543V146ZM463.202 36.9091V32.9091H460.352L459.421 35.6038L463.202 36.9091ZM492.925 36.9091L496.707 35.6055L495.777 32.9091H492.925V36.9091ZM530.532 146V150H536.142L534.313 144.696L530.532 146ZM505.816 146L502.011 147.235L502.909 150H505.816V146ZM478.49 61.8381L482.294 60.6028L481.397 57.8381H478.49V61.8381ZM477.638 61.8381V57.8381H474.733L473.834 60.6006L477.638 61.8381ZM448.714 103.12V99.12H444.714V103.12H448.714ZM507.094 103.12H511.094V99.12H507.094V103.12ZM507.094 121.124V125.124H511.094V121.124H507.094ZM448.714 121.124H444.714V125.124H448.714V121.124ZM450.258 142H425.543V150H450.258V142ZM429.324 147.305L466.983 38.2144L459.421 35.6038L421.761 144.695L429.324 147.305ZM463.202 40.9091H492.925V32.9091H463.202V40.9091ZM489.144 38.2127L526.75 147.304L534.313 144.696L496.707 35.6055L489.144 38.2127ZM530.532 142H505.816V150H530.532V142ZM509.62 144.765L482.294 60.6028L474.685 63.0733L502.011 147.235L509.62 144.765ZM478.49 57.8381H477.638V65.8381H478.49V57.8381ZM473.834 60.6006L446.455 144.763L454.062 147.237L481.441 63.0755L473.834 60.6006ZM448.714 107.12H507.094V99.12H448.714V107.12ZM503.094 103.12V121.124H511.094V103.12H503.094ZM507.094 117.124H448.714V125.124H507.094V117.124ZM452.714 121.124V103.12H444.714V121.124H452.714ZM543.662 146H539.662V150H543.662V146ZM543.662 36.9091V32.9091H539.662V36.9091H543.662ZM566.727 36.9091H570.727V32.9091H566.727V36.9091ZM566.727 85.0092H562.727V89.0092H566.727V85.0092ZM568.165 85.0092V89.0092H570.064L571.264 87.5384L568.165 85.0092ZM607.423 36.9091V32.9091H605.524L604.324 34.3799L607.423 36.9091ZM635.068 36.9091L638.148 39.4616L643.579 32.9091H635.068V36.9091ZM594.586 85.755L591.506 83.2025L589.587 85.5176L591.278 88.0041L594.586 85.755ZM635.548 146V150H643.105L638.856 143.751L635.548 146ZM607.956 146L604.627 148.218L605.814 150H607.956V146ZM578.073 101.149L581.402 98.9313L578.404 94.4326L574.978 98.6143L578.073 101.149ZM566.727 114.999L563.633 112.464L562.727 113.569V114.999H566.727ZM566.727 146V150H570.727V146H566.727ZM547.662 146V36.9091H539.662V146H547.662ZM543.662 40.9091H566.727V32.9091H543.662V40.9091ZM562.727 36.9091V85.0092H570.727V36.9091H562.727ZM566.727 89.0092H568.165V81.0092H566.727V89.0092ZM571.264 87.5384L610.522 39.4383L604.324 34.3799L565.066 82.48L571.264 87.5384ZM607.423 40.9091H635.068V32.9091H607.423V40.9091ZM631.989 34.3566L591.506 83.2025L597.665 88.3074L638.148 39.4616L631.989 34.3566ZM591.278 88.0041L632.24 148.249L638.856 143.751L597.893 83.5059L591.278 88.0041ZM635.548 142H607.956V150H635.548V142ZM611.284 143.782L581.402 98.9313L574.744 103.367L604.627 148.218L611.284 143.782ZM574.978 98.6143L563.633 112.464L569.821 117.533L581.167 103.684L574.978 98.6143ZM562.727 114.999V146H570.727V114.999H562.727ZM566.727 142H543.662V150H566.727V142ZM642.925 55.9254H638.925V59.9254H642.925V55.9254ZM642.925 36.9091V32.9091H638.925V36.9091H642.925ZM732.521 36.9091H736.521V32.9091H732.521V36.9091ZM732.521 55.9254V59.9254H736.521V55.9254H732.521ZM699.122 55.9254V51.9254H695.122V55.9254H699.122ZM699.122 146V150H703.122V146H699.122ZM676.324 146H672.324V150H676.324V146ZM676.324 55.9254H680.324V51.9254H676.324V55.9254ZM646.925 55.9254V36.9091H638.925V55.9254H646.925ZM642.925 40.9091H732.521V32.9091H642.925V40.9091ZM728.521 36.9091V55.9254H736.521V36.9091H728.521ZM732.521 51.9254H699.122V59.9254H732.521V51.9254ZM695.122 55.9254V146H703.122V55.9254H695.122ZM699.122 142H676.324V150H699.122V142ZM680.324 146V55.9254H672.324V146H680.324ZM676.324 51.9254H642.925V59.9254H676.324V51.9254Z" fill="#DCDCDC" fill-opacity="0.5" mask="url(#path-1-outside-1_630_3048)"/>
</svg>
