<svg width="655" height="182" viewBox="0 0 655 182" fill="none" xmlns="http://www.w3.org/2000/svg">
<mask id="path-1-outside-1_670_4057" maskUnits="userSpaceOnUse" x="15" y="32" width="625" height="120" fill="black">
<rect fill="white" x="15" y="32" width="625" height="120"/>
<path d="M19.7696 146V36.9091H42.8343V85.0092H44.2725L83.5303 36.9091H111.176L70.6929 85.755L111.655 146H84.0629L54.1801 101.149L42.8343 114.999V146H19.7696ZM190.57 36.9091H213.635V107.754C213.635 115.709 211.735 122.669 207.935 128.635C204.171 134.601 198.898 139.253 192.115 142.591C185.332 145.893 177.431 147.545 168.411 147.545C159.356 147.545 151.437 145.893 144.654 142.591C137.872 139.253 132.598 134.601 128.834 128.635C125.07 122.669 123.188 115.709 123.188 107.754V36.9091H146.252V105.783C146.252 109.938 147.158 113.631 148.969 116.863C150.815 120.094 153.408 122.634 156.746 124.48C160.084 126.327 163.972 127.25 168.411 127.25C172.886 127.25 176.774 126.327 180.077 124.48C183.415 122.634 185.989 120.094 187.801 116.863C189.647 113.631 190.57 109.938 190.57 105.783V36.9091ZM323.858 36.9091V146H303.936L256.475 77.3388H255.676V146H232.611V36.9091H252.853L299.941 105.517H300.9V36.9091H323.858ZM381.586 146H342.914V36.9091H381.906C392.879 36.9091 402.325 39.093 410.244 43.4609C418.163 47.7933 424.253 54.0256 428.514 62.1577C432.811 70.2898 434.96 80.0199 434.96 91.348C434.96 102.712 432.811 112.477 428.514 120.645C424.253 128.812 418.127 135.08 410.137 139.448C402.183 143.816 392.666 146 381.586 146ZM365.979 126.238H380.627C387.445 126.238 393.18 125.031 397.832 122.616C402.52 120.165 406.036 116.384 408.379 111.27C410.759 106.121 411.948 99.4801 411.948 91.348C411.948 83.2869 410.759 76.6996 408.379 71.5859C406.036 66.4723 402.538 62.7081 397.886 60.2933C393.234 57.8786 387.499 56.6712 380.68 56.6712H365.979V126.238ZM452.045 146V36.9091H525.554V55.9254H475.11V81.9197H521.772V100.936H475.11V126.984H525.767V146H452.045ZM635.137 36.9091V146H615.215L567.754 77.3388H566.955V146H543.891V36.9091H564.132L611.22 105.517H612.179V36.9091H635.137Z"/>
</mask>
<path d="M19.7696 146H15.7696V150H19.7696V146ZM19.7696 36.9091V32.9091H15.7696V36.9091H19.7696ZM42.8343 36.9091H46.8343V32.9091H42.8343V36.9091ZM42.8343 85.0092H38.8343V89.0092H42.8343V85.0092ZM44.2725 85.0092V89.0092H46.1709L47.3713 87.5384L44.2725 85.0092ZM83.5303 36.9091V32.9091H81.6318L80.4314 34.3799L83.5303 36.9091ZM111.176 36.9091L114.256 39.4616L119.686 32.9091H111.176V36.9091ZM70.6929 85.755L67.6132 83.2025L65.6945 85.5176L67.3851 88.0041L70.6929 85.755ZM111.655 146V150H119.212L114.963 143.751L111.655 146ZM84.063 146L80.7341 148.218L81.9215 150H84.063V146ZM54.1801 101.149L57.5089 98.9313L54.5116 94.4326L51.0859 98.6143L54.1801 101.149ZM42.8343 114.999L39.74 112.464L38.8343 113.569V114.999H42.8343ZM42.8343 146V150H46.8343V146H42.8343ZM23.7696 146V36.9091H15.7696V146H23.7696ZM19.7696 40.9091H42.8343V32.9091H19.7696V40.9091ZM38.8343 36.9091V85.0092H46.8343V36.9091H38.8343ZM42.8343 89.0092H44.2725V81.0092H42.8343V89.0092ZM47.3713 87.5384L86.6292 39.4383L80.4314 34.3799L41.1736 82.48L47.3713 87.5384ZM83.5303 40.9091H111.176V32.9091H83.5303V40.9091ZM108.096 34.3566L67.6132 83.2025L73.7727 88.3074L114.256 39.4616L108.096 34.3566ZM67.3851 88.0041L108.347 148.249L114.963 143.751L74.0007 83.5059L67.3851 88.0041ZM111.655 142H84.063V150H111.655V142ZM87.3918 143.782L57.5089 98.9313L50.8513 103.367L80.7341 148.218L87.3918 143.782ZM51.0859 98.6143L39.74 112.464L45.9285 117.533L57.2744 103.684L51.0859 98.6143ZM38.8343 114.999V146H46.8343V114.999H38.8343ZM42.8343 142H19.7696V150H42.8343V142ZM190.57 36.9091V32.9091H186.57V36.9091H190.57ZM213.635 36.9091H217.635V32.9091H213.635V36.9091ZM207.935 128.635L204.562 126.486L204.557 126.493L204.553 126.5L207.935 128.635ZM192.115 142.591L193.866 146.187L193.874 146.184L193.881 146.18L192.115 142.591ZM144.654 142.591L142.888 146.18L142.896 146.184L142.903 146.187L144.654 142.591ZM128.834 128.635L125.451 130.769L128.834 128.635ZM123.188 36.9091V32.9091H119.188V36.9091H123.188ZM146.252 36.9091H150.252V32.9091H146.252V36.9091ZM148.969 116.863L145.479 118.819L145.488 118.833L145.496 118.847L148.969 116.863ZM156.746 124.48L154.81 127.98L156.746 124.48ZM180.077 124.48L178.141 120.98L178.133 120.984L178.125 120.989L180.077 124.48ZM187.801 116.863L184.328 114.878L184.319 114.893L184.311 114.907L187.801 116.863ZM190.57 40.9091H213.635V32.9091H190.57V40.9091ZM209.635 36.9091V107.754H217.635V36.9091H209.635ZM209.635 107.754C209.635 115.045 207.903 121.24 204.562 126.486L211.309 130.784C215.567 124.098 217.635 116.372 217.635 107.754H209.635ZM204.553 126.5C201.211 131.797 196.518 135.966 190.349 139.002L193.881 146.18C201.278 142.54 207.132 137.405 211.318 130.769L204.553 126.5ZM190.364 138.995C184.223 141.984 176.942 143.545 168.411 143.545V151.545C177.921 151.545 186.441 149.802 193.866 146.187L190.364 138.995ZM168.411 143.545C159.843 143.545 152.544 141.984 146.405 138.995L142.903 146.187C150.33 149.803 158.869 151.545 168.411 151.545V143.545ZM146.42 139.002C140.251 135.966 135.558 131.797 132.217 126.5L125.451 130.769C129.638 137.405 135.492 142.54 142.888 146.18L146.42 139.002ZM132.217 126.5C128.906 121.252 127.188 115.052 127.188 107.754H119.188C119.188 116.365 121.234 124.086 125.451 130.769L132.217 126.5ZM127.188 107.754V36.9091H119.188V107.754H127.188ZM123.188 40.9091H146.252V32.9091H123.188V40.9091ZM142.252 36.9091V105.783H150.252V36.9091H142.252ZM142.252 105.783C142.252 110.538 143.294 114.92 145.479 118.819L152.458 114.907C151.021 112.343 150.252 109.338 150.252 105.783H142.252ZM145.496 118.847C147.716 122.732 150.847 125.788 154.81 127.98L158.682 120.98C155.969 119.479 153.915 117.457 152.442 114.878L145.496 118.847ZM154.81 127.98C158.831 130.205 163.407 131.25 168.411 131.25V123.25C164.538 123.25 161.337 122.449 158.682 120.98L154.81 127.98ZM168.411 131.25C173.444 131.25 178.029 130.208 182.029 127.971L178.125 120.989C175.519 122.446 172.327 123.25 168.411 123.25V131.25ZM182.013 127.98C185.982 125.785 189.104 122.719 191.29 118.819L184.311 114.907C182.875 117.469 180.848 119.482 178.141 120.98L182.013 127.98ZM191.273 118.847C193.504 114.944 194.57 110.552 194.57 105.783H186.57C186.57 109.325 185.79 112.319 184.328 114.878L191.273 118.847ZM194.57 105.783V36.9091H186.57V105.783H194.57ZM323.858 36.9091H327.858V32.9091H323.858V36.9091ZM323.858 146V150H327.858V146H323.858ZM303.936 146L300.646 148.274L301.838 150H303.936V146ZM256.475 77.3388L259.765 75.0643L258.573 73.3388H256.475V77.3388ZM255.676 77.3388V73.3388H251.676V77.3388H255.676ZM255.676 146V150H259.676V146H255.676ZM232.611 146H228.611V150H232.611V146ZM232.611 36.9091V32.9091H228.611V36.9091H232.611ZM252.853 36.9091L256.151 34.6456L254.959 32.9091H252.853V36.9091ZM299.941 105.517L296.643 107.781L297.835 109.517H299.941V105.517ZM300.9 105.517V109.517H304.9V105.517H300.9ZM300.9 36.9091V32.9091H296.9V36.9091H300.9ZM319.858 36.9091V146H327.858V36.9091H319.858ZM323.858 142H303.936V150H323.858V142ZM307.226 143.726L259.765 75.0643L253.185 79.6132L300.646 148.274L307.226 143.726ZM256.475 73.3388H255.676V81.3388H256.475V73.3388ZM251.676 77.3388V146H259.676V77.3388H251.676ZM255.676 142H232.611V150H255.676V142ZM236.611 146V36.9091H228.611V146H236.611ZM232.611 40.9091H252.853V32.9091H232.611V40.9091ZM249.555 39.1726L296.643 107.781L303.239 103.254L256.151 34.6456L249.555 39.1726ZM299.941 109.517H300.9V101.517H299.941V109.517ZM304.9 105.517V36.9091H296.9V105.517H304.9ZM300.9 40.9091H323.858V32.9091H300.9V40.9091ZM342.914 146H338.914V150H342.914V146ZM342.914 36.9091V32.9091H338.914V36.9091H342.914ZM410.244 43.4609L408.312 46.9635L408.324 46.9701L410.244 43.4609ZM428.514 62.1577L424.971 64.0143L424.978 64.0264L428.514 62.1577ZM428.514 120.645L424.974 118.783L424.968 118.795L428.514 120.645ZM410.137 139.448L408.218 135.938L408.212 135.942L410.137 139.448ZM365.979 126.238H361.979V130.238H365.979V126.238ZM397.832 122.616L399.675 126.166L399.685 126.161L397.832 122.616ZM408.379 111.27L404.748 109.592L404.743 109.603L408.379 111.27ZM408.379 71.5859L404.743 73.2526L404.748 73.263L404.753 73.2733L408.379 71.5859ZM397.886 60.2933L399.729 56.7431H399.729L397.886 60.2933ZM365.979 56.6712V52.6712H361.979V56.6712H365.979ZM381.586 142H342.914V150H381.586V142ZM346.914 146V36.9091H338.914V146H346.914ZM342.914 40.9091H381.906V32.9091H342.914V40.9091ZM381.906 40.9091C392.346 40.9091 401.098 42.9847 408.312 46.9635L412.176 39.9584C403.551 35.2014 393.411 32.9091 381.906 32.9091V40.9091ZM408.324 46.9701C415.538 50.917 421.069 56.5684 424.971 64.0143L432.057 60.3011C427.436 51.4828 420.787 44.6697 412.164 39.9518L408.324 46.9701ZM424.978 64.0264C428.908 71.4641 430.96 80.5225 430.96 91.348H438.96C438.96 79.5173 436.715 69.1155 432.051 60.289L424.978 64.0264ZM430.96 91.348C430.96 102.211 428.907 111.307 424.974 118.783L432.054 122.507C436.715 113.647 438.96 103.213 438.96 91.348H430.96ZM424.968 118.795C421.068 126.269 415.505 131.955 408.218 135.938L412.056 142.958C420.749 138.205 427.438 131.356 432.061 122.495L424.968 118.795ZM408.212 135.942C400.964 139.922 392.14 142 381.586 142V150C393.191 150 403.401 147.71 412.062 142.954L408.212 135.942ZM365.979 130.238H380.627V122.238H365.979V130.238ZM380.627 130.238C387.9 130.238 394.309 128.952 399.675 126.166L395.99 119.066C392.052 121.109 386.991 122.238 380.627 122.238V130.238ZM399.685 126.161C405.211 123.272 409.327 118.802 412.016 112.937L404.743 109.603C402.744 113.965 399.829 117.059 395.979 119.071L399.685 126.161ZM412.01 112.948C414.714 107.096 415.948 99.8267 415.948 91.348H407.948C407.948 99.1335 406.803 105.146 404.748 109.592L412.01 112.948ZM415.948 91.348C415.948 82.9362 414.713 75.7171 412.006 69.8985L404.753 73.2733C406.804 77.682 407.948 83.6376 407.948 91.348H415.948ZM412.016 69.9193C409.33 64.0589 405.231 59.5994 399.729 56.7431L396.043 63.8435C399.844 65.8167 402.742 68.8857 404.743 73.2526L412.016 69.9193ZM399.729 56.7431C394.362 53.9574 387.954 52.6712 380.68 52.6712V60.6712C387.044 60.6712 392.105 61.7997 396.043 63.8435L399.729 56.7431ZM380.68 52.6712H365.979V60.6712H380.68V52.6712ZM361.979 56.6712V126.238H369.979V56.6712H361.979ZM452.045 146H448.045V150H452.045V146ZM452.045 36.9091V32.9091H448.045V36.9091H452.045ZM525.554 36.9091H529.554V32.9091H525.554V36.9091ZM525.554 55.9254V59.9254H529.554V55.9254H525.554ZM475.11 55.9254V51.9254H471.11V55.9254H475.11ZM475.11 81.9197H471.11V85.9197H475.11V81.9197ZM521.772 81.9197H525.772V77.9197H521.772V81.9197ZM521.772 100.936V104.936H525.772V100.936H521.772ZM475.11 100.936V96.9361H471.11V100.936H475.11ZM475.11 126.984H471.11V130.984H475.11V126.984ZM525.767 126.984H529.767V122.984H525.767V126.984ZM525.767 146V150H529.767V146H525.767ZM456.045 146V36.9091H448.045V146H456.045ZM452.045 40.9091H525.554V32.9091H452.045V40.9091ZM521.554 36.9091V55.9254H529.554V36.9091H521.554ZM525.554 51.9254H475.11V59.9254H525.554V51.9254ZM471.11 55.9254V81.9197H479.11V55.9254H471.11ZM475.11 85.9197H521.772V77.9197H475.11V85.9197ZM517.772 81.9197V100.936H525.772V81.9197H517.772ZM521.772 96.9361H475.11V104.936H521.772V96.9361ZM471.11 100.936V126.984H479.11V100.936H471.11ZM475.11 130.984H525.767V122.984H475.11V130.984ZM521.767 126.984V146H529.767V126.984H521.767ZM525.767 142H452.045V150H525.767V142ZM635.137 36.9091H639.137V32.9091H635.137V36.9091ZM635.137 146V150H639.137V146H635.137ZM615.215 146L611.925 148.274L613.118 150H615.215V146ZM567.754 77.3388L571.045 75.0643L569.852 73.3388H567.754V77.3388ZM566.955 77.3388V73.3388H562.955V77.3388H566.955ZM566.955 146V150H570.955V146H566.955ZM543.891 146H539.891V150H543.891V146ZM543.891 36.9091V32.9091H539.891V36.9091H543.891ZM564.132 36.9091L567.43 34.6456L566.238 32.9091H564.132V36.9091ZM611.22 105.517L607.922 107.781L609.114 109.517H611.22V105.517ZM612.179 105.517V109.517H616.179V105.517H612.179ZM612.179 36.9091V32.9091H608.179V36.9091H612.179ZM631.137 36.9091V146H639.137V36.9091H631.137ZM635.137 142H615.215V150H635.137V142ZM618.506 143.726L571.045 75.0643L564.464 79.6132L611.925 148.274L618.506 143.726ZM567.754 73.3388H566.955V81.3388H567.754V73.3388ZM562.955 77.3388V146H570.955V77.3388H562.955ZM566.955 142H543.891V150H566.955V142ZM547.891 146V36.9091H539.891V146H547.891ZM543.891 40.9091H564.132V32.9091H543.891V40.9091ZM560.834 39.1726L607.922 107.781L614.518 103.254L567.43 34.6456L560.834 39.1726ZM611.22 109.517H612.179V101.517H611.22V109.517ZM616.179 105.517V36.9091H608.179V105.517H616.179ZM612.179 40.9091H635.137V32.9091H612.179V40.9091Z" fill="#F1F1F1" fill-opacity="0.6" mask="url(#path-1-outside-1_670_4057)"/>
</svg>
