<svg width="38" height="38" viewBox="0 0 38 38" fill="none" xmlns="http://www.w3.org/2000/svg">
<path fill-rule="evenodd" clip-rule="evenodd" d="M28.9985 19.1754C29.0082 18.6232 28.52 18.2131 27.9695 18.2585C27.5135 18.2961 27.1588 18.635 27.0372 19.0639C26.9708 19.1291 26.9105 19.2014 26.8576 19.2796C26.5259 19.7707 26.1204 20.2104 25.6538 20.5824C24.9074 21.1774 24.0269 21.5811 23.0889 21.7584C22.151 21.9357 21.1839 21.8813 20.2717 21.5998C19.3596 21.3184 18.53 20.8185 17.855 20.1435C17.18 19.4685 16.6801 18.6389 16.3986 17.7267C16.1172 16.8146 16.0628 15.8475 16.2401 14.9096C16.4174 13.9716 16.8211 13.0911 17.4161 12.3447C17.7881 11.878 18.2277 11.4726 18.7188 11.1409C18.798 11.0874 18.871 11.0263 18.9367 10.9592C19.3619 10.8352 19.6967 10.4818 19.7338 10.0284C19.7788 9.47799 19.3684 8.99001 18.8162 9.00016C17.1143 9.03143 15.4426 9.49691 13.9626 10.3599C12.1937 11.3914 10.7841 12.941 9.92432 14.7994C9.06449 16.6579 8.7959 18.7354 9.15484 20.7514C9.51378 22.7674 10.4829 24.6245 11.9314 26.072C13.3798 27.5194 15.2376 28.4873 17.2539 28.8448C19.2701 29.2024 21.3475 28.9324 23.2053 28.0713C25.0631 27.2102 26.6118 25.7995 27.642 24.0299C28.504 22.5494 28.9683 20.8773 28.9985 19.1754ZM15.0457 12.0441C15.0204 12.0585 14.9952 12.073 14.9701 12.0876C13.555 12.9128 12.4273 14.1525 11.7395 15.6393C11.0516 17.126 10.8367 18.788 11.1239 20.4008C11.411 22.0136 12.1864 23.4993 13.3451 24.6573C14.5038 25.8152 15.9901 26.5895 17.6031 26.8756C19.2161 27.1616 20.878 26.9456 22.3642 26.2567C23.8505 25.5678 25.0894 24.4393 25.9136 23.0236C25.9273 23.0001 25.9409 22.9765 25.9544 22.9528C25.1897 23.3876 24.356 23.6948 23.4861 23.8592C22.206 24.1012 20.8862 24.027 19.6414 23.6429C18.3965 23.2588 17.2643 22.5765 16.3432 21.6553C15.422 20.7342 14.7397 19.6019 14.3556 18.3571C13.9715 17.1123 13.8972 15.7925 14.1392 14.5124C14.3037 13.6425 14.6109 12.8088 15.0457 12.0441Z" fill="white"/>
</svg>
