<svg width="135" height="46" viewBox="0 0 135 46" fill="none" xmlns="http://www.w3.org/2000/svg">
<g clip-path="url(#clip0_533_5894)">
<mask id="mask0_533_5894" style="mask-type:luminance" maskUnits="userSpaceOnUse" x="0" y="0" width="135" height="46">
<path d="M135 0H0V45.3181H135V0Z" fill="white"/>
</mask>
<g mask="url(#mask0_533_5894)">
<path fill-rule="evenodd" clip-rule="evenodd" d="M38.0032 35.1066C35.6299 35.1066 33.4781 34.5846 31.548 33.5403C29.6494 32.4645 28.1463 31.009 27.0389 29.1736C25.9312 27.3382 25.3777 25.2816 25.3777 23.0032C25.3777 20.7249 25.9312 18.6839 27.0389 16.8803C28.1463 15.0766 29.6494 13.6527 31.548 12.6084C33.4467 11.5326 35.5983 10.9946 38.0032 10.9946C40.4079 10.9946 42.5599 11.5168 44.4584 12.561C46.357 13.6052 47.8598 15.045 48.9675 16.8803C50.0749 18.6839 50.629 20.7249 50.629 23.0032C50.629 25.2816 50.0749 27.3382 48.9675 29.1736C47.8598 31.009 46.357 32.4645 44.4584 33.5403C42.5599 34.5846 40.4079 35.1066 38.0032 35.1066ZM38.0032 28.5092C39.0476 28.5092 39.9652 28.2875 40.7562 27.8447C41.5472 27.3699 42.1484 26.7211 42.5599 25.8985C43.0029 25.0442 43.2244 24.0792 43.2244 23.0032C43.2244 21.9273 43.0029 20.9939 42.5599 20.2028C42.1167 19.3801 41.4996 18.7472 40.7088 18.3042C39.9492 17.8296 39.0476 17.5922 38.0032 17.5922C36.9905 17.5922 36.0886 17.8296 35.2978 18.3042C34.5066 18.7472 33.8895 19.3801 33.4467 20.2028C33.0035 21.0255 32.782 21.9748 32.782 23.0507C32.782 24.095 33.0035 25.0442 33.4467 25.8985C33.8895 26.7211 34.5066 27.3699 35.2978 27.8447C36.0886 28.2875 36.9905 28.5092 38.0032 28.5092ZM72.3218 34.5846V0.125244H79.5839V34.5846H72.3218ZM94.95 35.1066C92.8301 35.1066 90.9471 34.6796 89.3016 33.8253C87.6879 32.9391 86.4223 31.7367 85.5044 30.2178C84.5869 28.6671 84.128 26.8953 84.128 24.9019V11.5168H91.3901V24.807C91.3901 25.598 91.5169 26.2784 91.7698 26.8479C92.0545 27.4175 92.4661 27.8604 93.004 28.1768C93.5421 28.4935 94.1906 28.6514 94.95 28.6514C96.026 28.6514 96.8803 28.3193 97.5131 27.6546C98.1462 26.9585 98.4623 26.0093 98.4623 24.807V11.5168H105.724V24.8543C105.724 26.8796 105.266 28.6671 104.348 30.2178C103.43 31.7367 102.165 32.9391 100.551 33.8253C98.937 34.6796 97.0702 35.1066 94.95 35.1066ZM123.574 35.0592C122.024 35.0592 120.6 34.7588 119.302 34.1574C118.62 33.841 118.003 33.4634 117.451 33.0242V44.315H110.284V11.5168H117.546V13.109C118.073 12.678 118.658 12.3055 119.302 11.9914C120.6 11.3586 122.024 11.0421 123.574 11.0421C125.758 11.0421 127.688 11.5642 129.365 12.6084C131.074 13.6527 132.403 15.0766 133.352 16.8803C134.333 18.6839 134.824 20.7407 134.824 23.0507C134.824 25.3608 134.333 27.4175 133.352 29.221C132.403 31.0247 131.074 32.4488 129.365 33.4929C127.688 34.5371 125.758 35.0592 123.574 35.0592ZM122.245 28.5092C123.289 28.5092 124.191 28.2717 124.951 27.7971C125.742 27.3225 126.359 26.6738 126.802 25.8511C127.245 25.0285 127.466 24.095 127.466 23.0507C127.466 21.9748 127.245 21.0255 126.802 20.2028C126.359 19.3801 125.742 18.7472 124.951 18.3042C124.191 17.8296 123.305 17.5922 122.293 17.5922C121.28 17.5922 120.379 17.8296 119.587 18.3042C118.828 18.7472 118.226 19.3801 117.784 20.2028C117.341 21.0255 117.119 21.9748 117.119 23.0507C117.119 24.095 117.325 25.0285 117.736 25.8511C118.179 26.6738 118.796 27.3225 119.587 27.7971C120.379 28.2717 121.264 28.5092 122.245 28.5092ZM7.45198 20.6351V34.4473H0V0.937289H5.69578H7.45198H13.6699C15.8849 0.937289 17.8309 1.36447 19.508 2.21883C21.1851 3.04155 22.4983 4.19653 23.4476 5.68376C24.3968 7.17096 24.8716 8.8797 24.8716 10.8099C24.8716 12.7718 24.3968 14.4964 23.4476 15.9836C22.4983 17.4392 21.1693 18.5783 19.4606 19.4011C18.5073 19.86 17.4605 20.191 16.3202 20.3939L27.042 34.4307C27.8899 35.3904 28.7109 35.9529 29.5312 36.5154L30.1172 36.8435C30.6787 37.1243 31.0472 37.2572 31.507 37.4229C31.623 37.4646 31.7449 37.5087 31.8771 37.5577C33.3476 38.1017 34.9104 38.3829 36.4784 38.3829H37.9181C41.6515 38.3829 45.2977 37.2563 48.3802 35.1504C49.9861 34.0535 51.4095 32.7108 52.5982 31.1714L53.5821 29.8971C54.4922 28.7187 55.309 27.4709 56.0257 26.1659L58.2884 22.0445L60.663 17.4484L56.5301 19.7394C55.6083 20.2503 54.4397 19.9042 53.9287 18.9825C53.4178 18.0608 53.7434 16.8863 54.6654 16.3754L64.4339 10.9606L64.4348 10.9618L64.4395 10.959L69.8545 20.7277C70.3655 21.6494 70.0193 22.818 69.0975 23.3289C68.1759 23.8397 67.0015 23.5142 66.4905 22.5924L64.2045 18.4686L62.8202 23.2371L60.7226 28.6238C60.2327 29.8817 59.6473 31.1 58.9711 32.2683L58.871 32.4413C56.3142 36.859 52.5016 40.4168 47.9182 42.6628L47.3196 42.956C44.4867 44.344 41.3948 45.1236 38.2427 45.2445L37.883 45.2581C33.1163 45.4407 28.4238 44.0358 24.5416 41.2639C22.6439 39.9087 21.3472 38.6229 19.6113 36.3654L18.3607 34.6381L18.2276 34.4473L8.23078 20.6351H7.45198ZM7.45198 15.1292H12.768C14.2552 15.1292 15.3944 14.7495 16.1855 13.9901C17.0082 13.2306 17.4196 12.2022 17.4196 10.9049C17.4196 9.70245 17.024 8.70567 16.233 7.91459C15.4419 7.1235 14.3027 6.72797 12.8155 6.72797H7.45198V15.1292Z" fill="white"/>
</g>
</g>
<defs>
<clipPath id="clip0_533_5894">
<rect width="135" height="45.4688" fill="white"/>
</clipPath>
</defs>
</svg>
