<svg width="26" height="26" viewBox="0 0 26 26" fill="none" xmlns="http://www.w3.org/2000/svg">
<mask id="path-1-outside-1_632_3167" maskUnits="userSpaceOnUse" x="-1.28126" y="-7.36618" width="34.6482" height="34.6482" fill="black">
<rect fill="white" x="-1.28126" y="-7.36618" width="34.6482" height="34.6482"/>
<path fill-rule="evenodd" clip-rule="evenodd" d="M23.0433 2.95789C23.1206 2.8806 23.2481 2.9656 23.2065 3.06667L14.9905 23.0197C14.9576 23.0997 14.8455 23.103 14.808 23.025L11.4749 16.1026C11.458 16.0674 11.4631 16.0257 11.4879 15.9956L18.4488 7.55247L23.0433 2.95789ZM18.4533 7.54702L23.0424 2.9579C23.1197 2.88061 23.0347 2.7531 22.9336 2.79472L2.98052 11.0107C2.90052 11.0436 2.89727 11.1557 2.97522 11.1933L9.87141 14.5136C9.90655 14.5306 9.94831 14.5255 9.9784 14.5007L18.435 7.52874C18.4471 7.51874 18.4633 7.53488 18.4533 7.54702Z"/>
</mask>
<path fill-rule="evenodd" clip-rule="evenodd" d="M23.0433 2.95789C23.1206 2.8806 23.2481 2.9656 23.2065 3.06667L14.9905 23.0197C14.9576 23.0997 14.8455 23.103 14.808 23.025L11.4749 16.1026C11.458 16.0674 11.4631 16.0257 11.4879 15.9956L18.4488 7.55247L23.0433 2.95789ZM18.4533 7.54702L23.0424 2.9579C23.1197 2.88061 23.0347 2.7531 22.9336 2.79472L2.98052 11.0107C2.90052 11.0436 2.89727 11.1557 2.97522 11.1933L9.87141 14.5136C9.90655 14.5306 9.94831 14.5255 9.9784 14.5007L18.435 7.52874C18.4471 7.51874 18.4633 7.53488 18.4533 7.54702Z" fill="#0066FF"/>
<path d="M18.4488 7.55247L17.0345 6.13825L16.9667 6.20614L16.9056 6.28021L18.4488 7.55247ZM18.435 7.52874L17.1627 5.98557L18.435 7.52874ZM9.87141 14.5136L9.00378 16.3156L9.87141 14.5136ZM9.9784 14.5007L11.2507 16.0439L9.9784 14.5007ZM11.4749 16.1026L13.2769 15.235L11.4749 16.1026ZM11.4879 15.9956L13.0311 17.2678L11.4879 15.9956ZM2.98052 11.0107L2.21902 9.16133L2.98052 11.0107ZM2.97522 11.1933L2.10759 12.9953L2.97522 11.1933ZM23.2065 3.06667L21.3572 2.30517L23.2065 3.06667ZM22.9336 2.79472L22.1721 0.945364L22.9336 2.79472ZM14.9905 23.0197L13.1412 22.2582L14.9905 23.0197ZM14.808 23.025L13.006 23.8927L14.808 23.025ZM16.8399 23.7812L25.0559 3.82817L21.3572 2.30517L13.1412 22.2582L16.8399 23.7812ZM9.67294 16.9702L13.006 23.8927L16.61 22.1574L13.2769 15.235L9.67294 16.9702ZM16.9056 6.28021L9.94472 14.7233L13.0311 17.2678L19.9919 8.82472L16.9056 6.28021ZM21.6291 1.54367L17.0345 6.13825L19.863 8.96668L24.4576 4.3721L21.6291 1.54367ZM19.8675 8.96123L24.4566 4.37211L21.6282 1.54368L17.039 6.13281L19.8675 8.96123ZM22.1721 0.945364L2.21902 9.16133L3.74202 12.86L23.6951 4.64408L22.1721 0.945364ZM2.10759 12.9953L9.00378 16.3156L10.739 12.7116L3.84285 9.39125L2.10759 12.9953ZM11.2507 16.0439L19.7072 9.07191L17.1627 5.98557L8.70615 12.9575L11.2507 16.0439ZM19.7072 9.07191C17.8506 10.6026 15.3789 8.13203 16.9101 6.27477L19.9964 8.81927C21.5476 6.93774 19.0436 4.43489 17.1627 5.98557L19.7072 9.07191ZM9.00378 16.3156C9.74167 16.6709 10.6188 16.5648 11.2507 16.0439L8.70615 12.9575C9.27785 12.4862 10.0714 12.3902 10.739 12.7116L9.00378 16.3156ZM13.2769 15.235C13.5984 15.9026 13.5024 16.6961 13.0311 17.2678L9.94472 14.7233C9.42376 15.3552 9.31767 16.2323 9.67294 16.9702L13.2769 15.235ZM2.21902 9.16133C0.539052 9.85309 0.470702 12.2071 2.10759 12.9953L3.84285 9.39125C5.32383 10.1043 5.262 12.2342 3.74202 12.86L2.21902 9.16133ZM25.0559 3.82817C25.9299 1.70559 23.2522 -0.0794289 21.6291 1.54367L24.4576 4.3721C22.989 5.84062 20.5664 4.22561 21.3572 2.30517L25.0559 3.82817ZM24.4566 4.37211C26.0798 2.74895 24.2946 0.0713887 22.1721 0.945364L23.6951 4.64408C21.7747 5.43481 20.1596 3.01226 21.6282 1.54368L24.4566 4.37211ZM13.1412 22.2582C13.7671 20.7383 15.8969 20.6764 16.61 22.1574L13.006 23.8927C13.7941 25.5296 16.1482 25.4612 16.8399 23.7812L13.1412 22.2582Z" fill="white" mask="url(#path-1-outside-1_632_3167)"/>
</svg>
