<svg width="763" height="182" viewBox="0 0 763 182" fill="none" xmlns="http://www.w3.org/2000/svg">
<mask id="path-1-outside-1_533_6944" maskUnits="userSpaceOnUse" x="11" y="31" width="740" height="121" fill="black">
<rect fill="white" x="11" y="31" width="740" height="121"/>
<path d="M78.7501 68.2834C78.324 63.9865 76.4951 60.6484 73.2636 58.2692C70.032 55.8899 65.6464 54.7003 60.1066 54.7003C56.3424 54.7003 53.1642 55.233 50.5718 56.2983C47.9795 57.3281 45.9909 58.7663 44.6059 60.6129C43.2565 62.4595 42.5818 64.5547 42.5818 66.8984C42.5107 68.8516 42.9191 70.5561 43.8069 72.0121C44.7302 73.468 45.9909 74.7287 47.5889 75.794C49.1869 76.8239 51.0335 77.7294 53.1286 78.5107C55.2238 79.2564 57.461 79.8956 59.8403 80.4283L69.6414 82.772C74.3999 83.8374 78.7678 85.2578 82.7451 87.0334C86.7224 88.8089 90.167 90.9929 93.0789 93.5852C95.9909 96.1776 98.2458 99.2315 99.8438 102.747C101.477 106.263 102.312 110.293 102.347 114.839C102.312 121.515 100.607 127.303 97.2338 132.204C93.8957 137.069 89.0661 140.851 82.7451 143.55C76.4596 146.213 68.8779 147.545 60.0001 147.545C51.1933 147.545 43.5228 146.195 36.9887 143.496C30.4901 140.798 25.412 136.803 21.7544 131.511C18.1322 126.185 16.2323 119.597 16.0548 111.749H38.3737C38.6222 115.407 39.6698 118.461 41.5164 120.911C43.3985 123.326 45.9021 125.155 49.0271 126.398C52.1876 127.605 55.7565 128.209 59.7338 128.209C63.64 128.209 67.0313 127.641 69.9078 126.504C72.8197 125.368 75.0747 123.788 76.6727 121.763C78.2707 119.739 79.0697 117.413 79.0697 114.786C79.0697 112.335 78.3417 110.276 76.8857 108.607C75.4653 106.937 73.3701 105.517 70.6002 104.345C67.8659 103.173 64.51 102.108 60.5328 101.149L48.6542 98.1662C39.4568 95.929 32.1947 92.4311 26.868 87.6726C21.5413 82.9141 18.8957 76.5043 18.9312 68.4432C18.8957 61.8381 20.6535 56.0675 24.2046 51.1314C27.7913 46.1953 32.7096 42.3423 38.9596 39.5724C45.2096 36.8026 52.3119 35.4176 60.2664 35.4176C68.363 35.4176 75.4298 36.8026 81.4667 39.5724C87.5392 42.3423 92.2622 46.1953 95.6357 51.1314C99.0093 56.0675 100.749 61.7848 100.856 68.2834H78.7501ZM117.861 146V36.9091H191.37V55.9254H140.926V81.9197H187.588V100.936H140.926V126.984H191.583V146H117.861ZM209.707 146V36.9091H252.747C260.986 36.9091 268.017 38.3828 273.841 41.3303C279.7 44.2422 284.157 48.3793 287.211 53.7415C290.3 59.0682 291.845 65.3359 291.845 72.5447C291.845 79.7891 290.282 86.0213 287.157 91.2415C284.032 96.4261 279.505 100.403 273.574 103.173C267.679 105.943 260.542 107.328 252.161 107.328H223.343V88.7912H248.432C252.836 88.7912 256.493 88.1875 259.405 86.9801C262.317 85.7727 264.483 83.9616 265.904 81.5469C267.36 79.1321 268.088 76.1314 268.088 72.5447C268.088 68.9226 267.36 65.8686 265.904 63.3828C264.483 60.897 262.299 59.0149 259.352 57.7365C256.44 56.4226 252.765 55.7656 248.326 55.7656H232.772V146H209.707ZM268.62 96.3551L295.733 146H270.272L243.745 96.3551H268.62ZM324.924 36.9091L351.291 119.793H352.303L378.723 36.9091H404.292L366.685 146H336.962L299.302 36.9091H324.924ZM440.487 36.9091V146H417.422V36.9091H440.487ZM555.717 75.1016H532.386C531.959 72.0831 531.089 69.402 529.775 67.0582C528.462 64.679 526.775 62.6548 524.715 60.9858C522.655 59.3168 520.276 58.0383 517.577 57.1506C514.914 56.2628 512.02 55.8189 508.895 55.8189C503.248 55.8189 498.33 57.2216 494.14 60.027C489.949 62.7969 486.7 66.8452 484.392 72.1719C482.084 77.4631 480.93 83.8906 480.93 91.4545C480.93 99.2315 482.084 105.766 484.392 111.057C486.736 116.348 490.003 120.343 494.193 123.042C498.383 125.741 503.231 127.09 508.735 127.09C511.824 127.09 514.683 126.682 517.311 125.865C519.974 125.048 522.336 123.859 524.396 122.296C526.455 120.698 528.16 118.763 529.509 116.49C530.894 114.217 531.853 111.625 532.386 108.713L555.717 108.82C555.113 113.827 553.604 118.656 551.189 123.308C548.81 127.925 545.596 132.062 541.548 135.719C537.535 139.342 532.741 142.218 527.165 144.349C521.626 146.444 515.358 147.491 508.362 147.491C498.632 147.491 489.932 145.29 482.261 140.886C474.626 136.483 468.589 130.109 464.15 121.763C459.747 113.418 457.545 103.315 457.545 91.4545C457.545 79.5582 459.783 69.4375 464.257 61.0923C468.731 52.7472 474.804 46.3906 482.474 42.0227C490.145 37.6193 498.774 35.4176 508.362 35.4176C514.683 35.4176 520.543 36.3054 525.94 38.081C531.373 39.8565 536.185 42.4489 540.376 45.8579C544.566 49.2315 547.975 53.3686 550.603 58.2692C553.266 63.1697 554.971 68.7805 555.717 75.1016ZM572.256 146V36.9091H645.764V55.9254H595.321V81.9197H641.983V100.936H595.321V126.984H645.978V146H572.256ZM723.281 68.2834C722.855 63.9865 721.026 60.6484 717.795 58.2692C714.563 55.8899 710.178 54.7003 704.638 54.7003C700.874 54.7003 697.695 55.233 695.103 56.2983C692.511 57.3281 690.522 58.7663 689.137 60.6129C687.788 62.4595 687.113 64.5547 687.113 66.8984C687.042 68.8516 687.45 70.5561 688.338 72.0121C689.261 73.468 690.522 74.7287 692.12 75.794C693.718 76.8239 695.565 77.7294 697.66 78.5107C699.755 79.2564 701.992 79.8956 704.372 80.4283L714.173 82.772C718.931 83.8374 723.299 85.2578 727.276 87.0334C731.254 88.8089 734.698 90.9929 737.61 93.5852C740.522 96.1776 742.777 99.2315 744.375 102.747C746.009 106.263 746.843 110.293 746.879 114.839C746.843 121.515 745.139 127.303 741.765 132.204C738.427 137.069 733.597 140.851 727.276 143.55C720.991 146.213 713.409 147.545 704.531 147.545C695.725 147.545 688.054 146.195 681.52 143.496C675.021 140.798 669.943 136.803 666.286 131.511C662.663 126.185 660.764 119.597 660.586 111.749H682.905C683.153 115.407 684.201 118.461 686.048 120.911C687.93 123.326 690.433 125.155 693.558 126.398C696.719 127.605 700.288 128.209 704.265 128.209C708.171 128.209 711.563 127.641 714.439 126.504C717.351 125.368 719.606 123.788 721.204 121.763C722.802 119.739 723.601 117.413 723.601 114.786C723.601 112.335 722.873 110.276 721.417 108.607C719.997 106.937 717.901 105.517 715.131 104.345C712.397 103.173 709.041 102.108 705.064 101.149L693.185 98.1662C683.988 95.929 676.726 92.4311 671.399 87.6726C666.073 82.9141 663.427 76.5043 663.462 68.4432C663.427 61.8381 665.185 56.0675 668.736 51.1314C672.323 46.1953 677.241 42.3423 683.491 39.5724C689.741 36.8026 696.843 35.4176 704.798 35.4176C712.894 35.4176 719.961 36.8026 725.998 39.5724C732.07 42.3423 736.793 46.1953 740.167 51.1314C743.541 56.0675 745.281 61.7848 745.387 68.2834H723.281Z"/>
</mask>
<path d="M78.7501 68.2834L74.7696 68.6781L75.1272 72.2834H78.7501V68.2834ZM50.5718 56.2983L52.0486 60.0157L52.0705 60.007L52.0923 59.9981L50.5718 56.2983ZM44.6059 60.6129L41.4059 58.2129L41.391 58.2328L41.3763 58.2529L44.6059 60.6129ZM42.5818 66.8984L46.5791 67.0438L46.5818 66.9711V66.8984H42.5818ZM43.8069 72.0121L40.3917 74.0945L40.41 74.1245L40.4289 74.1542L43.8069 72.0121ZM47.5889 75.794L45.3701 79.1222L45.3959 79.1395L45.4221 79.1563L47.5889 75.794ZM53.1286 78.5107L51.7311 82.2586L51.7591 82.269L51.7873 82.2791L53.1286 78.5107ZM59.8403 80.4283L60.7706 76.5379L60.7424 76.5312L60.7142 76.5249L59.8403 80.4283ZM69.6414 82.772L68.7111 86.6623L68.7393 86.6691L68.7675 86.6754L69.6414 82.772ZM82.7451 87.0334L81.1145 90.6859H81.1145L82.7451 87.0334ZM93.0789 93.5852L95.7386 90.5976H95.7386L93.0789 93.5852ZM99.8438 102.747L96.2024 104.402L96.2093 104.418L96.2163 104.433L99.8438 102.747ZM102.347 114.839L106.347 114.86L106.347 114.834L106.347 114.808L102.347 114.839ZM97.2338 132.204L93.939 129.936L93.9355 129.941L97.2338 132.204ZM82.7451 143.55L84.3057 147.233L84.3158 147.228L82.7451 143.55ZM36.9887 143.496L35.4546 147.191L35.4617 147.193L36.9887 143.496ZM21.7544 131.511L18.4466 133.761L18.4553 133.773L18.464 133.786L21.7544 131.511ZM16.0548 111.749V107.749H11.9633L12.0558 111.84L16.0548 111.749ZM38.3737 111.749L42.3645 111.478L42.111 107.749H38.3737V111.749ZM41.5164 120.911L38.322 123.319L38.3415 123.345L38.3615 123.37L41.5164 120.911ZM49.0271 126.398L47.5488 130.115L47.5741 130.125L47.5996 130.134L49.0271 126.398ZM69.9078 126.504L68.4536 122.778L68.4458 122.781L68.438 122.784L69.9078 126.504ZM76.6727 121.763L79.8122 124.242H79.8122L76.6727 121.763ZM76.8857 108.607L73.8396 111.199L73.8554 111.218L73.8715 111.236L76.8857 108.607ZM70.6002 104.345L69.0246 108.022L69.0331 108.025L69.0417 108.029L70.6002 104.345ZM60.5328 101.149L59.5585 105.029L59.5769 105.033L59.5953 105.038L60.5328 101.149ZM48.6542 98.1662L49.6284 94.2866L49.614 94.283L49.5996 94.2795L48.6542 98.1662ZM26.868 87.6726L24.2031 90.6556H24.2031L26.868 87.6726ZM18.9312 68.4432L22.9312 68.4608L22.9312 68.4412L22.9311 68.4217L18.9312 68.4432ZM24.2046 51.1314L20.9687 48.7801L20.9631 48.7877L20.9576 48.7954L24.2046 51.1314ZM81.4667 39.5724L79.7986 43.208L79.8067 43.2117L81.4667 39.5724ZM95.6357 51.1314L92.3333 53.3884L92.3334 53.3884L95.6357 51.1314ZM100.856 68.2834V72.2834H104.922L104.855 68.2178L100.856 68.2834ZM82.7306 67.8886C82.2022 62.5606 79.8542 58.1544 75.6352 55.0481L70.892 61.4903C73.136 63.1425 74.4457 65.4124 74.7696 68.6781L82.7306 67.8886ZM75.6352 55.0481C71.4984 52.0023 66.182 50.7003 60.1066 50.7003V58.7003C65.1108 58.7003 68.5657 59.7775 70.892 61.4903L75.6352 55.0481ZM60.1066 50.7003C55.9895 50.7003 52.2608 51.2796 49.0514 52.5985L52.0923 59.9981C54.0675 59.1863 56.6954 58.7003 60.1066 58.7003V50.7003ZM49.095 52.5809C45.9613 53.8258 43.3172 55.6646 41.4059 58.2129L47.8059 63.0129C48.6646 61.8681 49.9977 60.8304 52.0486 60.0157L49.095 52.5809ZM41.3763 58.2529C39.5132 60.8025 38.5818 63.7287 38.5818 66.8984H46.5818C46.5818 65.3806 46.9998 64.1165 47.8355 62.973L41.3763 58.2529ZM38.5844 66.7531C38.4892 69.3721 39.0384 71.8751 40.3917 74.0945L47.2221 69.9296C46.7998 69.2371 46.5323 68.331 46.5791 67.0438L38.5844 66.7531ZM40.4289 74.1542C41.6839 76.1334 43.3603 77.7824 45.3701 79.1222L49.8077 72.4658C48.6215 71.675 47.7765 70.8027 47.1849 69.8699L40.4289 74.1542ZM45.4221 79.1563C47.2998 80.3664 49.4122 81.3939 51.7311 82.2586L54.5262 74.7627C52.6547 74.0649 51.074 73.2813 49.7557 72.4317L45.4221 79.1563ZM51.7873 82.2791C54.0492 83.0841 56.4437 83.7668 58.9664 84.3316L60.7142 76.5249C58.4784 76.0243 56.3984 75.4286 54.4699 74.7422L51.7873 82.2791ZM58.91 84.3186L68.7111 86.6623L70.5717 78.8817L60.7706 76.5379L58.91 84.3186ZM68.7675 86.6754C73.2965 87.6893 77.4074 89.031 81.1145 90.6859L84.3757 83.3808C80.1283 81.4847 75.5034 79.9854 70.5153 78.8686L68.7675 86.6754ZM81.1145 90.6859C84.7601 92.3134 87.8478 94.2836 90.4192 96.5729L95.7386 90.5976C92.4862 87.7022 88.6847 85.3045 84.3757 83.3808L81.1145 90.6859ZM90.4192 96.5728C92.9187 98.798 94.8374 101.399 96.2024 104.402L103.485 101.092C101.654 97.0636 99.063 93.5571 95.7386 90.5976L90.4192 96.5728ZM96.2163 104.433C97.5709 107.348 98.3157 110.799 98.3475 114.87L106.347 114.808C106.308 109.788 105.384 105.178 103.471 101.062L96.2163 104.433ZM98.3474 114.818C98.3157 120.793 96.8029 125.775 93.939 129.936L100.529 134.472C104.412 128.831 106.308 122.237 106.347 114.86L98.3474 114.818ZM93.9355 129.941C91.0941 134.082 86.9143 137.42 81.1744 139.871L84.3158 147.228C91.218 144.281 96.6973 140.056 100.532 134.467L93.9355 129.941ZM81.1845 139.867C75.5169 142.268 68.4955 143.545 60.0001 143.545V151.545C69.2603 151.545 77.4023 150.158 84.3057 147.233L81.1845 139.867ZM60.0001 143.545C51.5927 143.545 44.4625 142.256 38.5158 139.799L35.4617 147.193C42.5831 150.135 50.7938 151.545 60.0001 151.545V143.545ZM38.5229 139.802C32.6646 137.369 28.2247 133.837 25.0447 129.237L18.464 133.786C22.5994 139.768 28.3157 144.226 35.4546 147.191L38.5229 139.802ZM25.0621 129.262C21.9602 124.701 20.2177 118.905 20.0538 111.659L12.0558 111.84C12.247 120.289 14.3042 127.669 18.4466 133.761L25.0621 129.262ZM16.0548 115.749H38.3737V107.749H16.0548V115.749ZM34.3829 112.021C34.6737 116.299 35.9239 120.137 38.322 123.319L44.7109 118.504C43.4158 116.785 42.5708 114.514 42.3645 111.478L34.3829 112.021ZM38.3615 123.37C40.723 126.4 43.83 128.635 47.5488 130.115L50.5054 122.681C47.9742 121.674 46.074 120.252 44.6713 118.452L38.3615 123.37ZM47.5996 130.134C51.2883 131.544 55.3526 132.209 59.7338 132.209V124.209C56.1604 124.209 53.0869 123.667 50.4545 122.661L47.5996 130.134ZM59.7338 132.209C64.0161 132.209 67.9279 131.587 71.3775 130.224L68.438 122.784C66.1348 123.694 63.2639 124.209 59.7338 124.209V132.209ZM71.3619 130.231C74.7962 128.89 77.6885 126.932 79.8122 124.242L73.5331 119.285C72.4608 120.643 70.8432 121.845 68.4536 122.778L71.3619 130.231ZM79.8122 124.242C81.9789 121.498 83.0697 118.294 83.0697 114.786H75.0697C75.0697 116.532 74.5625 117.981 73.5331 119.285L79.8122 124.242ZM83.0697 114.786C83.0697 111.479 82.0606 108.454 79.9 105.977L73.8715 111.236C74.6228 112.097 75.0697 113.192 75.0697 114.786H83.0697ZM79.9319 106.014C77.9857 103.727 75.3005 101.99 72.1588 100.661L69.0417 108.029C71.4398 109.044 72.9449 110.148 73.8396 111.199L79.9319 106.014ZM72.1759 100.669C69.1747 99.3824 65.591 98.2539 61.4702 97.2605L59.5953 105.038C63.4291 105.962 66.557 106.964 69.0246 108.022L72.1759 100.669ZM61.507 97.2696L49.6284 94.2866L47.68 102.046L59.5585 105.029L61.507 97.2696ZM49.5996 94.2795C40.8409 92.149 34.2359 88.891 29.5328 84.6895L24.2031 90.6556C30.1535 95.9713 38.0726 99.7089 47.7088 102.053L49.5996 94.2795ZM29.5328 84.6895C25.1752 80.7967 22.9 75.5405 22.9312 68.4608L14.9312 68.4256C14.8914 77.468 17.9073 85.0314 24.2031 90.6556L29.5328 84.6895ZM22.9311 68.4217C22.8998 62.5852 24.4375 57.657 27.4517 53.4674L20.9576 48.7954C16.8695 54.4779 14.8916 61.0909 14.9313 68.4647L22.9311 68.4217ZM27.4406 53.4827C30.565 49.1827 34.895 45.749 40.5803 43.2294L37.3389 35.9155C30.5242 38.9356 25.0175 43.2079 20.9687 48.7801L27.4406 53.4827ZM40.5803 43.2294C46.2432 40.7197 52.7796 39.4176 60.2664 39.4176V31.4176C51.8442 31.4176 44.176 32.8854 37.3389 35.9155L40.5803 43.2294ZM60.2664 39.4176C67.9107 39.4176 74.3867 40.7249 79.7986 43.208L83.1348 35.9369C76.4729 32.8802 68.8153 31.4176 60.2664 31.4176V39.4176ZM79.8067 43.2117C85.2952 45.7152 89.4176 49.1222 92.3333 53.3884L98.9381 48.8744C95.1068 43.2684 89.7831 38.9694 83.1267 35.9332L79.8067 43.2117ZM92.3334 53.3884C95.2265 57.6216 96.7616 62.5622 96.8564 68.3489L104.855 68.2178C104.737 61.0074 102.792 54.5133 98.9381 48.8744L92.3334 53.3884ZM100.856 64.2834H78.7501V72.2834H100.856V64.2834ZM117.861 146H113.861V150H117.861V146ZM117.861 36.9091V32.9091H113.861V36.9091H117.861ZM191.37 36.9091H195.37V32.9091H191.37V36.9091ZM191.37 55.9254V59.9254H195.37V55.9254H191.37ZM140.926 55.9254V51.9254H136.926V55.9254H140.926ZM140.926 81.9197H136.926V85.9197H140.926V81.9197ZM187.588 81.9197H191.588V77.9197H187.588V81.9197ZM187.588 100.936V104.936H191.588V100.936H187.588ZM140.926 100.936V96.9361H136.926V100.936H140.926ZM140.926 126.984H136.926V130.984H140.926V126.984ZM191.583 126.984H195.583V122.984H191.583V126.984ZM191.583 146V150H195.583V146H191.583ZM121.861 146V36.9091H113.861V146H121.861ZM117.861 40.9091H191.37V32.9091H117.861V40.9091ZM187.37 36.9091V55.9254H195.37V36.9091H187.37ZM191.37 51.9254H140.926V59.9254H191.37V51.9254ZM136.926 55.9254V81.9197H144.926V55.9254H136.926ZM140.926 85.9197H187.588V77.9197H140.926V85.9197ZM183.588 81.9197V100.936H191.588V81.9197H183.588ZM187.588 96.9361H140.926V104.936H187.588V96.9361ZM136.926 100.936V126.984H144.926V100.936H136.926ZM140.926 130.984H191.583V122.984H140.926V130.984ZM187.583 126.984V146H195.583V126.984H187.583ZM191.583 142H117.861V150H191.583V142ZM209.707 146H205.707V150H209.707V146ZM209.707 36.9091V32.9091H205.707V36.9091H209.707ZM273.841 41.3303L272.034 44.8992L272.047 44.9058L272.06 44.9123L273.841 41.3303ZM287.211 53.7415L283.735 55.7211L283.743 55.7347L283.751 55.7484L287.211 53.7415ZM287.157 91.2415L290.583 93.3064L290.589 93.296L287.157 91.2415ZM273.574 103.173L271.882 99.5491L271.873 99.553L273.574 103.173ZM223.343 107.328H219.343V111.328H223.343V107.328ZM223.343 88.7912V84.7912H219.343V88.7912H223.343ZM259.405 86.9801L260.937 90.6751V90.6751L259.405 86.9801ZM265.904 81.5469L262.478 79.4815L262.467 79.5001L262.456 79.5188L265.904 81.5469ZM265.904 63.3828L262.431 65.3674L262.441 65.386L262.452 65.4044L265.904 63.3828ZM259.352 57.7365L257.707 61.3825L257.734 61.3946L257.76 61.4062L259.352 57.7365ZM232.772 55.7656V51.7656H228.772V55.7656H232.772ZM232.772 146V150H236.772V146H232.772ZM268.62 96.3551L272.131 94.4379L270.994 92.3551H268.62V96.3551ZM295.733 146V150H302.476L299.244 144.083L295.733 146ZM270.272 146L266.744 147.885L267.874 150H270.272V146ZM243.745 96.3551V92.3551H237.072L240.217 98.2402L243.745 96.3551ZM213.707 146V36.9091H205.707V146H213.707ZM209.707 40.9091H252.747V32.9091H209.707V40.9091ZM252.747 40.9091C260.518 40.9091 266.898 42.2996 272.034 44.8992L275.647 37.7613C269.136 34.466 261.453 32.9091 252.747 32.9091V40.9091ZM272.06 44.9123C277.253 47.4929 281.099 51.0922 283.735 55.7211L290.686 51.7619C287.215 45.6663 282.147 40.9915 275.621 37.7482L272.06 44.9123ZM283.751 55.7484C286.43 60.3683 287.845 65.9194 287.845 72.5447H295.845C295.845 64.7525 294.17 57.7681 290.671 51.7346L283.751 55.7484ZM287.845 72.5447C287.845 79.2044 286.413 84.6969 283.725 89.1869L290.589 93.296C294.152 87.3457 295.845 80.3738 295.845 72.5447H287.845ZM283.732 89.1766C281.05 93.6253 277.154 97.0868 271.882 99.5491L275.267 106.797C281.856 103.72 287.015 99.227 290.583 93.3064L283.732 89.1766ZM271.873 99.553C266.64 102.012 260.116 103.328 252.161 103.328V111.328C260.967 111.328 268.719 109.874 275.275 106.794L271.873 99.553ZM252.161 103.328H223.343V111.328H252.161V103.328ZM227.343 107.328V88.7912H219.343V107.328H227.343ZM223.343 92.7912H248.432V84.7912H223.343V92.7912ZM248.432 92.7912C253.167 92.7912 257.388 92.1468 260.937 90.6751L257.873 83.2851C255.599 84.2282 252.504 84.7912 248.432 84.7912V92.7912ZM260.937 90.6751C264.546 89.1786 267.436 86.8314 269.352 83.575L262.456 79.5188C261.531 81.0919 260.088 82.3668 257.873 83.2851L260.937 90.6751ZM269.329 83.6123C271.251 80.4258 272.088 76.6641 272.088 72.5447H264.088C264.088 75.5987 263.469 77.8384 262.478 79.4815L269.329 83.6123ZM272.088 72.5447C272.088 68.3925 271.252 64.5992 269.355 61.3612L262.452 65.4044C263.468 67.138 264.088 69.4526 264.088 72.5447H272.088ZM269.377 61.3983C267.476 58.0716 264.582 55.645 260.944 54.0668L257.76 61.4062C260.017 62.3849 261.491 63.7225 262.431 65.3674L269.377 61.3983ZM260.997 54.0905C257.408 52.471 253.125 51.7656 248.326 51.7656V59.7656C252.404 59.7656 255.472 60.3742 257.707 61.3825L260.997 54.0905ZM248.326 51.7656H232.772V59.7656H248.326V51.7656ZM228.772 55.7656V146H236.772V55.7656H228.772ZM232.772 142H209.707V150H232.772V142ZM265.11 98.2724L292.223 147.917L299.244 144.083L272.131 94.4379L265.11 98.2724ZM295.733 142H270.272V150H295.733V142ZM273.8 144.115L247.273 94.47L240.217 98.2402L266.744 147.885L273.8 144.115ZM243.745 100.355H268.62V92.3551H243.745V100.355ZM324.924 36.9091L328.736 35.6965L327.849 32.9091H324.924V36.9091ZM351.291 119.793L347.479 121.005L348.366 123.793H351.291V119.793ZM352.303 119.793V123.793H355.226L356.114 121.007L352.303 119.793ZM378.723 36.9091V32.9091H375.8L374.912 35.6943L378.723 36.9091ZM404.292 36.9091L408.073 38.2127L409.902 32.9091H404.292V36.9091ZM366.685 146V150H369.537L370.467 147.304L366.685 146ZM336.962 146L333.181 147.305L334.111 150H336.962V146ZM299.302 36.9091V32.9091H293.69L295.521 38.2144L299.302 36.9091ZM321.112 38.1217L347.479 121.005L355.103 118.58L328.736 35.6965L321.112 38.1217ZM351.291 123.793H352.303V115.793H351.291V123.793ZM356.114 121.007L382.535 38.1239L374.912 35.6943L348.492 118.578L356.114 121.007ZM378.723 40.9091H404.292V32.9091H378.723V40.9091ZM400.51 35.6055L362.904 144.696L370.467 147.304L408.073 38.2127L400.51 35.6055ZM366.685 142H336.962V150H366.685V142ZM340.743 144.695L303.083 35.6038L295.521 38.2144L333.181 147.305L340.743 144.695ZM299.302 40.9091H324.924V32.9091H299.302V40.9091ZM440.487 36.9091H444.487V32.9091H440.487V36.9091ZM440.487 146V150H444.487V146H440.487ZM417.422 146H413.422V150H417.422V146ZM417.422 36.9091V32.9091H413.422V36.9091H417.422ZM436.487 36.9091V146H444.487V36.9091H436.487ZM440.487 142H417.422V150H440.487V142ZM421.422 146V36.9091H413.422V146H421.422ZM417.422 40.9091H440.487V32.9091H417.422V40.9091ZM555.717 75.1016V79.1016H560.216L559.689 74.6329L555.717 75.1016ZM532.386 75.1016L528.425 75.6607L528.911 79.1016H532.386V75.1016ZM529.776 67.0582L526.274 68.9919L526.28 69.0031L526.286 69.0143L529.776 67.0582ZM524.715 60.9858L522.197 64.0935V64.0935L524.715 60.9858ZM517.577 57.1506L516.312 60.9453L516.32 60.9478L516.327 60.9503L517.577 57.1506ZM494.14 60.027L496.346 63.3639L496.355 63.3574L496.365 63.3508L494.14 60.027ZM484.392 72.1719L488.058 73.7713L488.062 73.7623L484.392 72.1719ZM484.392 111.057L480.726 112.656L480.73 112.667L480.735 112.677L484.392 111.057ZM494.193 123.042L492.027 126.405L494.193 123.042ZM517.311 125.865L516.138 122.041L516.131 122.043L516.124 122.045L517.311 125.865ZM524.396 122.296L526.813 125.483L526.83 125.47L526.847 125.457L524.396 122.296ZM529.509 116.49L526.093 114.409L526.081 114.428L526.07 114.448L529.509 116.49ZM532.386 108.713L532.404 104.713L529.054 104.698L528.451 107.993L532.386 108.713ZM555.717 108.82L559.688 109.298L560.225 104.84L555.735 104.82L555.717 108.82ZM551.189 123.308L547.639 121.465L547.633 121.476L551.189 123.308ZM541.547 135.719L544.228 138.689L544.229 138.687L541.547 135.719ZM527.165 144.349L528.58 148.09L528.593 148.085L527.165 144.349ZM482.261 140.886L480.263 144.351L480.27 144.355L482.261 140.886ZM464.15 121.763L460.613 123.63L460.619 123.642L464.15 121.763ZM464.257 61.0923L467.782 62.9825V62.9825L464.257 61.0923ZM482.474 42.0227L484.454 45.4987L484.466 45.4917L482.474 42.0227ZM525.94 38.081L524.69 41.8807L524.698 41.8831L525.94 38.081ZM540.376 45.8579L537.851 48.9608L537.859 48.9673L537.867 48.9737L540.376 45.8579ZM550.603 58.2692L547.078 60.1595L547.083 60.1694L547.088 60.1792L550.603 58.2692ZM555.717 71.1016H532.386V79.1016H555.717V71.1016ZM536.346 74.5424C535.86 71.0986 534.851 67.9325 533.265 65.1022L526.286 69.0143C527.328 70.8715 528.059 73.0676 528.425 75.6607L536.346 74.5424ZM533.277 65.1245C531.72 62.3059 529.704 59.8797 527.233 57.8781L522.197 64.0935C523.846 65.4299 525.203 67.052 526.274 68.9919L533.277 65.1245ZM527.233 57.8781C524.77 55.882 521.954 54.3794 518.827 53.3509L516.327 60.9503C518.598 61.6973 520.541 62.7516 522.197 64.0935L527.233 57.8781ZM518.842 53.3558C515.728 52.3176 512.402 51.8189 508.895 51.8189V59.8189C511.638 59.8189 514.1 60.2079 516.312 60.9453L518.842 53.3558ZM508.895 51.8189C502.554 51.8189 496.841 53.4052 491.915 56.7031L496.365 63.3508C499.82 61.038 503.943 59.8189 508.895 59.8189V51.8189ZM491.934 56.6901C487.001 59.9513 483.289 64.6564 480.722 70.5814L488.062 73.7623C490.111 69.0339 492.898 65.6425 496.346 63.3639L491.934 56.6901ZM480.726 70.5725C478.14 76.4986 476.93 83.5031 476.93 91.4545H484.93C484.93 84.2782 486.027 78.4275 488.058 73.7713L480.726 70.5725ZM476.93 91.4545C476.93 99.6015 478.135 106.718 480.726 112.656L488.058 109.457C486.032 104.813 484.93 98.8616 484.93 91.4545H476.93ZM480.735 112.677C483.343 118.564 487.08 123.218 492.027 126.405L496.359 119.679C492.926 117.468 490.129 114.132 488.049 109.437L480.735 112.677ZM492.027 126.405C496.93 129.562 502.546 131.09 508.735 131.09V123.09C503.916 123.09 499.837 121.919 496.359 119.679L492.027 126.405ZM508.735 131.09C512.178 131.09 515.442 130.635 518.498 129.685L516.124 122.045C513.924 122.729 511.471 123.09 508.735 123.09V131.09ZM518.484 129.689C521.561 128.745 524.351 127.351 526.813 125.483L521.978 119.109C520.321 120.367 518.387 121.351 516.138 122.041L518.484 129.689ZM526.847 125.457C529.309 123.547 531.347 121.23 532.949 118.532L526.07 114.448C524.973 116.295 523.601 117.85 521.944 119.136L526.847 125.457ZM532.925 118.572C534.592 115.836 535.709 112.773 536.32 109.433L528.451 107.993C527.996 110.477 527.196 112.599 526.093 114.409L532.925 118.572ZM532.367 112.713L555.698 112.82L555.735 104.82L532.404 104.713L532.367 112.713ZM551.745 108.341C551.201 112.853 549.841 117.222 547.639 121.465L554.739 125.151C557.366 120.09 559.024 114.8 559.688 109.298L551.745 108.341ZM547.633 121.476C545.486 125.643 542.575 129.4 538.866 132.751L544.229 138.687C548.616 134.723 552.134 130.207 554.744 125.141L547.633 121.476ZM538.867 132.75C535.257 136.009 530.9 138.64 525.737 140.612L528.593 148.085C534.582 145.797 539.812 142.674 544.228 138.689L538.867 132.75ZM525.75 140.607C520.737 142.504 514.96 143.491 508.362 143.491V151.491C515.756 151.491 522.515 150.384 528.58 148.09L525.75 140.607ZM508.362 143.491C499.259 143.491 491.258 141.439 484.253 137.417L480.27 144.355C488.606 149.141 498.005 151.491 508.362 151.491V143.491ZM484.26 137.421C477.322 133.42 471.795 127.618 467.682 119.885L460.619 123.642C465.384 132.599 471.931 139.546 480.263 144.351L484.26 137.421ZM467.688 119.897C463.657 112.256 461.545 102.828 461.545 91.4545H453.545C453.545 103.802 455.838 114.58 460.613 123.63L467.688 119.897ZM461.545 91.4545C461.545 80.052 463.689 70.616 467.782 62.9825L460.732 59.2022C455.876 68.259 453.545 79.0644 453.545 91.4545H461.545ZM467.782 62.9825C471.928 55.2505 477.485 49.4667 484.454 45.4987L480.495 38.5468C472.122 43.3145 465.535 50.2438 460.732 59.2022L467.782 62.9825ZM484.466 45.4917C491.48 41.4652 499.412 39.4176 508.362 39.4176V31.4176C498.136 31.4176 488.81 33.7734 480.483 38.5537L484.466 45.4917ZM508.362 39.4176C514.306 39.4176 519.739 40.2518 524.69 41.8807L527.19 34.2813C521.346 32.359 515.06 31.4176 508.362 31.4176V39.4176ZM524.698 41.8831C529.692 43.5151 534.063 45.8792 537.851 48.9608L542.9 42.7551C538.307 39.0186 533.055 36.1979 527.183 34.2788L524.698 41.8831ZM537.867 48.9737C541.626 51.9997 544.695 55.7151 547.078 60.1595L554.128 56.3789C551.256 51.0221 547.506 46.4634 542.884 42.7422L537.867 48.9737ZM547.088 60.1792C549.477 64.5743 551.05 69.6837 551.744 75.5702L559.689 74.6329C558.892 67.8774 557.055 61.7652 554.117 56.3591L547.088 60.1792ZM572.256 146H568.256V150H572.256V146ZM572.256 36.9091V32.9091H568.256V36.9091H572.256ZM645.764 36.9091H649.764V32.9091H645.764V36.9091ZM645.764 55.9254V59.9254H649.764V55.9254H645.764ZM595.321 55.9254V51.9254H591.321V55.9254H595.321ZM595.321 81.9197H591.321V85.9197H595.321V81.9197ZM641.983 81.9197H645.983V77.9197H641.983V81.9197ZM641.983 100.936V104.936H645.983V100.936H641.983ZM595.321 100.936V96.9361H591.321V100.936H595.321ZM595.321 126.984H591.321V130.984H595.321V126.984ZM645.978 126.984H649.978V122.984H645.978V126.984ZM645.978 146V150H649.978V146H645.978ZM576.256 146V36.9091H568.256V146H576.256ZM572.256 40.9091H645.764V32.9091H572.256V40.9091ZM641.764 36.9091V55.9254H649.764V36.9091H641.764ZM645.764 51.9254H595.321V59.9254H645.764V51.9254ZM591.321 55.9254V81.9197H599.321V55.9254H591.321ZM595.321 85.9197H641.983V77.9197H595.321V85.9197ZM637.983 81.9197V100.936H645.983V81.9197H637.983ZM641.983 96.9361H595.321V104.936H641.983V96.9361ZM591.321 100.936V126.984H599.321V100.936H591.321ZM595.321 130.984H645.978V122.984H595.321V130.984ZM641.978 126.984V146H649.978V126.984H641.978ZM645.978 142H572.256V150H645.978V142ZM723.281 68.2834L719.301 68.6781L719.658 72.2834H723.281V68.2834ZM695.103 56.2983L696.58 60.0157L696.602 60.007L696.624 59.9981L695.103 56.2983ZM689.137 60.6129L685.937 58.2129L685.922 58.2328L685.908 58.2529L689.137 60.6129ZM687.113 66.8984L691.11 67.0438L691.113 66.9711V66.8984H687.113ZM688.338 72.0121L684.923 74.0945L684.941 74.1245L684.96 74.1542L688.338 72.0121ZM692.12 75.794L689.901 79.1222L689.927 79.1395L689.953 79.1563L692.12 75.794ZM697.66 78.5107L696.262 82.2586L696.29 82.269L696.319 82.2791L697.66 78.5107ZM704.372 80.4283L705.302 76.5379L705.274 76.5312L705.245 76.5249L704.372 80.4283ZM714.173 82.772L713.242 86.6623L713.271 86.6691L713.299 86.6754L714.173 82.772ZM727.276 87.0334L725.646 90.6859L727.276 87.0334ZM737.61 93.5852L740.27 90.5976L737.61 93.5852ZM744.375 102.747L740.734 104.402L740.741 104.418L740.748 104.433L744.375 102.747ZM746.879 114.839L750.879 114.86L750.879 114.834L750.879 114.808L746.879 114.839ZM741.765 132.204L738.47 129.936L738.467 129.941L741.765 132.204ZM727.276 143.55L728.837 147.233L728.847 147.228L727.276 143.55ZM681.52 143.496L679.986 147.191L679.993 147.193L681.52 143.496ZM666.286 131.511L662.978 133.761L662.987 133.773L662.995 133.786L666.286 131.511ZM660.586 111.749V107.749H656.495L656.587 111.84L660.586 111.749ZM682.905 111.749L686.896 111.478L686.642 107.749H682.905V111.749ZM686.048 120.911L682.853 123.319L682.873 123.345L682.893 123.37L686.048 120.911ZM693.558 126.398L692.08 130.115L692.105 130.125L692.131 130.134L693.558 126.398ZM714.439 126.504L712.985 122.778L712.977 122.781L712.969 122.784L714.439 126.504ZM721.204 121.763L724.343 124.242L721.204 121.763ZM721.417 108.607L718.371 111.199L718.387 111.218L718.403 111.236L721.417 108.607ZM715.131 104.345L713.556 108.022L713.564 108.025L713.573 108.029L715.131 104.345ZM705.064 101.149L704.09 105.029L704.108 105.033L704.127 105.038L705.064 101.149ZM693.185 98.1662L694.16 94.2866L694.145 94.283L694.131 94.2795L693.185 98.1662ZM671.399 87.6726L668.734 90.6556L671.399 87.6726ZM663.462 68.4432L667.462 68.4608L667.463 68.4412L667.462 68.4217L663.462 68.4432ZM668.736 51.1314L665.5 48.7801L665.494 48.7877L665.489 48.7954L668.736 51.1314ZM725.998 39.5724L724.33 43.208L724.338 43.2117L725.998 39.5724ZM740.167 51.1314L736.865 53.3884V53.3884L740.167 51.1314ZM745.387 68.2834V72.2834H749.453L749.387 68.2178L745.387 68.2834ZM727.262 67.8886C726.733 62.5606 724.385 58.1544 720.166 55.0481L715.423 61.4903C717.667 63.1425 718.977 65.4124 719.301 68.6781L727.262 67.8886ZM720.166 55.0481C716.03 52.0023 710.713 50.7003 704.638 50.7003V58.7003C709.642 58.7003 713.097 59.7775 715.423 61.4903L720.166 55.0481ZM704.638 50.7003C700.521 50.7003 696.792 51.2796 693.583 52.5985L696.624 59.9981C698.599 59.1863 701.227 58.7003 704.638 58.7003V50.7003ZM693.626 52.5809C690.492 53.8258 687.848 55.6646 685.937 58.2129L692.337 63.0129C693.196 61.8681 694.529 60.8304 696.58 60.0157L693.626 52.5809ZM685.908 58.2529C684.044 60.8025 683.113 63.7287 683.113 66.8984H691.113C691.113 65.3806 691.531 64.1165 692.367 62.973L685.908 58.2529ZM683.116 66.7531C683.02 69.3721 683.57 71.8751 684.923 74.0945L691.753 69.9296C691.331 69.2371 691.064 68.331 691.11 67.0438L683.116 66.7531ZM684.96 74.1542C686.215 76.1334 687.891 77.7824 689.901 79.1222L694.339 72.4658C693.153 71.675 692.308 70.8027 691.716 69.8699L684.96 74.1542ZM689.953 79.1563C691.831 80.3664 693.943 81.3939 696.262 82.2586L699.057 74.7627C697.186 74.0649 695.605 73.2813 694.287 72.4317L689.953 79.1563ZM696.319 82.2791C698.58 83.0841 700.975 83.7668 703.498 84.3316L705.245 76.5249C703.01 76.0243 700.93 75.4286 699.001 74.7422L696.319 82.2791ZM703.441 84.3186L713.242 86.6623L715.103 78.8817L705.302 76.5379L703.441 84.3186ZM713.299 86.6754C717.828 87.6893 721.939 89.031 725.646 90.6859L728.907 83.3808C724.66 81.4847 720.035 79.9854 715.047 78.8686L713.299 86.6754ZM725.646 90.6859C729.291 92.3134 732.379 94.2836 734.95 96.5729L740.27 90.5976C737.017 87.7022 733.216 85.3045 728.907 83.3808L725.646 90.6859ZM734.95 96.5728C737.45 98.798 739.369 101.399 740.734 104.402L748.017 101.092C746.185 97.0636 743.594 93.5571 740.27 90.5976L734.95 96.5728ZM740.748 104.433C742.102 107.348 742.847 110.799 742.879 114.87L750.879 114.808C750.839 109.788 749.915 105.178 748.003 101.062L740.748 104.433ZM742.879 114.818C742.847 120.793 741.334 125.775 738.47 129.936L745.06 134.472C748.943 128.831 750.839 122.237 750.879 114.86L742.879 114.818ZM738.467 129.941C735.625 134.082 731.445 137.42 725.706 139.871L728.847 147.228C735.749 144.281 741.229 140.056 745.063 134.467L738.467 129.941ZM725.716 139.867C720.048 142.268 713.027 143.545 704.531 143.545V151.545C713.792 151.545 721.934 150.158 728.837 147.233L725.716 139.867ZM704.531 143.545C696.124 143.545 688.994 142.256 683.047 139.799L679.993 147.193C687.114 150.135 695.325 151.545 704.531 151.545V143.545ZM683.054 139.802C677.196 137.369 672.756 133.837 669.576 129.237L662.995 133.786C667.131 139.768 672.847 144.226 679.986 147.191L683.054 139.802ZM669.593 129.262C666.491 124.701 664.749 118.905 664.585 111.659L656.587 111.84C656.778 120.289 658.835 127.669 662.978 133.761L669.593 129.262ZM660.586 115.749H682.905V107.749H660.586V115.749ZM678.914 112.021C679.205 116.299 680.455 120.137 682.853 123.319L689.242 118.504C687.947 116.785 687.102 114.514 686.896 111.478L678.914 112.021ZM682.893 123.37C685.254 126.4 688.361 128.635 692.08 130.115L695.037 122.681C692.505 121.674 690.605 120.252 689.203 118.452L682.893 123.37ZM692.131 130.134C695.82 131.544 699.884 132.209 704.265 132.209V124.209C700.692 124.209 697.618 123.667 694.986 122.661L692.131 130.134ZM704.265 132.209C708.547 132.209 712.459 131.587 715.909 130.224L712.969 122.784C710.666 123.694 707.795 124.209 704.265 124.209V132.209ZM715.893 130.231C719.327 128.89 722.22 126.932 724.343 124.242L718.064 119.285C716.992 120.643 715.374 121.845 712.985 122.778L715.893 130.231ZM724.343 124.242C726.51 121.498 727.601 118.294 727.601 114.786H719.601C719.601 116.532 719.094 117.981 718.064 119.285L724.343 124.242ZM727.601 114.786C727.601 111.479 726.592 108.454 724.431 105.977L718.403 111.236C719.154 112.097 719.601 113.192 719.601 114.786H727.601ZM724.463 106.014C722.517 103.727 719.832 101.99 716.69 100.661L713.573 108.029C715.971 109.044 717.476 110.148 718.371 111.199L724.463 106.014ZM716.707 100.669C713.706 99.3824 710.122 98.2539 706.001 97.2605L704.127 105.038C707.96 105.962 711.088 106.964 713.556 108.022L716.707 100.669ZM706.038 97.2696L694.16 94.2866L692.211 102.046L704.09 105.029L706.038 97.2696ZM694.131 94.2795C685.372 92.149 678.767 88.891 674.064 84.6895L668.734 90.6556C674.685 95.9713 682.604 99.7089 692.24 102.053L694.131 94.2795ZM674.064 84.6895C669.706 80.7967 667.431 75.5405 667.462 68.4608L659.462 68.4256C659.423 77.468 662.439 85.0314 668.734 90.6556L674.064 84.6895ZM667.462 68.4217C667.431 62.5852 668.969 57.657 671.983 53.4674L665.489 48.7954C661.401 54.4779 659.423 61.0909 659.463 68.4647L667.462 68.4217ZM671.972 53.4827C675.096 49.1827 679.426 45.749 685.112 43.2294L681.87 35.9155C675.055 38.9356 669.549 43.2079 665.5 48.7801L671.972 53.4827ZM685.112 43.2294C690.774 40.7197 697.311 39.4176 704.798 39.4176V31.4176C696.375 31.4176 688.707 32.8854 681.87 35.9155L685.112 43.2294ZM704.798 39.4176C712.442 39.4176 718.918 40.7249 724.33 43.208L727.666 35.9369C721.004 32.8802 713.347 31.4176 704.798 31.4176V39.4176ZM724.338 43.2117C729.826 45.7152 733.949 49.1222 736.865 53.3884L743.469 48.8744C739.638 43.2684 734.314 38.9694 727.658 35.9332L724.338 43.2117ZM736.865 53.3884C739.758 57.6216 741.293 62.5622 741.388 68.3489L749.387 68.2178C749.268 61.0074 747.323 54.5133 743.469 48.8744L736.865 53.3884ZM745.387 64.2834H723.281V72.2834H745.387V64.2834Z" fill="#F1F1F1" fill-opacity="0.6" mask="url(#path-1-outside-1_533_6944)"/>
</svg>
