<svg width="100" height="100" viewBox="0 0 100 100" fill="none" xmlns="http://www.w3.org/2000/svg">
<path fill-rule="evenodd" clip-rule="evenodd" d="M50 0C22.3858 0 0 22.3858 0 50C0 77.6142 22.3858 100 50 100C77.6142 100 100 77.6142 100 50C100 22.3858 77.6142 0 50 0ZM77.5216 65.9633C78.7946 63.7967 77.6616 61.1152 75.3385 60.157C73.0155 59.1989 70.3896 60.3398 69.0006 62.4339C67.302 64.9949 65.107 67.209 62.5297 68.9368C58.6855 71.5138 54.1634 72.893 49.5353 72.9C44.9072 72.907 40.381 71.5414 36.529 68.976C33.9465 67.256 31.7449 65.0486 30.0385 62.4927C28.6432 60.4028 26.0139 59.2698 23.6937 60.2349C21.3736 61.2001 20.2487 63.885 21.5282 66.0478C24.0057 70.2357 27.4027 73.8313 31.4848 76.55C36.8347 80.1131 43.1211 82.0097 49.549 82C55.9769 81.9903 62.2576 80.0747 67.5968 76.4955C71.6706 73.7646 75.0567 70.1587 77.5216 65.9633ZM44 35.3333C44 40.488 40.866 44.6667 37 44.6667C33.134 44.6667 30 40.488 30 35.3333C30 30.1787 33.134 26 37 26C40.866 26 44 30.1787 44 35.3333ZM62 44.6667C65.866 44.6667 69 40.488 69 35.3333C69 30.1787 65.866 26 62 26C58.134 26 55 30.1787 55 35.3333C55 40.488 58.134 44.6667 62 44.6667Z" fill="#FFE454"/>
</svg>
