<svg width="38" height="38" viewBox="0 0 38 38" fill="none" xmlns="http://www.w3.org/2000/svg">
<path fill-rule="evenodd" clip-rule="evenodd" d="M19.9665 6.09677C19.9665 5.49105 19.4755 5 18.8697 5C18.264 5 17.7729 5.49105 17.7729 6.09677V8.95472C17.7729 9.56045 18.264 10.0515 18.8697 10.0515C19.4755 10.0515 19.9665 9.56045 19.9665 8.95472V6.09677ZM19.0001 27.0822C23.464 27.0822 27.0826 23.4636 27.0826 18.9999C27.0826 14.5361 23.464 10.9175 19.0001 10.9175C14.5364 10.9175 10.9178 14.5361 10.9178 18.9999C10.9178 23.4636 14.5364 27.0822 19.0001 27.0822ZM19.0001 24.6576C15.8755 24.6576 13.3425 22.1245 13.3425 18.9999C13.3425 15.8752 15.8755 13.3422 19.0001 13.3422C22.1248 13.3422 24.6578 15.8752 24.6578 18.9999C24.6578 22.1245 22.1248 24.6576 19.0001 24.6576ZM18.8697 27.9479C19.4755 27.9479 19.9665 28.439 19.9665 29.0447V31.9026C19.9665 32.5084 19.4755 32.9994 18.8697 32.9994C18.264 32.9994 17.7729 32.5084 17.7729 31.9026V29.0447C17.7729 28.439 18.264 27.9479 18.8697 27.9479ZM6.09677 18.1053C5.49105 18.1053 5 18.5963 5 19.2021C5 19.8077 5.49105 20.2988 6.09677 20.2988H8.95472C9.56045 20.2988 10.0515 19.8077 10.0515 19.2021C10.0515 18.5963 9.56045 18.1053 8.95472 18.1053H6.09677ZM27.9485 19.3463C27.9485 18.7407 28.4395 18.2496 29.0453 18.2496H31.9032C32.5089 18.2496 33 18.7407 33 19.3463C33 19.9521 32.5089 20.4431 31.9032 20.4431H29.0453C28.4395 20.4431 27.9485 19.9521 27.9485 19.3463ZM9.00799 9.19243C9.43631 8.76412 10.1307 8.76412 10.5591 9.19243L12.5799 11.2133C13.0083 11.6416 13.0083 12.3361 12.5799 12.7644C12.1516 13.1927 11.4572 13.1927 11.0289 12.7644L9.00799 10.7435C8.57966 10.3152 8.57966 9.62075 9.00799 9.19243ZM25.2347 25.419C25.663 24.9906 26.3574 24.9906 26.7858 25.419L28.8067 27.4398C29.235 27.8681 29.235 28.5626 28.8067 28.9908C28.3783 29.4192 27.6839 29.4192 27.2556 28.9908L25.2347 26.9699C24.8065 26.5417 24.8065 25.8472 25.2347 25.419ZM9.24312 27.4908C8.8148 27.9192 8.8148 28.6137 9.24312 29.0419C9.67143 29.4703 10.3659 29.4703 10.7942 29.0419L12.8151 27.021C13.2434 26.5928 13.2434 25.8983 12.8151 25.4701C12.3867 25.0417 11.6923 25.0417 11.264 25.4701L9.24312 27.4908ZM25.5716 12.9173C25.1432 12.489 25.1432 11.7946 25.5716 11.3662L27.5924 9.34536C28.0208 8.91705 28.7152 8.91705 29.1435 9.34536C29.5719 9.77368 29.5719 10.4681 29.1435 10.8964L27.1226 12.9173C26.6943 13.3456 25.9999 13.3456 25.5716 12.9173Z" fill="black"/>
</svg>
