<svg width="1173" height="182" viewBox="0 0 1173 182" fill="none" xmlns="http://www.w3.org/2000/svg">
<mask id="path-1-outside-1_716_4137" maskUnits="userSpaceOnUse" x="5" y="31" width="1164" height="121" fill="black">
<rect fill="white" x="5" y="31" width="1164" height="121"/>
<path d="M77.0606 36.9091H100.125V107.754C100.125 115.709 98.2254 122.669 94.4257 128.635C90.6615 134.601 85.3881 139.253 78.6054 142.591C71.8227 145.893 63.9214 147.545 54.9015 147.545C45.8461 147.545 37.9271 145.893 31.1444 142.591C24.3618 139.253 19.0883 134.601 15.3241 128.635C11.5599 122.669 9.67782 115.709 9.67782 107.754V36.9091H32.7425V105.783C32.7425 109.938 33.648 113.631 35.4591 116.863C37.3057 120.094 39.898 122.634 43.2361 124.48C46.5741 126.327 50.4626 127.25 54.9015 127.25C59.376 127.25 63.2645 126.327 66.567 124.48C69.9051 122.634 72.4797 120.094 74.2908 116.863C76.1373 113.631 77.0606 109.938 77.0606 105.783V36.9091ZM210.348 36.9091V146H190.426L142.965 77.3388H142.166V146H119.102V36.9091H139.343L186.431 105.517H187.39V36.9091H210.348ZM288.584 68.2834C288.158 63.9865 286.329 60.6484 283.098 58.2692C279.866 55.8899 275.48 54.7003 269.941 54.7003C266.176 54.7003 262.998 55.233 260.406 56.2983C257.813 57.3281 255.825 58.7663 254.44 60.6129C253.09 62.4595 252.416 64.5547 252.416 66.8984C252.345 68.8516 252.753 70.5561 253.641 72.0121C254.564 73.468 255.825 74.7287 257.423 75.794C259.021 76.8239 260.867 77.7294 262.963 78.5107C265.058 79.2564 267.295 79.8956 269.674 80.4283L279.475 82.772C284.234 83.8374 288.602 85.2578 292.579 87.0334C296.556 88.8089 300.001 90.9929 302.913 93.5852C305.825 96.1776 308.08 99.2315 309.678 102.747C311.311 106.263 312.146 110.293 312.181 114.839C312.146 121.515 310.441 127.303 307.068 132.204C303.73 137.069 298.9 140.851 292.579 143.55C286.294 146.213 278.712 147.545 269.834 147.545C261.027 147.545 253.357 146.195 246.823 143.496C240.324 140.798 235.246 136.803 231.588 131.511C227.966 126.185 226.066 119.597 225.889 111.749H248.208C248.456 115.407 249.504 118.461 251.35 120.911C253.233 123.326 255.736 125.155 258.861 126.398C262.022 127.605 265.59 128.209 269.568 128.209C273.474 128.209 276.865 127.641 279.742 126.504C282.654 125.368 284.909 123.788 286.507 121.763C288.105 119.739 288.904 117.413 288.904 114.786C288.904 112.335 288.176 110.276 286.72 108.607C285.299 106.937 283.204 105.517 280.434 104.345C277.7 103.173 274.344 102.108 270.367 101.149L258.488 98.1662C249.291 95.929 242.029 92.4311 236.702 87.6726C231.375 82.9141 228.73 76.5043 228.765 68.4432C228.73 61.8381 230.487 56.0675 234.039 51.1314C237.625 46.1953 242.544 42.3423 248.794 39.5724C255.044 36.8026 262.146 35.4176 270.1 35.4176C278.197 35.4176 285.264 36.8026 291.301 39.5724C297.373 42.3423 302.096 46.1953 305.47 51.1314C308.843 56.0675 310.583 61.7848 310.69 68.2834H288.584ZM327.695 146V36.9091H401.204V55.9254H350.76V81.9197H397.422V100.936H350.76V126.984H401.417V146H327.695ZM419.541 146V36.9091H462.581C470.82 36.9091 477.851 38.3828 483.675 41.3303C489.534 44.2422 493.991 48.3793 497.045 53.7415C500.134 59.0682 501.679 65.3359 501.679 72.5447C501.679 79.7891 500.116 86.0213 496.991 91.2415C493.866 96.4261 489.339 100.403 483.408 103.173C477.513 105.943 470.376 107.328 461.995 107.328H433.177V88.7912H458.266C462.67 88.7912 466.327 88.1875 469.239 86.9801C472.151 85.7727 474.317 83.9616 475.738 81.5469C477.194 79.1321 477.922 76.1314 477.922 72.5447C477.922 68.9226 477.194 65.8686 475.738 63.3828C474.317 60.897 472.133 59.0149 469.186 57.7365C466.274 56.4226 462.599 55.7656 458.16 55.7656H442.606V146H419.541ZM478.454 96.3551L505.567 146H480.106L453.579 96.3551H478.454ZM517.979 146V36.9091H591.487V55.9254H541.043V81.9197H587.705V100.936H541.043V126.984H591.7V146H517.979ZM669.097 146L637.883 36.9091H663.078L681.136 112.708H682.041L701.963 36.9091H723.536L743.405 112.868H744.364L762.421 36.9091H787.616L756.402 146H733.923L713.149 74.6754H712.297L691.576 146H669.097ZM799.961 146V36.9091H873.47V55.9254H823.026V81.9197H869.688V100.936H823.026V126.984H873.683V146H799.961ZM891.807 146V36.9091H934.847C943.085 36.9091 950.116 38.3828 955.94 41.3303C961.8 44.2422 966.256 48.3793 969.31 53.7415C972.4 59.0682 973.945 65.3359 973.945 72.5447C973.945 79.7891 972.382 86.0213 969.257 91.2415C966.132 96.4261 961.604 100.403 955.674 103.173C949.779 105.943 942.641 107.328 934.261 107.328H905.443V88.7912H930.532C934.935 88.7912 938.593 88.1875 941.505 86.9801C944.417 85.7727 946.583 83.9616 948.003 81.5469C949.459 79.1321 950.187 76.1314 950.187 72.5447C950.187 68.9226 949.459 65.8686 948.003 63.3828C946.583 60.897 944.399 59.0149 941.452 57.7365C938.54 56.4226 934.864 55.7656 930.425 55.7656H914.871V146H891.807ZM950.72 96.3551L977.833 146H952.371L925.844 96.3551H950.72ZM986.089 55.9254V36.9091H1075.68V55.9254H1042.29V146H1019.49V55.9254H986.089ZM1090.44 146V36.9091H1163.95V55.9254H1113.5V81.9197H1160.17V100.936H1113.5V126.984H1164.16V146H1090.44Z"/>
</mask>
<path d="M77.0606 36.9091V32.9091H73.0606V36.9091H77.0606ZM100.125 36.9091H104.125V32.9091H100.125V36.9091ZM94.4257 128.635L91.0519 126.486L91.0473 126.493L91.0428 126.5L94.4257 128.635ZM78.6054 142.591L80.3565 146.187L80.3641 146.184L80.3717 146.18L78.6054 142.591ZM31.1444 142.591L29.3782 146.18L29.3858 146.184L29.3933 146.187L31.1444 142.591ZM15.3241 128.635L11.9412 130.769H11.9412L15.3241 128.635ZM9.67782 36.9091V32.9091H5.67782V36.9091H9.67782ZM32.7425 36.9091H36.7425V32.9091H32.7425V36.9091ZM35.4591 116.863L31.9697 118.819L31.9778 118.833L31.9861 118.847L35.4591 116.863ZM43.2361 124.48L41.2998 127.98H41.2998L43.2361 124.48ZM66.567 124.48L64.6308 120.98L64.6228 120.984L64.6149 120.989L66.567 124.48ZM74.2908 116.863L70.8178 114.878L70.8095 114.893L70.8014 114.907L74.2908 116.863ZM77.0606 40.9091H100.125V32.9091H77.0606V40.9091ZM96.1253 36.9091V107.754H104.125V36.9091H96.1253ZM96.1253 107.754C96.1253 115.045 94.3931 121.24 91.0519 126.486L97.7995 130.784C102.058 124.098 104.125 116.372 104.125 107.754H96.1253ZM91.0428 126.5C87.7012 131.797 83.0083 135.966 76.8391 139.002L80.3717 146.18C87.7678 142.54 93.6218 137.405 97.8086 130.769L91.0428 126.5ZM76.8543 138.995C70.7137 141.984 63.4321 143.545 54.9015 143.545V151.545C64.4108 151.545 72.9317 149.802 80.3565 146.187L76.8543 138.995ZM54.9015 143.545C46.3328 143.545 39.0341 141.984 32.8955 138.995L29.3933 146.187C36.8201 149.803 45.3595 151.545 54.9015 151.545V143.545ZM32.9107 139.002C26.7415 135.966 22.0486 131.797 18.707 126.5L11.9412 130.769C16.128 137.405 21.9821 142.54 29.3782 146.18L32.9107 139.002ZM18.707 126.5C15.3958 121.252 13.6778 115.052 13.6778 107.754H5.67782C5.67782 116.365 7.72404 124.086 11.9412 130.769L18.707 126.5ZM13.6778 107.754V36.9091H5.67782V107.754H13.6778ZM9.67782 40.9091H32.7425V32.9091H9.67782V40.9091ZM28.7425 36.9091V105.783H36.7425V36.9091H28.7425ZM28.7425 105.783C28.7425 110.538 29.7847 114.92 31.9697 118.819L38.9484 114.907C37.5113 112.343 36.7425 109.338 36.7425 105.783H28.7425ZM31.9861 118.847C34.2058 122.732 37.3371 125.788 41.2998 127.98L45.1723 120.98C42.4588 119.479 40.4055 117.457 38.932 114.878L31.9861 118.847ZM41.2998 127.98C45.3211 130.205 49.8969 131.25 54.9015 131.25V123.25C51.0284 123.25 47.8272 122.449 45.1723 120.98L41.2998 127.98ZM54.9015 131.25C59.9343 131.25 64.5196 130.208 68.5192 127.971L64.6149 120.989C62.0093 122.446 58.8176 123.25 54.9015 123.25V131.25ZM68.5033 127.98C72.4723 125.785 75.5939 122.719 77.7801 118.819L70.8014 114.907C69.3655 117.469 67.3379 119.482 64.6308 120.98L68.5033 127.98ZM77.7637 118.847C79.9945 114.944 81.0606 110.552 81.0606 105.783H73.0606C73.0606 109.325 72.2802 112.319 70.8178 114.878L77.7637 118.847ZM81.0606 105.783V36.9091H73.0606V105.783H81.0606ZM210.348 36.9091H214.348V32.9091H210.348V36.9091ZM210.348 146V150H214.348V146H210.348ZM190.426 146L187.136 148.274L188.329 150H190.426V146ZM142.965 77.3388L146.256 75.0643L145.063 73.3388H142.965V77.3388ZM142.166 77.3388V73.3388H138.166V77.3388H142.166ZM142.166 146V150H146.166V146H142.166ZM119.102 146H115.102V150H119.102V146ZM119.102 36.9091V32.9091H115.102V36.9091H119.102ZM139.343 36.9091L142.641 34.6456L141.449 32.9091H139.343V36.9091ZM186.431 105.517L183.133 107.781L184.325 109.517H186.431V105.517ZM187.39 105.517V109.517H191.39V105.517H187.39ZM187.39 36.9091V32.9091H183.39V36.9091H187.39ZM206.348 36.9091V146H214.348V36.9091H206.348ZM210.348 142H190.426V150H210.348V142ZM193.717 143.726L146.256 75.0643L139.675 79.6132L187.136 148.274L193.717 143.726ZM142.965 73.3388H142.166V81.3388H142.965V73.3388ZM138.166 77.3388V146H146.166V77.3388H138.166ZM142.166 142H119.102V150H142.166V142ZM123.102 146V36.9091H115.102V146H123.102ZM119.102 40.9091H139.343V32.9091H119.102V40.9091ZM136.045 39.1726L183.133 107.781L189.729 103.254L142.641 34.6456L136.045 39.1726ZM186.431 109.517H187.39V101.517H186.431V109.517ZM191.39 105.517V36.9091H183.39V105.517H191.39ZM187.39 40.9091H210.348V32.9091H187.39V40.9091ZM288.584 68.2834L284.604 68.6781L284.961 72.2834H288.584V68.2834ZM260.406 56.2983L261.883 60.0157L261.904 60.007L261.926 59.9981L260.406 56.2983ZM254.44 60.6129L251.24 58.2129L251.225 58.2328L251.21 58.2529L254.44 60.6129ZM252.416 66.8984L256.413 67.0438L256.416 66.9711V66.8984H252.416ZM253.641 72.0121L250.226 74.0945L250.244 74.1245L250.263 74.1542L253.641 72.0121ZM257.423 75.794L255.204 79.1222L255.23 79.1395L255.256 79.1563L257.423 75.794ZM262.963 78.5107L261.565 82.2586L261.593 82.269L261.621 82.2791L262.963 78.5107ZM269.674 80.4283L270.605 76.5379L270.576 76.5312L270.548 76.5249L269.674 80.4283ZM279.475 82.772L278.545 86.6623L278.573 86.6691L278.602 86.6754L279.475 82.772ZM292.579 87.0334L290.948 90.6859L292.579 87.0334ZM302.913 93.5852L305.573 90.5976L302.913 93.5852ZM309.678 102.747L306.036 104.402L306.043 104.418L306.05 104.433L309.678 102.747ZM312.181 114.839L316.181 114.86L316.181 114.834L316.181 114.808L312.181 114.839ZM307.068 132.204L303.773 129.936L303.769 129.941L307.068 132.204ZM292.579 143.55L294.14 147.233L294.15 147.228L292.579 143.55ZM246.823 143.496L245.289 147.191L245.296 147.193L246.823 143.496ZM231.588 131.511L228.281 133.761L228.289 133.773L228.298 133.786L231.588 131.511ZM225.889 111.749V107.749H221.797L221.89 111.84L225.889 111.749ZM248.208 111.749L252.198 111.478L251.945 107.749H248.208V111.749ZM251.35 120.911L248.156 123.319L248.176 123.345L248.195 123.37L251.35 120.911ZM258.861 126.398L257.383 130.115L257.408 130.125L257.434 130.134L258.861 126.398ZM279.742 126.504L278.288 122.778L278.28 122.781L278.272 122.784L279.742 126.504ZM286.507 121.763L289.646 124.242L286.507 121.763ZM286.72 108.607L283.674 111.199L283.689 111.218L283.705 111.236L286.72 108.607ZM280.434 104.345L278.859 108.022L278.867 108.025L278.876 108.029L280.434 104.345ZM270.367 101.149L269.393 105.029L269.411 105.033L269.429 105.038L270.367 101.149ZM258.488 98.1662L259.462 94.2866L259.448 94.283L259.434 94.2795L258.488 98.1662ZM236.702 87.6726L234.037 90.6556L236.702 87.6726ZM228.765 68.4432L232.765 68.4608L232.765 68.4412L232.765 68.4217L228.765 68.4432ZM234.039 51.1314L230.803 48.7801L230.797 48.7877L230.792 48.7954L234.039 51.1314ZM291.301 39.5724L289.633 43.208L289.641 43.2117L291.301 39.5724ZM305.47 51.1314L302.167 53.3884V53.3884L305.47 51.1314ZM310.69 68.2834V72.2834H314.756L314.689 68.2178L310.69 68.2834ZM292.565 67.8886C292.036 62.5606 289.688 58.1544 285.469 55.0481L280.726 61.4903C282.97 63.1425 284.28 65.4124 284.604 68.6781L292.565 67.8886ZM285.469 55.0481C281.332 52.0023 276.016 50.7003 269.941 50.7003V58.7003C274.945 58.7003 278.4 59.7775 280.726 61.4903L285.469 55.0481ZM269.941 50.7003C265.823 50.7003 262.095 51.2796 258.885 52.5985L261.926 59.9981C263.902 59.1863 266.529 58.7003 269.941 58.7003V50.7003ZM258.929 52.5809C255.795 53.8258 253.151 55.6646 251.24 58.2129L257.64 63.0129C258.499 61.8681 259.832 60.8304 261.883 60.0157L258.929 52.5809ZM251.21 58.2529C249.347 60.8025 248.416 63.7287 248.416 66.8984H256.416C256.416 65.3806 256.834 64.1165 257.669 62.973L251.21 58.2529ZM248.418 66.7531C248.323 69.3721 248.872 71.8751 250.226 74.0945L257.056 69.9296C256.634 69.2371 256.366 68.331 256.413 67.0438L248.418 66.7531ZM250.263 74.1542C251.518 76.1334 253.194 77.7824 255.204 79.1222L259.642 72.4658C258.455 71.675 257.61 70.8027 257.019 69.8699L250.263 74.1542ZM255.256 79.1563C257.134 80.3664 259.246 81.3939 261.565 82.2586L264.36 74.7627C262.489 74.0649 260.908 73.2813 259.59 72.4317L255.256 79.1563ZM261.621 82.2791C263.883 83.0841 266.278 83.7668 268.8 84.3316L270.548 76.5249C268.312 76.0243 266.232 75.4286 264.304 74.7422L261.621 82.2791ZM268.744 84.3186L278.545 86.6623L280.406 78.8817L270.605 76.5379L268.744 84.3186ZM278.602 86.6754C283.13 87.6893 287.241 89.031 290.948 90.6859L294.21 83.3808C289.962 81.4847 285.337 79.9854 280.349 78.8686L278.602 86.6754ZM290.948 90.6859C294.594 92.3134 297.682 94.2836 300.253 96.5729L305.573 90.5976C302.32 87.7022 298.519 85.3045 294.21 83.3808L290.948 90.6859ZM300.253 96.5728C302.753 98.798 304.671 101.399 306.036 104.402L313.319 101.092C311.488 97.0636 308.897 93.5571 305.573 90.5976L300.253 96.5728ZM306.05 104.433C307.405 107.348 308.15 110.799 308.181 114.87L316.181 114.808C316.142 109.788 315.218 105.178 313.305 101.062L306.05 104.433ZM308.181 114.818C308.15 120.793 306.637 125.775 303.773 129.936L310.363 134.472C314.246 128.831 316.142 122.237 316.181 114.86L308.181 114.818ZM303.769 129.941C300.928 134.082 296.748 137.42 291.008 139.871L294.15 147.228C301.052 144.281 306.531 140.056 310.366 134.467L303.769 129.941ZM291.018 139.867C285.351 142.268 278.329 143.545 269.834 143.545V151.545C279.094 151.545 287.236 150.158 294.14 147.233L291.018 139.867ZM269.834 143.545C261.427 143.545 254.296 142.256 248.35 139.799L245.296 147.193C252.417 150.135 260.628 151.545 269.834 151.545V143.545ZM248.357 139.802C242.499 137.369 238.059 133.837 234.879 129.237L228.298 133.786C232.433 139.768 238.15 144.226 245.289 147.191L248.357 139.802ZM234.896 129.262C231.794 124.701 230.052 118.905 229.888 111.659L221.89 111.84C222.081 120.289 224.138 127.669 228.281 133.761L234.896 129.262ZM225.889 115.749H248.208V107.749H225.889V115.749ZM244.217 112.021C244.508 116.299 245.758 120.137 248.156 123.319L254.545 118.504C253.25 116.785 252.405 114.514 252.198 111.478L244.217 112.021ZM248.195 123.37C250.557 126.4 253.664 128.635 257.383 130.115L260.339 122.681C257.808 121.674 255.908 120.252 254.505 118.452L248.195 123.37ZM257.434 130.134C261.122 131.544 265.187 132.209 269.568 132.209V124.209C265.994 124.209 262.921 123.667 260.289 122.661L257.434 130.134ZM269.568 132.209C273.85 132.209 277.762 131.587 281.211 130.224L278.272 122.784C275.969 123.694 273.098 124.209 269.568 124.209V132.209ZM281.196 130.231C284.63 128.89 287.522 126.932 289.646 124.242L283.367 119.285C282.295 120.643 280.677 121.845 278.288 122.778L281.196 130.231ZM289.646 124.242C291.813 121.498 292.904 118.294 292.904 114.786H284.904C284.904 116.532 284.396 117.981 283.367 119.285L289.646 124.242ZM292.904 114.786C292.904 111.479 291.895 108.454 289.734 105.977L283.705 111.236C284.457 112.097 284.904 113.192 284.904 114.786H292.904ZM289.766 106.014C287.82 103.727 285.134 101.99 281.993 100.661L278.876 108.029C281.274 109.044 282.779 110.148 283.674 111.199L289.766 106.014ZM282.01 100.669C279.009 99.3824 275.425 98.2539 271.304 97.2605L269.429 105.038C273.263 105.962 276.391 106.964 278.859 108.022L282.01 100.669ZM271.341 97.2696L259.462 94.2866L257.514 102.046L269.393 105.029L271.341 97.2696ZM259.434 94.2795C250.675 92.149 244.07 88.891 239.367 84.6895L234.037 90.6556C239.987 95.9713 247.907 99.7089 257.543 102.053L259.434 94.2795ZM239.367 84.6895C235.009 80.7967 232.734 75.5405 232.765 68.4608L224.765 68.4256C224.725 77.468 227.741 85.0314 234.037 90.6556L239.367 84.6895ZM232.765 68.4217C232.734 62.5852 234.272 57.657 237.286 53.4674L230.792 48.7954C226.703 54.4779 224.726 61.0909 224.765 68.4647L232.765 68.4217ZM237.275 53.4827C240.399 49.1827 244.729 45.749 250.414 43.2294L247.173 35.9155C240.358 38.9356 234.852 43.2079 230.803 48.7801L237.275 53.4827ZM250.414 43.2294C256.077 40.7197 262.614 39.4176 270.1 39.4176V31.4176C261.678 31.4176 254.01 32.8854 247.173 35.9155L250.414 43.2294ZM270.1 39.4176C277.745 39.4176 284.221 40.7249 289.633 43.208L292.969 35.9369C286.307 32.8802 278.649 31.4176 270.1 31.4176V39.4176ZM289.641 43.2117C295.129 45.7152 299.252 49.1222 302.167 53.3884L308.772 48.8744C304.941 43.2684 299.617 38.9694 292.961 35.9332L289.641 43.2117ZM302.167 53.3884C305.061 57.6216 306.596 62.5622 306.69 68.3489L314.689 68.2178C314.571 61.0074 312.626 54.5133 308.772 48.8744L302.167 53.3884ZM310.69 64.2834H288.584V72.2834H310.69V64.2834ZM327.695 146H323.695V150H327.695V146ZM327.695 36.9091V32.9091H323.695V36.9091H327.695ZM401.204 36.9091H405.204V32.9091H401.204V36.9091ZM401.204 55.9254V59.9254H405.204V55.9254H401.204ZM350.76 55.9254V51.9254H346.76V55.9254H350.76ZM350.76 81.9197H346.76V85.9197H350.76V81.9197ZM397.422 81.9197H401.422V77.9197H397.422V81.9197ZM397.422 100.936V104.936H401.422V100.936H397.422ZM350.76 100.936V96.9361H346.76V100.936H350.76ZM350.76 126.984H346.76V130.984H350.76V126.984ZM401.417 126.984H405.417V122.984H401.417V126.984ZM401.417 146V150H405.417V146H401.417ZM331.695 146V36.9091H323.695V146H331.695ZM327.695 40.9091H401.204V32.9091H327.695V40.9091ZM397.204 36.9091V55.9254H405.204V36.9091H397.204ZM401.204 51.9254H350.76V59.9254H401.204V51.9254ZM346.76 55.9254V81.9197H354.76V55.9254H346.76ZM350.76 85.9197H397.422V77.9197H350.76V85.9197ZM393.422 81.9197V100.936H401.422V81.9197H393.422ZM397.422 96.9361H350.76V104.936H397.422V96.9361ZM346.76 100.936V126.984H354.76V100.936H346.76ZM350.76 130.984H401.417V122.984H350.76V130.984ZM397.417 126.984V146H405.417V126.984H397.417ZM401.417 142H327.695V150H401.417V142ZM419.541 146H415.541V150H419.541V146ZM419.541 36.9091V32.9091H415.541V36.9091H419.541ZM483.675 41.3303L481.868 44.8992L481.881 44.9058L481.894 44.9123L483.675 41.3303ZM497.045 53.7415L493.569 55.7211L493.577 55.7347L493.585 55.7484L497.045 53.7415ZM496.991 91.2415L500.417 93.3064L500.423 93.296L496.991 91.2415ZM483.408 103.173L481.716 99.5491L481.707 99.553L483.408 103.173ZM433.177 107.328H429.177V111.328H433.177V107.328ZM433.177 88.7912V84.7912H429.177V88.7912H433.177ZM469.239 86.9801L470.771 90.6751L470.771 90.6751L469.239 86.9801ZM475.738 81.5469L472.312 79.4815L472.301 79.5001L472.29 79.5188L475.738 81.5469ZM475.738 63.3828L472.265 65.3674L472.275 65.386L472.286 65.4044L475.738 63.3828ZM469.186 57.7365L467.541 61.3825L467.568 61.3946L467.594 61.4062L469.186 57.7365ZM442.606 55.7656V51.7656H438.606V55.7656H442.606ZM442.606 146V150H446.606V146H442.606ZM478.454 96.3551L481.965 94.4379L480.828 92.3551H478.454V96.3551ZM505.567 146V150H512.31L509.078 144.083L505.567 146ZM480.106 146L476.578 147.885L477.708 150H480.106V146ZM453.579 96.3551V92.3551H446.906L450.051 98.2402L453.579 96.3551ZM423.541 146V36.9091H415.541V146H423.541ZM419.541 40.9091H462.581V32.9091H419.541V40.9091ZM462.581 40.9091C470.352 40.9091 476.732 42.2996 481.868 44.8992L485.481 37.7613C478.97 34.466 471.287 32.9091 462.581 32.9091V40.9091ZM481.894 44.9123C487.087 47.4929 490.933 51.0922 493.569 55.7211L500.52 51.7619C497.049 45.6663 491.981 40.9915 485.455 37.7482L481.894 44.9123ZM493.585 55.7484C496.264 60.3683 497.679 65.9194 497.679 72.5447H505.679C505.679 64.7525 504.004 57.7681 500.505 51.7346L493.585 55.7484ZM497.679 72.5447C497.679 79.2044 496.247 84.6969 493.559 89.1869L500.423 93.296C503.986 87.3457 505.679 80.3738 505.679 72.5447H497.679ZM493.566 89.1766C490.884 93.6253 486.987 97.0868 481.716 99.5491L485.101 106.797C491.69 103.72 496.849 99.227 500.417 93.3064L493.566 89.1766ZM481.707 99.553C476.474 102.012 469.95 103.328 461.995 103.328V111.328C470.801 111.328 478.553 109.874 485.109 106.794L481.707 99.553ZM461.995 103.328H433.177V111.328H461.995V103.328ZM437.177 107.328V88.7912H429.177V107.328H437.177ZM433.177 92.7912H458.266V84.7912H433.177V92.7912ZM458.266 92.7912C463.001 92.7912 467.222 92.1468 470.771 90.6751L467.707 83.2851C465.433 84.2282 462.338 84.7912 458.266 84.7912V92.7912ZM470.771 90.6751C474.38 89.1786 477.27 86.8314 479.186 83.575L472.29 79.5188C471.365 81.0919 469.922 82.3668 467.707 83.2851L470.771 90.6751ZM479.163 83.6123C481.085 80.4258 481.922 76.6641 481.922 72.5447H473.922C473.922 75.5987 473.303 77.8384 472.312 79.4815L479.163 83.6123ZM481.922 72.5447C481.922 68.3925 481.086 64.5992 479.189 61.3612L472.286 65.4044C473.302 67.138 473.922 69.4526 473.922 72.5447H481.922ZM479.211 61.3983C477.31 58.0716 474.416 55.645 470.778 54.0668L467.594 61.4062C469.851 62.3849 471.325 63.7225 472.265 65.3674L479.211 61.3983ZM470.831 54.0905C467.242 52.471 462.959 51.7656 458.16 51.7656V59.7656C462.238 59.7656 465.306 60.3742 467.541 61.3825L470.831 54.0905ZM458.16 51.7656H442.606V59.7656H458.16V51.7656ZM438.606 55.7656V146H446.606V55.7656H438.606ZM442.606 142H419.541V150H442.606V142ZM474.944 98.2724L502.057 147.917L509.078 144.083L481.965 94.4379L474.944 98.2724ZM505.567 142H480.106V150H505.567V142ZM483.634 144.115L457.107 94.47L450.051 98.2402L476.578 147.885L483.634 144.115ZM453.579 100.355H478.454V92.3551H453.579V100.355ZM517.979 146H513.979V150H517.979V146ZM517.979 36.9091V32.9091H513.979V36.9091H517.979ZM591.487 36.9091H595.487V32.9091H591.487V36.9091ZM591.487 55.9254V59.9254H595.487V55.9254H591.487ZM541.043 55.9254V51.9254H537.043V55.9254H541.043ZM541.043 81.9197H537.043V85.9197H541.043V81.9197ZM587.705 81.9197H591.705V77.9197H587.705V81.9197ZM587.705 100.936V104.936H591.705V100.936H587.705ZM541.043 100.936V96.9361H537.043V100.936H541.043ZM541.043 126.984H537.043V130.984H541.043V126.984ZM591.7 126.984H595.7V122.984H591.7V126.984ZM591.7 146V150H595.7V146H591.7ZM521.979 146V36.9091H513.979V146H521.979ZM517.979 40.9091H591.487V32.9091H517.979V40.9091ZM587.487 36.9091V55.9254H595.487V36.9091H587.487ZM591.487 51.9254H541.043V59.9254H591.487V51.9254ZM537.043 55.9254V81.9197H545.043V55.9254H537.043ZM541.043 85.9197H587.705V77.9197H541.043V85.9197ZM583.705 81.9197V100.936H591.705V81.9197H583.705ZM587.705 96.9361H541.043V104.936H587.705V96.9361ZM537.043 100.936V126.984H545.043V100.936H537.043ZM541.043 130.984H591.7V122.984H541.043V130.984ZM587.7 126.984V146H595.7V126.984H587.7ZM591.7 142H517.979V150H591.7V142ZM669.097 146L665.252 147.1L666.081 150H669.097V146ZM637.883 36.9091V32.9091H632.578L634.037 38.0095L637.883 36.9091ZM663.078 36.9091L666.969 35.9821L666.237 32.9091H663.078V36.9091ZM681.136 112.708L677.244 113.635L677.977 116.708H681.136V112.708ZM682.041 112.708V116.708H685.126L685.91 113.725L682.041 112.708ZM701.963 36.9091V32.9091H698.878L698.094 35.8923L701.963 36.9091ZM723.536 36.9091L727.406 35.8969L726.624 32.9091H723.536V36.9091ZM743.405 112.868L739.535 113.88L740.316 116.868H743.405V112.868ZM744.364 112.868V116.868H747.524L748.255 113.793L744.364 112.868ZM762.421 36.9091V32.9091H759.26L758.53 35.984L762.421 36.9091ZM787.616 36.9091L791.462 38.0095L792.921 32.9091H787.616V36.9091ZM756.402 146V150H759.418L760.248 147.1L756.402 146ZM733.923 146L730.083 147.119L730.922 150H733.923V146ZM713.149 74.6754L716.99 73.5569L716.15 70.6754H713.149V74.6754ZM712.297 74.6754V70.6754H709.293L708.456 73.5595L712.297 74.6754ZM691.576 146V150H694.579L695.417 147.116L691.576 146ZM672.943 144.9L641.728 35.8087L634.037 38.0095L665.252 147.1L672.943 144.9ZM637.883 40.9091H663.078V32.9091H637.883V40.9091ZM659.187 37.8361L677.244 113.635L685.027 111.781L666.969 35.9821L659.187 37.8361ZM681.136 116.708H682.041V108.708H681.136V116.708ZM685.91 113.725L705.832 37.9259L698.094 35.8923L678.172 111.691L685.91 113.725ZM701.963 40.9091H723.536V32.9091H701.963V40.9091ZM719.666 37.9213L739.535 113.88L747.275 111.856L727.406 35.8969L719.666 37.9213ZM743.405 116.868H744.364V108.868H743.405V116.868ZM748.255 113.793L766.313 37.8342L758.53 35.984L740.472 111.943L748.255 113.793ZM762.421 40.9091H787.616V32.9091H762.421V40.9091ZM783.771 35.8087L752.556 144.9L760.248 147.1L791.462 38.0095L783.771 35.8087ZM756.402 142H733.923V150H756.402V142ZM737.764 144.881L716.99 73.5569L709.309 75.794L730.083 147.119L737.764 144.881ZM713.149 70.6754H712.297V78.6754H713.149V70.6754ZM708.456 73.5595L687.735 144.884L695.417 147.116L716.138 75.7913L708.456 73.5595ZM691.576 142H669.097V150H691.576V142ZM799.961 146H795.961V150H799.961V146ZM799.961 36.9091V32.9091H795.961V36.9091H799.961ZM873.47 36.9091H877.47V32.9091H873.47V36.9091ZM873.47 55.9254V59.9254H877.47V55.9254H873.47ZM823.026 55.9254V51.9254H819.026V55.9254H823.026ZM823.026 81.9197H819.026V85.9197H823.026V81.9197ZM869.688 81.9197H873.688V77.9197H869.688V81.9197ZM869.688 100.936V104.936H873.688V100.936H869.688ZM823.026 100.936V96.9361H819.026V100.936H823.026ZM823.026 126.984H819.026V130.984H823.026V126.984ZM873.683 126.984H877.683V122.984H873.683V126.984ZM873.683 146V150H877.683V146H873.683ZM803.961 146V36.9091H795.961V146H803.961ZM799.961 40.9091H873.47V32.9091H799.961V40.9091ZM869.47 36.9091V55.9254H877.47V36.9091H869.47ZM873.47 51.9254H823.026V59.9254H873.47V51.9254ZM819.026 55.9254V81.9197H827.026V55.9254H819.026ZM823.026 85.9197H869.688V77.9197H823.026V85.9197ZM865.688 81.9197V100.936H873.688V81.9197H865.688ZM869.688 96.9361H823.026V104.936H869.688V96.9361ZM819.026 100.936V126.984H827.026V100.936H819.026ZM823.026 130.984H873.683V122.984H823.026V130.984ZM869.683 126.984V146H877.683V126.984H869.683ZM873.683 142H799.961V150H873.683V142ZM891.807 146H887.807V150H891.807V146ZM891.807 36.9091V32.9091H887.807V36.9091H891.807ZM955.94 41.3303L954.134 44.8992L954.147 44.9058L954.16 44.9123L955.94 41.3303ZM969.31 53.7415L965.834 55.7211L965.842 55.7347L965.85 55.7484L969.31 53.7415ZM969.257 91.2415L972.683 93.3064L972.689 93.296L969.257 91.2415ZM955.674 103.173L953.981 99.5491L953.973 99.553L955.674 103.173ZM905.443 107.328H901.443V111.328H905.443V107.328ZM905.443 88.7912V84.7912H901.443V88.7912H905.443ZM941.505 86.9801L943.037 90.6751V90.6751L941.505 86.9801ZM948.003 81.5469L944.578 79.4815L944.567 79.5001L944.556 79.5188L948.003 81.5469ZM948.003 63.3828L944.531 65.3674L944.541 65.386L944.552 65.4044L948.003 63.3828ZM941.452 57.7365L939.806 61.3825L939.833 61.3946L939.86 61.4062L941.452 57.7365ZM914.871 55.7656V51.7656H910.871V55.7656H914.871ZM914.871 146V150H918.871V146H914.871ZM950.72 96.3551L954.231 94.4379L953.093 92.3551H950.72V96.3551ZM977.833 146V150H984.575L981.344 144.083L977.833 146ZM952.371 146L948.843 147.885L949.973 150H952.371V146ZM925.844 96.3551V92.3551H919.172L922.316 98.2402L925.844 96.3551ZM895.807 146V36.9091H887.807V146H895.807ZM891.807 40.9091H934.846V32.9091H891.807V40.9091ZM934.846 40.9091C942.618 40.9091 948.997 42.2996 954.134 44.8992L957.747 37.7613C951.235 34.466 943.552 32.9091 934.846 32.9091V40.9091ZM954.16 44.9123C959.353 47.4929 963.198 51.0922 965.834 55.7211L972.786 51.7619C969.314 45.6663 964.246 40.9915 957.72 37.7482L954.16 44.9123ZM965.85 55.7484C968.53 60.3683 969.945 65.9194 969.945 72.5447H977.945C977.945 64.7525 976.27 57.7681 972.77 51.7346L965.85 55.7484ZM969.945 72.5447C969.945 79.2044 968.513 84.6969 965.825 89.1869L972.689 93.296C976.251 87.3457 977.945 80.3738 977.945 72.5447H969.945ZM965.831 89.1766C963.15 93.6253 959.253 97.0868 953.981 99.5491L957.367 106.797C963.956 103.72 969.114 99.227 972.683 93.3064L965.831 89.1766ZM953.973 99.553C948.74 102.012 942.216 103.328 934.261 103.328V111.328C943.067 111.328 950.818 109.874 957.375 106.794L953.973 99.553ZM934.261 103.328H905.443V111.328H934.261V103.328ZM909.443 107.328V88.7912H901.443V107.328H909.443ZM905.443 92.7912H930.532V84.7912H905.443V92.7912ZM930.532 92.7912C935.267 92.7912 939.488 92.1468 943.037 90.6751L939.973 83.2851C937.698 84.2282 934.604 84.7912 930.532 84.7912V92.7912ZM943.037 90.6751C946.646 89.1786 949.536 86.8314 951.451 83.575L944.556 79.5188C943.63 81.0919 942.188 82.3668 939.973 83.2851L943.037 90.6751ZM951.429 83.6123C953.35 80.4258 954.187 76.6641 954.187 72.5447H946.187C946.187 75.5987 945.569 77.8384 944.578 79.4815L951.429 83.6123ZM954.187 72.5447C954.187 68.3925 953.352 64.5992 951.455 61.3612L944.552 65.4044C945.567 67.138 946.187 69.4526 946.187 72.5447H954.187ZM951.476 61.3983C949.575 58.0716 946.682 55.645 943.043 54.0668L939.86 61.4062C942.116 62.3849 943.591 63.7225 944.531 65.3674L951.476 61.3983ZM943.097 54.0905C939.508 52.471 935.225 51.7656 930.425 51.7656V59.7656C934.504 59.7656 937.572 60.3742 939.806 61.3825L943.097 54.0905ZM930.425 51.7656H914.871V59.7656H930.425V51.7656ZM910.871 55.7656V146H918.871V55.7656H910.871ZM914.871 142H891.807V150H914.871V142ZM947.21 98.2724L974.322 147.917L981.344 144.083L954.231 94.4379L947.21 98.2724ZM977.833 142H952.371V150H977.833V142ZM955.899 144.115L929.372 94.47L922.316 98.2402L948.843 147.885L955.899 144.115ZM925.844 100.355H950.72V92.3551H925.844V100.355ZM986.089 55.9254H982.089V59.9254H986.089V55.9254ZM986.089 36.9091V32.9091H982.089V36.9091H986.089ZM1075.68 36.9091H1079.68V32.9091H1075.68V36.9091ZM1075.68 55.9254V59.9254H1079.68V55.9254H1075.68ZM1042.29 55.9254V51.9254H1038.29V55.9254H1042.29ZM1042.29 146V150H1046.29V146H1042.29ZM1019.49 146H1015.49V150H1019.49V146ZM1019.49 55.9254H1023.49V51.9254H1019.49V55.9254ZM990.089 55.9254V36.9091H982.089V55.9254H990.089ZM986.089 40.9091H1075.68V32.9091H986.089V40.9091ZM1071.68 36.9091V55.9254H1079.68V36.9091H1071.68ZM1075.68 51.9254H1042.29V59.9254H1075.68V51.9254ZM1038.29 55.9254V146H1046.29V55.9254H1038.29ZM1042.29 142H1019.49V150H1042.29V142ZM1023.49 146V55.9254H1015.49V146H1023.49ZM1019.49 51.9254H986.089V59.9254H1019.49V51.9254ZM1090.44 146H1086.44V150H1090.44V146ZM1090.44 36.9091V32.9091H1086.44V36.9091H1090.44ZM1163.95 36.9091H1167.95V32.9091H1163.95V36.9091ZM1163.95 55.9254V59.9254H1167.95V55.9254H1163.95ZM1113.5 55.9254V51.9254H1109.5V55.9254H1113.5ZM1113.5 81.9197H1109.5V85.9197H1113.5V81.9197ZM1160.17 81.9197H1164.17V77.9197H1160.17V81.9197ZM1160.17 100.936V104.936H1164.17V100.936H1160.17ZM1113.5 100.936V96.9361H1109.5V100.936H1113.5ZM1113.5 126.984H1109.5V130.984H1113.5V126.984ZM1164.16 126.984H1168.16V122.984H1164.16V126.984ZM1164.16 146V150H1168.16V146H1164.16ZM1094.44 146V36.9091H1086.44V146H1094.44ZM1090.44 40.9091H1163.95V32.9091H1090.44V40.9091ZM1159.95 36.9091V55.9254H1167.95V36.9091H1159.95ZM1163.95 51.9254H1113.5V59.9254H1163.95V51.9254ZM1109.5 55.9254V81.9197H1117.5V55.9254H1109.5ZM1113.5 85.9197H1160.17V77.9197H1113.5V85.9197ZM1156.17 81.9197V100.936H1164.17V81.9197H1156.17ZM1160.17 96.9361H1113.5V104.936H1160.17V96.9361ZM1109.5 100.936V126.984H1117.5V100.936H1109.5ZM1113.5 130.984H1164.16V122.984H1113.5V130.984ZM1160.16 126.984V146H1168.16V126.984H1160.16ZM1164.16 142H1090.44V150H1164.16V142Z" fill="#DCDCDC" fill-opacity="0.5" mask="url(#path-1-outside-1_716_4137)"/>
</svg>
