<svg width="1193" height="202" viewBox="0 0 1193 202" fill="none" xmlns="http://www.w3.org/2000/svg">
<mask id="path-1-outside-1_716_4136" maskUnits="userSpaceOnUse" x="15" y="41" width="1164" height="121" fill="black">
<rect fill="white" x="15" y="41" width="1164" height="121"/>
<path d="M87.0606 46.9091H110.125V117.754C110.125 125.709 108.225 132.669 104.426 138.635C100.661 144.601 95.3881 149.253 88.6054 152.591C81.8227 155.893 73.9214 157.545 64.9015 157.545C55.8461 157.545 47.9271 155.893 41.1444 152.591C34.3618 149.253 29.0883 144.601 25.3241 138.635C21.5599 132.669 19.6778 125.709 19.6778 117.754V46.9091H42.7425V115.783C42.7425 119.938 43.648 123.631 45.4591 126.863C47.3057 130.094 49.898 132.634 53.2361 134.48C56.5741 136.327 60.4626 137.25 64.9015 137.25C69.376 137.25 73.2645 136.327 76.567 134.48C79.9051 132.634 82.4797 130.094 84.2908 126.863C86.1373 123.631 87.0606 119.938 87.0606 115.783V46.9091ZM220.348 46.9091V156H200.426L152.965 87.3388H152.166V156H129.102V46.9091H149.343L196.431 115.517H197.39V46.9091H220.348ZM298.584 78.2834C298.158 73.9865 296.329 70.6484 293.098 68.2692C289.866 65.8899 285.48 64.7003 279.941 64.7003C276.176 64.7003 272.998 65.233 270.406 66.2983C267.813 67.3281 265.825 68.7663 264.44 70.6129C263.09 72.4595 262.416 74.5547 262.416 76.8984C262.345 78.8516 262.753 80.5561 263.641 82.0121C264.564 83.468 265.825 84.7287 267.423 85.794C269.021 86.8239 270.867 87.7294 272.963 88.5107C275.058 89.2564 277.295 89.8956 279.674 90.4283L289.475 92.772C294.234 93.8374 298.602 95.2578 302.579 97.0334C306.556 98.8089 310.001 100.993 312.913 103.585C315.825 106.178 318.08 109.232 319.678 112.747C321.311 116.263 322.146 120.293 322.181 124.839C322.146 131.515 320.441 137.303 317.068 142.204C313.73 147.069 308.9 150.851 302.579 153.55C296.294 156.213 288.712 157.545 279.834 157.545C271.027 157.545 263.357 156.195 256.823 153.496C250.324 150.798 245.246 146.803 241.588 141.511C237.966 136.185 236.066 129.597 235.889 121.749H258.208C258.456 125.407 259.504 128.461 261.35 130.911C263.233 133.326 265.736 135.155 268.861 136.398C272.022 137.605 275.59 138.209 279.568 138.209C283.474 138.209 286.865 137.641 289.742 136.504C292.654 135.368 294.909 133.788 296.507 131.763C298.105 129.739 298.904 127.413 298.904 124.786C298.904 122.335 298.176 120.276 296.72 118.607C295.299 116.937 293.204 115.517 290.434 114.345C287.7 113.173 284.344 112.108 280.367 111.149L268.488 108.166C259.291 105.929 252.029 102.431 246.702 97.6726C241.375 92.9141 238.73 86.5043 238.765 78.4432C238.73 71.8381 240.487 66.0675 244.039 61.1314C247.625 56.1953 252.544 52.3423 258.794 49.5724C265.044 46.8026 272.146 45.4176 280.1 45.4176C288.197 45.4176 295.264 46.8026 301.301 49.5724C307.373 52.3423 312.096 56.1953 315.47 61.1314C318.843 66.0675 320.583 71.7848 320.69 78.2834H298.584ZM337.695 156V46.9091H411.204V65.9254H360.76V91.9197H407.422V110.936H360.76V136.984H411.417V156H337.695ZM429.541 156V46.9091H472.581C480.82 46.9091 487.851 48.3828 493.675 51.3303C499.534 54.2422 503.991 58.3793 507.045 63.7415C510.134 69.0682 511.679 75.3359 511.679 82.5447C511.679 89.7891 510.116 96.0213 506.991 101.241C503.866 106.426 499.339 110.403 493.408 113.173C487.513 115.943 480.376 117.328 471.995 117.328H443.177V98.7912H468.266C472.67 98.7912 476.327 98.1875 479.239 96.9801C482.151 95.7727 484.317 93.9616 485.738 91.5469C487.194 89.1321 487.922 86.1314 487.922 82.5447C487.922 78.9226 487.194 75.8686 485.738 73.3828C484.317 70.897 482.133 69.0149 479.186 67.7365C476.274 66.4226 472.599 65.7656 468.16 65.7656H452.606V156H429.541ZM488.454 106.355L515.567 156H490.106L463.579 106.355H488.454ZM527.979 156V46.9091H601.487V65.9254H551.043V91.9197H597.705V110.936H551.043V136.984H601.7V156H527.979ZM679.097 156L647.883 46.9091H673.078L691.136 122.708H692.041L711.963 46.9091H733.536L753.405 122.868H754.364L772.421 46.9091H797.616L766.402 156H743.923L723.149 84.6754H722.297L701.576 156H679.097ZM809.961 156V46.9091H883.47V65.9254H833.026V91.9197H879.688V110.936H833.026V136.984H883.683V156H809.961ZM901.807 156V46.9091H944.847C953.085 46.9091 960.116 48.3828 965.94 51.3303C971.8 54.2422 976.256 58.3793 979.31 63.7415C982.4 69.0682 983.945 75.3359 983.945 82.5447C983.945 89.7891 982.382 96.0213 979.257 101.241C976.132 106.426 971.604 110.403 965.674 113.173C959.779 115.943 952.641 117.328 944.261 117.328H915.443V98.7912H940.532C944.935 98.7912 948.593 98.1875 951.505 96.9801C954.417 95.7727 956.583 93.9616 958.003 91.5469C959.459 89.1321 960.187 86.1314 960.187 82.5447C960.187 78.9226 959.459 75.8686 958.003 73.3828C956.583 70.897 954.399 69.0149 951.452 67.7365C948.54 66.4226 944.864 65.7656 940.425 65.7656H924.871V156H901.807ZM960.72 106.355L987.833 156H962.371L935.844 106.355H960.72ZM996.089 65.9254V46.9091H1085.68V65.9254H1052.29V156H1029.49V65.9254H996.089ZM1100.44 156V46.9091H1173.95V65.9254H1123.5V91.9197H1170.17V110.936H1123.5V136.984H1174.16V156H1100.44Z"/>
</mask>
<path d="M87.0606 46.9091V42.9091H83.0606V46.9091H87.0606ZM110.125 46.9091H114.125V42.9091H110.125V46.9091ZM104.426 138.635L101.052 136.486L101.047 136.493L101.043 136.5L104.426 138.635ZM88.6054 152.591L90.3565 156.187L90.3641 156.184L90.3717 156.18L88.6054 152.591ZM41.1444 152.591L39.3782 156.18L39.3858 156.184L39.3933 156.187L41.1444 152.591ZM25.3241 138.635L21.9412 140.769H21.9412L25.3241 138.635ZM19.6778 46.9091V42.9091H15.6778V46.9091H19.6778ZM42.7425 46.9091H46.7425V42.9091H42.7425V46.9091ZM45.4591 126.863L41.9697 128.819L41.9778 128.833L41.9861 128.847L45.4591 126.863ZM53.2361 134.48L51.2998 137.98H51.2998L53.2361 134.48ZM76.567 134.48L74.6308 130.98L74.6228 130.984L74.6149 130.989L76.567 134.48ZM84.2908 126.863L80.8178 124.878L80.8095 124.893L80.8014 124.907L84.2908 126.863ZM87.0606 50.9091H110.125V42.9091H87.0606V50.9091ZM106.125 46.9091V117.754H114.125V46.9091H106.125ZM106.125 117.754C106.125 125.045 104.393 131.24 101.052 136.486L107.8 140.784C112.058 134.098 114.125 126.372 114.125 117.754H106.125ZM101.043 136.5C97.7012 141.797 93.0083 145.966 86.8391 149.002L90.3717 156.18C97.7678 152.54 103.622 147.405 107.809 140.769L101.043 136.5ZM86.8543 148.995C80.7137 151.984 73.4321 153.545 64.9015 153.545V161.545C74.4108 161.545 82.9317 159.802 90.3565 156.187L86.8543 148.995ZM64.9015 153.545C56.3328 153.545 49.0341 151.984 42.8955 148.995L39.3933 156.187C46.8201 159.803 55.3595 161.545 64.9015 161.545V153.545ZM42.9107 149.002C36.7415 145.966 32.0486 141.797 28.707 136.5L21.9412 140.769C26.128 147.405 31.9821 152.54 39.3782 156.18L42.9107 149.002ZM28.707 136.5C25.3958 131.252 23.6778 125.052 23.6778 117.754H15.6778C15.6778 126.365 17.724 134.086 21.9412 140.769L28.707 136.5ZM23.6778 117.754V46.9091H15.6778V117.754H23.6778ZM19.6778 50.9091H42.7425V42.9091H19.6778V50.9091ZM38.7425 46.9091V115.783H46.7425V46.9091H38.7425ZM38.7425 115.783C38.7425 120.538 39.7847 124.92 41.9697 128.819L48.9484 124.907C47.5113 122.343 46.7425 119.338 46.7425 115.783H38.7425ZM41.9861 128.847C44.2058 132.732 47.3371 135.788 51.2998 137.98L55.1723 130.98C52.4588 129.479 50.4055 127.457 48.932 124.878L41.9861 128.847ZM51.2998 137.98C55.3211 140.205 59.8969 141.25 64.9015 141.25V133.25C61.0284 133.25 57.8272 132.449 55.1723 130.98L51.2998 137.98ZM64.9015 141.25C69.9343 141.25 74.5196 140.208 78.5192 137.971L74.6149 130.989C72.0093 132.446 68.8176 133.25 64.9015 133.25V141.25ZM78.5033 137.98C82.4723 135.785 85.5939 132.719 87.7801 128.819L80.8014 124.907C79.3655 127.469 77.3379 129.482 74.6308 130.98L78.5033 137.98ZM87.7637 128.847C89.9945 124.944 91.0606 120.552 91.0606 115.783H83.0606C83.0606 119.325 82.2802 122.319 80.8178 124.878L87.7637 128.847ZM91.0606 115.783V46.9091H83.0606V115.783H91.0606ZM220.348 46.9091H224.348V42.9091H220.348V46.9091ZM220.348 156V160H224.348V156H220.348ZM200.426 156L197.136 158.274L198.329 160H200.426V156ZM152.965 87.3388L156.256 85.0643L155.063 83.3388H152.965V87.3388ZM152.166 87.3388V83.3388H148.166V87.3388H152.166ZM152.166 156V160H156.166V156H152.166ZM129.102 156H125.102V160H129.102V156ZM129.102 46.9091V42.9091H125.102V46.9091H129.102ZM149.343 46.9091L152.641 44.6456L151.449 42.9091H149.343V46.9091ZM196.431 115.517L193.133 117.781L194.325 119.517H196.431V115.517ZM197.39 115.517V119.517H201.39V115.517H197.39ZM197.39 46.9091V42.9091H193.39V46.9091H197.39ZM216.348 46.9091V156H224.348V46.9091H216.348ZM220.348 152H200.426V160H220.348V152ZM203.717 153.726L156.256 85.0643L149.675 89.6132L197.136 158.274L203.717 153.726ZM152.965 83.3388H152.166V91.3388H152.965V83.3388ZM148.166 87.3388V156H156.166V87.3388H148.166ZM152.166 152H129.102V160H152.166V152ZM133.102 156V46.9091H125.102V156H133.102ZM129.102 50.9091H149.343V42.9091H129.102V50.9091ZM146.045 49.1726L193.133 117.781L199.729 113.254L152.641 44.6456L146.045 49.1726ZM196.431 119.517H197.39V111.517H196.431V119.517ZM201.39 115.517V46.9091H193.39V115.517H201.39ZM197.39 50.9091H220.348V42.9091H197.39V50.9091ZM298.584 78.2834L294.604 78.6781L294.961 82.2834H298.584V78.2834ZM270.406 66.2983L271.883 70.0157L271.904 70.007L271.926 69.9981L270.406 66.2983ZM264.44 70.6129L261.24 68.2129L261.225 68.2328L261.21 68.2529L264.44 70.6129ZM262.416 76.8984L266.413 77.0438L266.416 76.9711V76.8984H262.416ZM263.641 82.0121L260.226 84.0945L260.244 84.1245L260.263 84.1542L263.641 82.0121ZM267.423 85.794L265.204 89.1222L265.23 89.1395L265.256 89.1563L267.423 85.794ZM272.963 88.5107L271.565 92.2586L271.593 92.269L271.621 92.2791L272.963 88.5107ZM279.674 90.4283L280.605 86.5379L280.576 86.5312L280.548 86.5249L279.674 90.4283ZM289.475 92.772L288.545 96.6623L288.573 96.6691L288.602 96.6754L289.475 92.772ZM302.579 97.0334L300.948 100.686L302.579 97.0334ZM312.913 103.585L315.573 100.598L312.913 103.585ZM319.678 112.747L316.036 114.402L316.043 114.418L316.05 114.433L319.678 112.747ZM322.181 124.839L326.181 124.86L326.181 124.834L326.181 124.808L322.181 124.839ZM317.068 142.204L313.773 139.936L313.769 139.941L317.068 142.204ZM302.579 153.55L304.14 157.233L304.15 157.228L302.579 153.55ZM256.823 153.496L255.289 157.191L255.296 157.193L256.823 153.496ZM241.588 141.511L238.281 143.761L238.289 143.773L238.298 143.786L241.588 141.511ZM235.889 121.749V117.749H231.797L231.89 121.84L235.889 121.749ZM258.208 121.749L262.198 121.478L261.945 117.749H258.208V121.749ZM261.35 130.911L258.156 133.319L258.176 133.345L258.195 133.37L261.35 130.911ZM268.861 136.398L267.383 140.115L267.408 140.125L267.434 140.134L268.861 136.398ZM289.742 136.504L288.288 132.778L288.28 132.781L288.272 132.784L289.742 136.504ZM296.507 131.763L299.646 134.242L296.507 131.763ZM296.72 118.607L293.674 121.199L293.689 121.218L293.705 121.236L296.72 118.607ZM290.434 114.345L288.859 118.022L288.867 118.025L288.876 118.029L290.434 114.345ZM280.367 111.149L279.393 115.029L279.411 115.033L279.429 115.038L280.367 111.149ZM268.488 108.166L269.462 104.287L269.448 104.283L269.434 104.28L268.488 108.166ZM246.702 97.6726L244.037 100.656L246.702 97.6726ZM238.765 78.4432L242.765 78.4608L242.765 78.4412L242.765 78.4217L238.765 78.4432ZM244.039 61.1314L240.803 58.7801L240.797 58.7877L240.792 58.7954L244.039 61.1314ZM301.301 49.5724L299.633 53.208L299.641 53.2117L301.301 49.5724ZM315.47 61.1314L312.167 63.3884V63.3884L315.47 61.1314ZM320.69 78.2834V82.2834H324.756L324.689 78.2178L320.69 78.2834ZM302.565 77.8886C302.036 72.5606 299.688 68.1544 295.469 65.0481L290.726 71.4903C292.97 73.1425 294.28 75.4124 294.604 78.6781L302.565 77.8886ZM295.469 65.0481C291.332 62.0023 286.016 60.7003 279.941 60.7003V68.7003C284.945 68.7003 288.4 69.7775 290.726 71.4903L295.469 65.0481ZM279.941 60.7003C275.823 60.7003 272.095 61.2796 268.885 62.5985L271.926 69.9981C273.902 69.1863 276.529 68.7003 279.941 68.7003V60.7003ZM268.929 62.5809C265.795 63.8258 263.151 65.6646 261.24 68.2129L267.64 73.0129C268.499 71.8681 269.832 70.8304 271.883 70.0157L268.929 62.5809ZM261.21 68.2529C259.347 70.8025 258.416 73.7287 258.416 76.8984H266.416C266.416 75.3806 266.834 74.1165 267.669 72.973L261.21 68.2529ZM258.418 76.7531C258.323 79.3721 258.872 81.8751 260.226 84.0945L267.056 79.9296C266.634 79.2371 266.366 78.331 266.413 77.0438L258.418 76.7531ZM260.263 84.1542C261.518 86.1334 263.194 87.7824 265.204 89.1222L269.642 82.4658C268.455 81.675 267.61 80.8027 267.019 79.8699L260.263 84.1542ZM265.256 89.1563C267.134 90.3664 269.246 91.3939 271.565 92.2586L274.36 84.7627C272.489 84.0649 270.908 83.2813 269.59 82.4317L265.256 89.1563ZM271.621 92.2791C273.883 93.0841 276.278 93.7668 278.8 94.3316L280.548 86.5249C278.312 86.0243 276.232 85.4286 274.304 84.7422L271.621 92.2791ZM278.744 94.3186L288.545 96.6623L290.406 88.8817L280.605 86.5379L278.744 94.3186ZM288.602 96.6754C293.13 97.6893 297.241 99.031 300.948 100.686L304.21 93.3808C299.962 91.4847 295.337 89.9854 290.349 88.8686L288.602 96.6754ZM300.948 100.686C304.594 102.313 307.682 104.284 310.253 106.573L315.573 100.598C312.32 97.7022 308.519 95.3045 304.21 93.3808L300.948 100.686ZM310.253 106.573C312.753 108.798 314.671 111.399 316.036 114.402L323.319 111.092C321.488 107.064 318.897 103.557 315.573 100.598L310.253 106.573ZM316.05 114.433C317.405 117.348 318.15 120.799 318.181 124.87L326.181 124.808C326.142 119.788 325.218 115.178 323.305 111.062L316.05 114.433ZM318.181 124.818C318.15 130.793 316.637 135.775 313.773 139.936L320.363 144.472C324.246 138.831 326.142 132.237 326.181 124.86L318.181 124.818ZM313.769 139.941C310.928 144.082 306.748 147.42 301.008 149.871L304.15 157.228C311.052 154.281 316.531 150.056 320.366 144.467L313.769 139.941ZM301.018 149.867C295.351 152.268 288.329 153.545 279.834 153.545V161.545C289.094 161.545 297.236 160.158 304.14 157.233L301.018 149.867ZM279.834 153.545C271.427 153.545 264.296 152.256 258.35 149.799L255.296 157.193C262.417 160.135 270.628 161.545 279.834 161.545V153.545ZM258.357 149.802C252.499 147.369 248.059 143.837 244.879 139.237L238.298 143.786C242.433 149.768 248.15 154.226 255.289 157.191L258.357 149.802ZM244.896 139.262C241.794 134.701 240.052 128.905 239.888 121.659L231.89 121.84C232.081 130.289 234.138 137.669 238.281 143.761L244.896 139.262ZM235.889 125.749H258.208V117.749H235.889V125.749ZM254.217 122.021C254.508 126.299 255.758 130.137 258.156 133.319L264.545 128.504C263.25 126.785 262.405 124.514 262.198 121.478L254.217 122.021ZM258.195 133.37C260.557 136.4 263.664 138.635 267.383 140.115L270.339 132.681C267.808 131.674 265.908 130.252 264.505 128.452L258.195 133.37ZM267.434 140.134C271.122 141.544 275.187 142.209 279.568 142.209V134.209C275.994 134.209 272.921 133.667 270.289 132.661L267.434 140.134ZM279.568 142.209C283.85 142.209 287.762 141.587 291.211 140.224L288.272 132.784C285.969 133.694 283.098 134.209 279.568 134.209V142.209ZM291.196 140.231C294.63 138.89 297.522 136.932 299.646 134.242L293.367 129.285C292.295 130.643 290.677 131.845 288.288 132.778L291.196 140.231ZM299.646 134.242C301.813 131.498 302.904 128.294 302.904 124.786H294.904C294.904 126.532 294.396 127.981 293.367 129.285L299.646 134.242ZM302.904 124.786C302.904 121.479 301.895 118.454 299.734 115.977L293.705 121.236C294.457 122.097 294.904 123.192 294.904 124.786H302.904ZM299.766 116.014C297.82 113.727 295.134 111.99 291.993 110.661L288.876 118.029C291.274 119.044 292.779 120.148 293.674 121.199L299.766 116.014ZM292.01 110.669C289.009 109.382 285.425 108.254 281.304 107.261L279.429 115.038C283.263 115.962 286.391 116.964 288.859 118.022L292.01 110.669ZM281.341 107.27L269.462 104.287L267.514 112.046L279.393 115.029L281.341 107.27ZM269.434 104.28C260.675 102.149 254.07 98.891 249.367 94.6895L244.037 100.656C249.987 105.971 257.907 109.709 267.543 112.053L269.434 104.28ZM249.367 94.6895C245.009 90.7967 242.734 85.5405 242.765 78.4608L234.765 78.4256C234.725 87.468 237.741 95.0314 244.037 100.656L249.367 94.6895ZM242.765 78.4217C242.734 72.5852 244.272 67.657 247.286 63.4674L240.792 58.7954C236.703 64.4779 234.726 71.0909 234.765 78.4647L242.765 78.4217ZM247.275 63.4827C250.399 59.1827 254.729 55.749 260.414 53.2294L257.173 45.9155C250.358 48.9356 244.852 53.2079 240.803 58.7801L247.275 63.4827ZM260.414 53.2294C266.077 50.7197 272.614 49.4176 280.1 49.4176V41.4176C271.678 41.4176 264.01 42.8854 257.173 45.9155L260.414 53.2294ZM280.1 49.4176C287.745 49.4176 294.221 50.7249 299.633 53.208L302.969 45.9369C296.307 42.8802 288.649 41.4176 280.1 41.4176V49.4176ZM299.641 53.2117C305.129 55.7152 309.252 59.1222 312.167 63.3884L318.772 58.8744C314.941 53.2684 309.617 48.9694 302.961 45.9332L299.641 53.2117ZM312.167 63.3884C315.061 67.6216 316.596 72.5622 316.69 78.3489L324.689 78.2178C324.571 71.0074 322.626 64.5133 318.772 58.8744L312.167 63.3884ZM320.69 74.2834H298.584V82.2834H320.69V74.2834ZM337.695 156H333.695V160H337.695V156ZM337.695 46.9091V42.9091H333.695V46.9091H337.695ZM411.204 46.9091H415.204V42.9091H411.204V46.9091ZM411.204 65.9254V69.9254H415.204V65.9254H411.204ZM360.76 65.9254V61.9254H356.76V65.9254H360.76ZM360.76 91.9197H356.76V95.9197H360.76V91.9197ZM407.422 91.9197H411.422V87.9197H407.422V91.9197ZM407.422 110.936V114.936H411.422V110.936H407.422ZM360.76 110.936V106.936H356.76V110.936H360.76ZM360.76 136.984H356.76V140.984H360.76V136.984ZM411.417 136.984H415.417V132.984H411.417V136.984ZM411.417 156V160H415.417V156H411.417ZM341.695 156V46.9091H333.695V156H341.695ZM337.695 50.9091H411.204V42.9091H337.695V50.9091ZM407.204 46.9091V65.9254H415.204V46.9091H407.204ZM411.204 61.9254H360.76V69.9254H411.204V61.9254ZM356.76 65.9254V91.9197H364.76V65.9254H356.76ZM360.76 95.9197H407.422V87.9197H360.76V95.9197ZM403.422 91.9197V110.936H411.422V91.9197H403.422ZM407.422 106.936H360.76V114.936H407.422V106.936ZM356.76 110.936V136.984H364.76V110.936H356.76ZM360.76 140.984H411.417V132.984H360.76V140.984ZM407.417 136.984V156H415.417V136.984H407.417ZM411.417 152H337.695V160H411.417V152ZM429.541 156H425.541V160H429.541V156ZM429.541 46.9091V42.9091H425.541V46.9091H429.541ZM493.675 51.3303L491.868 54.8992L491.881 54.9058L491.894 54.9123L493.675 51.3303ZM507.045 63.7415L503.569 65.7211L503.577 65.7347L503.585 65.7484L507.045 63.7415ZM506.991 101.241L510.417 103.306L510.423 103.296L506.991 101.241ZM493.408 113.173L491.716 109.549L491.707 109.553L493.408 113.173ZM443.177 117.328H439.177V121.328H443.177V117.328ZM443.177 98.7912V94.7912H439.177V98.7912H443.177ZM479.239 96.9801L480.771 100.675L480.771 100.675L479.239 96.9801ZM485.738 91.5469L482.312 89.4815L482.301 89.5001L482.29 89.5188L485.738 91.5469ZM485.738 73.3828L482.265 75.3674L482.275 75.386L482.286 75.4044L485.738 73.3828ZM479.186 67.7365L477.541 71.3825L477.568 71.3946L477.594 71.4062L479.186 67.7365ZM452.606 65.7656V61.7656H448.606V65.7656H452.606ZM452.606 156V160H456.606V156H452.606ZM488.454 106.355L491.965 104.438L490.828 102.355H488.454V106.355ZM515.567 156V160H522.31L519.078 154.083L515.567 156ZM490.106 156L486.578 157.885L487.708 160H490.106V156ZM463.579 106.355V102.355H456.906L460.051 108.24L463.579 106.355ZM433.541 156V46.9091H425.541V156H433.541ZM429.541 50.9091H472.581V42.9091H429.541V50.9091ZM472.581 50.9091C480.352 50.9091 486.732 52.2996 491.868 54.8992L495.481 47.7613C488.97 44.466 481.287 42.9091 472.581 42.9091V50.9091ZM491.894 54.9123C497.087 57.4929 500.933 61.0922 503.569 65.7211L510.52 61.7619C507.049 55.6663 501.981 50.9915 495.455 47.7482L491.894 54.9123ZM503.585 65.7484C506.264 70.3683 507.679 75.9194 507.679 82.5447H515.679C515.679 74.7525 514.004 67.7681 510.505 61.7346L503.585 65.7484ZM507.679 82.5447C507.679 89.2044 506.247 94.6969 503.559 99.1869L510.423 103.296C513.986 97.3457 515.679 90.3738 515.679 82.5447H507.679ZM503.566 99.1766C500.884 103.625 496.987 107.087 491.716 109.549L495.101 116.797C501.69 113.72 506.849 109.227 510.417 103.306L503.566 99.1766ZM491.707 109.553C486.474 112.012 479.95 113.328 471.995 113.328V121.328C480.801 121.328 488.553 119.874 495.109 116.794L491.707 109.553ZM471.995 113.328H443.177V121.328H471.995V113.328ZM447.177 117.328V98.7912H439.177V117.328H447.177ZM443.177 102.791H468.266V94.7912H443.177V102.791ZM468.266 102.791C473.001 102.791 477.222 102.147 480.771 100.675L477.707 93.2851C475.433 94.2282 472.338 94.7912 468.266 94.7912V102.791ZM480.771 100.675C484.38 99.1786 487.27 96.8314 489.186 93.575L482.29 89.5188C481.365 91.0919 479.922 92.3668 477.707 93.2851L480.771 100.675ZM489.163 93.6123C491.085 90.4258 491.922 86.6641 491.922 82.5447H483.922C483.922 85.5987 483.303 87.8384 482.312 89.4815L489.163 93.6123ZM491.922 82.5447C491.922 78.3925 491.086 74.5992 489.189 71.3612L482.286 75.4044C483.302 77.138 483.922 79.4526 483.922 82.5447H491.922ZM489.211 71.3983C487.31 68.0716 484.416 65.645 480.778 64.0668L477.594 71.4062C479.851 72.3849 481.325 73.7225 482.265 75.3674L489.211 71.3983ZM480.831 64.0905C477.242 62.471 472.959 61.7656 468.16 61.7656V69.7656C472.238 69.7656 475.306 70.3742 477.541 71.3825L480.831 64.0905ZM468.16 61.7656H452.606V69.7656H468.16V61.7656ZM448.606 65.7656V156H456.606V65.7656H448.606ZM452.606 152H429.541V160H452.606V152ZM484.944 108.272L512.057 157.917L519.078 154.083L491.965 104.438L484.944 108.272ZM515.567 152H490.106V160H515.567V152ZM493.634 154.115L467.107 104.47L460.051 108.24L486.578 157.885L493.634 154.115ZM463.579 110.355H488.454V102.355H463.579V110.355ZM527.979 156H523.979V160H527.979V156ZM527.979 46.9091V42.9091H523.979V46.9091H527.979ZM601.487 46.9091H605.487V42.9091H601.487V46.9091ZM601.487 65.9254V69.9254H605.487V65.9254H601.487ZM551.043 65.9254V61.9254H547.043V65.9254H551.043ZM551.043 91.9197H547.043V95.9197H551.043V91.9197ZM597.705 91.9197H601.705V87.9197H597.705V91.9197ZM597.705 110.936V114.936H601.705V110.936H597.705ZM551.043 110.936V106.936H547.043V110.936H551.043ZM551.043 136.984H547.043V140.984H551.043V136.984ZM601.7 136.984H605.7V132.984H601.7V136.984ZM601.7 156V160H605.7V156H601.7ZM531.979 156V46.9091H523.979V156H531.979ZM527.979 50.9091H601.487V42.9091H527.979V50.9091ZM597.487 46.9091V65.9254H605.487V46.9091H597.487ZM601.487 61.9254H551.043V69.9254H601.487V61.9254ZM547.043 65.9254V91.9197H555.043V65.9254H547.043ZM551.043 95.9197H597.705V87.9197H551.043V95.9197ZM593.705 91.9197V110.936H601.705V91.9197H593.705ZM597.705 106.936H551.043V114.936H597.705V106.936ZM547.043 110.936V136.984H555.043V110.936H547.043ZM551.043 140.984H601.7V132.984H551.043V140.984ZM597.7 136.984V156H605.7V136.984H597.7ZM601.7 152H527.979V160H601.7V152ZM679.097 156L675.252 157.1L676.081 160H679.097V156ZM647.883 46.9091V42.9091H642.578L644.037 48.0095L647.883 46.9091ZM673.078 46.9091L676.969 45.9821L676.237 42.9091H673.078V46.9091ZM691.136 122.708L687.244 123.635L687.977 126.708H691.136V122.708ZM692.041 122.708V126.708H695.126L695.91 123.725L692.041 122.708ZM711.963 46.9091V42.9091H708.878L708.094 45.8923L711.963 46.9091ZM733.536 46.9091L737.406 45.8969L736.624 42.9091H733.536V46.9091ZM753.405 122.868L749.535 123.88L750.316 126.868H753.405V122.868ZM754.364 122.868V126.868H757.524L758.255 123.793L754.364 122.868ZM772.421 46.9091V42.9091H769.26L768.53 45.984L772.421 46.9091ZM797.616 46.9091L801.462 48.0095L802.921 42.9091H797.616V46.9091ZM766.402 156V160H769.418L770.248 157.1L766.402 156ZM743.923 156L740.083 157.119L740.922 160H743.923V156ZM723.149 84.6754L726.99 83.5569L726.15 80.6754H723.149V84.6754ZM722.297 84.6754V80.6754H719.293L718.456 83.5595L722.297 84.6754ZM701.576 156V160H704.579L705.417 157.116L701.576 156ZM682.943 154.9L651.728 45.8087L644.037 48.0095L675.252 157.1L682.943 154.9ZM647.883 50.9091H673.078V42.9091H647.883V50.9091ZM669.187 47.8361L687.244 123.635L695.027 121.781L676.969 45.9821L669.187 47.8361ZM691.136 126.708H692.041V118.708H691.136V126.708ZM695.91 123.725L715.832 47.9259L708.094 45.8923L688.172 121.691L695.91 123.725ZM711.963 50.9091H733.536V42.9091H711.963V50.9091ZM729.666 47.9213L749.535 123.88L757.275 121.856L737.406 45.8969L729.666 47.9213ZM753.405 126.868H754.364V118.868H753.405V126.868ZM758.255 123.793L776.313 47.8342L768.53 45.984L750.472 121.943L758.255 123.793ZM772.421 50.9091H797.616V42.9091H772.421V50.9091ZM793.771 45.8087L762.556 154.9L770.248 157.1L801.462 48.0095L793.771 45.8087ZM766.402 152H743.923V160H766.402V152ZM747.764 154.881L726.99 83.5569L719.309 85.794L740.083 157.119L747.764 154.881ZM723.149 80.6754H722.297V88.6754H723.149V80.6754ZM718.456 83.5595L697.735 154.884L705.417 157.116L726.138 85.7913L718.456 83.5595ZM701.576 152H679.097V160H701.576V152ZM809.961 156H805.961V160H809.961V156ZM809.961 46.9091V42.9091H805.961V46.9091H809.961ZM883.47 46.9091H887.47V42.9091H883.47V46.9091ZM883.47 65.9254V69.9254H887.47V65.9254H883.47ZM833.026 65.9254V61.9254H829.026V65.9254H833.026ZM833.026 91.9197H829.026V95.9197H833.026V91.9197ZM879.688 91.9197H883.688V87.9197H879.688V91.9197ZM879.688 110.936V114.936H883.688V110.936H879.688ZM833.026 110.936V106.936H829.026V110.936H833.026ZM833.026 136.984H829.026V140.984H833.026V136.984ZM883.683 136.984H887.683V132.984H883.683V136.984ZM883.683 156V160H887.683V156H883.683ZM813.961 156V46.9091H805.961V156H813.961ZM809.961 50.9091H883.47V42.9091H809.961V50.9091ZM879.47 46.9091V65.9254H887.47V46.9091H879.47ZM883.47 61.9254H833.026V69.9254H883.47V61.9254ZM829.026 65.9254V91.9197H837.026V65.9254H829.026ZM833.026 95.9197H879.688V87.9197H833.026V95.9197ZM875.688 91.9197V110.936H883.688V91.9197H875.688ZM879.688 106.936H833.026V114.936H879.688V106.936ZM829.026 110.936V136.984H837.026V110.936H829.026ZM833.026 140.984H883.683V132.984H833.026V140.984ZM879.683 136.984V156H887.683V136.984H879.683ZM883.683 152H809.961V160H883.683V152ZM901.807 156H897.807V160H901.807V156ZM901.807 46.9091V42.9091H897.807V46.9091H901.807ZM965.94 51.3303L964.134 54.8992L964.147 54.9058L964.16 54.9123L965.94 51.3303ZM979.31 63.7415L975.834 65.7211L975.842 65.7347L975.85 65.7484L979.31 63.7415ZM979.257 101.241L982.683 103.306L982.689 103.296L979.257 101.241ZM965.674 113.173L963.981 109.549L963.973 109.553L965.674 113.173ZM915.443 117.328H911.443V121.328H915.443V117.328ZM915.443 98.7912V94.7912H911.443V98.7912H915.443ZM951.505 96.9801L953.037 100.675V100.675L951.505 96.9801ZM958.003 91.5469L954.578 89.4815L954.567 89.5001L954.556 89.5188L958.003 91.5469ZM958.003 73.3828L954.531 75.3674L954.541 75.386L954.552 75.4044L958.003 73.3828ZM951.452 67.7365L949.806 71.3825L949.833 71.3946L949.86 71.4062L951.452 67.7365ZM924.871 65.7656V61.7656H920.871V65.7656H924.871ZM924.871 156V160H928.871V156H924.871ZM960.72 106.355L964.231 104.438L963.093 102.355H960.72V106.355ZM987.833 156V160H994.575L991.344 154.083L987.833 156ZM962.371 156L958.843 157.885L959.973 160H962.371V156ZM935.844 106.355V102.355H929.172L932.316 108.24L935.844 106.355ZM905.807 156V46.9091H897.807V156H905.807ZM901.807 50.9091H944.846V42.9091H901.807V50.9091ZM944.846 50.9091C952.618 50.9091 958.997 52.2996 964.134 54.8992L967.747 47.7613C961.235 44.466 953.552 42.9091 944.846 42.9091V50.9091ZM964.16 54.9123C969.353 57.4929 973.198 61.0922 975.834 65.7211L982.786 61.7619C979.314 55.6663 974.246 50.9915 967.72 47.7482L964.16 54.9123ZM975.85 65.7484C978.53 70.3683 979.945 75.9194 979.945 82.5447H987.945C987.945 74.7525 986.27 67.7681 982.77 61.7346L975.85 65.7484ZM979.945 82.5447C979.945 89.2044 978.513 94.6969 975.825 99.1869L982.689 103.296C986.251 97.3457 987.945 90.3738 987.945 82.5447H979.945ZM975.831 99.1766C973.15 103.625 969.253 107.087 963.981 109.549L967.367 116.797C973.956 113.72 979.114 109.227 982.683 103.306L975.831 99.1766ZM963.973 109.553C958.74 112.012 952.216 113.328 944.261 113.328V121.328C953.067 121.328 960.818 119.874 967.375 116.794L963.973 109.553ZM944.261 113.328H915.443V121.328H944.261V113.328ZM919.443 117.328V98.7912H911.443V117.328H919.443ZM915.443 102.791H940.532V94.7912H915.443V102.791ZM940.532 102.791C945.267 102.791 949.488 102.147 953.037 100.675L949.973 93.2851C947.698 94.2282 944.604 94.7912 940.532 94.7912V102.791ZM953.037 100.675C956.646 99.1786 959.536 96.8314 961.451 93.575L954.556 89.5188C953.63 91.0919 952.188 92.3668 949.973 93.2851L953.037 100.675ZM961.429 93.6123C963.35 90.4258 964.187 86.6641 964.187 82.5447H956.187C956.187 85.5987 955.569 87.8384 954.578 89.4815L961.429 93.6123ZM964.187 82.5447C964.187 78.3925 963.352 74.5992 961.455 71.3612L954.552 75.4044C955.567 77.138 956.187 79.4526 956.187 82.5447H964.187ZM961.476 71.3983C959.575 68.0716 956.682 65.645 953.043 64.0668L949.86 71.4062C952.116 72.3849 953.591 73.7225 954.531 75.3674L961.476 71.3983ZM953.097 64.0905C949.508 62.471 945.225 61.7656 940.425 61.7656V69.7656C944.504 69.7656 947.572 70.3742 949.806 71.3825L953.097 64.0905ZM940.425 61.7656H924.871V69.7656H940.425V61.7656ZM920.871 65.7656V156H928.871V65.7656H920.871ZM924.871 152H901.807V160H924.871V152ZM957.21 108.272L984.322 157.917L991.344 154.083L964.231 104.438L957.21 108.272ZM987.833 152H962.371V160H987.833V152ZM965.899 154.115L939.372 104.47L932.316 108.24L958.843 157.885L965.899 154.115ZM935.844 110.355H960.72V102.355H935.844V110.355ZM996.089 65.9254H992.089V69.9254H996.089V65.9254ZM996.089 46.9091V42.9091H992.089V46.9091H996.089ZM1085.68 46.9091H1089.68V42.9091H1085.68V46.9091ZM1085.68 65.9254V69.9254H1089.68V65.9254H1085.68ZM1052.29 65.9254V61.9254H1048.29V65.9254H1052.29ZM1052.29 156V160H1056.29V156H1052.29ZM1029.49 156H1025.49V160H1029.49V156ZM1029.49 65.9254H1033.49V61.9254H1029.49V65.9254ZM1000.09 65.9254V46.9091H992.089V65.9254H1000.09ZM996.089 50.9091H1085.68V42.9091H996.089V50.9091ZM1081.68 46.9091V65.9254H1089.68V46.9091H1081.68ZM1085.68 61.9254H1052.29V69.9254H1085.68V61.9254ZM1048.29 65.9254V156H1056.29V65.9254H1048.29ZM1052.29 152H1029.49V160H1052.29V152ZM1033.49 156V65.9254H1025.49V156H1033.49ZM1029.49 61.9254H996.089V69.9254H1029.49V61.9254ZM1100.44 156H1096.44V160H1100.44V156ZM1100.44 46.9091V42.9091H1096.44V46.9091H1100.44ZM1173.95 46.9091H1177.95V42.9091H1173.95V46.9091ZM1173.95 65.9254V69.9254H1177.95V65.9254H1173.95ZM1123.5 65.9254V61.9254H1119.5V65.9254H1123.5ZM1123.5 91.9197H1119.5V95.9197H1123.5V91.9197ZM1170.17 91.9197H1174.17V87.9197H1170.17V91.9197ZM1170.17 110.936V114.936H1174.17V110.936H1170.17ZM1123.5 110.936V106.936H1119.5V110.936H1123.5ZM1123.5 136.984H1119.5V140.984H1123.5V136.984ZM1174.16 136.984H1178.16V132.984H1174.16V136.984ZM1174.16 156V160H1178.16V156H1174.16ZM1104.44 156V46.9091H1096.44V156H1104.44ZM1100.44 50.9091H1173.95V42.9091H1100.44V50.9091ZM1169.95 46.9091V65.9254H1177.95V46.9091H1169.95ZM1173.95 61.9254H1123.5V69.9254H1173.95V61.9254ZM1119.5 65.9254V91.9197H1127.5V65.9254H1119.5ZM1123.5 95.9197H1170.17V87.9197H1123.5V95.9197ZM1166.17 91.9197V110.936H1174.17V91.9197H1166.17ZM1170.17 106.936H1123.5V114.936H1170.17V106.936ZM1119.5 110.936V136.984H1127.5V110.936H1119.5ZM1123.5 140.984H1174.16V132.984H1123.5V140.984ZM1170.16 136.984V156H1178.16V136.984H1170.16ZM1174.16 152H1100.44V160H1174.16V152Z" fill="#DCDCDC" fill-opacity="0.5" mask="url(#path-1-outside-1_716_4136)"/>
</svg>
