<svg width="324" height="146" viewBox="0 0 324 146" fill="none" xmlns="http://www.w3.org/2000/svg">
<mask id="path-1-outside-1_1021_412" maskUnits="userSpaceOnUse" x="43" y="11" width="239" height="123" fill="black">
<rect fill="white" x="43" y="11" width="239" height="123"/>
<path d="M72.7164 14.3636H81.9423V42.7017C81.9423 45.8835 81.1824 48.6676 79.6625 51.054C78.1568 53.4403 76.0474 55.3011 73.3343 56.6364C70.6213 57.9574 67.4608 58.6179 63.8528 58.6179C60.2306 58.6179 57.063 57.9574 54.35 56.6364C51.6369 55.3011 49.5275 53.4403 48.0218 51.054C46.5162 48.6676 45.7633 45.8835 45.7633 42.7017V14.3636H54.9892V41.9134C54.9892 43.5753 55.3514 45.0526 56.0758 46.3452C56.8145 47.6378 57.8514 48.6534 59.1866 49.392C60.5218 50.1307 62.0772 50.5 63.8528 50.5C65.6426 50.5 67.198 50.1307 68.519 49.392C69.8542 48.6534 70.8841 47.6378 71.6085 46.3452C72.3471 45.0526 72.7164 43.5753 72.7164 41.9134V14.3636ZM126.031 14.3636V58H118.063L99.0783 30.5355H98.7587V58H89.5328V14.3636H97.6294L116.465 41.8068H116.848V14.3636H126.031ZM157.326 26.9134C157.155 25.1946 156.424 23.8594 155.131 22.9077C153.839 21.956 152.084 21.4801 149.868 21.4801C148.363 21.4801 147.091 21.6932 146.055 22.1193C145.018 22.5312 144.222 23.1065 143.668 23.8452C143.128 24.5838 142.858 25.4219 142.858 26.3594C142.83 27.1406 142.993 27.8224 143.349 28.4048C143.718 28.9872 144.222 29.4915 144.861 29.9176C145.501 30.3295 146.239 30.6918 147.077 31.0043C147.915 31.3026 148.81 31.5582 149.762 31.7713L153.682 32.7088C155.586 33.1349 157.333 33.7031 158.924 34.4134C160.515 35.1236 161.893 35.9972 163.057 37.0341C164.222 38.071 165.124 39.2926 165.763 40.6989C166.417 42.1051 166.751 43.7173 166.765 45.5355C166.751 48.206 166.069 50.5213 164.719 52.4815C163.384 54.4276 161.452 55.9403 158.924 57.0199C156.41 58.0852 153.377 58.6179 149.826 58.6179C146.303 58.6179 143.235 58.0781 140.621 56.9986C138.022 55.919 135.991 54.321 134.528 52.2045C133.079 50.0739 132.319 47.4389 132.248 44.2997H141.175C141.275 45.7628 141.694 46.9844 142.432 47.9645C143.185 48.9304 144.187 49.6619 145.437 50.1591C146.701 50.642 148.128 50.8835 149.719 50.8835C151.282 50.8835 152.638 50.6562 153.789 50.2017C154.954 49.7472 155.856 49.1151 156.495 48.3054C157.134 47.4957 157.454 46.5653 157.454 45.5142C157.454 44.5341 157.162 43.7102 156.58 43.0426C156.012 42.375 155.174 41.8068 154.066 41.3381C152.972 40.8693 151.63 40.4432 150.039 40.0597L145.287 38.8665C141.608 37.9716 138.704 36.5724 136.573 34.669C134.442 32.7656 133.384 30.2017 133.398 26.9773C133.384 24.3352 134.087 22.027 135.508 20.0526C136.942 18.0781 138.91 16.5369 141.41 15.429C143.91 14.321 146.751 13.767 149.932 13.767C153.171 13.767 155.998 14.321 158.412 15.429C160.841 16.5369 162.731 18.0781 164.08 20.0526C165.43 22.027 166.126 24.3139 166.168 26.9134H157.326ZM172.97 58V14.3636H202.374V21.9702H182.196V32.3679H200.861V39.9744H182.196V50.3935H202.459V58H172.97ZM209.709 58V14.3636H226.925C230.22 14.3636 233.032 14.9531 235.362 16.1321C237.706 17.2969 239.488 18.9517 240.71 21.0966C241.946 23.2273 242.564 25.7344 242.564 28.6179C242.564 31.5156 241.939 34.0085 240.689 36.0966C239.439 38.1705 237.628 39.7614 235.256 40.8693C232.898 41.9773 230.042 42.5312 226.69 42.5312H215.163V35.1165H225.199C226.96 35.1165 228.423 34.875 229.588 34.392C230.753 33.9091 231.619 33.1847 232.187 32.2188C232.77 31.2528 233.061 30.0526 233.061 28.6179C233.061 27.169 232.77 25.9474 232.187 24.9531C231.619 23.9588 230.746 23.206 229.567 22.6946C228.402 22.169 226.932 21.9062 225.156 21.9062H218.934V58H209.709ZM233.274 38.142L244.119 58H233.934L223.324 38.142H233.274ZM249.084 58V14.3636H278.487V21.9702H258.309V32.3679H276.974V39.9744H258.309V50.3935H278.572V58H249.084ZM68.0662 131L55.5804 87.3636H65.6586L72.8816 117.683H73.2438L81.2125 87.3636H89.8418L97.7892 117.747H98.1728L105.396 87.3636H115.474L102.988 131H93.9966L85.687 102.47H85.3461L77.0577 131H68.0662ZM120.412 131V87.3636H149.815V94.9702H129.638V105.368H148.302V112.974H129.638V123.393H149.9V131H120.412ZM157.15 131V87.3636H174.366C177.661 87.3636 180.474 87.9531 182.803 89.1321C185.147 90.2969 186.93 91.9517 188.151 94.0966C189.387 96.2273 190.005 98.7344 190.005 101.618C190.005 104.516 189.38 107.009 188.13 109.097C186.88 111.17 185.069 112.761 182.697 113.869C180.339 114.977 177.484 115.531 174.132 115.531H162.605V108.116H172.64C174.401 108.116 175.865 107.875 177.029 107.392C178.194 106.909 179.061 106.185 179.629 105.219C180.211 104.253 180.502 103.053 180.502 101.618C180.502 100.169 180.211 98.9474 179.629 97.9531C179.061 96.9588 178.187 96.206 177.008 95.6946C175.843 95.169 174.373 94.9062 172.597 94.9062H166.376V131H157.15ZM180.715 111.142L191.561 131H181.376L170.765 111.142H180.715ZM194.863 94.9702V87.3636H230.701V94.9702H217.342V131H208.222V94.9702H194.863ZM236.603 131V87.3636H266.007V94.9702H245.829V105.368H264.494V112.974H245.829V123.393H266.092V131H236.603Z"/>
</mask>
<path d="M72.7164 14.3636V11.8636H70.2164V14.3636H72.7164ZM81.9423 14.3636H84.4423V11.8636H81.9423V14.3636ZM79.6625 51.054L77.5538 49.711L77.5481 49.7199L79.6625 51.054ZM73.3343 56.6364L74.4288 58.8841L74.4383 58.8794L73.3343 56.6364ZM54.35 56.6364L53.246 58.8795L53.2555 58.8841L54.35 56.6364ZM48.0218 51.054L45.9075 52.388L48.0218 51.054ZM45.7633 14.3636V11.8636H43.2633V14.3636H45.7633ZM54.9892 14.3636H57.4892V11.8636H54.9892V14.3636ZM56.0758 46.3452L53.895 47.5674L53.9 47.5765L53.9052 47.5855L56.0758 46.3452ZM59.1866 49.392L57.9765 51.5796H57.9765L59.1866 49.392ZM68.519 49.392L67.3088 47.2044L67.2989 47.21L68.519 49.392ZM71.6085 46.3452L69.4379 45.1048L69.4327 45.1139L69.4276 45.1229L71.6085 46.3452ZM72.7164 16.8636H81.9423V11.8636H72.7164V16.8636ZM79.4423 14.3636V42.7017H84.4423V14.3636H79.4423ZM79.4423 42.7017C79.4423 45.4688 78.7872 47.7745 77.5538 49.711L81.7711 52.397C83.5775 49.5607 84.4423 46.2982 84.4423 42.7017H79.4423ZM77.5481 49.7199C76.3066 51.6877 74.5601 53.2468 72.2304 54.3933L74.4383 58.8794C77.5347 57.3555 80.007 55.193 81.7768 52.388L77.5481 49.7199ZM72.2399 54.3887C69.9281 55.5143 67.1549 56.1179 63.8528 56.1179V61.1179C67.7666 61.1179 71.3144 60.4005 74.4288 58.8841L72.2399 54.3887ZM63.8528 56.1179C60.5348 56.1179 57.7549 55.5137 55.4444 54.3887L53.2555 58.8841C56.3712 60.4011 59.9265 61.1179 63.8528 61.1179V56.1179ZM55.4539 54.3933C53.1242 53.2468 51.3777 51.6877 50.1362 49.7199L45.9075 52.388C47.6773 55.193 50.1496 57.3555 53.246 58.8794L55.4539 54.3933ZM50.1362 49.7199C48.9136 47.7823 48.2633 45.4733 48.2633 42.7017H43.2633C43.2633 46.2937 44.1187 49.553 45.9075 52.388L50.1362 49.7199ZM48.2633 42.7017V14.3636H43.2633V42.7017H48.2633ZM45.7633 16.8636H54.9892V11.8636H45.7633V16.8636ZM52.4892 14.3636V41.9134H57.4892V14.3636H52.4892ZM52.4892 41.9134C52.4892 43.9503 52.9368 45.8577 53.895 47.5674L58.2567 45.1229C57.766 44.2474 57.4892 43.2003 57.4892 41.9134H52.4892ZM53.9052 47.5855C54.877 49.2862 56.2509 50.625 57.9765 51.5796L60.3968 47.2045C59.4519 46.6818 58.7519 45.9893 58.2464 45.1048L53.9052 47.5855ZM57.9765 51.5796C59.7387 52.5545 61.7236 53 63.8528 53V48C62.4308 48 61.305 47.7069 60.3968 47.2045L57.9765 51.5796ZM63.8528 53C65.9916 53 67.9824 52.5563 69.7391 51.5741L67.2989 47.21C66.4135 47.705 65.2936 48 63.8528 48V53ZM69.7291 51.5796C71.4587 50.6229 72.8304 49.2784 73.7893 47.5674L69.4276 45.1229C68.9377 45.9972 68.2497 46.684 67.3088 47.2045L69.7291 51.5796ZM73.7791 47.5855C74.7579 45.8727 75.2164 43.9586 75.2164 41.9134H70.2164C70.2164 43.1919 69.9364 44.2325 69.4379 45.1048L73.7791 47.5855ZM75.2164 41.9134V14.3636H70.2164V41.9134H75.2164ZM126.031 14.3636H128.531V11.8636H126.031V14.3636ZM126.031 58V60.5H128.531V58H126.031ZM118.063 58L116.006 59.4215L116.752 60.5H118.063V58ZM99.0783 30.5355L101.135 29.114L100.389 28.0355H99.0783V30.5355ZM98.7587 30.5355V28.0355H96.2587V30.5355H98.7587ZM98.7587 58V60.5H101.259V58H98.7587ZM89.5328 58H87.0328V60.5H89.5328V58ZM89.5328 14.3636V11.8636H87.0328V14.3636H89.5328ZM97.6294 14.3636L99.6907 12.9489L98.9458 11.8636H97.6294V14.3636ZM116.465 41.8068L114.403 43.2215L115.148 44.3068H116.465V41.8068ZM116.848 41.8068V44.3068H119.348V41.8068H116.848ZM116.848 14.3636V11.8636H114.348V14.3636H116.848ZM123.531 14.3636V58H128.531V14.3636H123.531ZM126.031 55.5H118.063V60.5H126.031V55.5ZM120.119 56.5785L101.135 29.114L97.0218 31.957L116.006 59.4215L120.119 56.5785ZM99.0783 28.0355H98.7587V33.0355H99.0783V28.0355ZM96.2587 30.5355V58H101.259V30.5355H96.2587ZM98.7587 55.5H89.5328V60.5H98.7587V55.5ZM92.0328 58V14.3636H87.0328V58H92.0328ZM89.5328 16.8636H97.6294V11.8636H89.5328V16.8636ZM95.5682 15.7783L114.403 43.2215L118.526 40.3921L99.6907 12.9489L95.5682 15.7783ZM116.465 44.3068H116.848V39.3068H116.465V44.3068ZM119.348 41.8068V14.3636H114.348V41.8068H119.348ZM116.848 16.8636H126.031V11.8636H116.848V16.8636ZM157.326 26.9134L154.838 27.1601L155.061 29.4134H157.326V26.9134ZM146.055 22.1193L146.977 24.4427L146.991 24.4373L147.005 24.4317L146.055 22.1193ZM143.668 23.8452L141.668 22.3452L141.659 22.3576L141.65 22.3701L143.668 23.8452ZM142.858 26.3594L145.357 26.4502L145.358 26.4048V26.3594H142.858ZM143.349 28.4048L141.214 29.7063L141.225 29.7251L141.237 29.7437L143.349 28.4048ZM144.861 29.9176L143.475 31.9977L143.491 32.0085L143.507 32.019L144.861 29.9176ZM147.077 31.0043L146.204 33.3467L146.221 33.3532L146.239 33.3595L147.077 31.0043ZM149.762 31.7713L150.343 29.3399L150.326 29.3356L150.308 29.3317L149.762 31.7713ZM153.682 32.7088L153.101 35.1403L153.119 35.1445L153.136 35.1484L153.682 32.7088ZM158.924 34.4134L157.905 36.6962L158.924 34.4134ZM163.057 37.0341L164.72 35.1668L163.057 37.0341ZM165.763 40.6989L163.487 41.7334L163.492 41.7429L163.496 41.7523L165.763 40.6989ZM166.765 45.5355L169.265 45.5488L169.265 45.5324L169.265 45.516L166.765 45.5355ZM164.719 52.4815L162.66 51.0639L162.658 51.0671L164.719 52.4815ZM158.924 57.0199L159.899 59.3218L159.906 59.3191L158.924 57.0199ZM140.621 56.9986L139.662 59.3074L139.667 59.3092L140.621 56.9986ZM134.528 52.2045L132.46 53.6103L132.466 53.6182L132.471 53.6261L134.528 52.2045ZM132.248 44.2997V41.7997H129.69L129.748 44.3563L132.248 44.2997ZM141.175 44.2997L143.669 44.1302L143.511 41.7997H141.175V44.2997ZM142.432 47.9645L140.436 49.4691L140.448 49.4853L140.461 49.5013L142.432 47.9645ZM145.437 50.1591L144.513 52.4821L144.529 52.4884L144.544 52.4945L145.437 50.1591ZM153.789 50.2017L152.88 47.8727L152.87 47.8766L153.789 50.2017ZM156.495 48.3054L158.457 49.8545V49.8545L156.495 48.3054ZM156.58 43.0426L154.676 44.6629L154.686 44.6745L154.696 44.686L156.58 43.0426ZM154.066 41.3381L153.081 43.636L153.092 43.6405L154.066 41.3381ZM150.039 40.0597L149.43 42.4844L149.441 42.4873L149.453 42.49L150.039 40.0597ZM145.287 38.8665L145.896 36.4418L145.887 36.4395L145.878 36.4373L145.287 38.8665ZM136.573 34.669L134.907 36.5334L136.573 34.669ZM133.398 26.9773L135.898 26.9883L135.898 26.9761L135.898 26.9638L133.398 26.9773ZM135.508 20.0526L133.485 18.583L133.478 18.5926L135.508 20.0526ZM158.412 15.429L157.37 17.7012L157.375 17.7035L158.412 15.429ZM164.08 20.0526L162.016 21.4632V21.4632L164.08 20.0526ZM166.168 26.9134V29.4134H168.709L168.668 26.8724L166.168 26.9134ZM159.814 26.6666C159.579 24.3034 158.523 22.3006 156.613 20.8945L153.649 24.9209C154.324 25.4181 154.731 26.0858 154.838 27.1601L159.814 26.6666ZM156.613 20.8945C154.755 19.5262 152.419 18.9801 149.868 18.9801V23.9801C151.75 23.9801 152.922 24.3857 153.649 24.9209L156.613 20.8945ZM149.868 18.9801C148.142 18.9801 146.527 19.2223 145.104 19.807L147.005 24.4317C147.656 24.164 148.583 23.9801 149.868 23.9801V18.9801ZM145.132 19.7959C143.756 20.3423 142.551 21.168 141.668 22.3452L145.668 25.3452C145.893 25.0451 146.279 24.7202 146.977 24.4427L145.132 19.7959ZM141.65 22.3701C140.789 23.5482 140.358 24.9057 140.358 26.3594H145.358C145.358 25.9381 145.468 25.6194 145.687 25.3202L141.65 22.3701ZM140.36 26.2685C140.317 27.466 140.568 28.6468 141.214 29.7063L145.483 27.1033C145.419 26.9981 145.344 26.8153 145.357 26.4502L140.36 26.2685ZM141.237 29.7437C141.814 30.6531 142.578 31.4 143.475 31.9977L146.248 27.8375C145.866 27.5829 145.622 27.3214 145.46 27.066L141.237 29.7437ZM143.507 32.019C144.321 32.5436 145.226 32.9821 146.204 33.3467L147.951 28.6618C147.252 28.4015 146.68 28.1155 146.216 27.8162L143.507 32.019ZM146.239 33.3595C147.181 33.6949 148.174 33.9778 149.216 34.2109L150.308 29.3317C149.446 29.1387 148.649 28.9102 147.916 28.649L146.239 33.3595ZM149.18 34.2028L153.101 35.1403L154.264 30.2774L150.343 29.3399L149.18 34.2028ZM153.136 35.1484C154.896 35.5424 156.483 36.0613 157.905 36.6962L159.943 32.1305C158.183 31.3449 156.275 30.7275 154.229 30.2692L153.136 35.1484ZM157.905 36.6962C159.288 37.3139 160.443 38.0539 161.395 38.9014L164.72 35.1668C163.342 33.9404 161.741 32.9333 159.943 32.1305L157.905 36.6962ZM161.395 38.9014C162.302 39.7088 162.994 40.6476 163.487 41.7334L168.039 39.6644C167.254 37.9377 166.142 36.4332 164.72 35.1668L161.395 38.9014ZM163.496 41.7523C163.975 42.7833 164.253 44.0331 164.265 45.555L169.265 45.516C169.248 43.4016 168.858 41.4269 168.031 39.6454L163.496 41.7523ZM164.265 45.5222C164.253 47.7546 163.691 49.5664 162.66 51.0639L166.779 53.8991C168.446 51.4762 169.248 48.6574 169.265 45.5488L164.265 45.5222ZM162.658 51.0671C161.633 52.5607 160.107 53.7962 157.942 54.7207L159.906 59.3191C162.797 58.0844 165.135 56.2944 166.781 53.8959L162.658 51.0671ZM157.948 54.718C155.82 55.6197 153.138 56.1179 149.826 56.1179V61.1179C153.616 61.1179 156.999 60.5508 159.899 59.3218L157.948 54.718ZM149.826 56.1179C146.553 56.1179 143.822 55.6158 141.576 54.6879L139.667 59.3092C142.648 60.5404 146.053 61.1179 149.826 61.1179V56.1179ZM141.58 54.6898C139.381 53.7764 137.748 52.4675 136.584 50.783L132.471 53.6261C134.233 56.1745 136.663 58.0616 139.662 59.3074L141.58 54.6898ZM136.595 50.7988C135.471 49.1463 134.81 47.0065 134.747 44.2432L129.748 44.3563C129.828 47.8713 130.686 51.0014 132.46 53.6103L136.595 50.7988ZM132.248 46.7997H141.175V41.7997H132.248V46.7997ZM138.681 44.4692C138.807 46.3206 139.353 48.0316 140.436 49.4691L144.429 46.4599C144.035 45.9371 143.743 45.205 143.669 44.1302L138.681 44.4692ZM140.461 49.5013C141.513 50.8517 142.892 51.8373 144.513 52.4821L146.361 47.8361C145.482 47.4865 144.857 47.0091 144.404 46.4276L140.461 49.5013ZM144.544 52.4945C146.139 53.1035 147.876 53.3835 149.719 53.3835V48.3835C148.381 48.3835 147.263 48.1806 146.329 47.8237L144.544 52.4945ZM149.719 53.3835C151.517 53.3835 153.199 53.1229 154.707 52.5268L152.87 47.8766C152.078 48.1896 151.047 48.3835 149.719 48.3835V53.3835ZM154.698 52.5306C156.189 51.9487 157.489 51.0803 158.457 49.8545L154.533 46.7563C154.222 47.1498 153.718 47.5456 152.88 47.8728L154.698 52.5306ZM158.457 49.8545C159.452 48.5946 159.954 47.1159 159.954 45.5142H154.954C154.954 46.0148 154.816 46.3968 154.533 46.7563L158.457 49.8545ZM159.954 45.5142C159.954 43.9989 159.487 42.5716 158.464 41.3992L154.696 44.686C154.838 44.8488 154.954 45.0693 154.954 45.5142H159.954ZM158.484 41.4223C157.587 40.3686 156.38 39.6027 155.04 39.0356L153.092 43.6405C153.967 44.0109 154.437 44.3814 154.676 44.6629L158.484 41.4223ZM155.051 39.0402C153.79 38.5 152.305 38.0344 150.625 37.6293L149.453 42.49C150.954 42.8519 152.154 43.2386 153.081 43.6359L155.051 39.0402ZM150.648 37.6349L145.896 36.4418L144.679 41.2912L149.43 42.4844L150.648 37.6349ZM145.878 36.4373C142.474 35.6091 139.979 34.3599 138.239 32.8046L134.907 36.5334C137.428 38.785 140.743 40.3341 144.697 41.2956L145.878 36.4373ZM138.239 32.8046C136.714 31.4423 135.887 29.5993 135.898 26.9883L130.898 26.9663C130.881 30.8041 132.171 34.089 134.907 36.5334L138.239 32.8046ZM135.898 26.9638C135.887 24.8022 136.452 23.0205 137.537 21.5126L133.478 18.5926C131.722 21.0335 130.882 23.8682 130.898 26.9907L135.898 26.9638ZM137.53 21.5221C138.676 19.9453 140.276 18.6661 142.423 17.7146L140.397 13.1434C137.544 14.4078 135.209 16.211 133.485 18.583L137.53 21.5221ZM142.423 17.7146C144.556 16.7692 147.043 16.267 149.932 16.267V11.267C146.458 11.267 143.264 11.8728 140.397 13.1434L142.423 17.7146ZM149.932 16.267C152.888 16.267 155.346 16.7725 157.37 17.7012L159.455 13.1567C156.65 11.8696 153.454 11.267 149.932 11.267V16.267ZM157.375 17.7035C159.439 18.645 160.953 19.9074 162.016 21.4632L166.144 18.6419C164.509 16.2488 162.244 14.4289 159.45 13.1544L157.375 17.7035ZM162.016 21.4632C163.065 22.9983 163.633 24.7998 163.668 26.9543L168.668 26.8724C168.618 23.8281 167.794 21.0556 166.144 18.6419L162.016 21.4632ZM166.168 24.4134H157.326V29.4134H166.168V24.4134ZM172.97 58H170.47V60.5H172.97V58ZM172.97 14.3636V11.8636H170.47V14.3636H172.97ZM202.374 14.3636H204.874V11.8636H202.374V14.3636ZM202.374 21.9702V24.4702H204.874V21.9702H202.374ZM182.196 21.9702V19.4702H179.696V21.9702H182.196ZM182.196 32.3679H179.696V34.8679H182.196V32.3679ZM200.861 32.3679H203.361V29.8679H200.861V32.3679ZM200.861 39.9744V42.4744H203.361V39.9744H200.861ZM182.196 39.9744V37.4744H179.696V39.9744H182.196ZM182.196 50.3935H179.696V52.8935H182.196V50.3935ZM202.459 50.3935H204.959V47.8935H202.459V50.3935ZM202.459 58V60.5H204.959V58H202.459ZM175.47 58V14.3636H170.47V58H175.47ZM172.97 16.8636H202.374V11.8636H172.97V16.8636ZM199.874 14.3636V21.9702H204.874V14.3636H199.874ZM202.374 19.4702H182.196V24.4702H202.374V19.4702ZM179.696 21.9702V32.3679H184.696V21.9702H179.696ZM182.196 34.8679H200.861V29.8679H182.196V34.8679ZM198.361 32.3679V39.9744H203.361V32.3679H198.361ZM200.861 37.4744H182.196V42.4744H200.861V37.4744ZM179.696 39.9744V50.3935H184.696V39.9744H179.696ZM182.196 52.8935H202.459V47.8935H182.196V52.8935ZM199.959 50.3935V58H204.959V50.3935H199.959ZM202.459 55.5H172.97V60.5H202.459V55.5ZM209.709 58H207.209V60.5H209.709V58ZM209.709 14.3636V11.8636H207.209V14.3636H209.709ZM235.362 16.1321L234.233 18.3627L234.241 18.3668L234.249 18.3709L235.362 16.1321ZM240.71 21.0966L238.538 22.3338L238.543 22.3424L238.547 22.3509L240.71 21.0966ZM240.689 36.0966L242.83 37.3871L242.834 37.3807L240.689 36.0966ZM235.256 40.8693L234.198 38.6042L234.192 38.6067L235.256 40.8693ZM215.163 42.5312H212.663V45.0312H215.163V42.5312ZM215.163 35.1165V32.6165H212.663V35.1165H215.163ZM229.588 34.392L230.545 36.7014L229.588 34.392ZM232.187 32.2188L230.046 30.9279L230.039 30.9395L230.032 30.9512L232.187 32.2188ZM232.187 24.9531L230.017 26.1935L230.023 26.2051L230.03 26.2166L232.187 24.9531ZM229.567 22.6946L228.538 24.9734L228.555 24.9809L228.572 24.9882L229.567 22.6946ZM218.934 21.9062V19.4062H216.434V21.9062H218.934ZM218.934 58V60.5H221.434V58H218.934ZM233.274 38.142L235.468 36.9438L234.757 35.642H233.274V38.142ZM244.119 58V60.5H248.333L246.313 56.8017L244.119 58ZM233.934 58L231.73 59.1782L232.436 60.5H233.934V58ZM223.324 38.142V35.642H219.153L221.119 39.3202L223.324 38.142ZM212.209 58V14.3636H207.209V58H212.209ZM209.709 16.8636H226.925V11.8636H209.709V16.8636ZM226.925 16.8636C229.928 16.8636 232.333 17.4011 234.233 18.3627L236.491 13.9015C233.732 12.5051 230.512 11.8636 226.925 11.8636V16.8636ZM234.249 18.3709C236.177 19.3286 237.577 20.6473 238.538 22.3338L242.882 19.8593C241.4 17.2561 239.235 15.2652 236.475 13.8933L234.249 18.3709ZM238.547 22.3509C239.527 24.0398 240.064 26.099 240.064 28.6179H245.064C245.064 25.3697 244.365 22.4147 242.873 19.8423L238.547 22.3509ZM240.064 28.6179C240.064 31.1502 239.521 33.1808 238.544 34.8125L242.834 37.3807C244.357 34.8363 245.064 31.8811 245.064 28.6179H240.064ZM238.548 34.806C237.575 36.4199 236.158 37.6885 234.198 38.6042L236.313 43.1344C239.097 41.8343 241.303 39.921 242.83 37.3871L238.548 34.806ZM234.192 38.6067C232.248 39.5202 229.776 40.0312 226.69 40.0312V45.0312C230.308 45.0312 233.547 44.4343 236.319 43.132L234.192 38.6067ZM226.69 40.0312H215.163V45.0312H226.69V40.0312ZM217.663 42.5312V35.1165H212.663V42.5312H217.663ZM215.163 37.6165H225.199V32.6165H215.163V37.6165ZM225.199 37.6165C227.167 37.6165 228.982 37.3496 230.545 36.7014L228.63 32.0827C227.864 32.4004 226.753 32.6165 225.199 32.6165V37.6165ZM230.545 36.7014C232.146 36.0378 233.465 34.9783 234.342 33.4863L230.032 30.9512C229.774 31.391 229.359 31.7804 228.63 32.0827L230.545 36.7014ZM234.328 33.5096C235.201 32.0614 235.561 30.3855 235.561 28.6179H230.561C230.561 29.7196 230.338 30.4443 230.046 30.9279L234.328 33.5096ZM235.561 28.6179C235.561 26.8377 235.202 25.1541 234.345 23.6896L230.03 26.2166C230.337 26.7408 230.561 27.5003 230.561 28.6179H235.561ZM234.358 23.7128C233.489 22.1929 232.172 21.0997 230.561 20.401L228.572 24.9882C229.319 25.3122 229.749 25.7247 230.017 26.1935L234.358 23.7128ZM230.595 20.4158C229.007 19.6993 227.157 19.4062 225.156 19.4062V24.4062C226.706 24.4062 227.797 24.6388 228.538 24.9734L230.595 20.4158ZM225.156 19.4062H218.934V24.4062H225.156V19.4062ZM216.434 21.9062V58H221.434V21.9062H216.434ZM218.934 55.5H209.709V60.5H218.934V55.5ZM231.08 39.3403L241.925 59.1983L246.313 56.8017L235.468 36.9438L231.08 39.3403ZM244.119 55.5H233.934V60.5H244.119V55.5ZM236.139 56.8218L225.529 36.9639L221.119 39.3202L231.73 59.1782L236.139 56.8218ZM223.324 40.642H233.274V35.642H223.324V40.642ZM249.084 58H246.584V60.5H249.084V58ZM249.084 14.3636V11.8636H246.584V14.3636H249.084ZM278.487 14.3636H280.987V11.8636H278.487V14.3636ZM278.487 21.9702V24.4702H280.987V21.9702H278.487ZM258.309 21.9702V19.4702H255.809V21.9702H258.309ZM258.309 32.3679H255.809V34.8679H258.309V32.3679ZM276.974 32.3679H279.474V29.8679H276.974V32.3679ZM276.974 39.9744V42.4744H279.474V39.9744H276.974ZM258.309 39.9744V37.4744H255.809V39.9744H258.309ZM258.309 50.3935H255.809V52.8935H258.309V50.3935ZM278.572 50.3935H281.072V47.8935H278.572V50.3935ZM278.572 58V60.5H281.072V58H278.572ZM251.584 58V14.3636H246.584V58H251.584ZM249.084 16.8636H278.487V11.8636H249.084V16.8636ZM275.987 14.3636V21.9702H280.987V14.3636H275.987ZM278.487 19.4702H258.309V24.4702H278.487V19.4702ZM255.809 21.9702V32.3679H260.809V21.9702H255.809ZM258.309 34.8679H276.974V29.8679H258.309V34.8679ZM274.474 32.3679V39.9744H279.474V32.3679H274.474ZM276.974 37.4744H258.309V42.4744H276.974V37.4744ZM255.809 39.9744V50.3935H260.809V39.9744H255.809ZM258.309 52.8935H278.572V47.8935H258.309V52.8935ZM276.072 50.3935V58H281.072V50.3935H276.072ZM278.572 55.5H249.084V60.5H278.572V55.5ZM68.0662 131L65.6627 131.688L66.1812 133.5H68.0662V131ZM55.5804 87.3636V84.8636H52.2648L53.1769 88.0514L55.5804 87.3636ZM65.6586 87.3636L68.0905 86.7843L67.6329 84.8636H65.6586V87.3636ZM72.8816 117.683L70.4496 118.263L70.9072 120.183H72.8816V117.683ZM73.2438 117.683V120.183H75.1716L75.6617 118.319L73.2438 117.683ZM81.2125 87.3636V84.8636H79.2847L78.7947 86.7282L81.2125 87.3636ZM89.8418 87.3636L92.2604 86.731L91.772 84.8636H89.8418V87.3636ZM97.7892 117.747L95.3706 118.38L95.8591 120.247H97.7892V117.747ZM98.1728 117.747V120.247H100.148L100.605 118.325L98.1728 117.747ZM105.396 87.3636V84.8636H103.42L102.964 86.7854L105.396 87.3636ZM115.474 87.3636L117.877 88.0514L118.79 84.8636H115.474V87.3636ZM102.988 131V133.5H104.873L105.392 131.688L102.988 131ZM93.9966 131L91.5964 131.699L92.1209 133.5H93.9966V131ZM85.687 102.47L88.0872 101.771L87.5627 99.9702H85.687V102.47ZM85.3461 102.47V99.9702H83.469L82.9453 101.773L85.3461 102.47ZM77.0577 131V133.5H78.9348L79.4585 131.697L77.0577 131ZM70.4698 130.312L57.984 86.6759L53.1769 88.0514L65.6627 131.688L70.4698 130.312ZM55.5804 89.8636H65.6586V84.8636H55.5804V89.8636ZM63.2266 87.943L70.4496 118.263L75.3135 117.104L68.0905 86.7843L63.2266 87.943ZM72.8816 120.183H73.2438V115.183H72.8816V120.183ZM75.6617 118.319L83.6304 87.9991L78.7947 86.7282L70.8259 117.048L75.6617 118.319ZM81.2125 89.8636H89.8418V84.8636H81.2125V89.8636ZM87.4232 87.9963L95.3706 118.38L100.208 117.115L92.2604 86.731L87.4232 87.9963ZM97.7892 120.247H98.1728V115.247H97.7892V120.247ZM100.605 118.325L107.828 87.9418L102.964 86.7854L95.7405 117.169L100.605 118.325ZM105.396 89.8636H115.474V84.8636H105.396V89.8636ZM113.07 86.6759L100.585 130.312L105.392 131.688L117.877 88.0514L113.07 86.6759ZM102.988 128.5H93.9966V133.5H102.988V128.5ZM96.3969 130.301L88.0872 101.771L83.2867 103.169L91.5964 131.699L96.3969 130.301ZM85.687 99.9702H85.3461V104.97H85.687V99.9702ZM82.9453 101.773L74.657 130.303L79.4585 131.697L87.7468 103.168L82.9453 101.773ZM77.0577 128.5H68.0662V133.5H77.0577V128.5ZM120.412 131H117.912V133.5H120.412V131ZM120.412 87.3636V84.8636H117.912V87.3636H120.412ZM149.815 87.3636H152.315V84.8636H149.815V87.3636ZM149.815 94.9702V97.4702H152.315V94.9702H149.815ZM129.638 94.9702V92.4702H127.138V94.9702H129.638ZM129.638 105.368H127.138V107.868H129.638V105.368ZM148.302 105.368H150.802V102.868H148.302V105.368ZM148.302 112.974V115.474H150.802V112.974H148.302ZM129.638 112.974V110.474H127.138V112.974H129.638ZM129.638 123.393H127.138V125.893H129.638V123.393ZM149.9 123.393H152.4V120.893H149.9V123.393ZM149.9 131V133.5H152.4V131H149.9ZM122.912 131V87.3636H117.912V131H122.912ZM120.412 89.8636H149.815V84.8636H120.412V89.8636ZM147.315 87.3636V94.9702H152.315V87.3636H147.315ZM149.815 92.4702H129.638V97.4702H149.815V92.4702ZM127.138 94.9702V105.368H132.138V94.9702H127.138ZM129.638 107.868H148.302V102.868H129.638V107.868ZM145.802 105.368V112.974H150.802V105.368H145.802ZM148.302 110.474H129.638V115.474H148.302V110.474ZM127.138 112.974V123.393H132.138V112.974H127.138ZM129.638 125.893H149.9V120.893H129.638V125.893ZM147.4 123.393V131H152.4V123.393H147.4ZM149.9 128.5H120.412V133.5H149.9V128.5ZM157.15 131H154.65V133.5H157.15V131ZM157.15 87.3636V84.8636H154.65V87.3636H157.15ZM182.803 89.1321L181.675 91.3627L181.683 91.3668L181.691 91.3709L182.803 89.1321ZM188.151 94.0966L185.979 95.3338L185.984 95.3424L185.989 95.3509L188.151 94.0966ZM188.13 109.097L190.271 110.387L190.275 110.381L188.13 109.097ZM182.697 113.869L181.639 111.604L181.634 111.607L182.697 113.869ZM162.605 115.531H160.105V118.031H162.605V115.531ZM162.605 108.116V105.616H160.105V108.116H162.605ZM177.029 107.392L177.987 109.701L177.029 107.392ZM179.629 105.219L177.488 103.928L177.481 103.94L177.474 103.951L179.629 105.219ZM179.629 97.9531L177.458 99.1935L177.465 99.2051L177.472 99.2166L179.629 97.9531ZM177.008 95.6946L175.98 97.9734L175.996 97.9809L176.013 97.9882L177.008 95.6946ZM166.376 94.9062V92.4062H163.876V94.9062H166.376ZM166.376 131V133.5H168.876V131H166.376ZM180.715 111.142L182.909 109.944L182.199 108.642H180.715V111.142ZM191.561 131V133.5H195.774L193.755 129.802L191.561 131ZM181.376 131L179.171 132.178L179.877 133.5H181.376V131ZM170.765 111.142V108.642H166.595L168.56 112.32L170.765 111.142ZM159.65 131V87.3636H154.65V131H159.65ZM157.15 89.8636H174.366V84.8636H157.15V89.8636ZM174.366 89.8636C177.369 89.8636 179.775 90.4011 181.675 91.3627L183.932 86.9015C181.173 85.5051 177.953 84.8636 174.366 84.8636V89.8636ZM181.691 91.3709C183.618 92.3286 185.019 93.6473 185.979 95.3338L190.324 92.8593C188.841 90.2561 186.676 88.2652 183.916 86.8933L181.691 91.3709ZM185.989 95.3509C186.968 97.0398 187.505 99.099 187.505 101.618H192.505C192.505 98.3697 191.806 95.4147 190.314 92.8423L185.989 95.3509ZM187.505 101.618C187.505 104.15 186.962 106.181 185.985 107.812L190.275 110.381C191.798 107.836 192.505 104.881 192.505 101.618H187.505ZM185.989 107.806C185.016 109.42 183.6 110.688 181.639 111.604L183.755 116.134C186.539 114.834 188.744 112.921 190.271 110.387L185.989 107.806ZM181.634 111.607C179.689 112.52 177.218 113.031 174.132 113.031V118.031C177.75 118.031 180.988 117.434 183.76 116.132L181.634 111.607ZM174.132 113.031H162.605V118.031H174.132V113.031ZM165.105 115.531V108.116H160.105V115.531H165.105ZM162.605 110.616H172.64V105.616H162.605V110.616ZM172.64 110.616C174.609 110.616 176.424 110.35 177.987 109.701L176.072 105.083C175.305 105.4 174.194 105.616 172.64 105.616V110.616ZM177.987 109.701C179.587 109.038 180.906 107.978 181.784 106.486L177.474 103.951C177.215 104.391 176.801 104.78 176.072 105.083L177.987 109.701ZM181.77 106.51C182.643 105.061 183.002 103.385 183.002 101.618H178.002C178.002 102.72 177.779 103.444 177.488 103.928L181.77 106.51ZM183.002 101.618C183.002 99.8378 182.644 98.1541 181.786 96.6896L177.472 99.2166C177.779 99.7408 178.002 100.5 178.002 101.618H183.002ZM181.799 96.7128C180.931 95.1929 179.614 94.0997 178.003 93.401L176.013 97.9882C176.76 98.3122 177.19 98.7247 177.458 99.1935L181.799 96.7128ZM178.036 93.4158C176.448 92.6993 174.598 92.4062 172.597 92.4062V97.4062C174.148 97.4062 175.238 97.6388 175.98 97.9734L178.036 93.4158ZM172.597 92.4062H166.376V97.4062H172.597V92.4062ZM163.876 94.9062V131H168.876V94.9062H163.876ZM166.376 128.5H157.15V133.5H166.376V128.5ZM178.521 112.34L189.366 132.198L193.755 129.802L182.909 109.944L178.521 112.34ZM191.561 128.5H181.376V133.5H191.561V128.5ZM183.581 129.822L172.97 109.964L168.56 112.32L179.171 132.178L183.581 129.822ZM170.765 113.642H180.715V108.642H170.765V113.642ZM194.863 94.9702H192.363V97.4702H194.863V94.9702ZM194.863 87.3636V84.8636H192.363V87.3636H194.863ZM230.701 87.3636H233.201V84.8636H230.701V87.3636ZM230.701 94.9702V97.4702H233.201V94.9702H230.701ZM217.342 94.9702V92.4702H214.842V94.9702H217.342ZM217.342 131V133.5H219.842V131H217.342ZM208.222 131H205.722V133.5H208.222V131ZM208.222 94.9702H210.722V92.4702H208.222V94.9702ZM197.363 94.9702V87.3636H192.363V94.9702H197.363ZM194.863 89.8636H230.701V84.8636H194.863V89.8636ZM228.201 87.3636V94.9702H233.201V87.3636H228.201ZM230.701 92.4702H217.342V97.4702H230.701V92.4702ZM214.842 94.9702V131H219.842V94.9702H214.842ZM217.342 128.5H208.222V133.5H217.342V128.5ZM210.722 131V94.9702H205.722V131H210.722ZM208.222 92.4702H194.863V97.4702H208.222V92.4702ZM236.603 131H234.103V133.5H236.603V131ZM236.603 87.3636V84.8636H234.103V87.3636H236.603ZM266.007 87.3636H268.507V84.8636H266.007V87.3636ZM266.007 94.9702V97.4702H268.507V94.9702H266.007ZM245.829 94.9702V92.4702H243.329V94.9702H245.829ZM245.829 105.368H243.329V107.868H245.829V105.368ZM264.494 105.368H266.994V102.868H264.494V105.368ZM264.494 112.974V115.474H266.994V112.974H264.494ZM245.829 112.974V110.474H243.329V112.974H245.829ZM245.829 123.393H243.329V125.893H245.829V123.393ZM266.092 123.393H268.592V120.893H266.092V123.393ZM266.092 131V133.5H268.592V131H266.092ZM239.103 131V87.3636H234.103V131H239.103ZM236.603 89.8636H266.007V84.8636H236.603V89.8636ZM263.507 87.3636V94.9702H268.507V87.3636H263.507ZM266.007 92.4702H245.829V97.4702H266.007V92.4702ZM243.329 94.9702V105.368H248.329V94.9702H243.329ZM245.829 107.868H264.494V102.868H245.829V107.868ZM261.994 105.368V112.974H266.994V105.368H261.994ZM264.494 110.474H245.829V115.474H264.494V110.474ZM243.329 112.974V123.393H248.329V112.974H243.329ZM245.829 125.893H266.092V120.893H245.829V125.893ZM263.592 123.393V131H268.592V123.393H263.592ZM266.092 128.5H236.603V133.5H266.092V128.5Z" fill="#DCDCDC" fill-opacity="0.5" mask="url(#path-1-outside-1_1021_412)"/>
</svg>
