<svg width="100" height="100" viewBox="0 0 100 100" fill="none" xmlns="http://www.w3.org/2000/svg">
<path fill-rule="evenodd" clip-rule="evenodd" d="M50 0C22.3858 0 0 22.3858 0 50C0 77.6142 22.3858 100 50 100C77.6142 100 100 77.6142 100 50C100 22.3858 77.6142 0 50 0ZM51.899 30.1824C49.3041 31.1269 47.9661 33.9961 48.9106 36.591C49.8551 39.1859 52.7243 40.5238 55.3192 39.5794L59.1997 38.167L51.0007 52.1671L42.849 46.1304C40.0228 44.0375 36.0107 44.813 34.168 47.8082L22.7421 66.3799C21.2951 68.7318 22.0287 71.8115 24.3807 73.2585C26.7326 74.7055 29.8123 73.9719 31.2593 71.6199L40.4009 56.761L48.6301 62.855C51.4981 64.9789 55.5748 64.1449 57.3783 61.0653L68.1505 42.6713L69.418 46.1538C70.3624 48.7487 73.2317 50.0866 75.8265 49.1422C78.4214 48.1977 79.7594 45.3285 78.8149 42.7336L73.3495 27.7175L73.3426 27.6985C72.3982 25.1036 69.5289 23.7657 66.9341 24.7101L51.899 30.1824Z" fill="#7BDB84"/>
</svg>
