<svg width="1280" height="1157" viewBox="0 0 1280 1157" fill="none" xmlns="http://www.w3.org/2000/svg">
<rect width="1280" height="1157" fill="white"/>
<g clip-path="url(#clip0_884_3316)">
<path d="M1280 300H0V845H1280V300Z" fill="white"/>
<path d="M759 540.5C759 493.832 796.832 456 843.5 456H1031.07C1077.74 456 1115.57 493.832 1115.57 540.5C1115.57 587.168 1077.74 625 1031.07 625H843.5C796.832 625 759 587.168 759 540.5Z" fill="#8CB0E6"/>
<path d="M232 539.707C232 492.925 269.925 455 316.707 455C363.489 455 401.414 492.925 401.414 539.707V669.293C401.414 716.075 363.489 754 316.707 754C269.925 754 232 716.075 232 669.293V539.707Z" fill="#FFE978"/>
<path d="M707 628C707 573.324 662.676 529 608 529C553.324 529 509 573.324 509 628C509 682.676 553.324 727 608 727C662.676 727 707 682.676 707 628Z" fill="#83BE7A"/>
<path d="M351.492 591.211H357.605L349.5 620H343.758L340.281 603.164L339.266 597.598L338.25 603.164L334.773 620H329.188L321.023 591.211H327.41L331.219 607.695L332.039 612.285L332.879 607.793L336.121 591.211H342.469L345.887 607.695L346.766 612.285L347.645 607.871L351.492 591.211ZM366.18 598.711V620H360.535V598.711H366.18ZM366.18 591.035V596.172H360.535V591.035H366.18ZM382.293 603.848C380.053 603.848 378.549 604.577 377.781 606.035C377.352 606.855 377.137 608.118 377.137 609.824V620H371.531V598.711H376.844V602.422C377.703 601.003 378.452 600.033 379.09 599.512C380.132 598.639 381.486 598.203 383.152 598.203C383.257 598.203 383.341 598.21 383.406 598.223C383.484 598.223 383.647 598.229 383.895 598.242V603.945C383.543 603.906 383.23 603.88 382.957 603.867C382.684 603.854 382.462 603.848 382.293 603.848ZM416.141 600.996C417.859 602.832 418.719 605.527 418.719 609.082C418.719 612.832 417.872 615.69 416.18 617.656C414.5 619.622 412.332 620.605 409.676 620.605C407.983 620.605 406.577 620.182 405.457 619.336C404.845 618.867 404.246 618.184 403.66 617.285V628.379H398.152V598.711H403.484V601.855C404.083 600.931 404.721 600.202 405.398 599.668C406.635 598.717 408.107 598.242 409.812 598.242C412.299 598.242 414.409 599.16 416.141 600.996ZM412.977 609.355C412.977 607.715 412.599 606.263 411.844 605C411.102 603.737 409.891 603.105 408.211 603.105C406.193 603.105 404.806 604.062 404.051 605.977C403.66 606.992 403.465 608.281 403.465 609.844C403.465 612.318 404.122 614.056 405.438 615.059C406.219 615.645 407.143 615.938 408.211 615.938C409.76 615.938 410.939 615.339 411.746 614.141C412.566 612.943 412.977 611.348 412.977 609.355ZM428.484 598.711V620H422.84V598.711H428.484ZM428.484 591.035V596.172H422.84V591.035H428.484ZM445.848 604.57C445.379 603.542 444.461 603.027 443.094 603.027C441.505 603.027 440.438 603.542 439.891 604.57C439.591 605.156 439.441 606.029 439.441 607.188V620H433.797V598.75H439.207V601.855C439.897 600.749 440.548 599.961 441.16 599.492C442.241 598.659 443.641 598.242 445.359 598.242C446.987 598.242 448.302 598.6 449.305 599.316C450.112 599.98 450.724 600.833 451.141 601.875C451.87 600.625 452.775 599.707 453.855 599.121C455.001 598.535 456.277 598.242 457.684 598.242C458.621 598.242 459.546 598.424 460.457 598.789C461.368 599.154 462.195 599.792 462.938 600.703C463.536 601.445 463.94 602.357 464.148 603.438C464.279 604.154 464.344 605.202 464.344 606.582L464.305 620H458.602V606.445C458.602 605.638 458.471 604.974 458.211 604.453C457.716 603.464 456.805 602.969 455.477 602.969C453.94 602.969 452.879 603.607 452.293 604.883C451.993 605.56 451.844 606.374 451.844 607.324V620H446.238V607.324C446.238 606.061 446.108 605.143 445.848 604.57ZM487.312 600.996C489.031 602.832 489.891 605.527 489.891 609.082C489.891 612.832 489.044 615.69 487.352 617.656C485.672 619.622 483.504 620.605 480.848 620.605C479.155 620.605 477.749 620.182 476.629 619.336C476.017 618.867 475.418 618.184 474.832 617.285V628.379H469.324V598.711H474.656V601.855C475.255 600.931 475.893 600.202 476.57 599.668C477.807 598.717 479.279 598.242 480.984 598.242C483.471 598.242 485.581 599.16 487.312 600.996ZM484.148 609.355C484.148 607.715 483.771 606.263 483.016 605C482.273 603.737 481.062 603.105 479.383 603.105C477.365 603.105 475.978 604.062 475.223 605.977C474.832 606.992 474.637 608.281 474.637 609.844C474.637 612.318 475.294 614.056 476.609 615.059C477.391 615.645 478.315 615.938 479.383 615.938C480.932 615.938 482.111 615.339 482.918 614.141C483.738 612.943 484.148 611.348 484.148 609.355ZM512.156 613.75C512.013 615.013 511.355 616.296 510.184 617.598C508.361 619.668 505.809 620.703 502.527 620.703C499.819 620.703 497.43 619.831 495.359 618.086C493.289 616.341 492.254 613.503 492.254 609.57C492.254 605.885 493.185 603.06 495.047 601.094C496.922 599.128 499.35 598.145 502.332 598.145C504.103 598.145 505.698 598.477 507.117 599.141C508.536 599.805 509.708 600.853 510.633 602.285C511.466 603.548 512.007 605.013 512.254 606.68C512.397 607.656 512.456 609.062 512.43 610.898H497.859C497.938 613.034 498.608 614.531 499.871 615.391C500.639 615.924 501.564 616.191 502.645 616.191C503.79 616.191 504.721 615.866 505.438 615.215C505.828 614.863 506.173 614.375 506.473 613.75H512.156ZM506.648 607.227C506.557 605.755 506.108 604.642 505.301 603.887C504.507 603.118 503.517 602.734 502.332 602.734C501.043 602.734 500.04 603.138 499.324 603.945C498.621 604.753 498.178 605.846 497.996 607.227H506.648ZM526.219 602.832C524.331 602.832 523.035 603.633 522.332 605.234C521.967 606.081 521.785 607.161 521.785 608.477V620H516.238V598.75H521.609V601.855C522.326 600.762 523.003 599.974 523.641 599.492C524.786 598.633 526.238 598.203 527.996 598.203C530.197 598.203 531.993 598.783 533.387 599.941C534.793 601.087 535.496 602.995 535.496 605.664V620H529.793V607.051C529.793 605.931 529.643 605.072 529.344 604.473C528.797 603.379 527.755 602.832 526.219 602.832ZM571.16 591.25V620H565.75V617.051C564.956 618.314 564.051 619.232 563.035 619.805C562.02 620.378 560.757 620.664 559.246 620.664C556.759 620.664 554.663 619.661 552.957 617.656C551.264 615.638 550.418 613.053 550.418 609.902C550.418 606.27 551.251 603.411 552.918 601.328C554.598 599.245 556.837 598.203 559.637 598.203C560.926 598.203 562.072 598.49 563.074 599.062C564.077 599.622 564.891 600.404 565.516 601.406V591.25H571.16ZM556.16 609.492C556.16 611.458 556.551 613.027 557.332 614.199C558.1 615.384 559.272 615.977 560.848 615.977C562.423 615.977 563.621 615.391 564.441 614.219C565.262 613.047 565.672 611.53 565.672 609.668C565.672 607.064 565.014 605.202 563.699 604.082C562.892 603.405 561.954 603.066 560.887 603.066C559.259 603.066 558.061 603.685 557.293 604.922C556.538 606.146 556.16 607.669 556.16 609.492ZM594.461 613.75C594.318 615.013 593.66 616.296 592.488 617.598C590.665 619.668 588.113 620.703 584.832 620.703C582.124 620.703 579.734 619.831 577.664 618.086C575.594 616.341 574.559 613.503 574.559 609.57C574.559 605.885 575.49 603.06 577.352 601.094C579.227 599.128 581.655 598.145 584.637 598.145C586.408 598.145 588.003 598.477 589.422 599.141C590.841 599.805 592.013 600.853 592.938 602.285C593.771 603.548 594.311 605.013 594.559 606.68C594.702 607.656 594.76 609.062 594.734 610.898H580.164C580.242 613.034 580.913 614.531 582.176 615.391C582.944 615.924 583.868 616.191 584.949 616.191C586.095 616.191 587.026 615.866 587.742 615.215C588.133 614.863 588.478 614.375 588.777 613.75H594.461ZM588.953 607.227C588.862 605.755 588.413 604.642 587.605 603.887C586.811 603.118 585.822 602.734 584.637 602.734C583.348 602.734 582.345 603.138 581.629 603.945C580.926 604.753 580.483 605.846 580.301 607.227H588.953ZM604.227 598.711V620H598.582V598.711H604.227ZM604.227 591.035V596.172H598.582V591.035H604.227ZM619.656 602.832C617.768 602.832 616.473 603.633 615.77 605.234C615.405 606.081 615.223 607.161 615.223 608.477V620H609.676V598.75H615.047V601.855C615.763 600.762 616.44 599.974 617.078 599.492C618.224 598.633 619.676 598.203 621.434 598.203C623.634 598.203 625.431 598.783 626.824 599.941C628.23 601.087 628.934 602.995 628.934 605.664V620H623.23V607.051C623.23 605.931 623.081 605.072 622.781 604.473C622.234 603.379 621.193 602.832 619.656 602.832ZM652.312 613.75C652.169 615.013 651.512 616.296 650.34 617.598C648.517 619.668 645.965 620.703 642.684 620.703C639.975 620.703 637.586 619.831 635.516 618.086C633.445 616.341 632.41 613.503 632.41 609.57C632.41 605.885 633.341 603.06 635.203 601.094C637.078 599.128 639.507 598.145 642.488 598.145C644.259 598.145 645.854 598.477 647.273 599.141C648.693 599.805 649.865 600.853 650.789 602.285C651.622 603.548 652.163 605.013 652.41 606.68C652.553 607.656 652.612 609.062 652.586 610.898H638.016C638.094 613.034 638.764 614.531 640.027 615.391C640.796 615.924 641.72 616.191 642.801 616.191C643.947 616.191 644.878 615.866 645.594 615.215C645.984 614.863 646.329 614.375 646.629 613.75H652.312ZM646.805 607.227C646.714 605.755 646.264 604.642 645.457 603.887C644.663 603.118 643.673 602.734 642.488 602.734C641.199 602.734 640.197 603.138 639.48 603.945C638.777 604.753 638.335 605.846 638.152 607.227H646.805ZM685.242 601.406C687.039 603.659 687.938 606.322 687.938 609.395C687.938 612.52 687.039 615.195 685.242 617.422C683.445 619.635 680.717 620.742 677.059 620.742C673.4 620.742 670.672 619.635 668.875 617.422C667.078 615.195 666.18 612.52 666.18 609.395C666.18 606.322 667.078 603.659 668.875 601.406C670.672 599.154 673.4 598.027 677.059 598.027C680.717 598.027 683.445 599.154 685.242 601.406ZM677.039 602.734C675.411 602.734 674.155 603.314 673.27 604.473C672.397 605.618 671.961 607.259 671.961 609.395C671.961 611.53 672.397 613.177 673.27 614.336C674.155 615.495 675.411 616.074 677.039 616.074C678.667 616.074 679.917 615.495 680.789 614.336C681.661 613.177 682.098 611.53 682.098 609.395C682.098 607.259 681.661 605.618 680.789 604.473C679.917 603.314 678.667 602.734 677.039 602.734ZM701.961 602.832C700.073 602.832 698.777 603.633 698.074 605.234C697.71 606.081 697.527 607.161 697.527 608.477V620H691.98V598.75H697.352V601.855C698.068 600.762 698.745 599.974 699.383 599.492C700.529 598.633 701.98 598.203 703.738 598.203C705.939 598.203 707.736 598.783 709.129 599.941C710.535 601.087 711.238 602.995 711.238 605.664V620H705.535V607.051C705.535 605.931 705.385 605.072 705.086 604.473C704.539 603.379 703.497 602.832 701.961 602.832ZM716.512 591.211H722.078V620H716.512V591.211ZM733.25 598.711V620H727.605V598.711H733.25ZM733.25 591.035V596.172H727.605V591.035H733.25ZM748.68 602.832C746.792 602.832 745.496 603.633 744.793 605.234C744.428 606.081 744.246 607.161 744.246 608.477V620H738.699V598.75H744.07V601.855C744.786 600.762 745.464 599.974 746.102 599.492C747.247 598.633 748.699 598.203 750.457 598.203C752.658 598.203 754.454 598.783 755.848 599.941C757.254 601.087 757.957 602.995 757.957 605.664V620H752.254V607.051C752.254 605.931 752.104 605.072 751.805 604.473C751.258 603.379 750.216 602.832 748.68 602.832ZM781.336 613.75C781.193 615.013 780.535 616.296 779.363 617.598C777.54 619.668 774.988 620.703 771.707 620.703C768.999 620.703 766.609 619.831 764.539 618.086C762.469 616.341 761.434 613.503 761.434 609.57C761.434 605.885 762.365 603.06 764.227 601.094C766.102 599.128 768.53 598.145 771.512 598.145C773.283 598.145 774.878 598.477 776.297 599.141C777.716 599.805 778.888 600.853 779.812 602.285C780.646 603.548 781.186 605.013 781.434 606.68C781.577 607.656 781.635 609.062 781.609 610.898H767.039C767.117 613.034 767.788 614.531 769.051 615.391C769.819 615.924 770.743 616.191 771.824 616.191C772.97 616.191 773.901 615.866 774.617 615.215C775.008 614.863 775.353 614.375 775.652 613.75H781.336ZM775.828 607.227C775.737 605.755 775.288 604.642 774.48 603.887C773.686 603.118 772.697 602.734 771.512 602.734C770.223 602.734 769.22 603.138 768.504 603.945C767.801 604.753 767.358 605.846 767.176 607.227H775.828ZM809.188 609.648H803.074V620H797.098V591.211H809.637C812.527 591.211 814.832 591.953 816.551 593.438C818.27 594.922 819.129 597.22 819.129 600.332C819.129 603.73 818.27 606.133 816.551 607.539C814.832 608.945 812.378 609.648 809.188 609.648ZM812 603.652C812.781 602.962 813.172 601.868 813.172 600.371C813.172 598.874 812.775 597.806 811.98 597.168C811.199 596.53 810.099 596.211 808.68 596.211H803.074V604.688H808.68C810.099 604.688 811.206 604.342 812 603.652ZM833.895 603.848C831.655 603.848 830.151 604.577 829.383 606.035C828.953 606.855 828.738 608.118 828.738 609.824V620H823.133V598.711H828.445V602.422C829.305 601.003 830.053 600.033 830.691 599.512C831.733 598.639 833.087 598.203 834.754 598.203C834.858 598.203 834.943 598.21 835.008 598.223C835.086 598.223 835.249 598.229 835.496 598.242V603.945C835.145 603.906 834.832 603.88 834.559 603.867C834.285 603.854 834.064 603.848 833.895 603.848ZM839.578 601.016C841.049 599.141 843.576 598.203 847.156 598.203C849.487 598.203 851.557 598.665 853.367 599.59C855.177 600.514 856.082 602.259 856.082 604.824V614.59C856.082 615.267 856.095 616.087 856.121 617.051C856.16 617.78 856.271 618.275 856.453 618.535C856.635 618.796 856.909 619.01 857.273 619.18V620H851.219C851.049 619.57 850.932 619.167 850.867 618.789C850.802 618.411 850.75 617.982 850.711 617.5C849.943 618.333 849.057 619.043 848.055 619.629C846.857 620.319 845.503 620.664 843.992 620.664C842.065 620.664 840.47 620.117 839.207 619.023C837.957 617.917 837.332 616.354 837.332 614.336C837.332 611.719 838.341 609.824 840.359 608.652C841.466 608.014 843.094 607.559 845.242 607.285L847.137 607.051C848.165 606.921 848.901 606.758 849.344 606.562C850.138 606.224 850.535 605.697 850.535 604.98C850.535 604.108 850.229 603.509 849.617 603.184C849.018 602.845 848.133 602.676 846.961 602.676C845.646 602.676 844.715 603.001 844.168 603.652C843.777 604.134 843.517 604.785 843.387 605.605H838.016C838.133 603.743 838.654 602.214 839.578 601.016ZM843.719 615.977C844.24 616.406 844.878 616.621 845.633 616.621C846.831 616.621 847.931 616.27 848.934 615.566C849.949 614.863 850.477 613.581 850.516 611.719V609.648C850.164 609.87 849.806 610.052 849.441 610.195C849.09 610.326 848.602 610.449 847.977 610.566L846.727 610.801C845.555 611.009 844.715 611.263 844.207 611.562C843.348 612.07 842.918 612.858 842.918 613.926C842.918 614.876 843.185 615.56 843.719 615.977ZM848.777 590.84H853.875V595.469H848.777V590.84ZM840.965 590.84H846.062V595.469H840.965V590.84ZM875.711 599.688C877.378 600.755 878.335 602.591 878.582 605.195H873.016C872.938 604.479 872.736 603.913 872.41 603.496C871.798 602.741 870.757 602.363 869.285 602.363C868.074 602.363 867.208 602.552 866.688 602.93C866.18 603.307 865.926 603.75 865.926 604.258C865.926 604.896 866.199 605.358 866.746 605.645C867.293 605.944 869.227 606.458 872.547 607.188C874.76 607.708 876.421 608.496 877.527 609.551C878.621 610.618 879.168 611.953 879.168 613.555C879.168 615.664 878.38 617.389 876.805 618.73C875.242 620.059 872.82 620.723 869.539 620.723C866.193 620.723 863.719 620.02 862.117 618.613C860.529 617.194 859.734 615.391 859.734 613.203H865.379C865.496 614.193 865.75 614.896 866.141 615.312C866.831 616.055 868.107 616.426 869.969 616.426C871.062 616.426 871.928 616.263 872.566 615.938C873.217 615.612 873.543 615.124 873.543 614.473C873.543 613.848 873.283 613.372 872.762 613.047C872.241 612.721 870.307 612.161 866.961 611.367C864.552 610.768 862.853 610.02 861.863 609.121C860.874 608.236 860.379 606.96 860.379 605.293C860.379 603.327 861.147 601.641 862.684 600.234C864.233 598.815 866.408 598.105 869.207 598.105C871.863 598.105 874.031 598.633 875.711 599.688ZM901.531 613.75C901.388 615.013 900.73 616.296 899.559 617.598C897.736 619.668 895.184 620.703 891.902 620.703C889.194 620.703 886.805 619.831 884.734 618.086C882.664 616.341 881.629 613.503 881.629 609.57C881.629 605.885 882.56 603.06 884.422 601.094C886.297 599.128 888.725 598.145 891.707 598.145C893.478 598.145 895.073 598.477 896.492 599.141C897.911 599.805 899.083 600.853 900.008 602.285C900.841 603.548 901.382 605.013 901.629 606.68C901.772 607.656 901.831 609.062 901.805 610.898H887.234C887.312 613.034 887.983 614.531 889.246 615.391C890.014 615.924 890.939 616.191 892.02 616.191C893.165 616.191 894.096 615.866 894.812 615.215C895.203 614.863 895.548 614.375 895.848 613.75H901.531ZM896.023 607.227C895.932 605.755 895.483 604.642 894.676 603.887C893.882 603.118 892.892 602.734 891.707 602.734C890.418 602.734 889.415 603.138 888.699 603.945C887.996 604.753 887.553 605.846 887.371 607.227H896.023ZM915.594 602.832C913.706 602.832 912.41 603.633 911.707 605.234C911.342 606.081 911.16 607.161 911.16 608.477V620H905.613V598.75H910.984V601.855C911.701 600.762 912.378 599.974 913.016 599.492C914.161 598.633 915.613 598.203 917.371 598.203C919.572 598.203 921.368 598.783 922.762 599.941C924.168 601.087 924.871 602.995 924.871 605.664V620H919.168V607.051C919.168 605.931 919.018 605.072 918.719 604.473C918.172 603.379 917.13 602.832 915.594 602.832ZM946.453 620H928.074V615.664L938.992 603.242H928.816V598.711H946.082V603.34L935.281 615.43H946.453V620ZM949.93 614.18H955.848V620H949.93V614.18Z" fill="black"/>
<path d="M390.117 493.422H402.344L386.133 551H374.648L367.695 517.328L365.664 506.195L363.633 517.328L356.68 551H345.508L329.18 493.422H341.953L349.57 526.391L351.211 535.57L352.891 526.586L359.375 493.422H372.07L378.906 526.391L380.664 535.57L382.422 526.742L390.117 493.422ZM419.492 508.422V551H408.203V508.422H419.492ZM419.492 493.07V503.344H408.203V493.07H419.492ZM451.719 518.695C447.24 518.695 444.232 520.154 442.695 523.07C441.836 524.711 441.406 527.237 441.406 530.648V551H430.195V508.422H440.82V515.844C442.539 513.005 444.036 511.065 445.312 510.023C447.396 508.279 450.104 507.406 453.438 507.406C453.646 507.406 453.815 507.419 453.945 507.445C454.102 507.445 454.427 507.458 454.922 507.484V518.891C454.219 518.812 453.594 518.76 453.047 518.734C452.5 518.708 452.057 518.695 451.719 518.695ZM505.547 542.68C508.385 542.68 510.69 542.367 512.461 541.742C515.82 540.544 517.5 538.318 517.5 535.062C517.5 533.161 516.667 531.69 515 530.648C513.333 529.633 510.716 528.734 507.148 527.953L501.055 526.586C495.065 525.232 490.924 523.76 488.633 522.172C484.753 519.516 482.812 515.362 482.812 509.711C482.812 504.555 484.688 500.271 488.438 496.859C492.188 493.448 497.695 491.742 504.961 491.742C511.029 491.742 516.198 493.357 520.469 496.586C524.766 499.789 527.018 504.451 527.227 510.57H515.664C515.456 507.107 513.945 504.646 511.133 503.188C509.258 502.224 506.927 501.742 504.141 501.742C501.042 501.742 498.568 502.367 496.719 503.617C494.87 504.867 493.945 506.612 493.945 508.852C493.945 510.909 494.857 512.445 496.68 513.461C497.852 514.138 500.352 514.932 504.18 515.844L514.102 518.227C518.451 519.268 521.732 520.661 523.945 522.406C527.383 525.115 529.102 529.034 529.102 534.164C529.102 539.424 527.083 543.799 523.047 547.289C519.036 550.753 513.359 552.484 506.016 552.484C498.516 552.484 492.617 550.779 488.32 547.367C484.023 543.93 481.875 539.216 481.875 533.227H493.359C493.724 535.857 494.44 537.823 495.508 539.125C497.461 541.495 500.807 542.68 505.547 542.68ZM548.555 508.422V551H537.266V508.422H548.555ZM548.555 493.07V503.344H537.266V493.07H548.555ZM579.414 516.664C575.638 516.664 573.047 518.266 571.641 521.469C570.911 523.161 570.547 525.323 570.547 527.953V551H559.453V508.5H570.195V514.711C571.628 512.523 572.982 510.948 574.258 509.984C576.549 508.266 579.453 507.406 582.969 507.406C587.37 507.406 590.964 508.565 593.75 510.883C596.562 513.174 597.969 516.99 597.969 522.328V551H586.562V525.102C586.562 522.862 586.263 521.143 585.664 519.945C584.57 517.758 582.487 516.664 579.414 516.664ZM647.031 493.5V551H636.211V545.102C634.622 547.628 632.812 549.464 630.781 550.609C628.75 551.755 626.224 552.328 623.203 552.328C618.229 552.328 614.036 550.323 610.625 546.312C607.24 542.276 605.547 537.107 605.547 530.805C605.547 523.539 607.214 517.823 610.547 513.656C613.906 509.49 618.385 507.406 623.984 507.406C626.562 507.406 628.854 507.979 630.859 509.125C632.865 510.245 634.492 511.807 635.742 513.812V493.5H647.031ZM617.031 529.984C617.031 533.917 617.812 537.055 619.375 539.398C620.911 541.768 623.255 542.953 626.406 542.953C629.557 542.953 631.953 541.781 633.594 539.438C635.234 537.094 636.055 534.06 636.055 530.336C636.055 525.128 634.74 521.404 632.109 519.164C630.495 517.81 628.62 517.133 626.484 517.133C623.229 517.133 620.833 518.37 619.297 520.844C617.786 523.292 617.031 526.339 617.031 529.984Z" fill="black"/>
<path d="M951.695 508.227L948.531 535.102H942.711L939.469 508.227V493.617H951.695V508.227ZM951.383 539.711V551H939.742V539.711H951.383Z" fill="black"/>
<mask id="mask0_884_3316" style="mask-type:luminance" maskUnits="userSpaceOnUse" x="680" y="492" width="242" height="82">
<path d="M922 492H680V573.237H922V492Z" fill="white"/>
</mask>
<g mask="url(#mask0_884_3316)">
<path fill-rule="evenodd" clip-rule="evenodd" d="M748.124 554.931C743.87 554.931 740.013 553.995 736.553 552.123C733.149 550.195 730.455 547.585 728.47 544.295C726.484 541.005 725.492 537.318 725.492 533.234C725.492 529.15 726.484 525.492 728.47 522.258C730.455 519.025 733.149 516.473 736.553 514.601C739.956 512.672 743.813 511.708 748.124 511.708C752.435 511.708 756.293 512.644 759.696 514.516C763.099 516.387 765.793 518.968 767.779 522.258C769.764 525.492 770.757 529.15 770.757 533.234C770.757 537.318 769.764 541.005 767.779 544.295C765.793 547.585 763.099 550.195 759.696 552.123C756.293 553.995 752.435 554.931 748.124 554.931ZM748.124 543.104C749.996 543.104 751.641 542.707 753.059 541.913C754.477 541.062 755.555 539.899 756.293 538.424C757.087 536.893 757.484 535.163 757.484 533.234C757.484 531.306 757.087 529.632 756.293 528.214C755.498 526.739 754.392 525.605 752.974 524.811C751.613 523.96 749.996 523.535 748.124 523.535C746.309 523.535 744.692 523.96 743.275 524.811C741.856 525.605 740.75 526.739 739.956 528.214C739.162 529.689 738.765 531.391 738.765 533.319C738.765 535.191 739.162 536.893 739.956 538.424C740.75 539.899 741.856 541.062 743.275 541.913C744.692 542.707 746.309 543.104 748.124 543.104ZM809.644 553.995V492.223H822.662V553.995H809.644ZM850.207 554.931C846.407 554.931 843.031 554.165 840.081 552.634C837.189 551.045 834.92 548.89 833.275 546.167C831.63 543.387 830.807 540.211 830.807 536.638V512.644H843.825V536.468C843.825 537.886 844.052 539.105 844.506 540.126C845.016 541.147 845.754 541.941 846.718 542.508C847.683 543.076 848.845 543.359 850.207 543.359C852.136 543.359 853.667 542.764 854.801 541.572C855.936 540.325 856.503 538.623 856.503 536.468V512.644H869.521V536.553C869.521 540.183 868.699 543.387 867.053 546.167C865.409 548.89 863.139 551.045 860.247 552.634C857.354 554.165 854.007 554.931 850.207 554.931ZM901.518 554.846C898.739 554.846 896.186 554.307 893.861 553.229C892.637 552.662 891.531 551.985 890.543 551.198V571.438H877.695V512.644H890.713V515.498C891.657 514.725 892.706 514.058 893.861 513.495C896.186 512.36 898.739 511.793 901.518 511.793C905.432 511.793 908.893 512.729 911.899 514.601C914.962 516.473 917.344 519.025 919.046 522.258C920.805 525.492 921.684 529.179 921.684 533.319C921.684 537.461 920.805 541.147 919.046 544.38C917.344 547.614 914.962 550.166 911.899 552.038C908.893 553.91 905.432 554.846 901.518 554.846ZM899.136 543.104C901.008 543.104 902.624 542.679 903.986 541.828C905.404 540.977 906.51 539.814 907.304 538.339C908.098 536.865 908.496 535.191 908.496 533.319C908.496 531.391 908.098 529.689 907.304 528.214C906.51 526.739 905.404 525.605 903.986 524.811C902.624 523.96 901.036 523.535 899.221 523.535C897.406 523.535 895.79 523.96 894.371 524.811C893.01 525.605 891.932 526.739 891.138 528.214C890.344 529.689 889.947 531.391 889.947 533.319C889.947 535.191 890.315 536.865 891.053 538.339C891.847 539.814 892.953 540.977 894.371 541.828C895.79 542.679 897.377 543.104 899.136 543.104ZM693.358 528.989V553.749H680V493.679H690.21H693.358H704.504C708.475 493.679 711.964 494.445 714.97 495.976C717.976 497.451 720.33 499.522 722.032 502.188C723.734 504.853 724.585 507.917 724.585 511.377C724.585 514.894 723.734 517.985 722.032 520.651C720.33 523.26 717.948 525.302 714.885 526.777C713.176 527.6 711.3 528.193 709.255 528.557L728.475 553.719H728.476C729.997 555.44 731.467 556.448 732.938 557.456L733.988 558.044C734.995 558.548 735.655 558.786 736.479 559.083C736.687 559.158 736.906 559.237 737.143 559.325C739.779 560.3 742.58 560.804 745.391 560.804H747.972C754.664 560.804 761.2 558.784 766.726 555.009C769.605 553.043 772.156 550.636 774.287 547.877L776.051 545.592C777.682 543.48 779.146 541.243 780.431 538.904L784.487 531.516L788.744 523.277L781.335 527.384C779.683 528.299 777.588 527.679 776.672 526.027C775.756 524.375 776.34 522.269 777.993 521.353L795.504 511.647L795.505 511.649L795.514 511.644L805.221 529.155C806.137 530.807 805.516 532.902 803.864 533.818C802.212 534.734 800.106 534.15 799.19 532.498L795.092 525.106L792.611 533.653L788.851 543.31C787.973 545.565 786.923 547.748 785.711 549.843L785.532 550.153C780.948 558.072 774.114 564.45 765.898 568.476L764.825 569.002C759.747 571.49 754.204 572.887 748.554 573.104L747.909 573.128C739.364 573.456 730.952 570.937 723.993 565.968C720.591 563.539 718.267 561.234 715.155 557.187L712.913 554.091L712.675 553.749H712.673L694.754 528.989H693.358ZM693.358 519.119H702.888C705.554 519.119 707.596 518.439 709.014 517.077C710.489 515.716 711.226 513.873 711.226 511.547C711.226 509.391 710.517 507.605 709.099 506.187C707.681 504.768 705.639 504.059 702.973 504.059H693.358V519.119Z" fill="black"/>
</g>
</g>
<defs>
<clipPath id="clip0_884_3316">
<rect width="1280" height="545" fill="white" transform="translate(0 300)"/>
</clipPath>
</defs>
</svg>
